<svg width="512" height="512" viewBox="0 0 512 512" fill="none" xmlns="http://www.w3.org/2000/svg">
<g filter="url(#filter0_ii_3_202)">
<path d="M359.899 312.245C356.808 317.512 349.192 317.512 346.101 312.245L328.198 281.743C327.228 280.09 325.697 278.841 323.883 278.222L307.672 272.688C298.589 269.587 301.669 256.04 311.2 257.172L352.056 262.025C352.683 262.1 353.317 262.1 353.944 262.025L394.8 257.172C404.331 256.04 407.411 269.587 398.328 272.688L382.117 278.222C380.303 278.841 378.772 280.09 377.802 281.743L359.899 312.245Z" fill="#7A4D40"/>
</g>
<path d="M357.312 310.726C355.38 314.018 350.62 314.018 348.688 310.726L330.785 280.225C329.452 277.952 327.346 276.234 324.852 275.382L308.641 269.848C302.964 267.91 304.89 259.444 310.846 260.151L351.702 265.004C352.564 265.107 353.436 265.107 354.298 265.004L395.154 260.151C401.11 259.444 403.036 267.91 397.359 269.848L381.148 275.382C378.654 276.234 376.548 277.952 375.215 280.225L357.312 310.726Z" stroke="#101010" stroke-width="6"/>
<g filter="url(#filter1_ii_3_202)">
<path d="M348 266H358V313C358 313.552 357.552 314 357 314H349C348.448 314 348 313.552 348 313V266Z" fill="#7A4D40"/>
</g>
<path d="M348 263H345V266V313C345 315.209 346.791 317 349 317H357C359.209 317 361 315.209 361 313V266V263H358H348Z" stroke="#101010" stroke-width="6"/>
<g filter="url(#filter2_ii_3_202)">
<path d="M162.899 312.245C159.808 317.512 152.192 317.512 149.101 312.245L131.198 281.743C130.228 280.09 128.697 278.841 126.883 278.222L110.672 272.688C101.589 269.587 104.669 256.04 114.2 257.172L155.056 262.025C155.683 262.1 156.317 262.1 156.944 262.025L197.8 257.172C207.331 256.04 210.411 269.587 201.328 272.688L185.117 278.222C183.303 278.841 181.772 280.09 180.802 281.743L162.899 312.245Z" fill="#7A4D40"/>
</g>
<path d="M160.312 310.726C158.38 314.018 153.62 314.018 151.688 310.726L133.785 280.225C132.452 277.952 130.346 276.234 127.852 275.382L111.641 269.848C105.964 267.91 107.89 259.444 113.846 260.151L154.702 265.004C155.564 265.107 156.436 265.107 157.298 265.004L198.154 260.151C204.11 259.444 206.036 267.91 200.359 269.848L184.148 275.382C181.654 276.234 179.548 277.952 178.215 280.225L160.312 310.726Z" stroke="#101010" stroke-width="6"/>
<g filter="url(#filter3_ii_3_202)">
<path d="M151 266H161V313C161 313.552 160.552 314 160 314H152C151.448 314 151 313.552 151 313V266Z" fill="#7A4D40"/>
</g>
<path d="M151 263H148V266V313C148 315.209 149.791 317 152 317H160C162.209 317 164 315.209 164 313V266V263H161H151Z" stroke="#101010" stroke-width="6"/>
<g filter="url(#filter4_ii_3_202)">
<rect x="63" y="243" width="384" height="16" rx="1" fill="#7A4D40"/>
</g>
<rect x="60" y="240" width="390" height="22" rx="4" stroke="#101010" stroke-width="6"/>
<g filter="url(#filter5_ii_3_202)">
<path d="M143 120C143 119.448 143.448 119 144 119H171V237H143V120Z" fill="#66AA66"/>
</g>
<path d="M173 119V117H171H144C142.343 117 141 118.343 141 120V237V239H143H171H173V237V119Z" stroke="#101010" stroke-width="4"/>
<g filter="url(#filter6_ii_3_202)">
<rect x="143" y="212" width="28" height="13" fill="#EEEE88"/>
</g>
<line x1="143" y1="227" x2="171" y2="227" stroke="#101010" stroke-width="4"/>
<path d="M147 219H167" stroke="#101010" stroke-width="4" stroke-linecap="round"/>
<line x1="143" y1="210" x2="171" y2="210" stroke="#101010" stroke-width="4"/>
<g filter="url(#filter7_ii_3_202)">
<rect x="143" y="130" width="28" height="13" fill="#EEEE88"/>
</g>
<path d="M147 137H167" stroke="#101010" stroke-width="4" stroke-linecap="round"/>
<line x1="143" y1="145" x2="171" y2="145" stroke="#101010" stroke-width="4"/>
<line x1="143" y1="128" x2="171" y2="128" stroke="#101010" stroke-width="4"/>
<path d="M155.586 165.243C156.367 164.462 157.633 164.462 158.414 165.243L166.757 173.586C167.538 174.367 167.538 175.633 166.757 176.414L158.414 184.757C157.633 185.538 156.367 185.538 155.586 184.757L147.243 176.414C146.462 175.633 146.462 174.367 147.243 173.586L155.586 165.243Z" fill="#EEEE88" stroke="#101010" stroke-width="4"/>
<circle cx="157" cy="198" r="4" fill="#101010"/>
<g filter="url(#filter8_ii_3_202)">
<path d="M239 110C239 109.448 239.448 109 240 109H270C270.552 109 271 109.448 271 110V237H239V110Z" fill="#66AA66"/>
</g>
<path d="M271 239H273V237V110C273 108.343 271.657 107 270 107H240C238.343 107 237 108.343 237 110V237V239H239H271Z" stroke="#101010" stroke-width="4"/>
<g filter="url(#filter9_ii_3_202)">
<rect x="239" y="205" width="32" height="24" fill="#EEEE88"/>
</g>
<path d="M253.586 208.243C254.367 207.462 255.633 207.462 256.414 208.243L263.757 215.586C264.538 216.367 264.538 217.633 263.757 218.414L256.414 225.757C255.633 226.538 254.367 226.538 253.586 225.757L246.243 218.414C245.462 217.633 245.462 216.367 246.243 215.586L253.586 208.243Z" fill="#EEEE88" stroke="#101010" stroke-width="4"/>
<line x1="239" y1="231" x2="271" y2="231" stroke="#101010" stroke-width="4"/>
<line x1="239" y1="203" x2="271" y2="203" stroke="#101010" stroke-width="4"/>
<g filter="url(#filter10_ii_3_202)">
<rect x="239" y="119" width="32" height="24" fill="#EEEE88"/>
</g>
<path d="M253.586 122.243C254.367 121.462 255.633 121.462 256.414 122.243L263.757 129.586C264.538 130.367 264.538 131.633 263.757 132.414L256.414 139.757C255.633 140.538 254.367 140.538 253.586 139.757L246.243 132.414C245.462 131.633 245.462 130.367 246.243 129.586L253.586 122.243Z" fill="#EEEE88" stroke="#101010" stroke-width="4"/>
<line x1="239" y1="145" x2="271" y2="145" stroke="#101010" stroke-width="4"/>
<line x1="239" y1="117" x2="271" y2="117" stroke="#101010" stroke-width="4"/>
<path d="M253.586 159.243C254.367 158.462 255.633 158.462 256.414 159.243L264.757 167.586C265.538 168.367 265.538 169.633 264.757 170.414L256.414 178.757C255.633 179.538 254.367 179.538 253.586 178.757L245.243 170.414C244.462 169.633 244.462 168.367 245.243 167.586L253.586 159.243Z" fill="#EEEE88" stroke="#101010" stroke-width="4"/>
<circle cx="255" cy="192" r="4" fill="#101010"/>
<g filter="url(#filter11_ii_3_202)">
<path d="M175 119H203V237H175V119Z" fill="#66AA66"/>
</g>
<path d="M175 117H173V119V237V239H175H203H205V237V119V117H203H175Z" stroke="#101010" stroke-width="4"/>
<g filter="url(#filter12_ii_3_202)">
<path d="M175 212H203V225H175V212Z" fill="#EEEE88"/>
</g>
<line x1="175" y1="227" x2="203" y2="227" stroke="#101010" stroke-width="4"/>
<path d="M179 219H199" stroke="#101010" stroke-width="4" stroke-linecap="round"/>
<line x1="175" y1="210" x2="203" y2="210" stroke="#101010" stroke-width="4"/>
<g filter="url(#filter13_ii_3_202)">
<path d="M175 130H203V143H175V130Z" fill="#EEEE88"/>
</g>
<path d="M179 137H199" stroke="#101010" stroke-width="4" stroke-linecap="round"/>
<line x1="175" y1="145" x2="203" y2="145" stroke="#101010" stroke-width="4"/>
<line x1="175" y1="128" x2="203" y2="128" stroke="#101010" stroke-width="4"/>
<path d="M187.586 165.243C188.367 164.462 189.633 164.462 190.414 165.243L198.757 173.586C199.538 174.367 199.538 175.633 198.757 176.414L190.414 184.757C189.633 185.538 188.367 185.538 187.586 184.757L179.243 176.414C178.462 175.633 178.462 174.367 179.243 173.586L187.586 165.243Z" fill="#EEEE88" stroke="#101010" stroke-width="4"/>
<circle cx="189" cy="198" r="4" fill="#101010"/>
<g filter="url(#filter14_ii_3_202)">
<path d="M207 119H235V237H207V119Z" fill="#66AA66"/>
</g>
<path d="M207 117H205V119V237V239H207H235H237V237V119V117H235H207Z" stroke="#101010" stroke-width="4"/>
<g filter="url(#filter15_ii_3_202)">
<path d="M207 212H235V225H207V212Z" fill="#EEEE88"/>
</g>
<line x1="207" y1="227" x2="235" y2="227" stroke="#101010" stroke-width="4"/>
<path d="M211 219H231" stroke="#101010" stroke-width="4" stroke-linecap="round"/>
<line x1="207" y1="210" x2="235" y2="210" stroke="#101010" stroke-width="4"/>
<g filter="url(#filter16_ii_3_202)">
<path d="M207 130H235V143H207V130Z" fill="#EEEE88"/>
</g>
<path d="M211 137H231" stroke="#101010" stroke-width="4" stroke-linecap="round"/>
<line x1="207" y1="145" x2="235" y2="145" stroke="#101010" stroke-width="4"/>
<line x1="207" y1="128" x2="235" y2="128" stroke="#101010" stroke-width="4"/>
<path d="M219.586 165.243C220.367 164.462 221.633 164.462 222.414 165.243L230.757 173.586C231.538 174.367 231.538 175.633 230.757 176.414L222.414 184.757C221.633 185.538 220.367 185.538 219.586 184.757L211.243 176.414C210.462 175.633 210.462 174.367 211.243 173.586L219.586 165.243Z" fill="#EEEE88" stroke="#101010" stroke-width="4"/>
<circle cx="221" cy="198" r="4" fill="#101010"/>
<g filter="url(#filter17_ii_3_202)">
<path d="M275 119H303V237H275V119Z" fill="#66AA66"/>
</g>
<path d="M275 117H273V119V237V239H275H303H305V237V119V117H303H275Z" stroke="#101010" stroke-width="4"/>
<g filter="url(#filter18_ii_3_202)">
<path d="M275 212H303V225H275V212Z" fill="#EEEE88"/>
</g>
<line x1="275" y1="227" x2="303" y2="227" stroke="#101010" stroke-width="4"/>
<path d="M279 219H299" stroke="#101010" stroke-width="4" stroke-linecap="round"/>
<line x1="275" y1="210" x2="303" y2="210" stroke="#101010" stroke-width="4"/>
<g filter="url(#filter19_ii_3_202)">
<path d="M275 130H303V143H275V130Z" fill="#EEEE88"/>
</g>
<path d="M279 137H299" stroke="#101010" stroke-width="4" stroke-linecap="round"/>
<line x1="275" y1="145" x2="303" y2="145" stroke="#101010" stroke-width="4"/>
<line x1="275" y1="128" x2="303" y2="128" stroke="#101010" stroke-width="4"/>
<path d="M287.586 165.243C288.367 164.462 289.633 164.462 290.414 165.243L298.757 173.586C299.538 174.367 299.538 175.633 298.757 176.414L290.414 184.757C289.633 185.538 288.367 185.538 287.586 184.757L279.243 176.414C278.462 175.633 278.462 174.367 279.243 173.586L287.586 165.243Z" fill="#EEEE88" stroke="#101010" stroke-width="4"/>
<circle cx="289" cy="198" r="4" fill="#101010"/>
<g filter="url(#filter20_ii_3_202)">
<path d="M307 119H335V237H307V119Z" fill="#66AA66"/>
</g>
<path d="M307 117H305V119V237V239H307H335H337V237V119V117H335H307Z" stroke="#101010" stroke-width="4"/>
<g filter="url(#filter21_ii_3_202)">
<path d="M307 212H335V225H307V212Z" fill="#EEEE88"/>
</g>
<line x1="307" y1="227" x2="335" y2="227" stroke="#101010" stroke-width="4"/>
<path d="M311 219H331" stroke="#101010" stroke-width="4" stroke-linecap="round"/>
<line x1="307" y1="210" x2="335" y2="210" stroke="#101010" stroke-width="4"/>
<g filter="url(#filter22_ii_3_202)">
<path d="M307 130H335V143H307V130Z" fill="#EEEE88"/>
</g>
<path d="M311 137H331" stroke="#101010" stroke-width="4" stroke-linecap="round"/>
<line x1="307" y1="145" x2="335" y2="145" stroke="#101010" stroke-width="4"/>
<line x1="307" y1="128" x2="335" y2="128" stroke="#101010" stroke-width="4"/>
<path d="M319.586 165.243C320.367 164.462 321.633 164.462 322.414 165.243L330.757 173.586C331.538 174.367 331.538 175.633 330.757 176.414L322.414 184.757C321.633 185.538 320.367 185.538 319.586 184.757L311.243 176.414C310.462 175.633 310.462 174.367 311.243 173.586L319.586 165.243Z" fill="#EEEE88" stroke="#101010" stroke-width="4"/>
<circle cx="321" cy="198" r="4" fill="#101010"/>
<g filter="url(#filter23_ii_3_202)">
<path d="M339 119H366C366.552 119 367 119.448 367 120V237H339V119Z" fill="#66AA66"/>
</g>
<path d="M339 117H337V119V237V239H339H367H369V237V120C369 118.343 367.657 117 366 117H339Z" stroke="#101010" stroke-width="4"/>
<g filter="url(#filter24_ii_3_202)">
<path d="M339 212H366C366.552 212 367 212.448 367 213V225H339V212Z" fill="#EEEE88"/>
</g>
<line x1="339" y1="227" x2="367" y2="227" stroke="#101010" stroke-width="4"/>
<path d="M343 219H363" stroke="#101010" stroke-width="4" stroke-linecap="round"/>
<line x1="339" y1="210" x2="367" y2="210" stroke="#101010" stroke-width="4"/>
<g filter="url(#filter25_ii_3_202)">
<path d="M339 130H366C366.552 130 367 130.448 367 131V143H339V130Z" fill="#EEEE88"/>
</g>
<path d="M343 137H363" stroke="#101010" stroke-width="4" stroke-linecap="round"/>
<line x1="339" y1="145" x2="367" y2="145" stroke="#101010" stroke-width="4"/>
<line x1="339" y1="128" x2="367" y2="128" stroke="#101010" stroke-width="4"/>
<path d="M351.586 165.243C352.367 164.462 353.633 164.462 354.414 165.243L362.757 173.586C363.538 174.367 363.538 175.633 362.757 176.414L354.414 184.757C353.633 185.538 352.367 185.538 351.586 184.757L343.243 176.414C342.462 175.633 342.462 174.367 343.243 173.586L351.586 165.243Z" fill="#EEEE88" stroke="#101010" stroke-width="4"/>
<circle cx="353" cy="198" r="4" fill="#101010"/>
<path d="M102.609 369.744C104.577 369.744 106.297 369.96 107.769 370.392C109.241 370.824 110.425 371.28 111.321 371.76C112.217 372.24 112.761 372.56 112.953 372.72L109.497 378.504C109.241 378.312 108.801 378.032 108.177 377.664C107.569 377.296 106.841 376.968 105.993 376.68C105.161 376.392 104.289 376.248 103.377 376.248C102.145 376.248 101.145 376.472 100.377 376.92C99.6254 377.352 99.2494 378 99.2494 378.864C99.2494 379.456 99.4494 379.992 99.8494 380.472C100.265 380.936 100.889 381.384 101.721 381.816C102.569 382.232 103.641 382.688 104.937 383.184C106.121 383.616 107.233 384.128 108.273 384.72C109.313 385.312 110.225 386.016 111.009 386.832C111.809 387.632 112.441 388.56 112.905 389.616C113.369 390.672 113.601 391.872 113.601 393.216C113.601 394.816 113.273 396.208 112.617 397.392C111.961 398.56 111.065 399.528 109.929 400.296C108.809 401.064 107.529 401.632 106.089 402C104.665 402.384 103.185 402.576 101.649 402.576C99.4734 402.576 97.5214 402.328 95.7934 401.832C94.0814 401.336 92.6974 400.8 91.6414 400.224C90.5854 399.648 89.9534 399.264 89.7454 399.072L93.3214 393.048C93.5134 393.192 93.8814 393.424 94.4254 393.744C94.9854 394.064 95.6654 394.4 96.4654 394.752C97.2654 395.088 98.1134 395.376 99.0094 395.616C99.9214 395.856 100.817 395.976 101.697 395.976C103.169 395.976 104.273 395.696 105.009 395.136C105.745 394.56 106.113 393.808 106.113 392.88C106.113 392.192 105.881 391.576 105.417 391.032C104.953 390.488 104.257 389.976 103.329 389.496C102.401 389 101.241 388.48 99.8494 387.936C98.4574 387.376 97.1534 386.696 95.9374 385.896C94.7374 385.096 93.7614 384.096 93.0094 382.896C92.2574 381.696 91.8814 380.208 91.8814 378.432C91.8814 376.656 92.3774 375.12 93.3694 373.824C94.3774 372.512 95.6974 371.504 97.3294 370.8C98.9774 370.096 100.737 369.744 102.609 369.744ZM138.421 389.256H127.477V402H120.325V370.32H127.477V382.992H138.421V370.32H145.549V402H138.421V389.256ZM153.645 370.32H160.821V402H153.645V370.32ZM179.037 370.32H186.165L198.669 402H191.013L188.709 395.64H176.517L174.189 402H166.509L179.037 370.32ZM178.917 389.352H186.333L182.661 378.96H182.589L178.917 389.352ZM230.25 369.744C232.218 369.744 233.938 369.96 235.41 370.392C236.882 370.824 238.066 371.28 238.962 371.76C239.858 372.24 240.402 372.56 240.594 372.72L237.138 378.504C236.882 378.312 236.442 378.032 235.818 377.664C235.21 377.296 234.482 376.968 233.634 376.68C232.802 376.392 231.93 376.248 231.018 376.248C229.786 376.248 228.786 376.472 228.018 376.92C227.266 377.352 226.89 378 226.89 378.864C226.89 379.456 227.09 379.992 227.49 380.472C227.906 380.936 228.53 381.384 229.362 381.816C230.21 382.232 231.282 382.688 232.578 383.184C233.762 383.616 234.874 384.128 235.914 384.72C236.954 385.312 237.866 386.016 238.65 386.832C239.45 387.632 240.082 388.56 240.546 389.616C241.01 390.672 241.242 391.872 241.242 393.216C241.242 394.816 240.914 396.208 240.258 397.392C239.602 398.56 238.706 399.528 237.57 400.296C236.45 401.064 235.17 401.632 233.73 402C232.306 402.384 230.826 402.576 229.29 402.576C227.114 402.576 225.162 402.328 223.434 401.832C221.722 401.336 220.338 400.8 219.282 400.224C218.226 399.648 217.594 399.264 217.386 399.072L220.962 393.048C221.154 393.192 221.522 393.424 222.066 393.744C222.626 394.064 223.306 394.4 224.106 394.752C224.906 395.088 225.754 395.376 226.65 395.616C227.562 395.856 228.458 395.976 229.338 395.976C230.81 395.976 231.914 395.696 232.65 395.136C233.386 394.56 233.754 393.808 233.754 392.88C233.754 392.192 233.522 391.576 233.058 391.032C232.594 390.488 231.898 389.976 230.97 389.496C230.042 389 228.882 388.48 227.49 387.936C226.098 387.376 224.794 386.696 223.578 385.896C222.378 385.096 221.402 384.096 220.65 382.896C219.898 381.696 219.522 380.208 219.522 378.432C219.522 376.656 220.018 375.12 221.01 373.824C222.018 372.512 223.338 371.504 224.97 370.8C226.618 370.096 228.378 369.744 230.25 369.744ZM266.061 389.256H255.117V402H247.965V370.32H255.117V382.992H266.061V370.32H273.189V402H266.061V389.256ZM281.022 370.32H301.254V376.608H288.174V383.064H301.134V389.16H288.174V395.712H301.254V402H281.022V370.32ZM309.254 370.32H316.43V395.712H327.926V402H309.254V370.32ZM349.796 402H341.684L330.404 370.32H338.492L345.74 392.856L352.988 370.32H361.076L349.796 402ZM367.019 370.32H387.251V376.608H374.171V383.064H387.131V389.16H374.171V395.712H387.251V402H367.019V370.32ZM406.603 369.744C408.571 369.744 410.291 369.96 411.763 370.392C413.235 370.824 414.419 371.28 415.315 371.76C416.211 372.24 416.755 372.56 416.947 372.72L413.491 378.504C413.235 378.312 412.795 378.032 412.171 377.664C411.563 377.296 410.835 376.968 409.987 376.68C409.155 376.392 408.283 376.248 407.371 376.248C406.139 376.248 405.139 376.472 404.371 376.92C403.619 377.352 403.243 378 403.243 378.864C403.243 379.456 403.443 379.992 403.843 380.472C404.259 380.936 404.883 381.384 405.715 381.816C406.563 382.232 407.635 382.688 408.931 383.184C410.115 383.616 411.227 384.128 412.267 384.72C413.307 385.312 414.219 386.016 415.003 386.832C415.803 387.632 416.435 388.56 416.899 389.616C417.363 390.672 417.595 391.872 417.595 393.216C417.595 394.816 417.267 396.208 416.611 397.392C415.955 398.56 415.059 399.528 413.923 400.296C412.803 401.064 411.523 401.632 410.083 402C408.659 402.384 407.179 402.576 405.643 402.576C403.467 402.576 401.515 402.328 399.787 401.832C398.075 401.336 396.691 400.8 395.635 400.224C394.579 399.648 393.947 399.264 393.739 399.072L397.315 393.048C397.507 393.192 397.875 393.424 398.419 393.744C398.979 394.064 399.659 394.4 400.459 394.752C401.259 395.088 402.107 395.376 403.003 395.616C403.915 395.856 404.811 395.976 405.691 395.976C407.163 395.976 408.267 395.696 409.003 395.136C409.739 394.56 410.107 393.808 410.107 392.88C410.107 392.192 409.875 391.576 409.411 391.032C408.947 390.488 408.251 389.976 407.323 389.496C406.395 389 405.235 388.48 403.843 387.936C402.451 387.376 401.147 386.696 399.931 385.896C398.731 385.096 397.755 384.096 397.003 382.896C396.251 381.696 395.875 380.208 395.875 378.432C395.875 376.656 396.371 375.12 397.363 373.824C398.371 372.512 399.691 371.504 401.323 370.8C402.971 370.096 404.731 369.744 406.603 369.744Z" fill="#101010"/>
<path d="M158.905 353.688C157.646 353.688 156.451 353.528 155.321 353.208C154.19 352.888 153.198 352.419 152.345 351.8C151.491 351.16 150.819 350.371 150.329 349.432C149.838 348.472 149.593 347.363 149.593 346.104C149.593 344.675 149.913 343.416 150.553 342.328C151.214 341.219 152.121 340.291 153.273 339.544C154.425 338.797 155.769 338.221 157.305 337.816C158.862 337.389 160.537 337.144 162.329 337.08L162.521 342.008C161.369 342.051 160.302 342.179 159.321 342.392C158.361 342.584 157.518 342.861 156.793 343.224C156.067 343.565 155.502 343.981 155.097 344.472C154.713 344.963 154.521 345.517 154.521 346.136C154.521 346.691 154.691 347.171 155.033 347.576C155.374 347.96 155.875 348.248 156.536 348.44C157.198 348.632 157.977 348.728 158.873 348.728C159.641 348.728 160.355 348.653 161.017 348.504C161.699 348.355 162.339 348.141 162.937 347.864L165.081 352.312C164.142 352.76 163.139 353.101 162.073 353.336C161.006 353.571 159.95 353.688 158.905 353.688ZM169.913 355C168.206 355 166.755 354.68 165.561 354.04C164.387 353.379 163.491 352.429 162.873 351.192C162.254 349.933 161.945 348.419 161.945 346.648V336.088H166.873V346.648C166.873 347.331 166.947 347.875 167.097 348.28C167.267 348.664 167.566 348.931 167.993 349.08C168.441 349.229 169.081 349.304 169.913 349.304H171.097V355H169.913ZM171.097 355V349.304C171.289 349.304 171.438 349.56 171.545 350.072C171.673 350.584 171.737 351.267 171.737 352.12C171.737 352.995 171.673 353.699 171.545 354.232C171.438 354.744 171.289 355 171.097 355ZM160.793 333.144C160.131 333.144 159.577 332.931 159.129 332.504C158.702 332.056 158.489 331.501 158.489 330.84C158.489 330.157 158.702 329.603 159.129 329.176C159.577 328.749 160.131 328.536 160.793 328.536C161.454 328.536 161.998 328.749 162.425 329.176C162.873 329.603 163.097 330.157 163.097 330.84C163.097 331.501 162.873 332.056 162.425 332.504C161.998 332.931 161.454 333.144 160.793 333.144ZM155.513 333.144C154.851 333.144 154.297 332.931 153.849 332.504C153.422 332.056 153.209 331.501 153.209 330.84C153.209 330.157 153.422 329.603 153.849 329.176C154.297 328.749 154.851 328.536 155.513 328.536C156.195 328.536 156.75 328.749 157.177 329.176C157.603 329.603 157.817 330.157 157.817 330.84C157.817 331.501 157.603 332.056 157.177 332.504C156.75 332.931 156.195 333.144 155.513 333.144ZM171.094 355V349.304H178.486C179.168 349.304 179.894 349.208 180.662 349.016C181.451 348.824 182.23 348.568 182.998 348.248C183.766 347.928 184.459 347.576 185.078 347.192C185.718 346.808 186.219 346.435 186.582 346.072C186.966 345.688 187.158 345.357 187.158 345.08C187.158 344.76 186.944 344.461 186.518 344.184C186.091 343.907 185.483 343.672 184.694 343.48C183.926 343.288 183.04 343.192 182.038 343.192C181.184 343.192 180.374 343.267 179.606 343.416C178.859 343.565 178.091 343.789 177.302 344.088L176.278 345.24L173.43 343.8L176.406 338.936C177.259 338.659 178.176 338.424 179.158 338.232C180.16 338.04 181.259 337.944 182.454 337.944C184.374 337.944 186.048 338.2 187.478 338.712C188.928 339.203 190.059 339.896 190.87 340.792C191.68 341.667 192.086 342.712 192.086 343.928C192.086 344.931 191.808 345.901 191.254 346.84C190.72 347.779 189.995 348.653 189.078 349.464C188.182 350.275 187.158 351.021 186.006 351.704C184.854 352.387 183.67 352.973 182.454 353.464C181.238 353.955 180.043 354.339 178.87 354.616C177.718 354.872 176.672 355 175.734 355H171.094ZM188.758 355C186.176 355 183.84 354.541 181.75 353.624C179.68 352.685 177.931 351.373 176.502 349.688C175.072 348.003 174.048 346.04 173.43 343.8L177.142 341.912C177.398 343.405 177.91 344.707 178.678 345.816C179.467 346.925 180.47 347.789 181.686 348.408C182.902 349.005 184.246 349.304 185.718 349.304H195.03V355H188.758ZM195.03 355V349.304C195.222 349.304 195.371 349.56 195.478 350.072C195.606 350.584 195.67 351.267 195.67 352.12C195.67 352.995 195.606 353.699 195.478 354.232C195.371 354.744 195.222 355 195.03 355ZM171.094 355C170.902 355 170.752 354.744 170.646 354.232C170.518 353.699 170.454 352.995 170.454 352.12C170.454 351.267 170.518 350.584 170.646 350.072C170.752 349.56 170.902 349.304 171.094 349.304V355ZM195.031 355V349.304H196.791C197.645 349.304 198.285 349.229 198.711 349.08C199.138 348.931 199.437 348.664 199.607 348.28C199.778 347.875 199.863 347.331 199.863 346.648V338.584H204.759V346.648C204.759 348.419 204.45 349.923 203.831 351.16C203.213 352.397 202.306 353.347 201.111 354.008C199.938 354.648 198.498 354.979 196.791 355H195.031ZM207.831 355C206.103 355 204.653 354.68 203.479 354.04C202.306 353.379 201.41 352.429 200.791 351.192C200.173 349.933 199.863 348.419 199.863 346.648H204.759C204.759 347.331 204.834 347.875 204.983 348.28C205.154 348.664 205.463 348.931 205.911 349.08C206.359 349.229 206.999 349.304 207.831 349.304H208.983V355H207.831ZM208.983 355V349.304C209.175 349.304 209.325 349.56 209.431 350.072C209.559 350.584 209.623 351.267 209.623 352.12C209.623 352.995 209.559 353.699 209.431 354.232C209.325 354.744 209.175 355 208.983 355ZM195.031 355C194.839 355 194.69 354.744 194.583 354.232C194.455 353.699 194.391 352.995 194.391 352.12C194.391 351.267 194.455 350.584 194.583 350.072C194.69 349.56 194.839 349.304 195.031 349.304V355ZM204.663 362.744C204.002 362.744 203.447 362.52 202.999 362.072C202.573 361.645 202.359 361.112 202.359 360.472C202.359 359.789 202.573 359.224 202.999 358.776C203.447 358.349 204.002 358.136 204.663 358.136C205.325 358.136 205.869 358.349 206.295 358.776C206.743 359.224 206.967 359.789 206.967 360.472C206.967 361.112 206.743 361.645 206.295 362.072C205.869 362.52 205.325 362.744 204.663 362.744ZM199.383 362.744C198.722 362.744 198.167 362.52 197.719 362.072C197.293 361.645 197.079 361.112 197.079 360.472C197.079 359.789 197.293 359.224 197.719 358.776C198.167 358.349 198.722 358.136 199.383 358.136C200.045 358.136 200.589 358.349 201.015 358.776C201.463 359.224 201.687 359.789 201.687 360.472C201.687 361.112 201.463 361.645 201.015 362.072C200.589 362.52 200.045 362.744 199.383 362.744ZM241.865 355C240.158 355 238.707 354.68 237.513 354.04C236.339 353.379 235.443 352.429 234.825 351.192C234.206 349.933 233.897 348.419 233.897 346.648H238.825C238.825 347.331 238.899 347.875 239.049 348.28C239.219 348.664 239.518 348.931 239.945 349.08C240.393 349.229 241.033 349.304 241.865 349.304H243.049V355H241.865ZM208.969 355C208.777 355 208.627 354.744 208.521 354.232C208.393 353.699 208.329 352.995 208.329 352.12C208.329 351.267 208.393 350.584 208.521 350.072C208.627 349.56 208.777 349.304 208.969 349.304V355ZM232.201 355C231.198 355 230.227 354.776 229.289 354.328C228.35 353.88 227.55 353.176 226.889 352.216C226.249 351.256 225.865 350.04 225.737 348.568L228.553 347.096C228.638 347.885 228.947 348.483 229.481 348.888C230.035 349.293 230.622 349.496 231.241 349.496C231.923 349.496 232.531 349.261 233.065 348.792C233.619 348.323 233.897 347.608 233.897 346.648V338.584H238.825V347.448C238.825 349.176 238.494 350.605 237.833 351.736C237.193 352.845 236.371 353.667 235.369 354.2C234.366 354.733 233.31 355 232.201 355ZM208.969 355V349.304H210.729C211.561 349.304 212.19 349.229 212.617 349.08C213.065 348.931 213.363 348.664 213.513 348.28C213.683 347.875 213.769 347.331 213.769 346.648V341.72H218.697V346.648C218.697 348.419 218.387 349.933 217.769 351.192C217.15 352.429 216.243 353.379 215.049 354.04C213.875 354.68 212.435 355 210.729 355H208.969ZM222.185 355C221.161 355 220.179 354.776 219.241 354.328C218.323 353.88 217.534 353.176 216.873 352.216C216.233 351.256 215.838 350.04 215.689 348.568L218.537 347.096C218.622 347.885 218.931 348.483 219.465 348.888C219.998 349.293 220.574 349.496 221.193 349.496C221.875 349.496 222.483 349.261 223.017 348.792C223.571 348.323 223.849 347.608 223.849 346.648V340.152H228.777V347.448C228.777 349.176 228.457 350.605 227.817 351.736C227.177 352.845 226.355 353.667 225.353 354.2C224.35 354.733 223.294 355 222.185 355ZM243.049 355V349.304C243.241 349.304 243.39 349.56 243.497 350.072C243.625 350.584 243.689 351.267 243.689 352.12C243.689 352.995 243.625 353.699 243.497 354.232C243.39 354.744 243.241 355 243.049 355ZM226.281 326.168C226.942 326.168 227.475 326.381 227.881 326.808C228.307 327.235 228.521 327.768 228.521 328.408C228.521 329.069 228.307 329.613 227.881 330.04C227.475 330.445 226.942 330.648 226.281 330.648C225.641 330.648 225.107 330.445 224.681 330.04C224.254 329.613 224.041 329.069 224.041 328.408C224.041 327.768 224.254 327.235 224.681 326.808C225.107 326.381 225.641 326.168 226.281 326.168ZM228.937 330.808C229.598 330.808 230.142 331.021 230.569 331.448C231.017 331.875 231.241 332.419 231.241 333.08C231.241 333.763 231.017 334.328 230.569 334.776C230.142 335.203 229.598 335.416 228.937 335.416C228.275 335.416 227.721 335.203 227.273 334.776C226.846 334.328 226.633 333.763 226.633 333.08C226.633 332.419 226.846 331.875 227.273 331.448C227.721 331.021 228.275 330.808 228.937 330.808ZM223.657 330.808C224.318 330.808 224.862 331.021 225.289 331.448C225.737 331.875 225.961 332.419 225.961 333.08C225.961 333.763 225.737 334.328 225.289 334.776C224.862 335.203 224.318 335.416 223.657 335.416C222.995 335.416 222.441 335.203 221.993 334.776C221.566 334.328 221.353 333.763 221.353 333.08C221.353 332.419 221.566 331.875 221.993 331.448C222.441 331.021 222.995 330.808 223.657 330.808ZM243.062 355V349.304H247.607V327.288H252.535V355H243.062ZM243.062 355C242.87 355 242.721 354.744 242.614 354.232C242.486 353.699 242.422 352.995 242.422 352.12C242.422 351.267 242.486 350.584 242.614 350.072C242.721 349.56 242.87 349.304 243.062 349.304V355ZM256.618 355V327.288H261.546V355H256.618ZM294.067 349.304V355H284.307C282.537 355 280.99 354.744 279.667 354.232C278.366 353.72 277.289 353.037 276.435 352.184C275.603 351.309 274.974 350.317 274.547 349.208C274.142 348.099 273.939 346.947 273.939 345.752C273.939 344.621 274.11 343.491 274.451 342.36C274.793 341.229 275.294 340.152 275.955 339.128L279.795 340.856C279.433 341.603 279.155 342.317 278.963 343C278.793 343.683 278.707 344.333 278.707 344.952C278.707 345.848 278.899 346.627 279.283 347.288C279.689 347.928 280.297 348.429 281.107 348.792C281.918 349.133 282.942 349.304 284.179 349.304H294.067ZM285.811 355C285.598 355 285.438 354.744 285.331 354.232C285.225 353.699 285.171 352.995 285.171 352.12C285.171 351.267 285.225 350.584 285.331 350.072C285.438 349.56 285.598 349.304 285.811 349.304V355ZM285.811 355V349.304H300.307V339.512H305.203V355H285.811ZM294.323 354.744C293.385 354.381 292.531 353.816 291.763 353.048C291.017 352.28 290.419 351.352 289.971 350.264C289.523 349.155 289.299 347.971 289.299 346.712C289.299 344.92 289.705 343.363 290.515 342.04C291.347 340.696 292.457 339.651 293.843 338.904C295.23 338.136 296.755 337.752 298.419 337.752C299.678 337.752 300.894 337.944 302.067 338.328C303.241 338.691 304.286 339.085 305.203 339.512L303.187 344.472C302.249 344.045 301.353 343.725 300.499 343.512C299.667 343.299 298.878 343.192 298.131 343.192C297.235 343.192 296.457 343.352 295.795 343.672C295.134 343.971 294.622 344.387 294.259 344.92C293.897 345.453 293.715 346.051 293.715 346.712C293.715 347.544 293.918 348.333 294.323 349.08C294.75 349.805 295.305 350.349 295.987 350.712L294.323 354.744ZM297.459 334.04C296.649 334.04 295.977 333.773 295.443 333.24C294.91 332.707 294.643 332.035 294.643 331.224C294.643 330.392 294.91 329.72 295.443 329.208C295.977 328.675 296.649 328.408 297.459 328.408C298.291 328.408 298.963 328.675 299.475 329.208C300.009 329.72 300.275 330.392 300.275 331.224C300.275 332.035 300.009 332.707 299.475 333.24C298.963 333.773 298.291 334.04 297.459 334.04ZM323.065 355V349.304H327.897V355H323.065ZM327.897 355V349.304C328.089 349.304 328.238 349.56 328.345 350.072C328.473 350.584 328.537 351.267 328.537 352.12C328.537 352.995 328.473 353.699 328.345 354.232C328.238 354.744 328.089 355 327.897 355ZM309.625 364.088V358.392H315.321C316.793 358.392 317.817 358.157 318.393 357.688C318.969 357.24 319.257 356.568 319.257 355.672V339.512H324.153V355.672C324.153 357.4 323.79 358.893 323.065 360.152C322.339 361.432 321.315 362.403 319.993 363.064C318.67 363.747 317.113 364.088 315.321 364.088H309.625ZM317.337 355C315.502 355 313.902 354.616 312.537 353.848C311.171 353.08 310.115 352.056 309.369 350.776C308.622 349.475 308.249 348.045 308.249 346.488C308.249 345.229 308.483 344.077 308.953 343.032C309.422 341.965 310.073 341.048 310.905 340.28C311.758 339.491 312.739 338.872 313.849 338.424C314.958 337.976 316.142 337.752 317.401 337.752C318.638 337.752 319.843 337.944 321.017 338.328C322.19 338.691 323.235 339.085 324.153 339.512L322.137 344.568C320.345 343.544 318.766 343.032 317.401 343.032C316.547 343.032 315.801 343.203 315.161 343.544C314.542 343.864 314.051 344.291 313.689 344.824C313.347 345.357 313.177 345.923 313.177 346.52C313.177 347.075 313.337 347.597 313.657 348.088C313.977 348.579 314.446 348.973 315.065 349.272C315.705 349.571 316.462 349.72 317.337 349.72H322.425V355H317.337ZM327.906 355V349.304H342.402V339.512H347.33V355H327.906ZM336.45 354.744C335.49 354.381 334.626 353.816 333.858 353.048C333.112 352.28 332.514 351.352 332.066 350.264C331.64 349.155 331.426 347.971 331.426 346.712C331.426 344.92 331.832 343.363 332.642 342.04C333.474 340.696 334.584 339.651 335.97 338.904C337.357 338.136 338.882 337.752 340.546 337.752C341.805 337.752 343.021 337.944 344.194 338.328C345.368 338.691 346.413 339.085 347.33 339.512L345.314 344.472C344.354 344.045 343.448 343.725 342.594 343.512C341.762 343.299 340.984 343.192 340.258 343.192C339.341 343.192 338.552 343.352 337.89 343.672C337.229 343.971 336.717 344.387 336.354 344.92C336.013 345.453 335.842 346.051 335.842 346.712C335.842 347.544 336.045 348.333 336.45 349.08C336.856 349.805 337.41 350.349 338.114 350.712L336.45 354.744ZM327.906 355C327.714 355 327.565 354.744 327.458 354.232C327.33 353.699 327.266 352.995 327.266 352.12C327.266 351.267 327.33 350.584 327.458 350.072C327.565 349.56 327.714 349.304 327.906 349.304V355ZM340.546 334.04C339.736 334.04 339.064 333.773 338.53 333.24C337.997 332.707 337.73 332.035 337.73 331.224C337.73 330.392 337.997 329.72 338.53 329.208C339.064 328.675 339.736 328.408 340.546 328.408C341.378 328.408 342.05 328.675 342.562 329.208C343.096 329.72 343.362 330.392 343.362 331.224C343.362 332.035 343.096 332.707 342.562 333.24C342.05 333.773 341.378 334.04 340.546 334.04ZM348.812 358.616C349.901 358.595 350.743 358.477 351.341 358.264C351.959 358.051 352.397 357.72 352.653 357.272C352.909 356.845 353.036 356.301 353.036 355.64V338.584H357.965V355.64C357.965 357.304 357.623 358.755 356.941 359.992C356.279 361.229 355.33 362.189 354.093 362.872C352.877 363.576 351.426 363.971 349.741 364.056L348.812 358.616Z" fill="#101010"/>
<path d="M89 411L420 411" stroke="#101010" stroke-width="3" stroke-linecap="square"/>
<defs>
<filter id="filter0_ii_3_202" x="302.24" y="257.105" width="101.521" height="59.0903" filterUnits="userSpaceOnUse" color-interpolation-filters="sRGB">
<feFlood flood-opacity="0" result="BackgroundImageFix"/>
<feBlend mode="normal" in="SourceGraphic" in2="BackgroundImageFix" result="shape"/>
<feColorMatrix in="SourceAlpha" type="matrix" values="0 0 0 0 0 0 0 0 0 0 0 0 0 0 0 0 0 0 127 0" result="hardAlpha"/>
<feOffset dx="8" dy="-8"/>
<feComposite in2="hardAlpha" operator="arithmetic" k2="-1" k3="1"/>
<feColorMatrix type="matrix" values="0 0 0 0 0 0 0 0 0 0 0 0 0 0 0 0 0 0 0.25 0"/>
<feBlend mode="normal" in2="shape" result="effect1_innerShadow_3_202"/>
<feColorMatrix in="SourceAlpha" type="matrix" values="0 0 0 0 0 0 0 0 0 0 0 0 0 0 0 0 0 0 127 0" result="hardAlpha"/>
<feOffset dx="-8" dy="-8"/>
<feComposite in2="hardAlpha" operator="arithmetic" k2="-1" k3="1"/>
<feColorMatrix type="matrix" values="0 0 0 0 0.603922 0 0 0 0 0.427451 0 0 0 0 0.376471 0 0 0 1 0"/>
<feBlend mode="normal" in2="effect1_innerShadow_3_202" result="effect2_innerShadow_3_202"/>
</filter>
<filter id="filter1_ii_3_202" x="342" y="260" width="22" height="60" filterUnits="userSpaceOnUse" color-interpolation-filters="sRGB">
<feFlood flood-opacity="0" result="BackgroundImageFix"/>
<feBlend mode="normal" in="SourceGraphic" in2="BackgroundImageFix" result="shape"/>
<feColorMatrix in="SourceAlpha" type="matrix" values="0 0 0 0 0 0 0 0 0 0 0 0 0 0 0 0 0 0 127 0" result="hardAlpha"/>
<feOffset dx="8" dy="-8"/>
<feComposite in2="hardAlpha" operator="arithmetic" k2="-1" k3="1"/>
<feColorMatrix type="matrix" values="0 0 0 0 0.290196 0 0 0 0 0.176471 0 0 0 0 0.12549 0 0 0 1 0"/>
<feBlend mode="normal" in2="shape" result="effect1_innerShadow_3_202"/>
<feColorMatrix in="SourceAlpha" type="matrix" values="0 0 0 0 0 0 0 0 0 0 0 0 0 0 0 0 0 0 127 0" result="hardAlpha"/>
<feOffset dx="-8"/>
<feComposite in2="hardAlpha" operator="arithmetic" k2="-1" k3="1"/>
<feColorMatrix type="matrix" values="0 0 0 0 0.603922 0 0 0 0 0.427451 0 0 0 0 0.376471 0 0 0 1 0"/>
<feBlend mode="normal" in2="effect1_innerShadow_3_202" result="effect2_innerShadow_3_202"/>
</filter>
<filter id="filter2_ii_3_202" x="105.24" y="257.105" width="101.521" height="59.0903" filterUnits="userSpaceOnUse" color-interpolation-filters="sRGB">
<feFlood flood-opacity="0" result="BackgroundImageFix"/>
<feBlend mode="normal" in="SourceGraphic" in2="BackgroundImageFix" result="shape"/>
<feColorMatrix in="SourceAlpha" type="matrix" values="0 0 0 0 0 0 0 0 0 0 0 0 0 0 0 0 0 0 127 0" result="hardAlpha"/>
<feOffset dx="8" dy="-8"/>
<feComposite in2="hardAlpha" operator="arithmetic" k2="-1" k3="1"/>
<feColorMatrix type="matrix" values="0 0 0 0 0 0 0 0 0 0 0 0 0 0 0 0 0 0 0.25 0"/>
<feBlend mode="normal" in2="shape" result="effect1_innerShadow_3_202"/>
<feColorMatrix in="SourceAlpha" type="matrix" values="0 0 0 0 0 0 0 0 0 0 0 0 0 0 0 0 0 0 127 0" result="hardAlpha"/>
<feOffset dx="-8" dy="-8"/>
<feComposite in2="hardAlpha" operator="arithmetic" k2="-1" k3="1"/>
<feColorMatrix type="matrix" values="0 0 0 0 0.603922 0 0 0 0 0.427451 0 0 0 0 0.376471 0 0 0 1 0"/>
<feBlend mode="normal" in2="effect1_innerShadow_3_202" result="effect2_innerShadow_3_202"/>
</filter>
<filter id="filter3_ii_3_202" x="145" y="260" width="22" height="60" filterUnits="userSpaceOnUse" color-interpolation-filters="sRGB">
<feFlood flood-opacity="0" result="BackgroundImageFix"/>
<feBlend mode="normal" in="SourceGraphic" in2="BackgroundImageFix" result="shape"/>
<feColorMatrix in="SourceAlpha" type="matrix" values="0 0 0 0 0 0 0 0 0 0 0 0 0 0 0 0 0 0 127 0" result="hardAlpha"/>
<feOffset dx="8" dy="-8"/>
<feComposite in2="hardAlpha" operator="arithmetic" k2="-1" k3="1"/>
<feColorMatrix type="matrix" values="0 0 0 0 0.290196 0 0 0 0 0.176471 0 0 0 0 0.12549 0 0 0 1 0"/>
<feBlend mode="normal" in2="shape" result="effect1_innerShadow_3_202"/>
<feColorMatrix in="SourceAlpha" type="matrix" values="0 0 0 0 0 0 0 0 0 0 0 0 0 0 0 0 0 0 127 0" result="hardAlpha"/>
<feOffset dx="-8"/>
<feComposite in2="hardAlpha" operator="arithmetic" k2="-1" k3="1"/>
<feColorMatrix type="matrix" values="0 0 0 0 0.603922 0 0 0 0 0.427451 0 0 0 0 0.376471 0 0 0 1 0"/>
<feBlend mode="normal" in2="effect1_innerShadow_3_202" result="effect2_innerShadow_3_202"/>
</filter>
<filter id="filter4_ii_3_202" x="57" y="237" width="396" height="28" filterUnits="userSpaceOnUse" color-interpolation-filters="sRGB">
<feFlood flood-opacity="0" result="BackgroundImageFix"/>
<feBlend mode="normal" in="SourceGraphic" in2="BackgroundImageFix" result="shape"/>
<feColorMatrix in="SourceAlpha" type="matrix" values="0 0 0 0 0 0 0 0 0 0 0 0 0 0 0 0 0 0 127 0" result="hardAlpha"/>
<feOffset dx="12" dy="-12"/>
<feComposite in2="hardAlpha" operator="arithmetic" k2="-1" k3="1"/>
<feColorMatrix type="matrix" values="0 0 0 0 0.290196 0 0 0 0 0.176471 0 0 0 0 0.12549 0 0 0 1 0"/>
<feBlend mode="normal" in2="shape" result="effect1_innerShadow_3_202"/>
<feColorMatrix in="SourceAlpha" type="matrix" values="0 0 0 0 0 0 0 0 0 0 0 0 0 0 0 0 0 0 127 0" result="hardAlpha"/>
<feOffset dx="-8" dy="8"/>
<feComposite in2="hardAlpha" operator="arithmetic" k2="-1" k3="1"/>
<feColorMatrix type="matrix" values="0 0 0 0 0.603922 0 0 0 0 0.427451 0 0 0 0 0.376471 0 0 0 1 0"/>
<feBlend mode="normal" in2="effect1_innerShadow_3_202" result="effect2_innerShadow_3_202"/>
</filter>
<filter id="filter5_ii_3_202" x="139" y="115" width="36" height="126" filterUnits="userSpaceOnUse" color-interpolation-filters="sRGB">
<feFlood flood-opacity="0" result="BackgroundImageFix"/>
<feBlend mode="normal" in="SourceGraphic" in2="BackgroundImageFix" result="shape"/>
<feColorMatrix in="SourceAlpha" type="matrix" values="0 0 0 0 0 0 0 0 0 0 0 0 0 0 0 0 0 0 127 0" result="hardAlpha"/>
<feOffset dx="-8" dy="8"/>
<feComposite in2="hardAlpha" operator="arithmetic" k2="-1" k3="1"/>
<feColorMatrix type="matrix" values="0 0 0 0 0.52549 0 0 0 0 0.792157 0 0 0 0 0.52549 0 0 0 1 0"/>
<feBlend mode="normal" in2="shape" result="effect1_innerShadow_3_202"/>
<feColorMatrix in="SourceAlpha" type="matrix" values="0 0 0 0 0 0 0 0 0 0 0 0 0 0 0 0 0 0 127 0" result="hardAlpha"/>
<feOffset dx="8" dy="-8"/>
<feComposite in2="hardAlpha" operator="arithmetic" k2="-1" k3="1"/>
<feColorMatrix type="matrix" values="0 0 0 0 0.27451 0 0 0 0 0.541176 0 0 0 0 0.27451 0 0 0 1 0"/>
<feBlend mode="normal" in2="effect1_innerShadow_3_202" result="effect2_innerShadow_3_202"/>
</filter>
<filter id="filter6_ii_3_202" x="143" y="212" width="28" height="13" filterUnits="userSpaceOnUse" color-interpolation-filters="sRGB">
<feFlood flood-opacity="0" result="BackgroundImageFix"/>
<feBlend mode="normal" in="SourceGraphic" in2="BackgroundImageFix" result="shape"/>
<feColorMatrix in="SourceAlpha" type="matrix" values="0 0 0 0 0 0 0 0 0 0 0 0 0 0 0 0 0 0 127 0" result="hardAlpha"/>
<feOffset dx="-2" dy="2"/>
<feComposite in2="hardAlpha" operator="arithmetic" k2="-1" k3="1"/>
<feColorMatrix type="matrix" values="0 0 0 0 1 0 0 0 0 1 0 0 0 0 0.8 0 0 0 1 0"/>
<feBlend mode="normal" in2="shape" result="effect1_innerShadow_3_202"/>
<feColorMatrix in="SourceAlpha" type="matrix" values="0 0 0 0 0 0 0 0 0 0 0 0 0 0 0 0 0 0 127 0" result="hardAlpha"/>
<feOffset dx="2" dy="-2"/>
<feComposite in2="hardAlpha" operator="arithmetic" k2="-1" k3="1"/>
<feColorMatrix type="matrix" values="0 0 0 0 0.866667 0 0 0 0 0.866667 0 0 0 0 0.407843 0 0 0 1 0"/>
<feBlend mode="normal" in2="effect1_innerShadow_3_202" result="effect2_innerShadow_3_202"/>
</filter>
<filter id="filter7_ii_3_202" x="143" y="130" width="28" height="13" filterUnits="userSpaceOnUse" color-interpolation-filters="sRGB">
<feFlood flood-opacity="0" result="BackgroundImageFix"/>
<feBlend mode="normal" in="SourceGraphic" in2="BackgroundImageFix" result="shape"/>
<feColorMatrix in="SourceAlpha" type="matrix" values="0 0 0 0 0 0 0 0 0 0 0 0 0 0 0 0 0 0 127 0" result="hardAlpha"/>
<feOffset dx="-2" dy="2"/>
<feComposite in2="hardAlpha" operator="arithmetic" k2="-1" k3="1"/>
<feColorMatrix type="matrix" values="0 0 0 0 1 0 0 0 0 1 0 0 0 0 0.8 0 0 0 1 0"/>
<feBlend mode="normal" in2="shape" result="effect1_innerShadow_3_202"/>
<feColorMatrix in="SourceAlpha" type="matrix" values="0 0 0 0 0 0 0 0 0 0 0 0 0 0 0 0 0 0 127 0" result="hardAlpha"/>
<feOffset dx="2" dy="-2"/>
<feComposite in2="hardAlpha" operator="arithmetic" k2="-1" k3="1"/>
<feColorMatrix type="matrix" values="0 0 0 0 0.866667 0 0 0 0 0.866667 0 0 0 0 0.407843 0 0 0 1 0"/>
<feBlend mode="normal" in2="effect1_innerShadow_3_202" result="effect2_innerShadow_3_202"/>
</filter>
<filter id="filter8_ii_3_202" x="235" y="105" width="40" height="136" filterUnits="userSpaceOnUse" color-interpolation-filters="sRGB">
<feFlood flood-opacity="0" result="BackgroundImageFix"/>
<feBlend mode="normal" in="SourceGraphic" in2="BackgroundImageFix" result="shape"/>
<feColorMatrix in="SourceAlpha" type="matrix" values="0 0 0 0 0 0 0 0 0 0 0 0 0 0 0 0 0 0 127 0" result="hardAlpha"/>
<feOffset dx="-8" dy="8"/>
<feComposite in2="hardAlpha" operator="arithmetic" k2="-1" k3="1"/>
<feColorMatrix type="matrix" values="0 0 0 0 0.52549 0 0 0 0 0.792157 0 0 0 0 0.52549 0 0 0 1 0"/>
<feBlend mode="normal" in2="shape" result="effect1_innerShadow_3_202"/>
<feColorMatrix in="SourceAlpha" type="matrix" values="0 0 0 0 0 0 0 0 0 0 0 0 0 0 0 0 0 0 127 0" result="hardAlpha"/>
<feOffset dx="8" dy="-8"/>
<feComposite in2="hardAlpha" operator="arithmetic" k2="-1" k3="1"/>
<feColorMatrix type="matrix" values="0 0 0 0 0.27451 0 0 0 0 0.541176 0 0 0 0 0.27451 0 0 0 1 0"/>
<feBlend mode="normal" in2="effect1_innerShadow_3_202" result="effect2_innerShadow_3_202"/>
</filter>
<filter id="filter9_ii_3_202" x="239" y="205" width="32" height="24" filterUnits="userSpaceOnUse" color-interpolation-filters="sRGB">
<feFlood flood-opacity="0" result="BackgroundImageFix"/>
<feBlend mode="normal" in="SourceGraphic" in2="BackgroundImageFix" result="shape"/>
<feColorMatrix in="SourceAlpha" type="matrix" values="0 0 0 0 0 0 0 0 0 0 0 0 0 0 0 0 0 0 127 0" result="hardAlpha"/>
<feOffset dx="-2" dy="2"/>
<feComposite in2="hardAlpha" operator="arithmetic" k2="-1" k3="1"/>
<feColorMatrix type="matrix" values="0 0 0 0 1 0 0 0 0 1 0 0 0 0 0.8 0 0 0 1 0"/>
<feBlend mode="normal" in2="shape" result="effect1_innerShadow_3_202"/>
<feColorMatrix in="SourceAlpha" type="matrix" values="0 0 0 0 0 0 0 0 0 0 0 0 0 0 0 0 0 0 127 0" result="hardAlpha"/>
<feOffset dx="2" dy="-2"/>
<feComposite in2="hardAlpha" operator="arithmetic" k2="-1" k3="1"/>
<feColorMatrix type="matrix" values="0 0 0 0 0.866667 0 0 0 0 0.866667 0 0 0 0 0.407843 0 0 0 1 0"/>
<feBlend mode="normal" in2="effect1_innerShadow_3_202" result="effect2_innerShadow_3_202"/>
</filter>
<filter id="filter10_ii_3_202" x="239" y="119" width="32" height="24" filterUnits="userSpaceOnUse" color-interpolation-filters="sRGB">
<feFlood flood-opacity="0" result="BackgroundImageFix"/>
<feBlend mode="normal" in="SourceGraphic" in2="BackgroundImageFix" result="shape"/>
<feColorMatrix in="SourceAlpha" type="matrix" values="0 0 0 0 0 0 0 0 0 0 0 0 0 0 0 0 0 0 127 0" result="hardAlpha"/>
<feOffset dx="-2" dy="2"/>
<feComposite in2="hardAlpha" operator="arithmetic" k2="-1" k3="1"/>
<feColorMatrix type="matrix" values="0 0 0 0 1 0 0 0 0 1 0 0 0 0 0.8 0 0 0 1 0"/>
<feBlend mode="normal" in2="shape" result="effect1_innerShadow_3_202"/>
<feColorMatrix in="SourceAlpha" type="matrix" values="0 0 0 0 0 0 0 0 0 0 0 0 0 0 0 0 0 0 127 0" result="hardAlpha"/>
<feOffset dx="2" dy="-2"/>
<feComposite in2="hardAlpha" operator="arithmetic" k2="-1" k3="1"/>
<feColorMatrix type="matrix" values="0 0 0 0 0.866667 0 0 0 0 0.866667 0 0 0 0 0.407843 0 0 0 1 0"/>
<feBlend mode="normal" in2="effect1_innerShadow_3_202" result="effect2_innerShadow_3_202"/>
</filter>
<filter id="filter11_ii_3_202" x="171" y="115" width="36" height="126" filterUnits="userSpaceOnUse" color-interpolation-filters="sRGB">
<feFlood flood-opacity="0" result="BackgroundImageFix"/>
<feBlend mode="normal" in="SourceGraphic" in2="BackgroundImageFix" result="shape"/>
<feColorMatrix in="SourceAlpha" type="matrix" values="0 0 0 0 0 0 0 0 0 0 0 0 0 0 0 0 0 0 127 0" result="hardAlpha"/>
<feOffset dx="-8" dy="8"/>
<feComposite in2="hardAlpha" operator="arithmetic" k2="-1" k3="1"/>
<feColorMatrix type="matrix" values="0 0 0 0 0.52549 0 0 0 0 0.792157 0 0 0 0 0.52549 0 0 0 1 0"/>
<feBlend mode="normal" in2="shape" result="effect1_innerShadow_3_202"/>
<feColorMatrix in="SourceAlpha" type="matrix" values="0 0 0 0 0 0 0 0 0 0 0 0 0 0 0 0 0 0 127 0" result="hardAlpha"/>
<feOffset dx="8" dy="-8"/>
<feComposite in2="hardAlpha" operator="arithmetic" k2="-1" k3="1"/>
<feColorMatrix type="matrix" values="0 0 0 0 0.27451 0 0 0 0 0.541176 0 0 0 0 0.27451 0 0 0 1 0"/>
<feBlend mode="normal" in2="effect1_innerShadow_3_202" result="effect2_innerShadow_3_202"/>
</filter>
<filter id="filter12_ii_3_202" x="175" y="212" width="28" height="13" filterUnits="userSpaceOnUse" color-interpolation-filters="sRGB">
<feFlood flood-opacity="0" result="BackgroundImageFix"/>
<feBlend mode="normal" in="SourceGraphic" in2="BackgroundImageFix" result="shape"/>
<feColorMatrix in="SourceAlpha" type="matrix" values="0 0 0 0 0 0 0 0 0 0 0 0 0 0 0 0 0 0 127 0" result="hardAlpha"/>
<feOffset dx="-2" dy="2"/>
<feComposite in2="hardAlpha" operator="arithmetic" k2="-1" k3="1"/>
<feColorMatrix type="matrix" values="0 0 0 0 1 0 0 0 0 1 0 0 0 0 0.8 0 0 0 1 0"/>
<feBlend mode="normal" in2="shape" result="effect1_innerShadow_3_202"/>
<feColorMatrix in="SourceAlpha" type="matrix" values="0 0 0 0 0 0 0 0 0 0 0 0 0 0 0 0 0 0 127 0" result="hardAlpha"/>
<feOffset dx="2" dy="-2"/>
<feComposite in2="hardAlpha" operator="arithmetic" k2="-1" k3="1"/>
<feColorMatrix type="matrix" values="0 0 0 0 0.866667 0 0 0 0 0.866667 0 0 0 0 0.407843 0 0 0 1 0"/>
<feBlend mode="normal" in2="effect1_innerShadow_3_202" result="effect2_innerShadow_3_202"/>
</filter>
<filter id="filter13_ii_3_202" x="175" y="130" width="28" height="13" filterUnits="userSpaceOnUse" color-interpolation-filters="sRGB">
<feFlood flood-opacity="0" result="BackgroundImageFix"/>
<feBlend mode="normal" in="SourceGraphic" in2="BackgroundImageFix" result="shape"/>
<feColorMatrix in="SourceAlpha" type="matrix" values="0 0 0 0 0 0 0 0 0 0 0 0 0 0 0 0 0 0 127 0" result="hardAlpha"/>
<feOffset dx="-2" dy="2"/>
<feComposite in2="hardAlpha" operator="arithmetic" k2="-1" k3="1"/>
<feColorMatrix type="matrix" values="0 0 0 0 1 0 0 0 0 1 0 0 0 0 0.8 0 0 0 1 0"/>
<feBlend mode="normal" in2="shape" result="effect1_innerShadow_3_202"/>
<feColorMatrix in="SourceAlpha" type="matrix" values="0 0 0 0 0 0 0 0 0 0 0 0 0 0 0 0 0 0 127 0" result="hardAlpha"/>
<feOffset dx="2" dy="-2"/>
<feComposite in2="hardAlpha" operator="arithmetic" k2="-1" k3="1"/>
<feColorMatrix type="matrix" values="0 0 0 0 0.866667 0 0 0 0 0.866667 0 0 0 0 0.407843 0 0 0 1 0"/>
<feBlend mode="normal" in2="effect1_innerShadow_3_202" result="effect2_innerShadow_3_202"/>
</filter>
<filter id="filter14_ii_3_202" x="203" y="115" width="36" height="126" filterUnits="userSpaceOnUse" color-interpolation-filters="sRGB">
<feFlood flood-opacity="0" result="BackgroundImageFix"/>
<feBlend mode="normal" in="SourceGraphic" in2="BackgroundImageFix" result="shape"/>
<feColorMatrix in="SourceAlpha" type="matrix" values="0 0 0 0 0 0 0 0 0 0 0 0 0 0 0 0 0 0 127 0" result="hardAlpha"/>
<feOffset dx="-8" dy="8"/>
<feComposite in2="hardAlpha" operator="arithmetic" k2="-1" k3="1"/>
<feColorMatrix type="matrix" values="0 0 0 0 0.52549 0 0 0 0 0.792157 0 0 0 0 0.52549 0 0 0 1 0"/>
<feBlend mode="normal" in2="shape" result="effect1_innerShadow_3_202"/>
<feColorMatrix in="SourceAlpha" type="matrix" values="0 0 0 0 0 0 0 0 0 0 0 0 0 0 0 0 0 0 127 0" result="hardAlpha"/>
<feOffset dx="8" dy="-8"/>
<feComposite in2="hardAlpha" operator="arithmetic" k2="-1" k3="1"/>
<feColorMatrix type="matrix" values="0 0 0 0 0.27451 0 0 0 0 0.541176 0 0 0 0 0.27451 0 0 0 1 0"/>
<feBlend mode="normal" in2="effect1_innerShadow_3_202" result="effect2_innerShadow_3_202"/>
</filter>
<filter id="filter15_ii_3_202" x="207" y="212" width="28" height="13" filterUnits="userSpaceOnUse" color-interpolation-filters="sRGB">
<feFlood flood-opacity="0" result="BackgroundImageFix"/>
<feBlend mode="normal" in="SourceGraphic" in2="BackgroundImageFix" result="shape"/>
<feColorMatrix in="SourceAlpha" type="matrix" values="0 0 0 0 0 0 0 0 0 0 0 0 0 0 0 0 0 0 127 0" result="hardAlpha"/>
<feOffset dx="-2" dy="2"/>
<feComposite in2="hardAlpha" operator="arithmetic" k2="-1" k3="1"/>
<feColorMatrix type="matrix" values="0 0 0 0 1 0 0 0 0 1 0 0 0 0 0.8 0 0 0 1 0"/>
<feBlend mode="normal" in2="shape" result="effect1_innerShadow_3_202"/>
<feColorMatrix in="SourceAlpha" type="matrix" values="0 0 0 0 0 0 0 0 0 0 0 0 0 0 0 0 0 0 127 0" result="hardAlpha"/>
<feOffset dx="2" dy="-2"/>
<feComposite in2="hardAlpha" operator="arithmetic" k2="-1" k3="1"/>
<feColorMatrix type="matrix" values="0 0 0 0 0.866667 0 0 0 0 0.866667 0 0 0 0 0.407843 0 0 0 1 0"/>
<feBlend mode="normal" in2="effect1_innerShadow_3_202" result="effect2_innerShadow_3_202"/>
</filter>
<filter id="filter16_ii_3_202" x="207" y="130" width="28" height="13" filterUnits="userSpaceOnUse" color-interpolation-filters="sRGB">
<feFlood flood-opacity="0" result="BackgroundImageFix"/>
<feBlend mode="normal" in="SourceGraphic" in2="BackgroundImageFix" result="shape"/>
<feColorMatrix in="SourceAlpha" type="matrix" values="0 0 0 0 0 0 0 0 0 0 0 0 0 0 0 0 0 0 127 0" result="hardAlpha"/>
<feOffset dx="-2" dy="2"/>
<feComposite in2="hardAlpha" operator="arithmetic" k2="-1" k3="1"/>
<feColorMatrix type="matrix" values="0 0 0 0 1 0 0 0 0 1 0 0 0 0 0.8 0 0 0 1 0"/>
<feBlend mode="normal" in2="shape" result="effect1_innerShadow_3_202"/>
<feColorMatrix in="SourceAlpha" type="matrix" values="0 0 0 0 0 0 0 0 0 0 0 0 0 0 0 0 0 0 127 0" result="hardAlpha"/>
<feOffset dx="2" dy="-2"/>
<feComposite in2="hardAlpha" operator="arithmetic" k2="-1" k3="1"/>
<feColorMatrix type="matrix" values="0 0 0 0 0.866667 0 0 0 0 0.866667 0 0 0 0 0.407843 0 0 0 1 0"/>
<feBlend mode="normal" in2="effect1_innerShadow_3_202" result="effect2_innerShadow_3_202"/>
</filter>
<filter id="filter17_ii_3_202" x="271" y="115" width="36" height="126" filterUnits="userSpaceOnUse" color-interpolation-filters="sRGB">
<feFlood flood-opacity="0" result="BackgroundImageFix"/>
<feBlend mode="normal" in="SourceGraphic" in2="BackgroundImageFix" result="shape"/>
<feColorMatrix in="SourceAlpha" type="matrix" values="0 0 0 0 0 0 0 0 0 0 0 0 0 0 0 0 0 0 127 0" result="hardAlpha"/>
<feOffset dx="-8" dy="8"/>
<feComposite in2="hardAlpha" operator="arithmetic" k2="-1" k3="1"/>
<feColorMatrix type="matrix" values="0 0 0 0 0.52549 0 0 0 0 0.792157 0 0 0 0 0.52549 0 0 0 1 0"/>
<feBlend mode="normal" in2="shape" result="effect1_innerShadow_3_202"/>
<feColorMatrix in="SourceAlpha" type="matrix" values="0 0 0 0 0 0 0 0 0 0 0 0 0 0 0 0 0 0 127 0" result="hardAlpha"/>
<feOffset dx="8" dy="-8"/>
<feComposite in2="hardAlpha" operator="arithmetic" k2="-1" k3="1"/>
<feColorMatrix type="matrix" values="0 0 0 0 0.27451 0 0 0 0 0.541176 0 0 0 0 0.27451 0 0 0 1 0"/>
<feBlend mode="normal" in2="effect1_innerShadow_3_202" result="effect2_innerShadow_3_202"/>
</filter>
<filter id="filter18_ii_3_202" x="275" y="212" width="28" height="13" filterUnits="userSpaceOnUse" color-interpolation-filters="sRGB">
<feFlood flood-opacity="0" result="BackgroundImageFix"/>
<feBlend mode="normal" in="SourceGraphic" in2="BackgroundImageFix" result="shape"/>
<feColorMatrix in="SourceAlpha" type="matrix" values="0 0 0 0 0 0 0 0 0 0 0 0 0 0 0 0 0 0 127 0" result="hardAlpha"/>
<feOffset dx="-2" dy="2"/>
<feComposite in2="hardAlpha" operator="arithmetic" k2="-1" k3="1"/>
<feColorMatrix type="matrix" values="0 0 0 0 1 0 0 0 0 1 0 0 0 0 0.8 0 0 0 1 0"/>
<feBlend mode="normal" in2="shape" result="effect1_innerShadow_3_202"/>
<feColorMatrix in="SourceAlpha" type="matrix" values="0 0 0 0 0 0 0 0 0 0 0 0 0 0 0 0 0 0 127 0" result="hardAlpha"/>
<feOffset dx="2" dy="-2"/>
<feComposite in2="hardAlpha" operator="arithmetic" k2="-1" k3="1"/>
<feColorMatrix type="matrix" values="0 0 0 0 0.866667 0 0 0 0 0.866667 0 0 0 0 0.407843 0 0 0 1 0"/>
<feBlend mode="normal" in2="effect1_innerShadow_3_202" result="effect2_innerShadow_3_202"/>
</filter>
<filter id="filter19_ii_3_202" x="275" y="130" width="28" height="13" filterUnits="userSpaceOnUse" color-interpolation-filters="sRGB">
<feFlood flood-opacity="0" result="BackgroundImageFix"/>
<feBlend mode="normal" in="SourceGraphic" in2="BackgroundImageFix" result="shape"/>
<feColorMatrix in="SourceAlpha" type="matrix" values="0 0 0 0 0 0 0 0 0 0 0 0 0 0 0 0 0 0 127 0" result="hardAlpha"/>
<feOffset dx="-2" dy="2"/>
<feComposite in2="hardAlpha" operator="arithmetic" k2="-1" k3="1"/>
<feColorMatrix type="matrix" values="0 0 0 0 1 0 0 0 0 1 0 0 0 0 0.8 0 0 0 1 0"/>
<feBlend mode="normal" in2="shape" result="effect1_innerShadow_3_202"/>
<feColorMatrix in="SourceAlpha" type="matrix" values="0 0 0 0 0 0 0 0 0 0 0 0 0 0 0 0 0 0 127 0" result="hardAlpha"/>
<feOffset dx="2" dy="-2"/>
<feComposite in2="hardAlpha" operator="arithmetic" k2="-1" k3="1"/>
<feColorMatrix type="matrix" values="0 0 0 0 0.866667 0 0 0 0 0.866667 0 0 0 0 0.407843 0 0 0 1 0"/>
<feBlend mode="normal" in2="effect1_innerShadow_3_202" result="effect2_innerShadow_3_202"/>
</filter>
<filter id="filter20_ii_3_202" x="303" y="115" width="36" height="126" filterUnits="userSpaceOnUse" color-interpolation-filters="sRGB">
<feFlood flood-opacity="0" result="BackgroundImageFix"/>
<feBlend mode="normal" in="SourceGraphic" in2="BackgroundImageFix" result="shape"/>
<feColorMatrix in="SourceAlpha" type="matrix" values="0 0 0 0 0 0 0 0 0 0 0 0 0 0 0 0 0 0 127 0" result="hardAlpha"/>
<feOffset dx="-8" dy="8"/>
<feComposite in2="hardAlpha" operator="arithmetic" k2="-1" k3="1"/>
<feColorMatrix type="matrix" values="0 0 0 0 0.52549 0 0 0 0 0.792157 0 0 0 0 0.52549 0 0 0 1 0"/>
<feBlend mode="normal" in2="shape" result="effect1_innerShadow_3_202"/>
<feColorMatrix in="SourceAlpha" type="matrix" values="0 0 0 0 0 0 0 0 0 0 0 0 0 0 0 0 0 0 127 0" result="hardAlpha"/>
<feOffset dx="8" dy="-8"/>
<feComposite in2="hardAlpha" operator="arithmetic" k2="-1" k3="1"/>
<feColorMatrix type="matrix" values="0 0 0 0 0.27451 0 0 0 0 0.541176 0 0 0 0 0.27451 0 0 0 1 0"/>
<feBlend mode="normal" in2="effect1_innerShadow_3_202" result="effect2_innerShadow_3_202"/>
</filter>
<filter id="filter21_ii_3_202" x="307" y="212" width="28" height="13" filterUnits="userSpaceOnUse" color-interpolation-filters="sRGB">
<feFlood flood-opacity="0" result="BackgroundImageFix"/>
<feBlend mode="normal" in="SourceGraphic" in2="BackgroundImageFix" result="shape"/>
<feColorMatrix in="SourceAlpha" type="matrix" values="0 0 0 0 0 0 0 0 0 0 0 0 0 0 0 0 0 0 127 0" result="hardAlpha"/>
<feOffset dx="-2" dy="2"/>
<feComposite in2="hardAlpha" operator="arithmetic" k2="-1" k3="1"/>
<feColorMatrix type="matrix" values="0 0 0 0 1 0 0 0 0 1 0 0 0 0 0.8 0 0 0 1 0"/>
<feBlend mode="normal" in2="shape" result="effect1_innerShadow_3_202"/>
<feColorMatrix in="SourceAlpha" type="matrix" values="0 0 0 0 0 0 0 0 0 0 0 0 0 0 0 0 0 0 127 0" result="hardAlpha"/>
<feOffset dx="2" dy="-2"/>
<feComposite in2="hardAlpha" operator="arithmetic" k2="-1" k3="1"/>
<feColorMatrix type="matrix" values="0 0 0 0 0.866667 0 0 0 0 0.866667 0 0 0 0 0.407843 0 0 0 1 0"/>
<feBlend mode="normal" in2="effect1_innerShadow_3_202" result="effect2_innerShadow_3_202"/>
</filter>
<filter id="filter22_ii_3_202" x="307" y="130" width="28" height="13" filterUnits="userSpaceOnUse" color-interpolation-filters="sRGB">
<feFlood flood-opacity="0" result="BackgroundImageFix"/>
<feBlend mode="normal" in="SourceGraphic" in2="BackgroundImageFix" result="shape"/>
<feColorMatrix in="SourceAlpha" type="matrix" values="0 0 0 0 0 0 0 0 0 0 0 0 0 0 0 0 0 0 127 0" result="hardAlpha"/>
<feOffset dx="-2" dy="2"/>
<feComposite in2="hardAlpha" operator="arithmetic" k2="-1" k3="1"/>
<feColorMatrix type="matrix" values="0 0 0 0 1 0 0 0 0 1 0 0 0 0 0.8 0 0 0 1 0"/>
<feBlend mode="normal" in2="shape" result="effect1_innerShadow_3_202"/>
<feColorMatrix in="SourceAlpha" type="matrix" values="0 0 0 0 0 0 0 0 0 0 0 0 0 0 0 0 0 0 127 0" result="hardAlpha"/>
<feOffset dx="2" dy="-2"/>
<feComposite in2="hardAlpha" operator="arithmetic" k2="-1" k3="1"/>
<feColorMatrix type="matrix" values="0 0 0 0 0.866667 0 0 0 0 0.866667 0 0 0 0 0.407843 0 0 0 1 0"/>
<feBlend mode="normal" in2="effect1_innerShadow_3_202" result="effect2_innerShadow_3_202"/>
</filter>
<filter id="filter23_ii_3_202" x="335" y="115" width="36" height="126" filterUnits="userSpaceOnUse" color-interpolation-filters="sRGB">
<feFlood flood-opacity="0" result="BackgroundImageFix"/>
<feBlend mode="normal" in="SourceGraphic" in2="BackgroundImageFix" result="shape"/>
<feColorMatrix in="SourceAlpha" type="matrix" values="0 0 0 0 0 0 0 0 0 0 0 0 0 0 0 0 0 0 127 0" result="hardAlpha"/>
<feOffset dx="-8" dy="8"/>
<feComposite in2="hardAlpha" operator="arithmetic" k2="-1" k3="1"/>
<feColorMatrix type="matrix" values="0 0 0 0 0.52549 0 0 0 0 0.792157 0 0 0 0 0.52549 0 0 0 1 0"/>
<feBlend mode="normal" in2="shape" result="effect1_innerShadow_3_202"/>
<feColorMatrix in="SourceAlpha" type="matrix" values="0 0 0 0 0 0 0 0 0 0 0 0 0 0 0 0 0 0 127 0" result="hardAlpha"/>
<feOffset dx="8" dy="-8"/>
<feComposite in2="hardAlpha" operator="arithmetic" k2="-1" k3="1"/>
<feColorMatrix type="matrix" values="0 0 0 0 0.27451 0 0 0 0 0.541176 0 0 0 0 0.27451 0 0 0 1 0"/>
<feBlend mode="normal" in2="effect1_innerShadow_3_202" result="effect2_innerShadow_3_202"/>
</filter>
<filter id="filter24_ii_3_202" x="339" y="212" width="28" height="13" filterUnits="userSpaceOnUse" color-interpolation-filters="sRGB">
<feFlood flood-opacity="0" result="BackgroundImageFix"/>
<feBlend mode="normal" in="SourceGraphic" in2="BackgroundImageFix" result="shape"/>
<feColorMatrix in="SourceAlpha" type="matrix" values="0 0 0 0 0 0 0 0 0 0 0 0 0 0 0 0 0 0 127 0" result="hardAlpha"/>
<feOffset dx="-2" dy="2"/>
<feComposite in2="hardAlpha" operator="arithmetic" k2="-1" k3="1"/>
<feColorMatrix type="matrix" values="0 0 0 0 1 0 0 0 0 1 0 0 0 0 0.8 0 0 0 1 0"/>
<feBlend mode="normal" in2="shape" result="effect1_innerShadow_3_202"/>
<feColorMatrix in="SourceAlpha" type="matrix" values="0 0 0 0 0 0 0 0 0 0 0 0 0 0 0 0 0 0 127 0" result="hardAlpha"/>
<feOffset dx="2" dy="-2"/>
<feComposite in2="hardAlpha" operator="arithmetic" k2="-1" k3="1"/>
<feColorMatrix type="matrix" values="0 0 0 0 0.866667 0 0 0 0 0.866667 0 0 0 0 0.407843 0 0 0 1 0"/>
<feBlend mode="normal" in2="effect1_innerShadow_3_202" result="effect2_innerShadow_3_202"/>
</filter>
<filter id="filter25_ii_3_202" x="339" y="130" width="28" height="13" filterUnits="userSpaceOnUse" color-interpolation-filters="sRGB">
<feFlood flood-opacity="0" result="BackgroundImageFix"/>
<feBlend mode="normal" in="SourceGraphic" in2="BackgroundImageFix" result="shape"/>
<feColorMatrix in="SourceAlpha" type="matrix" values="0 0 0 0 0 0 0 0 0 0 0 0 0 0 0 0 0 0 127 0" result="hardAlpha"/>
<feOffset dx="-2" dy="2"/>
<feComposite in2="hardAlpha" operator="arithmetic" k2="-1" k3="1"/>
<feColorMatrix type="matrix" values="0 0 0 0 1 0 0 0 0 1 0 0 0 0 0.8 0 0 0 1 0"/>
<feBlend mode="normal" in2="shape" result="effect1_innerShadow_3_202"/>
<feColorMatrix in="SourceAlpha" type="matrix" values="0 0 0 0 0 0 0 0 0 0 0 0 0 0 0 0 0 0 127 0" result="hardAlpha"/>
<feOffset dx="2" dy="-2"/>
<feComposite in2="hardAlpha" operator="arithmetic" k2="-1" k3="1"/>
<feColorMatrix type="matrix" values="0 0 0 0 0.866667 0 0 0 0 0.866667 0 0 0 0 0.407843 0 0 0 1 0"/>
<feBlend mode="normal" in2="effect1_innerShadow_3_202" result="effect2_innerShadow_3_202"/>
</filter>
</defs>
</svg>
