<svg width="1024" height="1024" viewBox="0 0 1024 1024" fill="none" xmlns="http://www.w3.org/2000/svg">
<path d="M748.806 642.055C741.811 653.974 724.579 653.974 717.584 642.055L677.078 573.033C674.883 569.293 671.418 566.466 667.315 565.065L630.635 552.542C610.083 545.525 617.053 514.871 638.618 517.433L731.06 528.415C732.478 528.584 733.912 528.584 735.33 528.415L827.772 517.433C849.337 514.871 856.307 545.525 835.755 552.542L799.075 565.065C794.972 566.466 791.507 569.293 789.312 573.033L748.806 642.055Z" fill="#7A4D40"/>
<path d="M733.195 528.541C732.482 528.541 731.769 528.499 731.06 528.415L638.618 517.433C617.053 514.871 610.083 545.525 630.635 552.542L667.315 565.065C671.418 566.466 674.883 569.293 677.078 573.033L717.584 642.055C721.082 648.014 727.138 650.994 733.195 650.994V623.95L696.591 561.579C692.225 554.139 685.625 548.303 677.773 544.872L728.391 550.886C729.987 551.075 731.591 551.17 733.195 551.17V528.541Z" fill="#4A2D20"/>
<path d="M733.195 650.994C739.252 650.994 745.308 648.014 748.806 642.055L789.312 573.033C791.507 569.293 794.972 566.466 799.075 565.065L835.755 552.542C856.307 545.525 849.337 514.871 827.772 517.433L735.33 528.415C734.621 528.499 733.908 528.541 733.195 528.541V551.17C734.799 551.17 736.403 551.075 737.999 550.886L788.617 544.872C780.765 548.303 774.165 554.139 769.799 561.579L733.195 623.95V650.994Z" fill="#9A6D60"/>
<path d="M747.342 595.02C741.003 602.685 725.387 602.685 719.048 595.02L682.34 550.633C680.351 548.228 677.212 546.41 673.493 545.509L640.253 537.456C626.493 534.122 626.346 522.492 635.089 517.308C636.217 517.249 637.394 517.288 638.618 517.433L731.06 528.415C732.478 528.584 733.912 528.584 735.33 528.415L827.772 517.433C828.996 517.288 830.173 517.249 831.301 517.308C840.043 522.492 839.897 534.122 826.137 537.456L792.897 545.509C789.178 546.41 786.039 548.228 784.05 550.633L747.342 595.02Z" fill="#7A4D40"/>
<path fill-rule="evenodd" clip-rule="evenodd" d="M688.786 566.161L729.292 635.182C731.041 638.162 735.349 638.162 737.098 635.182L777.604 566.161C781.445 559.616 787.508 554.667 794.689 552.216L831.369 539.693C833.207 539.065 833.787 538.229 834.055 537.69C834.426 536.944 834.63 535.772 834.32 534.406C834.009 533.041 833.318 532.072 832.661 531.56C832.187 531.19 831.301 530.687 829.373 530.916L736.931 541.897C734.449 542.192 731.941 542.192 729.458 541.897L637.017 530.916C635.089 530.687 634.203 531.19 633.729 531.56C633.072 532.072 632.381 533.041 632.07 534.406C631.76 535.772 631.964 536.944 632.335 537.69C632.603 538.229 633.183 539.065 635.021 539.693L671.701 552.216C678.882 554.667 684.944 559.616 688.786 566.161ZM717.584 642.055C724.579 653.974 741.811 653.974 748.806 642.055L789.312 573.033C791.507 569.293 794.972 566.466 799.075 565.065L835.755 552.542C856.307 545.525 849.337 514.871 827.772 517.433L735.33 528.415C733.912 528.584 732.478 528.584 731.06 528.415L638.618 517.433C617.053 514.871 610.083 545.525 630.635 552.542L667.315 565.065C671.418 566.466 674.883 569.293 677.078 573.033L717.584 642.055Z" fill="#101010"/>
<path d="M706.586 524.07C706.586 519.071 710.638 515.019 715.636 515.019H751.838C756.837 515.019 760.889 519.071 760.889 524.07V646.265C760.889 651.263 756.837 655.316 751.838 655.316H715.636C710.638 655.316 706.586 651.263 706.586 646.265V524.07Z" fill="#101010"/>
<path d="M722.424 530.859H745.05V639.476H722.424V530.859Z" fill="#7A4D40"/>
<path d="M722.424 530.859H731.475V639.476H722.424V530.859Z" fill="#4A2D20"/>
<path d="M722.424 616.847H745.05V639.476H722.424V616.847Z" fill="#4A2D20"/>
<path d="M726.949 530.859L745.05 530.859V634.95H733.737C729.989 634.95 726.949 631.911 726.949 628.162V530.859Z" fill="#7A4D40"/>
<path d="M740.525 530.859L745.05 530.859V639.476L740.525 639.476V530.859Z" fill="#9A6D60"/>
<path d="M303.068 642.055C296.073 653.974 278.842 653.974 271.847 642.055L231.34 573.033C229.145 569.293 225.681 566.466 221.577 565.065L184.898 552.542C164.345 545.525 171.315 514.871 192.881 517.433L285.322 528.415C286.741 528.584 288.174 528.584 289.593 528.415L382.035 517.433C403.6 514.871 410.57 545.525 390.018 552.542L353.338 565.065C349.234 566.466 345.77 569.293 343.575 573.033L303.068 642.055Z" fill="#7A4D40"/>
<path d="M287.458 528.541C286.745 528.541 286.032 528.499 285.322 528.415L192.881 517.433C171.315 514.871 164.345 545.525 184.898 552.542L221.577 565.065C225.681 566.466 229.145 569.293 231.34 573.033L271.847 642.055C275.344 648.014 281.401 650.994 287.458 650.994V623.95L250.854 561.579C246.487 554.139 239.888 548.303 232.036 544.872L282.654 550.886C284.249 551.075 285.853 551.17 287.458 551.17V528.541Z" fill="#4A2D20"/>
<path d="M287.458 650.994C293.514 650.994 299.571 648.014 303.068 642.055L343.575 573.033C345.77 569.293 349.234 566.466 353.338 565.065L390.018 552.542C410.57 545.525 403.6 514.871 382.035 517.433L289.593 528.415C288.883 528.499 288.17 528.541 287.458 528.541V551.17C289.062 551.17 290.666 551.075 292.262 550.886L342.879 544.872C335.027 548.303 328.428 554.139 324.062 561.579L287.458 623.95V650.994Z" fill="#9A6D60"/>
<path d="M301.604 595.02C295.265 602.685 279.65 602.685 273.311 595.02L236.603 550.633C234.614 548.228 231.474 546.41 227.755 545.509L194.516 537.456C180.756 534.122 180.609 522.492 189.352 517.308C190.479 517.249 191.656 517.288 192.881 517.433L285.322 528.415C286.741 528.584 288.174 528.584 289.593 528.415L382.035 517.433C383.259 517.288 384.436 517.249 385.564 517.308C394.306 522.492 394.159 534.122 380.399 537.456L347.16 545.509C343.441 546.41 340.301 548.228 338.312 550.633L301.604 595.02Z" fill="#7A4D40"/>
<path fill-rule="evenodd" clip-rule="evenodd" d="M243.048 566.161L283.555 635.182C285.304 638.162 289.611 638.162 291.36 635.182L331.867 566.161C335.708 559.616 341.771 554.667 348.952 552.216L385.632 539.693C387.469 539.065 388.05 538.229 388.318 537.69C388.689 536.944 388.893 535.772 388.582 534.406C388.272 533.041 387.581 532.072 386.924 531.56C386.449 531.19 385.564 530.687 383.636 530.916L291.194 541.897C288.712 542.192 286.203 542.192 283.721 541.897L191.279 530.916C189.351 530.687 188.466 531.19 187.991 531.56C187.334 532.072 186.643 533.041 186.333 534.406C186.022 535.772 186.227 536.944 186.597 537.69C186.865 538.229 187.446 539.065 189.283 539.693L225.963 552.216C233.144 554.667 239.207 559.616 243.048 566.161ZM271.847 642.055C278.842 653.974 296.073 653.974 303.068 642.055L343.575 573.033C345.77 569.293 349.234 566.466 353.338 565.065L390.018 552.542C410.57 545.525 403.6 514.871 382.035 517.433L289.593 528.415C288.174 528.584 286.741 528.584 285.322 528.415L192.881 517.433C171.315 514.871 164.345 545.525 184.898 552.542L221.577 565.065C225.681 566.466 229.145 569.293 231.34 573.033L271.847 642.055Z" fill="#101010"/>
<path d="M260.848 524.07C260.848 519.071 264.901 515.019 269.899 515.019H306.101C311.099 515.019 315.152 519.071 315.152 524.07V646.265C315.152 651.263 311.099 655.316 306.101 655.316H269.899C264.901 655.316 260.848 651.263 260.848 646.265V524.07Z" fill="#101010"/>
<path d="M276.687 530.859H299.313V639.476H276.687V530.859Z" fill="#7A4D40"/>
<path d="M276.687 530.859H285.737V639.476H276.687V530.859Z" fill="#4A2D20"/>
<path d="M276.687 616.847H299.313V639.476H276.687V616.847Z" fill="#4A2D20"/>
<path d="M281.212 530.859L299.313 530.859V634.95H288C284.251 634.95 281.212 631.911 281.212 628.162V530.859Z" fill="#7A4D40"/>
<path d="M294.788 530.859L299.313 530.859V639.476L294.788 639.476V530.859Z" fill="#9A6D60"/>
<path d="M64 481.076C64 476.077 68.052 472.024 73.0505 472.024H950.949C955.948 472.024 960 476.077 960 481.076V526.333C960 531.332 955.948 535.384 950.949 535.384H73.0505C68.0521 535.384 64 531.332 64 526.333V481.076Z" fill="#101010"/>
<path d="M77.5758 485.602H946.424V521.807H77.5758V485.602Z" fill="#7A4D40"/>
<path d="M77.5758 508.23H946.424V521.807H77.5758V508.23Z" fill="#4A2D20"/>
<path d="M77.5758 485.602H97.9394V521.807H77.5758V485.602Z" fill="#4A2D20"/>
<path d="M91.1515 485.602H97.9394V508.23C94.1906 508.23 91.1515 505.191 91.1515 501.442V485.602Z" fill="#7A4D40"/>
<path d="M937.374 485.602H946.424V521.807H937.374V485.602Z" fill="#9A6D60"/>
<path d="M77.5758 485.602H946.424V492.39H77.5758V485.602Z" fill="#9A6D60"/>
<path d="M937.374 492.39C939.873 492.39 941.899 494.416 941.899 496.916V508.23H937.374V492.39Z" fill="#7A4D40"/>
<path d="M937.374 508.23H941.899V521.807H937.374V508.23Z" fill="#4A2D20"/>
<path d="M469.01 159.75H559.515V472.024H469.01V159.75Z" fill="#101010"/>
<path d="M480.323 168.801H548.202V462.973H480.323V168.801Z" fill="#66AA66"/>
<path d="M539.151 168.801H548.202V462.973H539.151V168.801Z" fill="#86CA86"/>
<path d="M480.323 168.801H548.202V177.853H480.323V168.801Z" fill="#86CA86"/>
<path d="M480.323 168.801H489.374V462.973H480.323V168.801Z" fill="#468A46"/>
<path d="M480.323 453.922H548.202V462.973H480.323V453.922Z" fill="#468A46"/>
<path d="M507.863 295.133C511.397 291.598 517.128 291.598 520.662 295.133L539.54 314.013C543.074 317.547 543.074 323.278 539.54 326.813L520.662 345.693C517.128 349.227 511.397 349.227 507.863 345.693L488.986 326.813C485.451 323.278 485.451 317.547 488.986 314.013L507.863 295.133Z" fill="#101010"/>
<path d="M507.863 295.133C511.397 291.598 517.128 291.598 520.662 295.133L539.54 314.013C543.074 317.547 543.074 323.278 539.54 326.813L520.662 345.693C517.128 349.227 511.397 349.227 507.863 345.693L488.986 326.813C485.451 323.278 485.451 317.547 488.986 314.013L507.863 295.133Z" fill="#101010"/>
<path d="M507.863 295.133C511.397 291.598 517.128 291.598 520.662 295.133L539.54 314.013C543.074 317.547 543.074 323.278 539.54 326.813L520.662 345.693C517.128 349.227 511.397 349.227 507.863 345.693L488.986 326.813C485.451 323.278 485.451 317.547 488.986 314.013L507.863 295.133Z" fill="#101010"/>
<path d="M507.863 295.133C511.397 291.598 517.128 291.598 520.662 295.133L539.54 314.013C543.074 317.547 543.074 323.278 539.54 326.813L520.662 345.693C517.128 349.227 511.397 349.227 507.863 345.693L488.986 326.813C485.451 323.278 485.451 317.547 488.986 314.013L507.863 295.133Z" fill="#101010"/>
<path d="M514.263 300.047L534.626 320.413L514.263 340.779L493.899 320.413L514.263 300.047Z" fill="#EEEE88"/>
<path d="M523.313 367.933C523.313 372.932 519.261 376.984 514.263 376.984C509.264 376.984 505.212 372.932 505.212 367.933C505.212 362.934 509.264 358.882 514.263 358.882C519.261 358.882 523.313 362.934 523.313 367.933Z" fill="#101010"/>
<path d="M523.313 272.893C523.313 277.892 519.261 281.944 514.263 281.944C509.264 281.944 505.212 277.892 505.212 272.893C505.212 267.894 509.264 263.841 514.263 263.841C519.261 263.841 523.313 267.894 523.313 272.893Z" fill="#101010"/>
<path d="M518.788 367.933C518.788 370.432 516.762 372.459 514.263 372.459C511.763 372.459 509.737 370.432 509.737 367.933C509.737 365.433 511.763 363.407 514.263 363.407C516.762 363.407 518.788 365.433 518.788 367.933Z" fill="#EEEE88"/>
<path d="M518.788 272.893C518.788 275.392 516.762 277.419 514.263 277.419C511.763 277.419 509.737 275.392 509.737 272.893C509.737 270.393 511.763 268.367 514.263 268.367C516.762 268.367 518.788 270.393 518.788 272.893Z" fill="#EEEE88"/>
<path d="M469.01 184.641H559.515V259.316H469.01V184.641Z" fill="#101010"/>
<path d="M480.323 193.693H548.202V250.264H480.323V193.693Z" fill="#EEEE88"/>
<path d="M539.151 193.693H548.202V250.264H539.151V193.693Z" fill="#FFFFCC"/>
<path d="M480.323 193.693H489.374V250.264H480.323V193.693Z" fill="#DDDD68"/>
<path d="M507.734 200.495C511.296 196.784 517.23 196.784 520.792 200.495L535.397 215.71C538.759 219.213 538.759 224.744 535.397 228.247L520.792 243.463C517.23 247.173 511.296 247.173 507.734 243.463L493.128 228.247C489.766 224.744 489.766 219.213 493.128 215.71L507.734 200.495Z" fill="#101010"/>
<path d="M507.734 200.495C511.296 196.784 517.23 196.784 520.792 200.495L535.397 215.71C538.759 219.213 538.759 224.744 535.397 228.247L520.792 243.463C517.23 247.173 511.296 247.173 507.734 243.463L493.128 228.247C489.766 224.744 489.766 219.213 493.128 215.71L507.734 200.495Z" fill="#101010"/>
<path d="M507.734 200.495C511.296 196.784 517.23 196.784 520.792 200.495L535.397 215.71C538.759 219.213 538.759 224.744 535.397 228.247L520.792 243.463C517.23 247.173 511.296 247.173 507.734 243.463L493.128 228.247C489.766 224.744 489.766 219.213 493.128 215.71L507.734 200.495Z" fill="#101010"/>
<path d="M507.734 200.495C511.296 196.784 517.23 196.784 520.792 200.495L535.397 215.71C538.759 219.213 538.759 224.744 535.397 228.247L520.792 243.463C517.23 247.173 511.296 247.173 507.734 243.463L493.128 228.247C489.766 224.744 489.766 219.213 493.128 215.71L507.734 200.495Z" fill="#101010"/>
<path d="M514.263 205.007L530.101 221.979L514.263 238.95L498.424 221.979L514.263 205.007Z" fill="#EEEE88"/>
<path d="M469.01 381.51H559.515V456.184H469.01V381.51Z" fill="#101010"/>
<path d="M480.323 390.562H548.202V447.133H480.323V390.562Z" fill="#EEEE88"/>
<path d="M539.151 390.562H548.202V447.133H539.151V390.562Z" fill="#FFFFCC"/>
<path d="M480.323 390.562H489.374V447.133H480.323V390.562Z" fill="#DDDD68"/>
<path d="M507.734 397.363C511.296 393.652 517.23 393.652 520.792 397.363L535.397 412.579C538.759 416.081 538.759 421.613 535.397 425.116L520.792 440.331C517.23 444.042 511.296 444.042 507.734 440.331L493.128 425.116C489.766 421.613 489.766 416.081 493.128 412.579L507.734 397.363Z" fill="#101010"/>
<path d="M507.734 397.363C511.296 393.652 517.23 393.652 520.792 397.363L535.397 412.579C538.759 416.081 538.759 421.613 535.397 425.116L520.792 440.331C517.23 444.042 511.296 444.042 507.734 440.331L493.128 425.116C489.766 421.613 489.766 416.081 493.128 412.579L507.734 397.363Z" fill="#101010"/>
<path d="M507.734 397.363C511.296 393.652 517.23 393.652 520.792 397.363L535.397 412.579C538.759 416.081 538.759 421.613 535.397 425.116L520.792 440.331C517.23 444.042 511.296 444.042 507.734 440.331L493.128 425.116C489.766 421.613 489.766 416.081 493.128 412.579L507.734 397.363Z" fill="#101010"/>
<path d="M507.734 397.363C511.296 393.652 517.23 393.652 520.792 397.363L535.397 412.579C538.759 416.081 538.759 421.613 535.397 425.116L520.792 440.331C517.23 444.042 511.296 444.042 507.734 440.331L493.128 425.116C489.766 421.613 489.766 416.081 493.128 412.579L507.734 397.363Z" fill="#101010"/>
<path d="M514.263 401.876L530.101 418.847L514.263 435.819L498.424 418.847L514.263 401.876Z" fill="#EEEE88"/>
<path d="M387.556 186.904H469.01V472.024H387.556V186.904Z" fill="#101010"/>
<path d="M396.606 195.956H459.96V462.973H396.606V195.956Z" fill="#66AA66"/>
<path d="M450.909 195.956H459.96V462.973H450.909V195.956Z" fill="#86CA86"/>
<path d="M396.606 195.956H459.96V205.007H396.606V195.956Z" fill="#86CA86"/>
<path d="M396.606 195.956H405.657V462.973H396.606V195.956Z" fill="#468A46"/>
<path d="M396.606 453.922H459.96V462.973H396.606V453.922Z" fill="#468A46"/>
<path d="M387.556 397.35H469.01V444.87H387.556V397.35Z" fill="#101010"/>
<path d="M396.606 406.402H459.96V435.819H396.606V406.402Z" fill="#EEEE88"/>
<path d="M450.909 406.402H459.96V435.819H450.909V406.402Z" fill="#FFFFCC"/>
<path d="M396.606 406.402H405.657V435.819H396.606V406.402Z" fill="#DDDD68"/>
<path d="M396.606 415.453H459.96V426.767H396.606V415.453Z" fill="#101010"/>
<path d="M387.556 211.796H469.01V259.316H387.556V211.796Z" fill="#101010"/>
<path d="M396.606 220.847H459.96V250.264H396.606V220.847Z" fill="#EEEE88"/>
<path d="M450.909 220.847H459.96V250.264H450.909V220.847Z" fill="#FFFFCC"/>
<path d="M396.606 220.847H405.657V250.264H396.606V220.847Z" fill="#DDDD68"/>
<path d="M396.606 229.899H459.96V241.213H396.606V229.899Z" fill="#101010"/>
<path d="M421.883 301.922C425.418 298.387 431.148 298.387 434.682 301.922L453.56 320.801C457.094 324.336 457.094 330.067 453.56 333.602L434.682 352.481C431.148 356.016 425.418 356.016 421.883 352.481L403.006 333.602C399.471 330.067 399.471 324.336 403.006 320.801L421.883 301.922Z" fill="#101010"/>
<path d="M421.883 301.922C425.418 298.387 431.148 298.387 434.682 301.922L453.56 320.801C457.094 324.336 457.094 330.067 453.56 333.602L434.682 352.481C431.148 356.016 425.418 356.016 421.883 352.481L403.006 333.602C399.471 330.067 399.471 324.336 403.006 320.801L421.883 301.922Z" fill="#101010"/>
<path d="M421.883 301.922C425.418 298.387 431.148 298.387 434.682 301.922L453.56 320.801C457.094 324.336 457.094 330.067 453.56 333.602L434.682 352.481C431.148 356.016 425.418 356.016 421.883 352.481L403.006 333.602C399.471 330.067 399.471 324.336 403.006 320.801L421.883 301.922Z" fill="#101010"/>
<path d="M421.883 301.922C425.418 298.387 431.148 298.387 434.682 301.922L453.56 320.801C457.094 324.336 457.094 330.067 453.56 333.602L434.682 352.481C431.148 356.016 425.418 356.016 421.883 352.481L403.006 333.602C399.471 330.067 399.471 324.336 403.006 320.801L421.883 301.922Z" fill="#101010"/>
<path d="M428.283 306.836L448.646 327.202L428.283 347.567L407.919 327.202L428.283 306.836Z" fill="#EEEE88"/>
<path d="M437.333 374.722C437.333 379.72 433.281 383.773 428.283 383.773C423.284 383.773 419.232 379.72 419.232 374.722C419.232 369.723 423.284 365.67 428.283 365.67C433.281 365.67 437.333 369.723 437.333 374.722Z" fill="#101010"/>
<path d="M437.333 279.681C437.333 284.68 433.281 288.733 428.283 288.733C423.284 288.733 419.232 284.68 419.232 279.681C419.232 274.683 423.284 270.63 428.283 270.63C433.281 270.63 437.333 274.683 437.333 279.681Z" fill="#101010"/>
<path d="M432.808 374.722C432.808 377.221 430.782 379.247 428.283 379.247C425.784 379.247 423.758 377.221 423.758 374.722C423.758 372.222 425.784 370.196 428.283 370.196C430.782 370.196 432.808 372.222 432.808 374.722Z" fill="#EEEE88"/>
<path d="M432.808 279.681C432.808 282.181 430.782 284.207 428.283 284.207C425.784 284.207 423.758 282.181 423.758 279.681C423.758 277.182 425.784 275.156 428.283 275.156C430.782 275.156 432.808 277.182 432.808 279.681Z" fill="#EEEE88"/>
<path d="M306.101 186.904H387.556V472.024H306.101V186.904Z" fill="#101010"/>
<path d="M315.152 195.956H378.505V462.973H315.152V195.956Z" fill="#66AA66"/>
<path d="M369.455 195.956H378.505V462.973H369.455V195.956Z" fill="#86CA86"/>
<path d="M315.152 195.956H378.505V205.007H315.152V195.956Z" fill="#86CA86"/>
<path d="M315.152 195.956H324.202V462.973H315.152V195.956Z" fill="#468A46"/>
<path d="M315.152 453.922H378.505V462.973H315.152V453.922Z" fill="#468A46"/>
<path d="M306.101 397.35H387.556V444.87H306.101V397.35Z" fill="#101010"/>
<path d="M315.152 406.402H378.505V435.819H315.152V406.402Z" fill="#EEEE88"/>
<path d="M369.455 406.402H378.505V435.819H369.455V406.402Z" fill="#FFFFCC"/>
<path d="M315.152 406.402H324.202V435.819H315.152V406.402Z" fill="#DDDD68"/>
<path d="M315.152 415.453H378.505V426.767H315.152V415.453Z" fill="#101010"/>
<path d="M306.101 211.796H387.556V259.316H306.101V211.796Z" fill="#101010"/>
<path d="M315.152 220.847H378.505V250.264H315.152V220.847Z" fill="#EEEE88"/>
<path d="M369.455 220.847H378.505V250.264H369.455V220.847Z" fill="#FFFFCC"/>
<path d="M315.152 220.847H324.202V250.264H315.152V220.847Z" fill="#DDDD68"/>
<path d="M315.152 229.899H378.505V241.213H315.152V229.899Z" fill="#101010"/>
<path d="M340.429 301.922C343.963 298.387 349.694 298.387 353.228 301.922L372.105 320.801C375.64 324.336 375.64 330.067 372.105 333.602L353.228 352.481C349.693 356.016 343.963 356.016 340.429 352.481L321.551 333.602C318.017 330.067 318.017 324.336 321.551 320.801L340.429 301.922Z" fill="#101010"/>
<path d="M340.429 301.922C343.963 298.387 349.694 298.387 353.228 301.922L372.105 320.801C375.64 324.336 375.64 330.067 372.105 333.602L353.228 352.481C349.693 356.016 343.963 356.016 340.429 352.481L321.551 333.602C318.017 330.067 318.017 324.336 321.551 320.801L340.429 301.922Z" fill="#101010"/>
<path d="M340.429 301.922C343.963 298.387 349.694 298.387 353.228 301.922L372.105 320.801C375.64 324.336 375.64 330.067 372.105 333.602L353.228 352.481C349.693 356.016 343.963 356.016 340.429 352.481L321.551 333.602C318.017 330.067 318.017 324.336 321.551 320.801L340.429 301.922Z" fill="#101010"/>
<path d="M340.429 301.922C343.963 298.387 349.694 298.387 353.228 301.922L372.105 320.801C375.64 324.336 375.64 330.067 372.105 333.602L353.228 352.481C349.693 356.016 343.963 356.016 340.429 352.481L321.551 333.602C318.017 330.067 318.017 324.336 321.551 320.801L340.429 301.922Z" fill="#101010"/>
<path d="M346.828 306.836L367.192 327.202L346.828 347.567L326.465 327.202L346.828 306.836Z" fill="#EEEE88"/>
<path d="M355.879 374.722C355.879 379.72 351.827 383.773 346.828 383.773C341.83 383.773 337.778 379.72 337.778 374.722C337.778 369.723 341.83 365.67 346.828 365.67C351.827 365.67 355.879 369.723 355.879 374.722Z" fill="#101010"/>
<path d="M355.879 279.681C355.879 284.68 351.827 288.733 346.828 288.733C341.83 288.733 337.778 284.68 337.778 279.681C337.778 274.683 341.83 270.63 346.828 270.63C351.827 270.63 355.879 274.683 355.879 279.681Z" fill="#101010"/>
<path d="M351.354 374.722C351.354 377.221 349.327 379.247 346.828 379.247C344.329 379.247 342.303 377.221 342.303 374.722C342.303 372.222 344.329 370.196 346.828 370.196C349.327 370.196 351.354 372.222 351.354 374.722Z" fill="#EEEE88"/>
<path d="M351.354 279.681C351.354 282.181 349.327 284.207 346.828 284.207C344.329 284.207 342.303 282.181 342.303 279.681C342.303 277.182 344.329 275.156 346.828 275.156C349.327 275.156 351.354 277.182 351.354 279.681Z" fill="#EEEE88"/>
<path d="M224.646 186.904H306.101V472.024H224.646V186.904Z" fill="#101010"/>
<path d="M233.697 195.956H297.05V462.973H233.697V195.956Z" fill="#66AA66"/>
<path d="M288 195.956H297.05V462.973H288V195.956Z" fill="#86CA86"/>
<path d="M233.697 195.956H297.05V205.007H233.697V195.956Z" fill="#86CA86"/>
<path d="M233.697 195.956H242.747V462.973H233.697V195.956Z" fill="#468A46"/>
<path d="M233.697 453.922H297.05V462.973H233.697V453.922Z" fill="#468A46"/>
<path d="M224.646 397.35H306.101V444.87H224.646V397.35Z" fill="#101010"/>
<path d="M233.697 406.402H297.05V435.819H233.697V406.402Z" fill="#EEEE88"/>
<path d="M288 406.402H297.05V435.819H288V406.402Z" fill="#FFFFCC"/>
<path d="M233.697 406.402H242.747V435.819H233.697V406.402Z" fill="#DDDD68"/>
<path d="M233.697 415.453H297.05V426.767H233.697V415.453Z" fill="#101010"/>
<path d="M224.646 211.796H306.101V259.316H224.646V211.796Z" fill="#101010"/>
<path d="M233.697 220.847H297.05V250.264H233.697V220.847Z" fill="#EEEE88"/>
<path d="M288 220.847H297.05V250.264H288V220.847Z" fill="#FFFFCC"/>
<path d="M233.697 220.847H242.747V250.264H233.697V220.847Z" fill="#DDDD68"/>
<path d="M233.697 229.899H297.05V241.213H233.697V229.899Z" fill="#101010"/>
<path d="M258.974 301.922C262.509 298.387 268.239 298.387 271.773 301.922L290.651 320.801C294.185 324.336 294.185 330.067 290.651 333.602L271.773 352.481C268.239 356.016 262.508 356.016 258.974 352.481L240.097 333.602C236.562 330.067 236.562 324.336 240.097 320.801L258.974 301.922Z" fill="#101010"/>
<path d="M258.974 301.922C262.509 298.387 268.239 298.387 271.773 301.922L290.651 320.801C294.185 324.336 294.185 330.067 290.651 333.602L271.773 352.481C268.239 356.016 262.508 356.016 258.974 352.481L240.097 333.602C236.562 330.067 236.562 324.336 240.097 320.801L258.974 301.922Z" fill="#101010"/>
<path d="M258.974 301.922C262.509 298.387 268.239 298.387 271.773 301.922L290.651 320.801C294.185 324.336 294.185 330.067 290.651 333.602L271.773 352.481C268.239 356.016 262.508 356.016 258.974 352.481L240.097 333.602C236.562 330.067 236.562 324.336 240.097 320.801L258.974 301.922Z" fill="#101010"/>
<path d="M258.974 301.922C262.509 298.387 268.239 298.387 271.773 301.922L290.651 320.801C294.185 324.336 294.185 330.067 290.651 333.602L271.773 352.481C268.239 356.016 262.508 356.016 258.974 352.481L240.097 333.602C236.562 330.067 236.562 324.336 240.097 320.801L258.974 301.922Z" fill="#101010"/>
<path d="M265.374 306.836L285.737 327.202L265.374 347.567L245.01 327.202L265.374 306.836Z" fill="#EEEE88"/>
<path d="M274.424 374.722C274.424 379.72 270.372 383.773 265.374 383.773C260.375 383.773 256.323 379.72 256.323 374.722C256.323 369.723 260.375 365.67 265.374 365.67C270.372 365.67 274.424 369.723 274.424 374.722Z" fill="#101010"/>
<path d="M274.424 279.681C274.424 284.68 270.372 288.733 265.374 288.733C260.375 288.733 256.323 284.68 256.323 279.681C256.323 274.683 260.375 270.63 265.374 270.63C270.372 270.63 274.424 274.683 274.424 279.681Z" fill="#101010"/>
<path d="M269.899 374.722C269.899 377.221 267.873 379.247 265.374 379.247C262.875 379.247 260.848 377.221 260.848 374.722C260.848 372.222 262.875 370.196 265.374 370.196C267.873 370.196 269.899 372.222 269.899 374.722Z" fill="#EEEE88"/>
<path d="M269.899 279.681C269.899 282.181 267.873 284.207 265.374 284.207C262.875 284.207 260.848 282.181 260.848 279.681C260.848 277.182 262.875 275.156 265.374 275.156C267.873 275.156 269.899 277.182 269.899 279.681Z" fill="#EEEE88"/>
<path d="M559.515 186.904H640.97V472.024H559.515V186.904Z" fill="#101010"/>
<path d="M568.566 195.956H631.919V462.973H568.566V195.956Z" fill="#66AA66"/>
<path d="M622.869 195.956H631.919V462.973H622.869V195.956Z" fill="#86CA86"/>
<path d="M568.566 195.956H631.919V205.007H568.566V195.956Z" fill="#86CA86"/>
<path d="M568.566 195.956H577.616V462.973H568.566V195.956Z" fill="#468A46"/>
<path d="M568.566 453.922H631.919V462.973H568.566V453.922Z" fill="#468A46"/>
<path d="M559.515 397.35H640.97V444.87H559.515V397.35Z" fill="#101010"/>
<path d="M568.566 406.402H631.919V435.819H568.566V406.402Z" fill="#EEEE88"/>
<path d="M622.869 406.402H631.919V435.819H622.869V406.402Z" fill="#FFFFCC"/>
<path d="M568.566 406.402H577.616V435.819H568.566V406.402Z" fill="#DDDD68"/>
<path d="M568.566 415.453H631.919V426.767H568.566V415.453Z" fill="#101010"/>
<path d="M559.515 211.796H640.97V259.316H559.515V211.796Z" fill="#101010"/>
<path d="M568.566 220.847H631.919V250.264H568.566V220.847Z" fill="#EEEE88"/>
<path d="M622.869 220.847H631.919V250.264H622.869V220.847Z" fill="#FFFFCC"/>
<path d="M568.566 220.847H577.616V250.264H568.566V220.847Z" fill="#DDDD68"/>
<path d="M568.566 229.899H631.919V241.213H568.566V229.899Z" fill="#101010"/>
<path d="M593.843 301.922C597.377 298.387 603.108 298.387 606.642 301.922L625.519 320.801C629.054 324.336 629.054 330.067 625.519 333.602L606.642 352.481C603.108 356.016 597.377 356.016 593.843 352.481L574.965 333.602C571.431 330.067 571.431 324.336 574.965 320.801L593.843 301.922Z" fill="#101010"/>
<path d="M593.843 301.922C597.377 298.387 603.108 298.387 606.642 301.922L625.519 320.801C629.054 324.336 629.054 330.067 625.519 333.602L606.642 352.481C603.108 356.016 597.377 356.016 593.843 352.481L574.965 333.602C571.431 330.067 571.431 324.336 574.965 320.801L593.843 301.922Z" fill="#101010"/>
<path d="M593.843 301.922C597.377 298.387 603.108 298.387 606.642 301.922L625.519 320.801C629.054 324.336 629.054 330.067 625.519 333.602L606.642 352.481C603.108 356.016 597.377 356.016 593.843 352.481L574.965 333.602C571.431 330.067 571.431 324.336 574.965 320.801L593.843 301.922Z" fill="#101010"/>
<path d="M593.843 301.922C597.377 298.387 603.108 298.387 606.642 301.922L625.519 320.801C629.054 324.336 629.054 330.067 625.519 333.602L606.642 352.481C603.108 356.016 597.377 356.016 593.843 352.481L574.965 333.602C571.431 330.067 571.431 324.336 574.965 320.801L593.843 301.922Z" fill="#101010"/>
<path d="M600.242 306.836L620.606 327.202L600.242 347.567L579.879 327.202L600.242 306.836Z" fill="#EEEE88"/>
<path d="M609.293 374.722C609.293 379.72 605.241 383.773 600.242 383.773C595.244 383.773 591.192 379.72 591.192 374.722C591.192 369.723 595.244 365.67 600.242 365.67C605.241 365.67 609.293 369.723 609.293 374.722Z" fill="#101010"/>
<path d="M609.293 279.681C609.293 284.68 605.241 288.733 600.242 288.733C595.244 288.733 591.192 284.68 591.192 279.681C591.192 274.683 595.244 270.63 600.242 270.63C605.241 270.63 609.293 274.683 609.293 279.681Z" fill="#101010"/>
<path d="M604.768 374.722C604.768 377.221 602.742 379.247 600.242 379.247C597.743 379.247 595.717 377.221 595.717 374.722C595.717 372.222 597.743 370.196 600.242 370.196C602.742 370.196 604.768 372.222 604.768 374.722Z" fill="#EEEE88"/>
<path d="M604.768 279.681C604.768 282.181 602.742 284.207 600.242 284.207C597.743 284.207 595.717 282.181 595.717 279.681C595.717 277.182 597.743 275.156 600.242 275.156C602.742 275.156 604.768 277.182 604.768 279.681Z" fill="#EEEE88"/>
<path d="M640.97 186.904H722.424V472.024H640.97V186.904Z" fill="#101010"/>
<path d="M650.02 195.956H713.374V462.973H650.02V195.956Z" fill="#66AA66"/>
<path d="M704.323 195.956H713.374V462.973H704.323V195.956Z" fill="#86CA86"/>
<path d="M650.02 195.956H713.374V205.007H650.02V195.956Z" fill="#86CA86"/>
<path d="M650.02 195.956H659.071V462.973H650.02V195.956Z" fill="#468A46"/>
<path d="M650.02 453.922H713.374V462.973H650.02V453.922Z" fill="#468A46"/>
<path d="M640.97 397.35H722.424V444.87H640.97V397.35Z" fill="#101010"/>
<path d="M650.02 406.402H713.374V435.819H650.02V406.402Z" fill="#EEEE88"/>
<path d="M704.323 406.402H713.374V435.819H704.323V406.402Z" fill="#FFFFCC"/>
<path d="M650.02 406.402H659.071V435.819H650.02V406.402Z" fill="#DDDD68"/>
<path d="M650.02 415.453H713.374V426.767H650.02V415.453Z" fill="#101010"/>
<path d="M640.97 211.796H722.424V259.316H640.97V211.796Z" fill="#101010"/>
<path d="M650.02 220.847H713.374V250.264H650.02V220.847Z" fill="#EEEE88"/>
<path d="M704.323 220.847H713.374V250.264H704.323V220.847Z" fill="#FFFFCC"/>
<path d="M650.02 220.847H659.071V250.264H650.02V220.847Z" fill="#DDDD68"/>
<path d="M650.02 229.899H713.374V241.213H650.02V229.899Z" fill="#101010"/>
<path d="M675.297 301.922C678.832 298.387 684.562 298.387 688.097 301.922L706.974 320.801C710.508 324.336 710.508 330.067 706.974 333.602L688.097 352.481C684.562 356.016 678.832 356.016 675.297 352.481L656.42 333.602C652.885 330.067 652.885 324.336 656.42 320.801L675.297 301.922Z" fill="#101010"/>
<path d="M675.297 301.922C678.832 298.387 684.562 298.387 688.097 301.922L706.974 320.801C710.508 324.336 710.508 330.067 706.974 333.602L688.097 352.481C684.562 356.016 678.832 356.016 675.297 352.481L656.42 333.602C652.885 330.067 652.885 324.336 656.42 320.801L675.297 301.922Z" fill="#101010"/>
<path d="M675.297 301.922C678.832 298.387 684.562 298.387 688.097 301.922L706.974 320.801C710.508 324.336 710.508 330.067 706.974 333.602L688.097 352.481C684.562 356.016 678.832 356.016 675.297 352.481L656.42 333.602C652.885 330.067 652.885 324.336 656.42 320.801L675.297 301.922Z" fill="#101010"/>
<path d="M675.297 301.922C678.832 298.387 684.562 298.387 688.097 301.922L706.974 320.801C710.508 324.336 710.508 330.067 706.974 333.602L688.097 352.481C684.562 356.016 678.832 356.016 675.297 352.481L656.42 333.602C652.885 330.067 652.885 324.336 656.42 320.801L675.297 301.922Z" fill="#101010"/>
<path d="M681.697 306.836L702.061 327.202L681.697 347.567L661.333 327.202L681.697 306.836Z" fill="#EEEE88"/>
<path d="M690.747 374.722C690.747 379.72 686.695 383.773 681.697 383.773C676.698 383.773 672.646 379.72 672.646 374.722C672.646 369.723 676.698 365.67 681.697 365.67C686.695 365.67 690.747 369.723 690.747 374.722Z" fill="#101010"/>
<path d="M690.747 279.681C690.747 284.68 686.695 288.733 681.697 288.733C676.698 288.733 672.646 284.68 672.646 279.681C672.646 274.683 676.698 270.63 681.697 270.63C686.695 270.63 690.747 274.683 690.747 279.681Z" fill="#101010"/>
<path d="M686.222 374.722C686.222 377.221 684.196 379.247 681.697 379.247C679.198 379.247 677.172 377.221 677.172 374.722C677.172 372.222 679.198 370.196 681.697 370.196C684.196 370.196 686.222 372.222 686.222 374.722Z" fill="#EEEE88"/>
<path d="M686.222 279.681C686.222 282.181 684.196 284.207 681.697 284.207C679.198 284.207 677.172 282.181 677.172 279.681C677.172 277.182 679.198 275.156 681.697 275.156C684.196 275.156 686.222 277.182 686.222 279.681Z" fill="#EEEE88"/>
<path d="M722.424 186.904H803.879V472.024H722.424V186.904Z" fill="#101010"/>
<path d="M731.475 195.956H794.828V462.973H731.475V195.956Z" fill="#66AA66"/>
<path d="M785.778 195.956H794.828V462.973H785.778V195.956Z" fill="#86CA86"/>
<path d="M731.475 195.956H794.828V205.007H731.475V195.956Z" fill="#86CA86"/>
<path d="M731.475 195.956H740.525V462.973H731.475V195.956Z" fill="#468A46"/>
<path d="M731.475 453.922H794.828V462.973H731.475V453.922Z" fill="#468A46"/>
<path d="M722.424 397.35H803.879V444.87H722.424V397.35Z" fill="#101010"/>
<path d="M731.475 406.402H794.828V435.819H731.475V406.402Z" fill="#EEEE88"/>
<path d="M785.778 406.402H794.828V435.819H785.778V406.402Z" fill="#FFFFCC"/>
<path d="M731.475 406.402H740.525V435.819H731.475V406.402Z" fill="#DDDD68"/>
<path d="M731.475 415.453H794.828V426.767H731.475V415.453Z" fill="#101010"/>
<path d="M722.424 211.796H803.879V259.316H722.424V211.796Z" fill="#101010"/>
<path d="M731.475 220.847H794.828V250.264H731.475V220.847Z" fill="#EEEE88"/>
<path d="M785.778 220.847H794.828V250.264H785.778V220.847Z" fill="#FFFFCC"/>
<path d="M731.475 220.847H740.525V250.264H731.475V220.847Z" fill="#DDDD68"/>
<path d="M731.475 229.899H794.828V241.213H731.475V229.899Z" fill="#101010"/>
<path d="M756.752 301.922C760.286 298.387 766.017 298.387 769.551 301.922L788.429 320.801C791.963 324.336 791.963 330.067 788.429 333.602L769.551 352.481C766.017 356.016 760.286 356.016 756.752 352.481L737.874 333.602C734.34 330.067 734.34 324.336 737.874 320.801L756.752 301.922Z" fill="#101010"/>
<path d="M756.752 301.922C760.286 298.387 766.017 298.387 769.551 301.922L788.429 320.801C791.963 324.336 791.963 330.067 788.429 333.602L769.551 352.481C766.017 356.016 760.286 356.016 756.752 352.481L737.874 333.602C734.34 330.067 734.34 324.336 737.874 320.801L756.752 301.922Z" fill="#101010"/>
<path d="M756.752 301.922C760.286 298.387 766.017 298.387 769.551 301.922L788.429 320.801C791.963 324.336 791.963 330.067 788.429 333.602L769.551 352.481C766.017 356.016 760.286 356.016 756.752 352.481L737.874 333.602C734.34 330.067 734.34 324.336 737.874 320.801L756.752 301.922Z" fill="#101010"/>
<path d="M756.752 301.922C760.286 298.387 766.017 298.387 769.551 301.922L788.429 320.801C791.963 324.336 791.963 330.067 788.429 333.602L769.551 352.481C766.017 356.016 760.286 356.016 756.752 352.481L737.874 333.602C734.34 330.067 734.34 324.336 737.874 320.801L756.752 301.922Z" fill="#101010"/>
<path d="M763.151 306.836L783.515 327.202L763.151 347.567L742.788 327.202L763.151 306.836Z" fill="#EEEE88"/>
<path d="M772.202 374.722C772.202 379.72 768.15 383.773 763.151 383.773C758.153 383.773 754.101 379.72 754.101 374.722C754.101 369.723 758.153 365.67 763.151 365.67C768.15 365.67 772.202 369.723 772.202 374.722Z" fill="#101010"/>
<path d="M772.202 279.681C772.202 284.68 768.15 288.733 763.151 288.733C758.153 288.733 754.101 284.68 754.101 279.681C754.101 274.683 758.153 270.63 763.151 270.63C768.15 270.63 772.202 274.683 772.202 279.681Z" fill="#101010"/>
<path d="M767.677 374.722C767.677 377.221 765.651 379.247 763.151 379.247C760.652 379.247 758.626 377.221 758.626 374.722C758.626 372.222 760.652 370.196 763.151 370.196C765.651 370.196 767.677 372.222 767.677 374.722Z" fill="#EEEE88"/>
<path d="M767.677 279.681C767.677 282.181 765.651 284.207 763.151 284.207C760.652 284.207 758.626 282.181 758.626 279.681C758.626 277.182 760.652 275.156 763.151 275.156C765.651 275.156 767.677 277.182 767.677 279.681Z" fill="#EEEE88"/>
<path d="M170.591 767.499C175.044 767.499 178.936 767.988 182.266 768.966C185.597 769.943 188.276 770.975 190.303 772.061C192.33 773.147 193.561 773.871 193.996 774.233L186.176 787.322C185.597 786.887 184.601 786.254 183.189 785.421C181.814 784.588 180.166 783.846 178.248 783.194C176.365 782.543 174.392 782.217 172.329 782.217C169.541 782.217 167.279 782.724 165.541 783.737C163.839 784.715 162.989 786.181 162.989 788.136C162.989 789.476 163.441 790.689 164.346 791.775C165.287 792.825 166.699 793.839 168.582 794.816C170.501 795.758 172.926 796.79 175.858 797.912C178.537 798.89 181.053 800.048 183.407 801.388C185.76 802.727 187.823 804.32 189.597 806.167C191.407 807.977 192.837 810.077 193.887 812.467C194.937 814.856 195.462 817.572 195.462 820.613C195.462 824.234 194.72 827.383 193.235 830.063C191.751 832.706 189.724 834.896 187.153 836.634C184.619 838.372 181.723 839.657 178.465 840.49C175.243 841.359 171.894 841.793 168.419 841.793C163.495 841.793 159.079 841.232 155.169 840.11C151.295 838.987 148.164 837.775 145.775 836.471C143.385 835.168 141.955 834.299 141.485 833.864L149.576 820.233C150.01 820.559 150.843 821.084 152.074 821.808C153.341 822.532 154.879 823.292 156.689 824.089C158.5 824.849 160.418 825.501 162.446 826.044C164.509 826.587 166.536 826.859 168.528 826.859C171.858 826.859 174.356 826.225 176.021 824.958C177.687 823.654 178.519 821.953 178.519 819.853C178.519 818.296 177.994 816.902 176.945 815.671C175.895 814.44 174.32 813.281 172.22 812.195C170.12 811.073 167.496 809.896 164.346 808.665C161.197 807.398 158.246 805.859 155.495 804.049C152.78 802.239 150.571 799.976 148.87 797.26C147.168 794.545 146.318 791.178 146.318 787.159C146.318 783.14 147.44 779.664 149.684 776.732C151.965 773.763 154.952 771.482 158.644 769.889C162.373 768.296 166.355 767.499 170.591 767.499Z" fill="#101010"/>
<path d="M251.619 811.652H226.857V840.49H210.674V768.803H226.857V797.478H251.619V768.803H267.747V840.49H251.619V811.652Z" fill="#101010"/>
<path d="M286.066 768.803H302.302V840.49H286.066V768.803Z" fill="#101010"/>
<path d="M343.519 768.803H359.647L387.939 840.49H370.616L365.403 826.098H337.817L332.55 840.49H315.173L343.519 768.803ZM343.248 811.869H360.027L351.719 788.354H351.556L343.248 811.869Z" fill="#101010"/>
<path d="M459.394 767.499C463.847 767.499 467.739 767.988 471.069 768.966C474.4 769.943 477.079 770.975 479.106 772.061C481.133 773.147 482.364 773.871 482.799 774.233L474.979 787.322C474.4 786.887 473.404 786.254 471.992 785.421C470.617 784.588 468.97 783.846 467.051 783.194C465.168 782.543 463.195 782.217 461.132 782.217C458.344 782.217 456.082 782.724 454.344 783.737C452.642 784.715 451.792 786.181 451.792 788.136C451.792 789.476 452.244 790.689 453.149 791.775C454.09 792.825 455.502 793.839 457.385 794.816C459.304 795.758 461.729 796.79 464.661 797.912C467.34 798.89 469.856 800.048 472.21 801.388C474.563 802.727 476.626 804.32 478.4 806.167C480.21 807.977 481.64 810.077 482.69 812.467C483.74 814.856 484.265 817.572 484.265 820.613C484.265 824.234 483.523 827.383 482.038 830.063C480.554 832.706 478.527 834.896 475.957 836.634C473.422 838.372 470.526 839.657 467.268 840.49C464.046 841.359 460.697 841.793 457.222 841.793C452.298 841.793 447.882 841.232 443.972 840.11C440.098 838.987 436.967 837.775 434.578 836.471C432.188 835.168 430.758 834.299 430.288 833.864L438.379 820.233C438.813 820.559 439.646 821.084 440.877 821.808C442.144 822.532 443.682 823.292 445.492 824.089C447.303 824.849 449.221 825.501 451.249 826.044C453.312 826.587 455.339 826.859 457.331 826.859C460.661 826.859 463.159 826.225 464.824 824.958C466.49 823.654 467.322 821.953 467.322 819.853C467.322 818.296 466.797 816.902 465.748 815.671C464.698 814.44 463.123 813.281 461.023 812.195C458.923 811.073 456.299 809.896 453.149 808.665C450 807.398 447.049 805.859 444.298 804.049C441.583 802.239 439.374 799.976 437.673 797.26C435.971 794.545 435.121 791.178 435.121 787.159C435.121 783.14 436.243 779.664 438.487 776.732C440.768 773.763 443.755 771.482 447.447 769.889C451.176 768.296 455.158 767.499 459.394 767.499Z" fill="#101010"/>
<path d="M540.422 811.652H515.66V840.49H499.477V768.803H515.66V797.478H540.422V768.803H556.55V840.49H540.422V811.652Z" fill="#101010"/>
<path d="M574.271 768.803H620.049V783.031H590.454V797.64H619.777V811.435H590.454V826.261H620.049V840.49H574.271V768.803Z" fill="#101010"/>
<path d="M638.151 768.803H654.388V826.261H680.399V840.49H638.151V768.803Z" fill="#101010"/>
<path d="M729.882 840.49H711.527L686.005 768.803H704.305L720.705 819.798L737.104 768.803H755.404L729.882 840.49Z" fill="#101010"/>
<path d="M768.85 768.803H814.627V783.031H785.032V797.64H814.356V811.435H785.032V826.261H814.627V840.49H768.85V768.803Z" fill="#101010"/>
<path d="M858.415 767.499C862.868 767.499 866.76 767.988 870.09 768.966C873.421 769.943 876.1 770.975 878.127 772.061C880.155 773.147 881.385 773.871 881.82 774.233L874 787.322C873.421 786.887 872.425 786.254 871.014 785.421C869.638 784.588 867.991 783.846 866.072 783.194C864.19 782.543 862.217 782.217 860.153 782.217C857.365 782.217 855.103 782.724 853.365 783.737C851.664 784.715 850.813 786.181 850.813 788.136C850.813 789.476 851.265 790.689 852.17 791.775C853.112 792.825 854.524 793.839 856.406 794.816C858.325 795.758 860.75 796.79 863.683 797.912C866.362 798.89 868.878 800.048 871.231 801.388C873.584 802.727 875.647 804.32 877.421 806.167C879.231 807.977 880.661 810.077 881.711 812.467C882.761 814.856 883.286 817.572 883.286 820.613C883.286 824.234 882.544 827.383 881.06 830.063C879.575 832.706 877.548 834.896 874.978 836.634C872.444 838.372 869.547 839.657 866.289 840.49C863.067 841.359 859.719 841.793 856.243 841.793C851.32 841.793 846.903 841.232 842.993 840.11C839.12 838.987 835.988 837.775 833.599 836.471C831.21 835.168 829.78 834.299 829.309 833.864L837.4 820.233C837.834 820.559 838.667 821.084 839.898 821.808C841.165 822.532 842.704 823.292 844.514 824.089C846.324 824.849 848.243 825.501 850.27 826.044C852.333 826.587 854.361 826.859 856.352 826.859C859.682 826.859 862.18 826.225 863.846 824.958C865.511 823.654 866.344 821.953 866.344 819.853C866.344 818.296 865.819 816.902 864.769 815.671C863.719 814.44 862.144 813.281 860.044 812.195C857.945 811.073 855.32 809.896 852.17 808.665C849.021 807.398 846.07 805.859 843.319 804.049C840.604 802.239 838.396 799.976 836.694 797.26C834.993 794.545 834.142 791.178 834.142 787.159C834.142 783.14 835.264 779.664 837.509 776.732C839.789 773.763 842.776 771.482 846.469 769.889C850.197 768.296 854.18 767.499 858.415 767.499Z" fill="#101010"/>
<path d="M297.966 731.167C295.118 731.167 292.415 730.805 289.856 730.081C287.298 729.357 285.054 728.295 283.123 726.895C281.192 725.446 279.672 723.66 278.561 721.536C277.451 719.364 276.896 716.854 276.896 714.005C276.896 710.771 277.62 707.923 279.068 705.461C280.565 702.951 282.616 700.851 285.223 699.161C287.829 697.471 290.87 696.168 294.346 695.251C297.869 694.285 301.658 693.73 305.713 693.585L306.147 704.737C303.541 704.833 301.127 705.123 298.907 705.606C296.735 706.04 294.828 706.668 293.187 707.488C291.546 708.261 290.267 709.202 289.35 710.312C288.481 711.423 288.046 712.678 288.046 714.078C288.046 715.333 288.433 716.419 289.205 717.336C289.977 718.205 291.111 718.857 292.608 719.291C294.104 719.726 295.866 719.943 297.893 719.943C299.631 719.943 301.248 719.774 302.744 719.436C304.289 719.098 305.737 718.616 307.089 717.988L311.94 728.053C309.816 729.067 307.547 729.839 305.134 730.37C302.72 730.901 300.331 731.167 297.966 731.167ZM322.873 734.136C319.011 734.136 315.729 733.412 313.026 731.963C310.371 730.467 308.344 728.319 306.944 725.519C305.544 722.671 304.844 719.243 304.844 715.236V691.341H315.994V715.236C315.994 716.781 316.163 718.012 316.501 718.929C316.887 719.798 317.563 720.402 318.528 720.74C319.542 721.078 320.99 721.247 322.873 721.247H325.552V734.136H322.873ZM325.552 734.136V721.247C325.986 721.247 326.324 721.826 326.565 722.984C326.855 724.143 327 725.688 327 727.619C327 729.598 326.855 731.191 326.565 732.398C326.324 733.557 325.986 734.136 325.552 734.136ZM302.238 684.679C300.741 684.679 299.486 684.196 298.473 683.231C297.507 682.217 297.024 680.962 297.024 679.465C297.024 677.92 297.507 676.665 298.473 675.7C299.486 674.734 300.741 674.252 302.238 674.252C303.734 674.252 304.965 674.734 305.93 675.7C306.944 676.665 307.451 677.92 307.451 679.465C307.451 680.962 306.944 682.217 305.93 683.231C304.965 684.196 303.734 684.679 302.238 684.679ZM290.291 684.679C288.795 684.679 287.54 684.196 286.526 683.231C285.56 682.217 285.078 680.962 285.078 679.465C285.078 677.92 285.56 676.665 286.526 675.7C287.54 674.734 288.795 674.252 290.291 674.252C291.836 674.252 293.091 674.734 294.056 675.7C295.021 676.665 295.504 677.92 295.504 679.465C295.504 680.962 295.021 682.217 294.056 683.231C293.091 684.196 291.836 684.679 290.291 684.679Z" fill="#101010"/>
<path d="M325.545 734.136V721.247H342.271C343.815 721.247 345.457 721.029 347.194 720.595C348.98 720.16 350.742 719.581 352.48 718.857C354.217 718.133 355.786 717.336 357.186 716.467C358.634 715.598 359.768 714.754 360.589 713.933C361.458 713.064 361.892 712.316 361.892 711.688C361.892 710.964 361.41 710.288 360.444 709.661C359.479 709.033 358.103 708.502 356.317 708.068C354.579 707.633 352.576 707.416 350.308 707.416C348.377 707.416 346.543 707.585 344.805 707.923C343.115 708.261 341.378 708.768 339.592 709.443L337.275 712.05L330.831 708.792L337.565 697.785C339.495 697.158 341.571 696.627 343.791 696.192C346.06 695.758 348.546 695.541 351.249 695.541C355.593 695.541 359.382 696.12 362.616 697.278C365.899 698.389 368.457 699.958 370.291 701.985C372.125 703.964 373.043 706.33 373.043 709.081C373.043 711.35 372.415 713.547 371.16 715.671C369.953 717.795 368.312 719.774 366.237 721.609C364.209 723.443 361.892 725.133 359.286 726.677C356.679 728.222 354 729.55 351.249 730.66C348.498 731.77 345.794 732.639 343.14 733.267C340.533 733.846 338.168 734.136 336.044 734.136H325.545ZM365.512 734.136C359.672 734.136 354.386 733.098 349.656 731.022C344.974 728.898 341.016 725.929 337.782 722.116C334.548 718.302 332.231 713.861 330.831 708.792L339.23 704.52C339.809 707.899 340.968 710.843 342.705 713.354C344.491 715.864 346.76 717.819 349.511 719.219C352.263 720.571 355.303 721.247 358.634 721.247H379.704V734.136H365.512ZM379.704 734.136V721.247C380.138 721.247 380.476 721.826 380.717 722.984C381.007 724.143 381.152 725.688 381.152 727.619C381.152 729.598 381.007 731.191 380.717 732.398C380.476 733.557 380.138 734.136 379.704 734.136ZM325.545 734.136C325.111 734.136 324.773 733.557 324.532 732.398C324.242 731.191 324.097 729.598 324.097 727.619C324.097 725.688 324.242 724.143 324.532 722.984C324.773 721.826 325.111 721.247 325.545 721.247V734.136Z" fill="#101010"/>
<path d="M379.707 734.136V721.247H383.689C385.62 721.247 387.068 721.078 388.034 720.74C388.999 720.402 389.675 719.798 390.061 718.929C390.447 718.012 390.64 716.781 390.64 715.236V696.989H401.718V715.236C401.718 719.243 401.018 722.647 399.618 725.446C398.218 728.246 396.167 730.395 393.464 731.891C390.809 733.339 387.551 734.088 383.689 734.136H379.707ZM408.669 734.136C404.759 734.136 401.477 733.412 398.822 731.963C396.167 730.467 394.14 728.319 392.74 725.519C391.34 722.671 390.64 719.243 390.64 715.236H401.718C401.718 716.781 401.887 718.012 402.225 718.929C402.611 719.798 403.311 720.402 404.324 720.74C405.338 721.078 406.786 721.247 408.669 721.247H411.275V734.136H408.669ZM411.275 734.136V721.247C411.71 721.247 412.048 721.826 412.289 722.984C412.578 724.143 412.723 725.688 412.723 727.619C412.723 729.598 412.578 731.191 412.289 732.398C412.048 733.557 411.71 734.136 411.275 734.136ZM379.707 734.136C379.273 734.136 378.935 733.557 378.693 732.398C378.404 731.191 378.259 729.598 378.259 727.619C378.259 725.688 378.404 724.143 378.693 722.984C378.935 721.826 379.273 721.247 379.707 721.247V734.136ZM401.501 751.659C400.004 751.659 398.749 751.152 397.736 750.139C396.77 749.173 396.288 747.966 396.288 746.518C396.288 744.973 396.77 743.694 397.736 742.68C398.749 741.715 400.004 741.232 401.501 741.232C402.997 741.232 404.228 741.715 405.193 742.68C406.207 743.694 406.714 744.973 406.714 746.518C406.714 747.966 406.207 749.173 405.193 750.139C404.228 751.152 402.997 751.659 401.501 751.659ZM389.554 751.659C388.058 751.659 386.803 751.152 385.789 750.139C384.824 749.173 384.341 747.966 384.341 746.518C384.341 744.973 384.824 743.694 385.789 742.68C386.803 741.715 388.058 741.232 389.554 741.232C391.05 741.232 392.281 741.715 393.247 742.68C394.26 743.694 394.767 744.973 394.767 746.518C394.767 747.966 394.26 749.173 393.247 750.139C392.281 751.152 391.05 751.659 389.554 751.659Z" fill="#101010"/>
<path d="M485.674 734.136C481.812 734.136 478.53 733.412 475.827 731.963C473.172 730.467 471.145 728.319 469.745 725.519C468.345 722.671 467.645 719.243 467.645 715.236H478.795C478.795 716.781 478.964 718.012 479.302 718.929C479.688 719.798 480.364 720.402 481.33 720.74C482.343 721.078 483.791 721.247 485.674 721.247H488.353V734.136H485.674ZM411.242 734.136C410.808 734.136 410.47 733.557 410.229 732.398C409.939 731.191 409.794 729.598 409.794 727.619C409.794 725.688 409.939 724.143 410.229 722.984C410.47 721.826 410.808 721.247 411.242 721.247V734.136ZM463.808 734.136C461.539 734.136 459.343 733.629 457.219 732.615C455.095 731.601 453.285 730.008 451.789 727.836C450.341 725.664 449.472 722.912 449.182 719.581L455.554 716.25C455.747 718.036 456.447 719.388 457.653 720.305C458.908 721.222 460.236 721.681 461.636 721.681C463.18 721.681 464.556 721.15 465.763 720.088C467.018 719.026 467.645 717.409 467.645 715.236V696.989H478.795V717.047C478.795 720.957 478.047 724.191 476.551 726.75C475.103 729.26 473.244 731.119 470.976 732.326C468.707 733.532 466.318 734.136 463.808 734.136ZM411.242 734.136V721.247H415.225C417.107 721.247 418.531 721.078 419.496 720.74C420.51 720.402 421.186 719.798 421.524 718.929C421.91 718.012 422.103 716.781 422.103 715.236V704.085H433.253V715.236C433.253 719.243 432.553 722.671 431.153 725.519C429.754 728.319 427.702 730.467 424.999 731.963C422.344 733.412 419.086 734.136 415.225 734.136H411.242ZM441.145 734.136C438.828 734.136 436.608 733.629 434.484 732.615C432.409 731.601 430.623 730.008 429.126 727.836C427.678 725.664 426.785 722.912 426.447 719.581L432.891 716.25C433.084 718.036 433.784 719.388 434.991 720.305C436.198 721.222 437.501 721.681 438.901 721.681C440.445 721.681 441.821 721.15 443.028 720.088C444.283 719.026 444.91 717.409 444.91 715.236V700.537H456.061V717.047C456.061 720.957 455.336 724.191 453.888 726.75C452.44 729.26 450.582 731.119 448.313 732.326C446.045 733.532 443.655 734.136 441.145 734.136ZM488.353 734.136V721.247C488.787 721.247 489.125 721.826 489.366 722.984C489.656 724.143 489.801 725.688 489.801 727.619C489.801 729.598 489.656 731.191 489.366 732.398C489.125 733.557 488.787 734.136 488.353 734.136ZM450.413 668.893C451.909 668.893 453.116 669.376 454.033 670.341C454.999 671.307 455.481 672.514 455.481 673.962C455.481 675.458 454.999 676.689 454.033 677.655C453.116 678.572 451.909 679.031 450.413 679.031C448.965 679.031 447.758 678.572 446.793 677.655C445.827 676.689 445.345 675.458 445.345 673.962C445.345 672.514 445.827 671.307 446.793 670.341C447.758 669.376 448.965 668.893 450.413 668.893ZM456.423 679.393C457.919 679.393 459.15 679.875 460.115 680.841C461.129 681.806 461.636 683.037 461.636 684.534C461.636 686.079 461.129 687.358 460.115 688.372C459.15 689.337 457.919 689.82 456.423 689.82C454.926 689.82 453.671 689.337 452.658 688.372C451.692 687.358 451.209 686.079 451.209 684.534C451.209 683.037 451.692 681.806 452.658 680.841C453.671 679.875 454.926 679.393 456.423 679.393ZM444.476 679.393C445.972 679.393 447.203 679.875 448.168 680.841C449.182 681.806 449.689 683.037 449.689 684.534C449.689 686.079 449.182 687.358 448.168 688.372C447.203 689.337 445.972 689.82 444.476 689.82C442.979 689.82 441.725 689.337 440.711 688.372C439.745 687.358 439.263 686.079 439.263 684.534C439.263 683.037 439.745 681.806 440.711 680.841C441.725 679.875 442.979 679.393 444.476 679.393Z" fill="#101010"/>
<path d="M488.384 734.136V721.247H498.665V671.427H509.815V734.136H488.384ZM488.384 734.136C487.949 734.136 487.612 733.557 487.37 732.398C487.081 731.191 486.936 729.598 486.936 727.619C486.936 725.688 487.081 724.143 487.37 722.984C487.612 721.826 487.949 721.247 488.384 721.247V734.136Z" fill="#101010"/>
<path d="M519.055 734.136V671.427H530.205V734.136H519.055Z" fill="#101010"/>
<path d="M603.788 721.247V734.136H581.705C577.699 734.136 574.199 733.557 571.207 732.398C568.262 731.239 565.825 729.695 563.894 727.764C562.011 725.784 560.587 723.54 559.622 721.029C558.705 718.519 558.246 715.912 558.246 713.209C558.246 710.65 558.633 708.092 559.405 705.533C560.177 702.975 561.311 700.537 562.808 698.22L571.496 702.13C570.676 703.82 570.048 705.437 569.614 706.982C569.228 708.526 569.035 709.999 569.035 711.399C569.035 713.426 569.469 715.188 570.338 716.685C571.255 718.133 572.631 719.267 574.465 720.088C576.299 720.86 578.616 721.247 581.416 721.247H603.788ZM585.108 734.136C584.626 734.136 584.264 733.557 584.022 732.398C583.781 731.191 583.66 729.598 583.66 727.619C583.66 725.688 583.781 724.143 584.022 722.984C584.264 721.826 584.626 721.247 585.108 721.247V734.136ZM585.108 734.136V721.247H617.907V699.089H628.985V734.136H585.108ZM604.368 733.557C602.244 732.736 600.313 731.457 598.575 729.719C596.886 727.981 595.534 725.881 594.521 723.419C593.507 720.909 593 718.229 593 715.381C593 711.326 593.917 707.802 595.752 704.809C597.634 701.768 600.144 699.402 603.282 697.713C606.419 695.975 609.87 695.106 613.635 695.106C616.483 695.106 619.235 695.541 621.89 696.409C624.544 697.23 626.91 698.123 628.985 699.089L624.424 710.312C622.3 709.347 620.272 708.623 618.342 708.14C616.459 707.657 614.673 707.416 612.984 707.416C610.957 707.416 609.195 707.778 607.698 708.502C606.202 709.178 605.044 710.119 604.223 711.326C603.402 712.533 602.992 713.885 602.992 715.381C602.992 717.264 603.451 719.05 604.368 720.74C605.333 722.381 606.588 723.612 608.133 724.433L604.368 733.557ZM611.463 686.706C609.629 686.706 608.109 686.103 606.902 684.896C605.695 683.689 605.092 682.169 605.092 680.334C605.092 678.451 605.695 676.931 606.902 675.772C608.109 674.565 609.629 673.962 611.463 673.962C613.346 673.962 614.866 674.565 616.025 675.772C617.232 676.931 617.835 678.451 617.835 680.334C617.835 682.169 617.232 683.689 616.025 684.896C614.866 686.103 613.346 686.706 611.463 686.706Z" fill="#101010"/>
<path d="M669.399 734.136V721.247H680.332V734.136H669.399ZM680.332 734.136V721.247C680.766 721.247 681.104 721.826 681.346 722.984C681.635 724.143 681.78 725.688 681.78 727.619C681.78 729.598 681.635 731.191 681.346 732.398C681.104 733.557 680.766 734.136 680.332 734.136ZM638.989 754.701V741.811H651.877C655.208 741.811 657.525 741.28 658.828 740.218C660.131 739.205 660.783 737.684 660.783 735.656V699.089H671.861V735.656C671.861 739.567 671.04 742.946 669.399 745.794C667.758 748.691 665.441 750.887 662.448 752.383C659.455 753.928 655.932 754.701 651.877 754.701H638.989ZM656.439 734.136C652.287 734.136 648.667 733.267 645.578 731.529C642.489 729.791 640.099 727.474 638.41 724.578C636.721 721.633 635.876 718.398 635.876 714.874C635.876 712.026 636.407 709.419 637.469 707.054C638.531 704.64 640.003 702.564 641.885 700.827C643.816 699.04 646.037 697.64 648.547 696.627C651.057 695.613 653.736 695.106 656.584 695.106C659.383 695.106 662.11 695.541 664.765 696.409C667.42 697.23 669.785 698.123 671.861 699.089L667.299 710.53C663.245 708.212 659.673 707.054 656.584 707.054C654.653 707.054 652.963 707.44 651.515 708.213C650.115 708.937 649.005 709.902 648.185 711.109C647.412 712.316 647.026 713.595 647.026 714.947C647.026 716.202 647.388 717.385 648.112 718.495C648.836 719.605 649.898 720.498 651.298 721.174C652.746 721.85 654.46 722.188 656.439 722.188H667.951V734.136H656.439Z" fill="#101010"/>
<path d="M680.354 734.136V721.247H713.153V699.089H724.303V734.136H680.354ZM699.685 733.557C697.513 732.736 695.558 731.457 693.821 729.719C692.131 727.981 690.78 725.881 689.766 723.419C688.801 720.909 688.318 718.229 688.318 715.381C688.318 711.326 689.235 707.802 691.069 704.809C692.952 701.768 695.462 699.402 698.599 697.713C701.737 695.975 705.188 695.106 708.953 695.106C711.801 695.106 714.552 695.541 717.207 696.409C719.862 697.23 722.227 698.123 724.303 699.089L719.741 710.312C717.569 709.347 715.518 708.623 713.587 708.14C711.704 707.657 709.943 707.416 708.301 707.416C706.226 707.416 704.44 707.778 702.944 708.502C701.447 709.178 700.289 710.119 699.468 711.326C698.696 712.533 698.31 713.885 698.31 715.381C698.31 717.264 698.768 719.05 699.685 720.74C700.603 722.381 701.858 723.612 703.45 724.433L699.685 733.557ZM680.354 734.136C679.919 734.136 679.581 733.557 679.34 732.398C679.05 731.191 678.905 729.598 678.905 727.619C678.905 725.688 679.05 724.143 679.34 722.984C679.581 721.826 679.919 721.247 680.354 721.247V734.136ZM708.953 686.706C707.119 686.706 705.598 686.103 704.392 684.896C703.185 683.689 702.582 682.169 702.582 680.334C702.582 678.451 703.185 676.931 704.392 675.772C705.598 674.565 707.119 673.962 708.953 673.962C710.836 673.962 712.356 674.565 713.515 675.772C714.721 676.931 715.325 678.451 715.325 680.334C715.325 682.169 714.721 683.689 713.515 684.896C712.356 686.103 710.836 686.706 708.953 686.706Z" fill="#101010"/>
<path d="M727.657 742.318C730.118 742.27 732.025 742.005 733.376 741.522C734.776 741.039 735.766 740.291 736.345 739.277C736.924 738.312 737.214 737.081 737.214 735.584V696.989H748.364V735.584C748.364 739.349 747.592 742.632 746.047 745.432C744.551 748.232 742.403 750.404 739.603 751.949C736.852 753.542 733.569 754.435 729.756 754.628L727.657 742.318Z" fill="#101010"/>
<path fill-rule="evenodd" clip-rule="evenodd" d="M136.404 857.461L892.121 857.461V864.25L136.404 864.25V857.461Z" fill="#101010"/>
</svg>
