<svg width="128" height="128" viewBox="0 0 128 128" fill="none" xmlns="http://www.w3.org/2000/svg">
<path d="M18.3428 92.6187C18.9085 92.6187 19.4029 92.6813 19.8259 92.8064C20.249 92.9315 20.5893 93.0635 20.8469 93.2025C21.1044 93.3415 21.2608 93.4342 21.316 93.4805L20.3226 95.1554C20.249 95.0998 20.1226 95.0188 19.9432 94.9122C19.7685 94.8056 19.5592 94.7106 19.3155 94.6272C19.0763 94.5438 18.8257 94.5021 18.5636 94.5021C18.2095 94.5021 17.922 94.567 17.7013 94.6967C17.4852 94.8218 17.3771 95.0095 17.3771 95.2597C17.3771 95.4311 17.4346 95.5863 17.5495 95.7253C17.6691 95.8597 17.8485 95.9894 18.0876 96.1145C18.3313 96.235 18.6395 96.367 19.012 96.5107C19.3523 96.6358 19.6719 96.784 19.9708 96.9555C20.2697 97.1269 20.5319 97.3308 20.7572 97.5671C20.9871 97.7987 21.1688 98.0674 21.3022 98.3732C21.4355 98.679 21.5022 99.0265 21.5022 99.4157C21.5022 99.8791 21.4079 100.282 21.2194 100.625C21.0308 100.963 20.7733 101.244 20.4468 101.466C20.1249 101.688 19.757 101.853 19.3431 101.959C18.9338 102.071 18.5084 102.126 18.0669 102.126C17.4415 102.126 16.8804 102.054 16.3837 101.911C15.8917 101.767 15.4939 101.612 15.1904 101.445C14.8868 101.278 14.7052 101.167 14.6454 101.112L15.6732 99.3671C15.7284 99.4088 15.8342 99.476 15.9905 99.5686C16.1515 99.6613 16.347 99.7586 16.5769 99.8605C16.8068 99.9578 17.0506 100.041 17.3081 100.111C17.5702 100.18 17.8278 100.215 18.0807 100.215C18.5038 100.215 18.8211 100.134 19.0327 99.9717C19.2442 99.8049 19.35 99.5872 19.35 99.3184C19.35 99.1192 19.2833 98.9408 19.1499 98.7833C19.0166 98.6258 18.8165 98.4775 18.5498 98.3385C18.283 98.1949 17.9496 98.0443 17.5495 97.8867C17.1494 97.7246 16.7746 97.5277 16.4251 97.296C16.0802 97.0643 15.7997 96.7748 15.5836 96.4273C15.3674 96.0798 15.2593 95.6489 15.2593 95.1346C15.2593 94.6203 15.4019 94.1755 15.687 93.8002C15.9767 93.4203 16.3562 93.1284 16.8252 92.9245C17.2989 92.7206 17.8048 92.6187 18.3428 92.6187Z" fill="#101010"/>
<path d="M28.6359 98.269H25.4903V101.959H23.4347V92.7855H25.4903V96.4551H28.6359V92.7855H30.6847V101.959H28.6359V98.269Z" fill="#101010"/>
<path d="M33.0118 92.7855H35.0743V101.959H33.0118V92.7855Z" fill="#101010"/>
<path d="M40.3102 92.7855H42.3589L45.9529 101.959H43.7524L43.0901 100.118H39.5858L38.9167 101.959H36.7093L40.3102 92.7855ZM40.2757 98.2968H42.4072L41.3518 95.2875H41.3311L40.2757 98.2968Z" fill="#101010"/>
<path d="M55.03 92.6187C55.5956 92.6187 56.09 92.6813 56.5131 92.8064C56.9362 92.9315 57.2765 93.0635 57.534 93.2025C57.7915 93.3415 57.9479 93.4342 58.0031 93.4805L57.0097 95.1554C56.9362 95.0998 56.8097 95.0188 56.6303 94.9122C56.4556 94.8056 56.2463 94.7106 56.0026 94.6272C55.7635 94.5438 55.5128 94.5021 55.2507 94.5021C54.8966 94.5021 54.6092 94.567 54.3884 94.6967C54.1723 94.8218 54.0642 95.0095 54.0642 95.2597C54.0642 95.4311 54.1217 95.5863 54.2367 95.7253C54.3562 95.8597 54.5356 95.9894 54.7747 96.1145C55.0185 96.235 55.3266 96.367 55.6991 96.5107C56.0394 96.6358 56.359 96.784 56.6579 96.9555C56.9569 97.1269 57.219 97.3308 57.4443 97.5671C57.6743 97.7987 57.8559 98.0674 57.9893 98.3732C58.1227 98.679 58.1893 99.0265 58.1893 99.4157C58.1893 99.8791 58.0951 100.282 57.9065 100.625C57.718 100.963 57.4604 101.244 57.1339 101.466C56.812 101.688 56.4441 101.853 56.0302 101.959C55.6209 102.071 55.1955 102.126 54.754 102.126C54.1286 102.126 53.5675 102.054 53.0709 101.911C52.5788 101.767 52.181 101.612 51.8775 101.445C51.574 101.278 51.3923 101.167 51.3325 101.112L52.3604 99.3671C52.4155 99.4088 52.5213 99.476 52.6777 99.5686C52.8386 99.6613 53.0341 99.7586 53.264 99.8605C53.494 99.9578 53.7377 100.041 53.9952 100.111C54.2574 100.18 54.5149 100.215 54.7678 100.215C55.1909 100.215 55.5082 100.134 55.7198 99.9717C55.9313 99.8049 56.0371 99.5872 56.0371 99.3184C56.0371 99.1192 55.9704 98.9408 55.837 98.7833C55.7037 98.6258 55.5036 98.4775 55.2369 98.3385C54.9702 98.1949 54.6368 98.0443 54.2367 97.8867C53.8366 97.7246 53.4618 97.5277 53.1123 97.296C52.7673 97.0643 52.4868 96.7748 52.2707 96.4273C52.0545 96.0798 51.9465 95.6489 51.9465 95.1346C51.9465 94.6203 52.089 94.1755 52.3741 93.8002C52.6639 93.4203 53.0433 93.1284 53.5124 92.9245C53.986 92.7206 54.4919 92.6187 55.03 92.6187Z" fill="#101010"/>
<path d="M65.323 98.269H62.1775V101.959H60.1218V92.7855H62.1775V96.4551H65.323V92.7855H67.3718V101.959H65.323V98.269Z" fill="#101010"/>
<path d="M69.623 92.7855H75.4382V94.6064H71.6787V96.4759H75.4037V98.2412H71.6787V100.139H75.4382V101.959H69.623V92.7855Z" fill="#101010"/>
<path d="M77.7378 92.7855H79.8003V100.139H83.1046V101.959H77.7378V92.7855Z" fill="#101010"/>
<path d="M89.3905 101.959H87.0589L83.8167 92.7855H86.1414L88.2247 99.3115L90.3079 92.7855H92.6326L89.3905 101.959Z" fill="#101010"/>
<path d="M94.3407 92.7855H100.156V94.6064H96.3963V96.4759H100.121V98.2412H96.3963V100.139H100.156V101.959H94.3407V92.7855Z" fill="#101010"/>
<path d="M105.718 92.6187C106.284 92.6187 106.778 92.6813 107.201 92.8064C107.624 92.9315 107.965 93.0635 108.222 93.2025C108.48 93.3415 108.636 93.4342 108.691 93.4805L107.698 95.1554C107.624 95.0998 107.498 95.0188 107.319 94.9122C107.144 94.8056 106.935 94.7106 106.691 94.6272C106.452 94.5438 106.201 94.5021 105.939 94.5021C105.585 94.5021 105.298 94.567 105.077 94.6967C104.861 94.8218 104.753 95.0095 104.753 95.2597C104.753 95.4311 104.81 95.5863 104.925 95.7253C105.045 95.8597 105.224 95.9894 105.463 96.1145C105.707 96.235 106.015 96.367 106.387 96.5107C106.728 96.6358 107.047 96.784 107.346 96.9555C107.645 97.1269 107.907 97.3308 108.133 97.5671C108.363 97.7987 108.544 98.0674 108.678 98.3732C108.811 98.679 108.878 99.0265 108.878 99.4157C108.878 99.8791 108.783 100.282 108.595 100.625C108.406 100.963 108.149 101.244 107.822 101.466C107.5 101.688 107.132 101.853 106.719 101.959C106.309 102.071 105.884 102.126 105.442 102.126C104.817 102.126 104.256 102.054 103.759 101.911C103.267 101.767 102.869 101.612 102.566 101.445C102.262 101.278 102.081 101.167 102.021 101.112L103.049 99.3671C103.104 99.4088 103.21 99.476 103.366 99.5686C103.527 99.6613 103.722 99.7586 103.952 99.8605C104.182 99.9578 104.426 100.041 104.684 100.111C104.946 100.18 105.203 100.215 105.456 100.215C105.879 100.215 106.197 100.134 106.408 99.9717C106.62 99.8049 106.725 99.5872 106.725 99.3184C106.725 99.1192 106.659 98.9408 106.525 98.7833C106.392 98.6258 106.192 98.4775 105.925 98.3385C105.659 98.1949 105.325 98.0443 104.925 97.8867C104.525 97.7246 104.15 97.5277 103.801 97.296C103.456 97.0643 103.175 96.7748 102.959 96.4273C102.743 96.0798 102.635 95.6489 102.635 95.1346C102.635 94.6203 102.777 94.1755 103.062 93.8002C103.352 93.4203 103.732 93.1284 104.201 92.9245C104.674 92.7206 105.18 92.6187 105.718 92.6187Z" fill="#101010"/>
<path d="M34.5235 87.9692C34.1617 87.9692 33.8183 87.9229 33.4933 87.8302C33.1683 87.7376 32.8832 87.6017 32.6379 87.4225C32.3927 87.2372 32.1995 87.0086 32.0585 86.7368C31.9175 86.4588 31.8469 86.1376 31.8469 85.7731C31.8469 85.3592 31.9389 84.9947 32.1229 84.6796C32.313 84.3584 32.5736 84.0896 32.9047 83.8734C33.2358 83.6572 33.6221 83.4904 34.0636 83.373C34.5112 83.2495 34.9925 83.1784 35.5076 83.1599L35.5628 84.5869C35.2317 84.5993 34.9251 84.6364 34.643 84.6981C34.3671 84.7537 34.1249 84.8341 33.9164 84.9391C33.7079 85.0379 33.5454 85.1584 33.4289 85.3005C33.3186 85.4426 33.2634 85.6032 33.2634 85.7823C33.2634 85.943 33.3124 86.082 33.4105 86.1993C33.5086 86.3105 33.6527 86.3939 33.8428 86.4495C34.0329 86.5051 34.2567 86.5329 34.5143 86.5329C34.735 86.5329 34.9404 86.5113 35.1305 86.4681C35.3267 86.4248 35.5107 86.363 35.6823 86.2827L36.2986 87.5708C36.0288 87.7005 35.7406 87.7994 35.434 87.8673C35.1274 87.9353 34.8239 87.9692 34.5235 87.9692ZM37.6874 88.3492C37.1969 88.3492 36.7799 88.2565 36.4366 88.0712C36.0993 87.8797 35.8418 87.6048 35.664 87.2465C35.4861 86.882 35.3972 86.4433 35.3972 85.9306V82.8726H36.8137V85.9306C36.8137 86.1283 36.8351 86.2858 36.878 86.4032C36.9271 86.5144 37.0129 86.5916 37.1356 86.6349C37.2643 86.6781 37.4483 86.6997 37.6874 86.6997H38.0277V88.3492H37.6874ZM38.0277 88.3492V86.6997C38.0829 86.6997 38.1258 86.7739 38.1565 86.9221C38.1933 87.0704 38.2117 87.2681 38.2117 87.5152C38.2117 87.7685 38.1933 87.9723 38.1565 88.1268C38.1258 88.275 38.0829 88.3492 38.0277 88.3492ZM35.0661 82.0201C34.876 82.0201 34.7166 81.9583 34.5878 81.8348C34.4652 81.705 34.4039 81.5444 34.4039 81.3529C34.4039 81.1552 34.4652 80.9946 34.5878 80.8711C34.7166 80.7475 34.876 80.6857 35.0661 80.6857C35.2562 80.6857 35.4126 80.7475 35.5352 80.8711C35.664 80.9946 35.7283 81.1552 35.7283 81.3529C35.7283 81.5444 35.664 81.705 35.5352 81.8348C35.4126 81.9583 35.2562 82.0201 35.0661 82.0201ZM33.5485 82.0201C33.3584 82.0201 33.199 81.9583 33.0702 81.8348C32.9476 81.705 32.8863 81.5444 32.8863 81.3529C32.8863 81.1552 32.9476 80.9946 33.0702 80.8711C33.199 80.7475 33.3584 80.6857 33.5485 80.6857C33.7447 80.6857 33.9041 80.7475 34.0268 80.8711C34.1494 80.9946 34.2107 81.1552 34.2107 81.3529C34.2107 81.5444 34.1494 81.705 34.0268 81.8348C33.9041 81.9583 33.7447 82.0201 33.5485 82.0201Z" fill="#101010"/>
<path d="M38.0277 88.3492V86.6997H40.1516C40.3478 86.6997 40.5563 86.6719 40.777 86.6163C41.0039 86.5607 41.2277 86.4866 41.4485 86.3939C41.6692 86.3013 41.8685 86.1993 42.0463 86.0881C42.2303 85.9769 42.3743 85.8688 42.4786 85.7638C42.589 85.6526 42.6441 85.5568 42.6441 85.4765C42.6441 85.3839 42.5828 85.2974 42.4602 85.2171C42.3376 85.1368 42.1628 85.0688 41.9359 85.0132C41.7152 84.9576 41.4607 84.9298 41.1725 84.9298C40.9273 84.9298 40.6943 84.9514 40.4735 84.9947C40.2589 85.0379 40.0382 85.1028 39.8113 85.1893L39.517 85.5229L38.6984 85.1059L39.5537 83.6974C39.799 83.617 40.0627 83.5491 40.3447 83.4935C40.6329 83.4379 40.9487 83.4101 41.2921 83.4101C41.844 83.4101 42.3253 83.4842 42.7361 83.6325C43.1531 83.7746 43.4781 83.9754 43.7111 84.2348C43.9441 84.4881 44.0606 84.7908 44.0606 85.1429C44.0606 85.4333 43.9809 85.7144 43.8214 85.9862C43.6681 86.258 43.4597 86.5113 43.196 86.7461C42.9385 86.9808 42.6441 87.197 42.313 87.3947C41.9819 87.5924 41.6416 87.7623 41.2921 87.9044C40.9426 88.0465 40.5992 88.1577 40.262 88.238C39.9309 88.3121 39.6304 88.3492 39.3606 88.3492H38.0277ZM43.104 88.3492C42.3621 88.3492 41.6907 88.2163 41.0897 87.9507C40.495 87.6789 39.9922 87.299 39.5813 86.8109C39.1705 86.3229 38.8762 85.7545 38.6984 85.1059L39.7653 84.5591C39.8389 84.9916 39.986 85.3684 40.2068 85.6897C40.4337 86.0109 40.7218 86.2611 41.0714 86.4403C41.4209 86.6132 41.8072 86.6997 42.2303 86.6997H44.9068V88.3492H43.104ZM44.9068 88.3492V86.6997C44.9619 86.6997 45.0049 86.7739 45.0355 86.9221C45.0723 87.0704 45.0907 87.2681 45.0907 87.5152C45.0907 87.7685 45.0723 87.9723 45.0355 88.1268C45.0049 88.275 44.9619 88.3492 44.9068 88.3492ZM38.0277 88.3492C37.9726 88.3492 37.9288 88.275 37.8982 88.1268C37.8614 87.9723 37.843 87.7685 37.843 87.5152C37.843 87.2681 37.8614 87.0704 37.8982 86.9221C37.9288 86.7739 37.9726 86.6997 38.0277 86.6997V88.3492Z" fill="#101010"/>
<path d="M44.9068 88.3492V86.6997H45.4131C45.6583 86.6997 45.8423 86.6781 45.9649 86.6349C46.0875 86.5916 46.1734 86.5144 46.2224 86.4032C46.2715 86.2858 46.296 86.1283 46.296 85.9306V83.5954H47.7033V85.9306C47.7033 86.4433 47.6144 86.8789 47.4365 87.2372C47.2587 87.5955 46.9981 87.8704 46.6547 88.0619C46.3175 88.2472 45.9036 88.343 45.4131 88.3492H44.9068ZM48.5862 88.3492C48.0896 88.3492 47.6726 88.2565 47.3354 88.0712C46.9981 87.8797 46.7406 87.6048 46.5628 87.2465C46.3849 86.882 46.296 86.4433 46.296 85.9306H47.7033C47.7033 86.1283 47.7247 86.2858 47.7676 86.4032C47.8167 86.5144 47.9056 86.5916 48.0344 86.6349C48.1631 86.6781 48.3471 86.6997 48.5862 86.6997H48.9173V88.3492H48.5862ZM48.9173 88.3492V86.6997C48.9725 86.6997 49.0154 86.7739 49.0461 86.9221C49.0829 87.0704 49.1013 87.2681 49.1013 87.5152C49.1013 87.7685 49.0829 87.9723 49.0461 88.1268C49.0154 88.275 48.9725 88.3492 48.9173 88.3492ZM44.9068 88.3492C44.8516 88.3492 44.8091 88.275 44.7784 88.1268C44.7416 87.9723 44.7232 87.7685 44.7232 87.5152C44.7232 87.2681 44.7416 87.0704 44.7784 86.9221C44.8091 86.7739 44.8516 86.6997 44.9068 86.6997V88.3492ZM47.6757 90.5917C47.4856 90.5917 47.3262 90.5268 47.1974 90.3971C47.0748 90.2735 47.0134 90.1191 47.0134 89.9338C47.0134 89.7361 47.0748 89.5724 47.1974 89.4426C47.3262 89.3191 47.4856 89.2573 47.6757 89.2573C47.8658 89.2573 48.0221 89.3191 48.1447 89.4426C48.2735 89.5724 48.3379 89.7361 48.3379 89.9338C48.3379 90.1191 48.2735 90.2735 48.1447 90.3971C48.0221 90.5268 47.8658 90.5917 47.6757 90.5917ZM46.1581 90.5917C45.968 90.5917 45.8086 90.5268 45.6798 90.3971C45.5572 90.2735 45.4958 90.1191 45.4958 89.9338C45.4958 89.7361 45.5572 89.5724 45.6798 89.4426C45.8086 89.3191 45.968 89.2573 46.1581 89.2573C46.3481 89.2573 46.5045 89.3191 46.6271 89.4426C46.7559 89.5724 46.8203 89.7361 46.8203 89.9338C46.8203 90.1191 46.7559 90.2735 46.6271 90.3971C46.5045 90.5268 46.3481 90.5917 46.1581 90.5917Z" fill="#101010"/>
<path d="M58.3683 88.3492C57.8778 88.3492 57.4608 88.2565 57.1174 88.0712C56.7802 87.8797 56.5227 87.6048 56.3448 87.2465C56.167 86.882 56.0781 86.4433 56.0781 85.9306H57.4945C57.4945 86.1283 57.516 86.2858 57.5589 86.4032C57.608 86.5144 57.6938 86.5916 57.8165 86.6349C57.9452 86.6781 58.1292 86.6997 58.3683 86.6997H58.7086V88.3492H58.3683ZM48.9132 88.3492C48.858 88.3492 48.8151 88.275 48.7844 88.1268C48.7476 87.9723 48.7292 87.7685 48.7292 87.5152C48.7292 87.2681 48.7476 87.0704 48.7844 86.9221C48.8151 86.7739 48.858 86.6997 48.9132 86.6997V88.3492ZM55.5906 88.3492C55.3024 88.3492 55.0235 88.2843 54.7537 88.1546C54.4839 88.0248 54.2539 87.821 54.0638 87.543C53.8799 87.265 53.7695 86.9129 53.7327 86.4866L54.5421 86.0603C54.5666 86.2889 54.6555 86.4619 54.8088 86.5793C54.9683 86.6966 55.1369 86.7553 55.3147 86.7553C55.5109 86.7553 55.6857 86.6874 55.839 86.5515C55.9984 86.4155 56.0781 86.2086 56.0781 85.9306V83.5954H57.4945V86.1623C57.4945 86.6627 57.3995 87.0766 57.2094 87.404C57.0255 87.7252 56.7894 87.9631 56.5012 88.1175C56.213 88.272 55.9095 88.3492 55.5906 88.3492ZM48.9132 88.3492V86.6997H49.419C49.6582 86.6997 49.8391 86.6781 49.9617 86.6349C50.0905 86.5916 50.1763 86.5144 50.2192 86.4032C50.2683 86.2858 50.2928 86.1283 50.2928 85.9306V84.5035H51.7092V85.9306C51.7092 86.4433 51.6203 86.882 51.4425 87.2465C51.2647 87.6048 51.0041 87.8797 50.6607 88.0712C50.3235 88.2565 49.9096 88.3492 49.419 88.3492H48.9132ZM52.7118 88.3492C52.4175 88.3492 52.1354 88.2843 51.8656 88.1546C51.6019 88.0248 51.3751 87.821 51.185 87.543C51.001 87.265 50.8876 86.9129 50.8447 86.4866L51.6633 86.0603C51.6878 86.2889 51.7767 86.4619 51.93 86.5793C52.0833 86.6966 52.2488 86.7553 52.4267 86.7553C52.6229 86.7553 52.7976 86.6874 52.9509 86.5515C53.1103 86.4155 53.1901 86.2086 53.1901 85.9306V84.0495H54.6065V86.1623C54.6065 86.6627 54.5145 87.0766 54.3306 87.404C54.1466 87.7252 53.9105 87.9631 53.6223 88.1175C53.3342 88.272 53.0306 88.3492 52.7118 88.3492ZM58.7086 88.3492V86.6997C58.7638 86.6997 58.8067 86.7739 58.8374 86.9221C58.8742 87.0704 58.8926 87.2681 58.8926 87.5152C58.8926 87.7685 58.8742 87.9723 58.8374 88.1268C58.8067 88.275 58.7638 88.3492 58.7086 88.3492ZM53.8891 80C54.0792 80 54.2325 80.0618 54.349 80.1853C54.4716 80.3089 54.5329 80.4633 54.5329 80.6487C54.5329 80.8402 54.4716 80.9977 54.349 81.1213C54.2325 81.2386 54.0792 81.2973 53.8891 81.2973C53.7051 81.2973 53.5518 81.2386 53.4292 81.1213C53.3066 80.9977 53.2452 80.8402 53.2452 80.6487C53.2452 80.4633 53.3066 80.3089 53.4292 80.1853C53.5518 80.0618 53.7051 80 53.8891 80ZM54.6525 81.3437C54.8426 81.3437 54.9989 81.4054 55.1216 81.529C55.2503 81.6525 55.3147 81.8101 55.3147 82.0016C55.3147 82.1993 55.2503 82.363 55.1216 82.4927C54.9989 82.6163 54.8426 82.678 54.6525 82.678C54.4624 82.678 54.303 82.6163 54.1742 82.4927C54.0516 82.363 53.9903 82.1993 53.9903 82.0016C53.9903 81.8101 54.0516 81.6525 54.1742 81.529C54.303 81.4054 54.4624 81.3437 54.6525 81.3437ZM53.1349 81.3437C53.325 81.3437 53.4813 81.4054 53.604 81.529C53.7327 81.6525 53.7971 81.8101 53.7971 82.0016C53.7971 82.1993 53.7327 82.363 53.604 82.4927C53.4813 82.6163 53.325 82.678 53.1349 82.678C52.9448 82.678 52.7854 82.6163 52.6566 82.4927C52.534 82.363 52.4726 82.1993 52.4726 82.0016C52.4726 81.8101 52.534 81.6525 52.6566 81.529C52.7854 81.4054 52.9448 81.3437 53.1349 81.3437Z" fill="#101010"/>
<path d="M58.7126 88.3492V86.6997H60.0186V80.3243H61.4351V88.3492H58.7126ZM58.7126 88.3492C58.6574 88.3492 58.6145 88.275 58.5838 88.1268C58.547 87.9723 58.5286 87.7685 58.5286 87.5152C58.5286 87.2681 58.547 87.0704 58.5838 86.9221C58.6145 86.7739 58.6574 86.6997 58.7126 86.6997V88.3492Z" fill="#101010"/>
<path d="M62.6088 88.3492V80.3243H64.0252V88.3492H62.6088Z" fill="#101010"/>
<path d="M73.3726 86.6997V88.3492H70.5674C70.0584 88.3492 69.6139 88.275 69.2337 88.1268C68.8597 87.9785 68.55 87.7808 68.3047 87.5337C68.0656 87.2804 67.8847 86.9932 67.7621 86.6719C67.6456 86.3507 67.5873 86.0171 67.5873 85.6711C67.5873 85.3437 67.6364 85.0163 67.7345 84.6889C67.8326 84.3615 67.9767 84.0495 68.1668 83.753L69.2705 84.2533C69.1663 84.4696 69.0865 84.6765 69.0314 84.8742C68.9823 85.0719 68.9578 85.2603 68.9578 85.4395C68.9578 85.6989 69.013 85.9244 69.1233 86.1159C69.2398 86.3013 69.4146 86.4464 69.6476 86.5515C69.8806 86.6503 70.1749 86.6997 70.5306 86.6997H73.3726ZM70.9996 88.3492C70.9383 88.3492 70.8923 88.275 70.8617 88.1268C70.831 87.9723 70.8157 87.7685 70.8157 87.5152C70.8157 87.2681 70.831 87.0704 70.8617 86.9221C70.8923 86.7739 70.9383 86.6997 70.9996 86.6997V88.3492ZM70.9996 88.3492V86.6997H75.1662V83.8642H76.5734V88.3492H70.9996ZM73.4462 88.275C73.1764 88.17 72.9311 88.0063 72.7104 87.7839C72.4958 87.5615 72.3241 87.2928 72.1953 86.9777C72.0666 86.6565 72.0022 86.3136 72.0022 85.9491C72.0022 85.4302 72.1187 84.9792 72.3517 84.5962C72.5908 84.207 72.9097 83.9043 73.3082 83.6881C73.7068 83.4657 74.1452 83.3545 74.6235 83.3545C74.9853 83.3545 75.3348 83.4101 75.672 83.5213C76.0093 83.6263 76.3097 83.7406 76.5734 83.8642L75.9939 85.3005C75.7241 85.1769 75.4666 85.0843 75.2213 85.0225C74.9822 84.9607 74.7553 84.9298 74.5407 84.9298C74.2832 84.9298 74.0594 84.9761 73.8693 85.0688C73.6792 85.1553 73.5321 85.2758 73.4278 85.4302C73.3236 85.5846 73.2715 85.7576 73.2715 85.9491C73.2715 86.1901 73.3297 86.4186 73.4462 86.6349C73.5688 86.8449 73.7283 87.0024 73.9245 87.1075L73.4462 88.275ZM74.3476 82.2796C74.1146 82.2796 73.9214 82.2024 73.7681 82.0479C73.6148 81.8935 73.5382 81.6989 73.5382 81.4641C73.5382 81.2232 73.6148 81.0286 73.7681 80.8803C73.9214 80.7259 74.1146 80.6487 74.3476 80.6487C74.5867 80.6487 74.7799 80.7259 74.927 80.8803C75.0803 81.0286 75.157 81.2232 75.157 81.4641C75.157 81.6989 75.0803 81.8935 74.927 82.0479C74.7799 82.2024 74.5867 82.2796 74.3476 82.2796Z" fill="#101010"/>
<path d="M81.7072 88.3492V86.6997H83.0961V88.3492H81.7072ZM83.0961 88.3492V86.6997C83.1513 86.6997 83.1942 86.7739 83.2248 86.9221C83.2616 87.0704 83.28 87.2681 83.28 87.5152C83.28 87.7685 83.2616 87.9723 83.2248 88.1268C83.1942 88.275 83.1513 88.3492 83.0961 88.3492ZM77.8442 90.9809V89.3314H79.4814C79.9045 89.3314 80.1988 89.2635 80.3644 89.1276C80.5299 88.9978 80.6127 88.8032 80.6127 88.5438V83.8642H82.02V88.5438C82.02 89.0442 81.9157 89.4766 81.7072 89.8411C81.4988 90.2117 81.2044 90.4928 80.8243 90.6843C80.4441 90.882 79.9965 90.9809 79.4814 90.9809H77.8442ZM80.0609 88.3492C79.5335 88.3492 79.0737 88.238 78.6812 88.0156C78.2888 87.7932 77.9853 87.4966 77.7707 87.126C77.556 86.7491 77.4487 86.3352 77.4487 85.8843C77.4487 85.5198 77.5162 85.1862 77.6511 84.8835C77.786 84.5746 77.973 84.3089 78.2122 84.0866C78.4574 83.858 78.7395 83.6788 79.0583 83.5491C79.3772 83.4194 79.7175 83.3545 80.0793 83.3545C80.4349 83.3545 80.7813 83.4101 81.1186 83.5213C81.4558 83.6263 81.7563 83.7406 82.02 83.8642L81.4405 85.3283C80.9254 85.0317 80.4717 84.8835 80.0793 84.8835C79.834 84.8835 79.6194 84.9329 79.4354 85.0317C79.2576 85.1244 79.1166 85.248 79.0123 85.4024C78.9142 85.5568 78.8652 85.7206 78.8652 85.8935C78.8652 86.0542 78.9112 86.2055 79.0031 86.3476C79.0951 86.4897 79.23 86.604 79.4078 86.6905C79.5918 86.7769 79.8095 86.8202 80.0609 86.8202H81.5233V88.3492H80.0609Z" fill="#101010"/>
<path d="M83.0988 88.3492V86.6997H87.2653V83.8642H88.6818V88.3492H83.0988ZM85.5546 88.275C85.2786 88.17 85.0303 88.0063 84.8096 87.7839C84.5949 87.5615 84.4233 87.2928 84.2945 86.9777C84.1719 86.6565 84.1105 86.3136 84.1105 85.9491C84.1105 85.4302 84.227 84.9792 84.46 84.5962C84.6992 84.207 85.018 83.9043 85.4166 83.6881C85.8152 83.4657 86.2536 83.3545 86.7319 83.3545C87.0936 83.3545 87.4431 83.4101 87.7804 83.5213C88.1176 83.6263 88.4181 83.7406 88.6818 83.8642L88.1023 85.3005C87.8264 85.1769 87.5658 85.0843 87.3205 85.0225C87.0814 84.9607 86.8576 84.9298 86.6491 84.9298C86.3854 84.9298 86.1585 84.9761 85.9685 85.0688C85.7784 85.1553 85.6312 85.2758 85.527 85.4302C85.4289 85.5846 85.3798 85.7576 85.3798 85.9491C85.3798 86.1901 85.4381 86.4186 85.5546 86.6349C85.6711 86.8449 85.8305 87.0024 86.0328 87.1075L85.5546 88.275ZM83.0988 88.3492C83.0436 88.3492 83.0007 88.275 82.97 88.1268C82.9332 87.9723 82.9149 87.7685 82.9149 87.5152C82.9149 87.2681 82.9332 87.0704 82.97 86.9221C83.0007 86.7739 83.0436 86.6997 83.0988 86.6997V88.3492ZM86.7319 82.2796C86.4989 82.2796 86.3057 82.2024 86.1524 82.0479C85.9991 81.8935 85.9225 81.6989 85.9225 81.4641C85.9225 81.2232 85.9991 81.0286 86.1524 80.8803C86.3057 80.7259 86.4989 80.6487 86.7319 80.6487C86.971 80.6487 87.1641 80.7259 87.3113 80.8803C87.4646 81.0286 87.5412 81.2232 87.5412 81.4641C87.5412 81.6989 87.4646 81.8935 87.3113 82.0479C87.1641 82.2024 86.971 82.2796 86.7319 82.2796Z" fill="#101010"/>
<path d="M89.1078 89.3963C89.4205 89.3901 89.6627 89.3561 89.8344 89.2944C90.0122 89.2326 90.1379 89.1368 90.2115 89.0071C90.2851 88.8835 90.3219 88.726 90.3219 88.5345V83.5954H91.7383V88.5345C91.7383 89.0164 91.6402 89.4364 91.444 89.7948C91.2539 90.1531 90.981 90.4311 90.6254 90.6287C90.2759 90.8326 89.8589 90.9469 89.3745 90.9716L89.1078 89.3963Z" fill="#101010"/>
<path fill-rule="evenodd" clip-rule="evenodd" d="M14 104.131L110 104.131V105L14 105L14 104.131Z" fill="#101010"/>
<path d="M91.2552 77.4373C90.4501 78.8419 88.4669 78.8419 87.6618 77.4373L82.9997 69.3034C82.7471 68.8627 82.3483 68.5295 81.876 68.3644L77.6544 66.8886C75.2889 66.0617 76.0911 62.4493 78.5732 62.7512L89.2128 64.0454C89.376 64.0653 89.541 64.0653 89.7042 64.0454L100.344 62.7512C102.826 62.4493 103.628 66.0617 101.263 66.8886L97.041 68.3644C96.5687 68.5295 96.1699 68.8627 95.9173 69.3034L91.2552 77.4373Z" fill="#7A4D40"/>
<path fill-rule="evenodd" clip-rule="evenodd" d="M84.3472 68.4935L89.0093 76.6274C89.2106 76.9785 89.7064 76.9785 89.9077 76.6274L94.5698 68.4935C95.0119 67.7223 95.7097 67.1391 96.5362 66.8502L100.758 65.3744C100.969 65.3005 101.036 65.2019 101.067 65.1384C101.11 65.0505 101.133 64.9123 101.097 64.7514C101.062 64.5905 100.982 64.4763 100.907 64.416C100.852 64.3724 100.75 64.3131 100.528 64.3401L89.8885 65.6342C89.6029 65.669 89.3141 65.669 89.0285 65.6342L78.3889 64.3401C78.167 64.3131 78.0651 64.3724 78.0104 64.416C77.9348 64.4763 77.8553 64.5905 77.8196 64.7514C77.7838 64.9123 77.8073 65.0505 77.85 65.1384C77.8808 65.2019 77.9477 65.3005 78.1592 65.3744L82.3808 66.8502C83.2073 67.1391 83.9051 67.7223 84.3472 68.4935ZM87.6618 77.4373C88.4669 78.8419 90.4501 78.8419 91.2552 77.4373L95.9173 69.3034C96.1699 68.8627 96.5687 68.5295 97.041 68.3644L101.263 66.8886C103.628 66.0617 102.826 62.4493 100.344 62.7512L89.7042 64.0454C89.541 64.0653 89.376 64.0653 89.2128 64.0454L78.5732 62.7512C76.0911 62.4493 75.2889 66.0617 77.6544 66.8886L81.876 68.3644C82.3483 68.5295 82.7471 68.8627 82.9997 69.3034L87.6618 77.4373Z" fill="#101010"/>
<path d="M86.3959 62.4667H92.6459V79H86.3959V62.4667Z" fill="#101010"/>
<path d="M88.2189 64.3334H90.8231V77.1334H88.2189V64.3334Z" fill="#7A4D40"/>
<path d="M40.0156 77.4372C39.2105 78.8419 37.2273 78.8419 36.4222 77.4372L31.7601 69.3034C31.5075 68.8627 31.1087 68.5294 30.6364 68.3643L26.4148 66.8886C24.0493 66.0617 24.8515 62.4493 27.3336 62.7512L37.9732 64.0454C38.1364 64.0652 38.3014 64.0652 38.4646 64.0454L49.1042 62.7512C51.5863 62.4493 52.3885 66.0617 50.023 66.8886L45.8014 68.3643C45.3291 68.5294 44.9304 68.8627 44.6777 69.3034L40.0156 77.4372Z" fill="#7A4D40"/>
<path fill-rule="evenodd" clip-rule="evenodd" d="M33.1076 68.4935L37.7697 76.6273C37.971 76.9785 38.4668 76.9785 38.6681 76.6273L43.3302 68.4935C43.7723 67.7222 44.4701 67.1391 45.2966 66.8501L49.5182 65.3744C49.7297 65.3004 49.7966 65.2018 49.8274 65.1384C49.8701 65.0505 49.8936 64.9123 49.8578 64.7514C49.8221 64.5905 49.7426 64.4763 49.667 64.4159C49.6124 64.3724 49.5105 64.313 49.2885 64.34L38.649 65.6342C38.3633 65.6689 38.0746 65.6689 37.7889 65.6342L27.1493 64.34C26.9274 64.313 26.8255 64.3724 26.7709 64.4159C26.6952 64.4763 26.6157 64.5905 26.58 64.7514C26.5442 64.9123 26.5677 65.0505 26.6104 65.1384C26.6413 65.2018 26.7081 65.3004 26.9196 65.3744L31.1412 66.8501C31.9677 67.1391 32.6655 67.7222 33.1076 68.4935ZM36.4222 77.4372C37.2273 78.8419 39.2105 78.8419 40.0156 77.4372L44.6777 69.3034C44.9304 68.8627 45.3291 68.5294 45.8014 68.3643L50.023 66.8886C52.3885 66.0617 51.5863 62.4493 49.1042 62.7512L38.4646 64.0454C38.3014 64.0652 38.1364 64.0652 37.9732 64.0454L27.3336 62.7512C24.8515 62.4493 24.0493 66.0617 26.4148 66.8886L30.6364 68.3643C31.1087 68.5294 31.5075 68.8627 31.7601 69.3034L36.4222 77.4372Z" fill="#101010"/>
<path d="M35.1563 62.4667H41.4063V79H35.1563V62.4667Z" fill="#101010"/>
<path d="M36.9793 64.3334H39.5835V77.1334H36.9793V64.3334Z" fill="#7A4D40"/>
<path d="M12.4375 57.4375H115.563V64.7292H12.4375V57.4375Z" fill="#101010"/>
<path d="M14 59H114V63.1667H14V59Z" fill="#7A4D40"/>
<path d="M69 26H78V57.5H69V26Z" fill="#101010"/>
<path d="M70 27H77V56.5H70V27Z" fill="#66AA66"/>
<path d="M69 49.25H78V54.5H69V49.25Z" fill="#101010"/>
<path d="M70 50.25H77V53.5H70V50.25Z" fill="#EEEE88"/>
<path d="M69 28.75H78V34H69V28.75Z" fill="#101010"/>
<path d="M70 29.75H77V33H70V29.75Z" fill="#EEEE88"/>
<path d="M72.9092 38.9032C73.316 38.4964 73.9755 38.4964 74.3823 38.9032L76.555 41.0759C76.9618 41.4827 76.9618 42.1422 76.555 42.549L74.3823 44.7217C73.9755 45.1285 73.316 45.1285 72.9092 44.7217L70.7365 42.549C70.3297 42.1422 70.3297 41.4827 70.7365 41.0759L72.9092 38.9032Z" fill="#101010"/>
<path d="M72.9092 38.9032C73.316 38.4964 73.9755 38.4964 74.3823 38.9032L76.555 41.0759C76.9618 41.4827 76.9618 42.1422 76.555 42.549L74.3823 44.7217C73.9755 45.1285 73.316 45.1285 72.9092 44.7217L70.7365 42.549C70.3297 42.1422 70.3297 41.4827 70.7365 41.0759L72.9092 38.9032Z" fill="#101010"/>
<path d="M72.9092 38.9032C73.316 38.4964 73.9755 38.4964 74.3823 38.9032L76.555 41.0759C76.9618 41.4827 76.9618 42.1422 76.555 42.549L74.3823 44.7217C73.9755 45.1285 73.316 45.1285 72.9092 44.7217L70.7365 42.549C70.3297 42.1422 70.3297 41.4827 70.7365 41.0759L72.9092 38.9032Z" fill="#101010"/>
<path d="M72.9092 38.9032C73.316 38.4964 73.9755 38.4964 74.3823 38.9032L76.555 41.0759C76.9618 41.4827 76.9618 42.1422 76.555 42.549L74.3823 44.7217C73.9755 45.1285 73.316 45.1285 72.9092 44.7217L70.7365 42.549C70.3297 42.1422 70.3297 41.4827 70.7365 41.0759L72.9092 38.9032Z" fill="#101010"/>
<path d="M73.6458 39.4687L75.9895 41.8125L73.6458 44.1562L71.302 41.8125L73.6458 39.4687Z" fill="#EEEE88"/>
<path d="M78 26H87V57.5H78V26Z" fill="#101010"/>
<path d="M79 27H86V56.5H79V27Z" fill="#66AA66"/>
<path d="M78 49.25H87V54.5H78V49.25Z" fill="#101010"/>
<path d="M79 50.25H86V53.5H79V50.25Z" fill="#EEEE88"/>
<path d="M78 28.75H87V34H78V28.75Z" fill="#101010"/>
<path d="M79 29.75H86V33H79V29.75Z" fill="#EEEE88"/>
<path d="M81.9092 38.9032C82.316 38.4964 82.9755 38.4964 83.3823 38.9032L85.555 41.0759C85.9618 41.4827 85.9618 42.1422 85.555 42.549L83.3823 44.7217C82.9755 45.1285 82.316 45.1285 81.9092 44.7217L79.7365 42.549C79.3297 42.1422 79.3297 41.4827 79.7365 41.0759L81.9092 38.9032Z" fill="#101010"/>
<path d="M81.9092 38.9032C82.316 38.4964 82.9755 38.4964 83.3823 38.9032L85.555 41.0759C85.9618 41.4827 85.9618 42.1422 85.555 42.549L83.3823 44.7217C82.9755 45.1285 82.316 45.1285 81.9092 44.7217L79.7365 42.549C79.3297 42.1422 79.3297 41.4827 79.7365 41.0759L81.9092 38.9032Z" fill="#101010"/>
<path d="M81.9092 38.9032C82.316 38.4964 82.9755 38.4964 83.3823 38.9032L85.555 41.0759C85.9618 41.4827 85.9618 42.1422 85.555 42.549L83.3823 44.7217C82.9755 45.1285 82.316 45.1285 81.9092 44.7217L79.7365 42.549C79.3297 42.1422 79.3297 41.4827 79.7365 41.0759L81.9092 38.9032Z" fill="#101010"/>
<path d="M81.9092 38.9032C82.316 38.4964 82.9755 38.4964 83.3823 38.9032L85.555 41.0759C85.9618 41.4827 85.9618 42.1422 85.555 42.549L83.3823 44.7217C82.9755 45.1285 82.316 45.1285 81.9092 44.7217L79.7365 42.549C79.3297 42.1422 79.3297 41.4827 79.7365 41.0759L81.9092 38.9032Z" fill="#101010"/>
<path d="M82.6458 39.4687L84.9895 41.8125L82.6458 44.1562L80.302 41.8125L82.6458 39.4687Z" fill="#EEEE88"/>
<path d="M87 26H96V57.5H87V26Z" fill="#101010"/>
<path d="M88 27H95V56.5H88V27Z" fill="#66AA66"/>
<path d="M87 49.25H96V54.5H87V49.25Z" fill="#101010"/>
<path d="M88 50.25H95V53.5H88V50.25Z" fill="#EEEE88"/>
<path d="M87 28.75H96V34H87V28.75Z" fill="#101010"/>
<path d="M88 29.75H95V33H88V29.75Z" fill="#EEEE88"/>
<path d="M90.9092 38.9032C91.316 38.4964 91.9755 38.4964 92.3823 38.9032L94.555 41.0759C94.9618 41.4827 94.9618 42.1422 94.555 42.549L92.3823 44.7217C91.9755 45.1285 91.316 45.1285 90.9092 44.7217L88.7365 42.549C88.3297 42.1422 88.3297 41.4827 88.7365 41.0759L90.9092 38.9032Z" fill="#101010"/>
<path d="M90.9092 38.9032C91.316 38.4964 91.9755 38.4964 92.3823 38.9032L94.555 41.0759C94.9618 41.4827 94.9618 42.1422 94.555 42.549L92.3823 44.7217C91.9755 45.1285 91.316 45.1285 90.9092 44.7217L88.7365 42.549C88.3297 42.1422 88.3297 41.4827 88.7365 41.0759L90.9092 38.9032Z" fill="#101010"/>
<path d="M90.9092 38.9032C91.316 38.4964 91.9755 38.4964 92.3823 38.9032L94.555 41.0759C94.9618 41.4827 94.9618 42.1422 94.555 42.549L92.3823 44.7217C91.9755 45.1285 91.316 45.1285 90.9092 44.7217L88.7365 42.549C88.3297 42.1422 88.3297 41.4827 88.7365 41.0759L90.9092 38.9032Z" fill="#101010"/>
<path d="M90.9092 38.9032C91.316 38.4964 91.9755 38.4964 92.3823 38.9032L94.555 41.0759C94.9618 41.4827 94.9618 42.1422 94.555 42.549L92.3823 44.7217C91.9755 45.1285 91.316 45.1285 90.9092 44.7217L88.7365 42.549C88.3297 42.1422 88.3297 41.4827 88.7365 41.0759L90.9092 38.9032Z" fill="#101010"/>
<path d="M91.6458 39.4687L93.9895 41.8125L91.6458 44.1562L89.302 41.8125L91.6458 39.4687Z" fill="#EEEE88"/>
<path d="M50 26H59V57.5H50V26Z" fill="#101010"/>
<path d="M51 27H58V56.5H51V27Z" fill="#66AA66"/>
<path d="M50 49.25H59V54.5H50V49.25Z" fill="#101010"/>
<path d="M51 50.25H58V53.5H51V50.25Z" fill="#EEEE88"/>
<path d="M50 28.75H59V34H50V28.75Z" fill="#101010"/>
<path d="M51 29.75H58V33H51V29.75Z" fill="#EEEE88"/>
<path d="M53.9092 38.9032C54.316 38.4964 54.9755 38.4964 55.3823 38.9032L57.555 41.0759C57.9618 41.4827 57.9618 42.1422 57.555 42.549L55.3823 44.7217C54.9755 45.1285 54.316 45.1285 53.9092 44.7217L51.7365 42.549C51.3297 42.1422 51.3297 41.4827 51.7365 41.0759L53.9092 38.9032Z" fill="#101010"/>
<path d="M53.9092 38.9032C54.316 38.4964 54.9755 38.4964 55.3823 38.9032L57.555 41.0759C57.9618 41.4827 57.9618 42.1422 57.555 42.549L55.3823 44.7217C54.9755 45.1285 54.316 45.1285 53.9092 44.7217L51.7365 42.549C51.3297 42.1422 51.3297 41.4827 51.7365 41.0759L53.9092 38.9032Z" fill="#101010"/>
<path d="M53.9092 38.9032C54.316 38.4964 54.9755 38.4964 55.3823 38.9032L57.555 41.0759C57.9618 41.4827 57.9618 42.1422 57.555 42.549L55.3823 44.7217C54.9755 45.1285 54.316 45.1285 53.9092 44.7217L51.7365 42.549C51.3297 42.1422 51.3297 41.4827 51.7365 41.0759L53.9092 38.9032Z" fill="#101010"/>
<path d="M53.9092 38.9032C54.316 38.4964 54.9755 38.4964 55.3823 38.9032L57.555 41.0759C57.9618 41.4827 57.9618 42.1422 57.555 42.549L55.3823 44.7217C54.9755 45.1285 54.316 45.1285 53.9092 44.7217L51.7365 42.549C51.3297 42.1422 51.3297 41.4827 51.7365 41.0759L53.9092 38.9032Z" fill="#101010"/>
<path d="M54.6458 39.4687L56.9895 41.8125L54.6458 44.1562L52.302 41.8125L54.6458 39.4687Z" fill="#EEEE88"/>
<path d="M41 26H50V57.5H41V26Z" fill="#101010"/>
<path d="M42 27H49V56.5H42V27Z" fill="#66AA66"/>
<path d="M41 49.25H50V54.5H41V49.25Z" fill="#101010"/>
<path d="M42 50.25H49V53.5H42V50.25Z" fill="#EEEE88"/>
<path d="M41 28.75H50V34H41V28.75Z" fill="#101010"/>
<path d="M42 29.75H49V33H42V29.75Z" fill="#EEEE88"/>
<path d="M44.9092 38.9032C45.316 38.4964 45.9755 38.4964 46.3823 38.9032L48.555 41.0759C48.9618 41.4827 48.9618 42.1422 48.555 42.549L46.3823 44.7217C45.9755 45.1285 45.316 45.1285 44.9092 44.7217L42.7365 42.549C42.3297 42.1422 42.3297 41.4827 42.7365 41.0759L44.9092 38.9032Z" fill="#101010"/>
<path d="M44.9092 38.9032C45.316 38.4964 45.9755 38.4964 46.3823 38.9032L48.555 41.0759C48.9618 41.4827 48.9618 42.1422 48.555 42.549L46.3823 44.7217C45.9755 45.1285 45.316 45.1285 44.9092 44.7217L42.7365 42.549C42.3297 42.1422 42.3297 41.4827 42.7365 41.0759L44.9092 38.9032Z" fill="#101010"/>
<path d="M44.9092 38.9032C45.316 38.4964 45.9755 38.4964 46.3823 38.9032L48.555 41.0759C48.9618 41.4827 48.9618 42.1422 48.555 42.549L46.3823 44.7217C45.9755 45.1285 45.316 45.1285 44.9092 44.7217L42.7365 42.549C42.3297 42.1422 42.3297 41.4827 42.7365 41.0759L44.9092 38.9032Z" fill="#101010"/>
<path d="M44.9092 38.9032C45.316 38.4964 45.9755 38.4964 46.3823 38.9032L48.555 41.0759C48.9618 41.4827 48.9618 42.1422 48.555 42.549L46.3823 44.7217C45.9755 45.1285 45.316 45.1285 44.9092 44.7217L42.7365 42.549C42.3297 42.1422 42.3297 41.4827 42.7365 41.0759L44.9092 38.9032Z" fill="#101010"/>
<path d="M45.6458 39.4687L47.9895 41.8125L45.6458 44.1562L43.302 41.8125L45.6458 39.4687Z" fill="#EEEE88"/>
<path d="M32 26H41V57.5H32V26Z" fill="#101010"/>
<path d="M33 27H40V56.5H33V27Z" fill="#66AA66"/>
<path d="M32 49.25H41V54.5H32V49.25Z" fill="#101010"/>
<path d="M33 50.25H40V53.5H33V50.25Z" fill="#EEEE88"/>
<path d="M32 28.75H41V34H32V28.75Z" fill="#101010"/>
<path d="M33 29.75H40V33H33V29.75Z" fill="#EEEE88"/>
<path d="M35.9092 38.9032C36.316 38.4964 36.9755 38.4964 37.3823 38.9032L39.555 41.0759C39.9618 41.4827 39.9618 42.1422 39.555 42.549L37.3823 44.7217C36.9755 45.1285 36.316 45.1285 35.9092 44.7217L33.7365 42.549C33.3297 42.1422 33.3297 41.4827 33.7365 41.0759L35.9092 38.9032Z" fill="#101010"/>
<path d="M35.9092 38.9032C36.316 38.4964 36.9755 38.4964 37.3823 38.9032L39.555 41.0759C39.9618 41.4827 39.9618 42.1422 39.555 42.549L37.3823 44.7217C36.9755 45.1285 36.316 45.1285 35.9092 44.7217L33.7365 42.549C33.3297 42.1422 33.3297 41.4827 33.7365 41.0759L35.9092 38.9032Z" fill="#101010"/>
<path d="M35.9092 38.9032C36.316 38.4964 36.9755 38.4964 37.3823 38.9032L39.555 41.0759C39.9618 41.4827 39.9618 42.1422 39.555 42.549L37.3823 44.7217C36.9755 45.1285 36.316 45.1285 35.9092 44.7217L33.7365 42.549C33.3297 42.1422 33.3297 41.4827 33.7365 41.0759L35.9092 38.9032Z" fill="#101010"/>
<path d="M35.9092 38.9032C36.316 38.4964 36.9755 38.4964 37.3823 38.9032L39.555 41.0759C39.9618 41.4827 39.9618 42.1422 39.555 42.549L37.3823 44.7217C36.9755 45.1285 36.316 45.1285 35.9092 44.7217L33.7365 42.549C33.3297 42.1422 33.3297 41.4827 33.7365 41.0759L35.9092 38.9032Z" fill="#101010"/>
<path d="M36.6458 39.4687L38.9895 41.8125L36.6458 44.1562L34.302 41.8125L36.6458 39.4687Z" fill="#EEEE88"/>
<path d="M59 23H69V57.5H59V23Z" fill="#101010"/>
<path d="M60.25 24H67.75V56.5H60.25V24Z" fill="#66AA66"/>
<path d="M63.2634 37.9866C63.6702 37.5798 64.3298 37.5798 64.7366 37.9866L66.7634 40.0135C67.1702 40.4203 67.1702 41.0798 66.7634 41.4866L64.7366 43.5135C64.3298 43.9203 63.6702 43.9203 63.2634 43.5135L61.2366 41.4866C60.8298 41.0798 60.8298 40.4203 61.2366 40.0135L63.2634 37.9866Z" fill="#101010"/>
<path d="M63.2634 37.9866C63.6702 37.5798 64.3298 37.5798 64.7366 37.9866L66.7634 40.0135C67.1702 40.4203 67.1702 41.0798 66.7634 41.4866L64.7366 43.5135C64.3298 43.9203 63.6702 43.9203 63.2634 43.5135L61.2366 41.4866C60.8298 41.0798 60.8298 40.4203 61.2366 40.0135L63.2634 37.9866Z" fill="#101010"/>
<path d="M63.2634 37.9866C63.6702 37.5798 64.3298 37.5798 64.7366 37.9866L66.7634 40.0135C67.1702 40.4203 67.1702 41.0798 66.7634 41.4866L64.7366 43.5135C64.3298 43.9203 63.6702 43.9203 63.2634 43.5135L61.2366 41.4866C60.8298 41.0798 60.8298 40.4203 61.2366 40.0135L63.2634 37.9866Z" fill="#101010"/>
<path d="M63.2634 37.9866C63.6702 37.5798 64.3298 37.5798 64.7366 37.9866L66.7634 40.0135C67.1702 40.4203 67.1702 41.0798 66.7634 41.4866L64.7366 43.5135C64.3298 43.9203 63.6702 43.9203 63.2634 43.5135L61.2366 41.4866C60.8298 41.0798 60.8298 40.4203 61.2366 40.0135L63.2634 37.9866Z" fill="#101010"/>
<path d="M64 38.5L66.25 40.75L64 43L61.75 40.75L64 38.5Z" fill="#EEEE88"/>
<path d="M59 25.75H69V34H59V25.75Z" fill="#101010"/>
<path d="M60.25 26.75H67.75V33H60.25V26.75Z" fill="#EEEE88"/>
<path d="M59 47.5H69V55.75H59V47.5Z" fill="#101010"/>
<path d="M60.25 48.5H67.75V54.75H60.25V48.5Z" fill="#EEEE88"/>
</svg>
