<svg width="256" height="256" viewBox="0 0 256 256" fill="none" xmlns="http://www.w3.org/2000/svg">
<path d="M187.201 160.514C185.453 163.494 181.145 163.493 179.396 160.514L169.269 143.258C168.721 142.323 167.855 141.616 166.829 141.266L157.659 138.135C152.521 136.381 154.263 128.718 159.654 129.358L182.765 132.104C183.12 132.146 183.478 132.146 183.833 132.104L206.943 129.358C212.334 128.718 214.077 136.381 208.939 138.135L199.769 141.266C198.743 141.616 197.877 142.323 197.328 143.258L187.201 160.514Z" fill="#7A4D40"/>
<path d="M183.299 132.135C183.12 132.135 182.942 132.125 182.765 132.104L159.654 129.358C154.263 128.718 152.521 136.381 157.659 138.135L166.829 141.266C167.855 141.616 168.721 142.323 169.269 143.258L179.396 160.514C180.27 162.004 181.785 162.749 183.299 162.749V155.988L174.148 140.395C173.056 138.535 171.406 137.076 169.443 136.218L182.098 137.721C182.497 137.769 182.898 137.792 183.299 137.792V132.135Z" fill="#4A2D20"/>
<path d="M183.299 162.749C184.813 162.749 186.327 162.004 187.201 160.514L197.328 143.258C197.877 142.323 198.743 141.616 199.769 141.266L208.939 138.135C214.077 136.381 212.334 128.718 206.943 129.358L183.833 132.104C183.655 132.125 183.477 132.135 183.299 132.135V137.792C183.7 137.792 184.101 137.769 184.5 137.721L197.154 136.218C195.191 137.076 193.541 138.535 192.45 140.395L183.299 155.988V162.749Z" fill="#9A6D60"/>
<path d="M186.835 148.755C185.251 150.671 181.347 150.671 179.762 148.755L170.585 137.658C170.088 137.057 169.303 136.602 168.373 136.377L160.063 134.364C156.623 133.531 156.587 130.623 158.772 129.327C159.054 129.312 159.348 129.322 159.654 129.358L182.765 132.104C183.12 132.146 183.478 132.146 183.833 132.104L206.943 129.358C207.249 129.322 207.543 129.312 207.825 129.327C210.011 130.623 209.974 133.531 206.534 134.364L198.224 136.377C197.295 136.602 196.51 137.057 196.012 137.658L186.835 148.755Z" fill="#7A4D40"/>
<path fill-rule="evenodd" clip-rule="evenodd" d="M172.196 141.54L182.323 158.796C182.76 159.541 183.837 159.54 184.274 158.796L194.401 141.54C195.361 139.904 196.877 138.667 198.672 138.054L207.842 134.923C208.302 134.766 208.447 134.557 208.514 134.422C208.606 134.236 208.658 133.943 208.58 133.602C208.502 133.26 208.33 133.018 208.165 132.89C208.047 132.797 207.825 132.672 207.343 132.729L184.233 135.474C183.612 135.548 182.985 135.548 182.365 135.474L159.254 132.729C158.772 132.672 158.551 132.797 158.432 132.89C158.268 133.018 158.095 133.26 158.018 133.602C157.94 133.943 157.991 134.236 158.084 134.422C158.151 134.557 158.296 134.766 158.755 134.923L167.925 138.054C169.72 138.667 171.236 139.904 172.196 141.54ZM179.396 160.514C181.145 163.493 185.453 163.494 187.201 160.514L197.328 143.258C197.877 142.323 198.743 141.616 199.769 141.266L208.939 138.135C214.077 136.381 212.334 128.718 206.943 129.358L183.833 132.104C183.478 132.146 183.12 132.146 182.765 132.104L159.654 129.358C154.263 128.718 152.521 136.381 157.659 138.135L166.829 141.266C167.855 141.616 168.721 142.323 169.269 143.258L179.396 160.514Z" fill="#101010"/>
<path d="M176.646 131.018C176.646 129.768 177.659 128.755 178.909 128.755H187.96C189.209 128.755 190.222 129.768 190.222 131.018V161.566C190.222 162.816 189.209 163.829 187.96 163.829H178.909C177.659 163.829 176.646 162.816 176.646 161.566V131.018Z" fill="#101010"/>
<path d="M180.606 132.715H186.263V159.869H180.606V132.715Z" fill="#7A4D40"/>
<path d="M180.606 132.715H182.869V159.869H180.606V132.715Z" fill="#4A2D20"/>
<path d="M180.606 154.212H186.263V159.869H180.606V154.212Z" fill="#4A2D20"/>
<path d="M181.737 132.715L186.263 132.715V158.738H183.434C182.497 158.738 181.737 157.978 181.737 157.04V132.715Z" fill="#7A4D40"/>
<path d="M185.131 132.715L186.263 132.715V159.869L185.131 159.869V132.715Z" fill="#9A6D60"/>
<path d="M75.7671 160.514C74.0183 163.494 69.7105 163.493 67.9617 160.514L57.835 143.258C57.2863 142.323 56.4202 141.616 55.3943 141.266L46.2244 138.135C41.0863 136.381 42.8289 128.718 48.2201 129.358L71.3306 132.104C71.6852 132.146 72.0436 132.146 72.3982 132.104L95.5086 129.358C100.9 128.718 102.642 136.381 97.5044 138.135L88.3345 141.266C87.3086 141.616 86.4425 142.323 85.8937 143.258L75.7671 160.514Z" fill="#7A4D40"/>
<path d="M71.8644 132.135C71.6861 132.135 71.5079 132.125 71.3306 132.104L48.2201 129.358C42.8289 128.718 41.0863 136.381 46.2244 138.135L55.3943 141.266C56.4202 141.616 57.2863 142.323 57.835 143.258L67.9617 160.514C68.8361 162.004 70.3502 162.749 71.8644 162.749V155.988L62.7134 140.395C61.6218 138.535 59.972 137.076 58.0089 136.218L70.6634 137.721C71.0623 137.769 71.4633 137.792 71.8644 137.792V132.135Z" fill="#4A2D20"/>
<path d="M71.8644 162.749C73.3785 162.749 74.8927 162.004 75.7671 160.514L85.8937 143.258C86.4425 142.323 87.3086 141.616 88.3345 141.266L97.5044 138.135C102.642 136.381 100.9 128.718 95.5086 129.358L72.3982 132.104C72.2209 132.125 72.0426 132.135 71.8644 132.135V137.792C72.2654 137.792 72.6665 137.769 73.0654 137.721L85.7199 136.218C83.7568 137.076 82.107 138.535 81.0154 140.395L71.8644 155.988V162.749Z" fill="#9A6D60"/>
<path d="M75.4011 148.755C73.8163 150.671 69.9125 150.671 68.3277 148.755L59.1507 137.658C58.6534 137.057 57.8686 136.602 56.9389 136.377L48.6289 134.364C45.189 133.531 45.1523 130.623 47.3379 129.327C47.6198 129.312 47.9141 129.322 48.2201 129.358L71.3306 132.104C71.6852 132.146 72.0436 132.146 72.3982 132.104L95.5086 129.358C95.8147 129.322 96.109 129.312 96.3909 129.327C98.5765 130.623 98.5398 133.531 95.0999 134.364L86.7899 136.377C85.8602 136.602 85.0753 137.057 84.5781 137.658L75.4011 148.755Z" fill="#7A4D40"/>
<path fill-rule="evenodd" clip-rule="evenodd" d="M60.7621 141.54L70.8887 158.796C71.3259 159.541 72.4029 159.54 72.8401 158.796L82.9667 141.54C83.927 139.904 85.4427 138.667 87.238 138.054L96.4079 134.923C96.8673 134.766 97.0124 134.557 97.0794 134.422C97.1721 134.236 97.2232 133.943 97.1456 133.602C97.0679 133.26 96.8952 133.018 96.7309 132.89C96.6123 132.797 96.391 132.672 95.909 132.729L72.7985 135.474C72.1779 135.548 71.5508 135.548 70.9303 135.474L47.8198 132.729C47.3378 132.672 47.1164 132.797 46.9978 132.89C46.8336 133.018 46.6608 133.26 46.5832 133.602C46.5056 133.943 46.5566 134.236 46.6494 134.422C46.7163 134.557 46.8615 134.766 47.3209 134.923L56.4908 138.054C58.2861 138.667 59.8018 139.904 60.7621 141.54ZM67.9617 160.514C69.7105 163.493 74.0183 163.494 75.7671 160.514L85.8937 143.258C86.4425 142.323 87.3086 141.616 88.3345 141.266L97.5044 138.135C102.642 136.381 100.9 128.718 95.5086 129.358L72.3982 132.104C72.0436 132.146 71.6852 132.146 71.3306 132.104L48.2201 129.358C42.8289 128.718 41.0863 136.381 46.2244 138.135L55.3943 141.266C56.4202 141.616 57.2863 142.323 57.835 143.258L67.9617 160.514Z" fill="#101010"/>
<path d="M65.2121 131.018C65.2121 129.768 66.2251 128.755 67.4747 128.755H76.5253C77.7749 128.755 78.7879 129.768 78.7879 131.018V161.566C78.7879 162.816 77.7749 163.829 76.5253 163.829H67.4747C66.2251 163.829 65.2121 162.816 65.2121 161.566V131.018Z" fill="#101010"/>
<path d="M69.1717 132.715H74.8283V159.869H69.1717V132.715Z" fill="#7A4D40"/>
<path d="M69.1717 132.715H71.4343V159.869H69.1717V132.715Z" fill="#4A2D20"/>
<path d="M69.1717 154.212H74.8283V159.869H69.1717V154.212Z" fill="#4A2D20"/>
<path d="M70.303 132.715L74.8283 132.715V158.738H72C71.0628 158.738 70.303 157.978 70.303 157.04V132.715Z" fill="#7A4D40"/>
<path d="M73.697 132.715L74.8283 132.715V159.869L73.697 159.869V132.715Z" fill="#9A6D60"/>
<path d="M16 120.269C16 119.019 17.013 118.006 18.2626 118.006H237.737C238.987 118.006 240 119.019 240 120.269V131.583C240 132.833 238.987 133.846 237.737 133.846H18.2626C17.013 133.846 16 132.833 16 131.583V120.269Z" fill="#101010"/>
<path d="M19.3939 121.4H236.606V130.452H19.3939V121.4Z" fill="#7A4D40"/>
<path d="M19.3939 127.058H236.606V130.452H19.3939V127.058Z" fill="#4A2D20"/>
<path d="M19.3939 121.4H24.4848V130.452H19.3939V121.4Z" fill="#4A2D20"/>
<path d="M22.7879 121.4H24.4848V127.058C23.5476 127.058 22.7879 126.298 22.7879 125.36V121.4Z" fill="#7A4D40"/>
<path d="M234.343 121.4H236.606V130.452H234.343V121.4Z" fill="#9A6D60"/>
<path d="M19.3939 121.4H236.606V123.098H19.3939V121.4Z" fill="#9A6D60"/>
<path d="M234.343 123.098C234.968 123.098 235.475 123.604 235.475 124.229V127.058H234.343V123.098Z" fill="#7A4D40"/>
<path d="M234.343 127.058H235.475V130.452H234.343V127.058Z" fill="#4A2D20"/>
<path d="M117.253 39.9375H139.879V118.006H117.253V39.9375Z" fill="#101010"/>
<path d="M120.081 42.2004H137.051V115.743H120.081V42.2004Z" fill="#66AA66"/>
<path d="M134.788 42.2004H137.051V115.743H134.788V42.2004Z" fill="#86CA86"/>
<path d="M120.081 42.2004H137.051V44.4632H120.081V42.2004Z" fill="#86CA86"/>
<path d="M120.081 42.2004H122.343V115.743H120.081V42.2004Z" fill="#468A46"/>
<path d="M120.081 113.48H137.051V115.743H120.081V113.48Z" fill="#468A46"/>
<path d="M126.966 73.7833C127.849 72.8996 129.282 72.8996 130.166 73.7833L134.885 78.5032C135.769 79.3869 135.769 80.8196 134.885 81.7033L130.166 86.4232C129.282 87.3069 127.849 87.3069 126.966 86.4232L122.246 81.7033C121.363 80.8196 121.363 79.3868 122.246 78.5031L126.966 73.7833Z" fill="#101010"/>
<path d="M126.966 73.7833C127.849 72.8996 129.282 72.8996 130.166 73.7833L134.885 78.5032C135.769 79.3869 135.769 80.8196 134.885 81.7033L130.166 86.4232C129.282 87.3069 127.849 87.3069 126.966 86.4232L122.246 81.7033C121.363 80.8196 121.363 79.3868 122.246 78.5031L126.966 73.7833Z" fill="#101010"/>
<path d="M126.966 73.7833C127.849 72.8996 129.282 72.8996 130.166 73.7833L134.885 78.5032C135.769 79.3869 135.769 80.8196 134.885 81.7033L130.166 86.4232C129.282 87.3069 127.849 87.3069 126.966 86.4232L122.246 81.7033C121.363 80.8196 121.363 79.3868 122.246 78.5031L126.966 73.7833Z" fill="#101010"/>
<path d="M126.966 73.7833C127.849 72.8996 129.282 72.8996 130.166 73.7833L134.885 78.5032C135.769 79.3869 135.769 80.8196 134.885 81.7033L130.166 86.4232C129.282 87.3069 127.849 87.3069 126.966 86.4232L122.246 81.7033C121.363 80.8196 121.363 79.3868 122.246 78.5031L126.966 73.7833Z" fill="#101010"/>
<path d="M128.566 75.0118L133.657 80.1032L128.566 85.1947L123.475 80.1032L128.566 75.0118Z" fill="#EEEE88"/>
<path d="M130.828 91.9832C130.828 93.233 129.815 94.2461 128.566 94.2461C127.316 94.2461 126.303 93.233 126.303 91.9832C126.303 90.7335 127.316 89.7204 128.566 89.7204C129.815 89.7204 130.828 90.7335 130.828 91.9832Z" fill="#101010"/>
<path d="M130.828 68.2232C130.828 69.473 129.815 70.4861 128.566 70.4861C127.316 70.4861 126.303 69.473 126.303 68.2232C126.303 66.9735 127.316 65.9604 128.566 65.9604C129.815 65.9604 130.828 66.9735 130.828 68.2232Z" fill="#101010"/>
<path d="M129.697 91.9832C129.697 92.6081 129.19 93.1147 128.566 93.1147C127.941 93.1147 127.434 92.6081 127.434 91.9832C127.434 91.3584 127.941 90.8518 128.566 90.8518C129.19 90.8518 129.697 91.3584 129.697 91.9832Z" fill="#EEEE88"/>
<path d="M129.697 68.2232C129.697 68.8481 129.19 69.3547 128.566 69.3547C127.941 69.3547 127.434 68.8481 127.434 68.2232C127.434 67.5984 127.941 67.0918 128.566 67.0918C129.19 67.0918 129.697 67.5984 129.697 68.2232Z" fill="#EEEE88"/>
<path d="M117.253 46.1604H139.879V64.8289H117.253V46.1604Z" fill="#101010"/>
<path d="M120.081 48.4232H137.051V62.5661H120.081V48.4232Z" fill="#EEEE88"/>
<path d="M134.788 48.4232H137.051V62.5661H134.788V48.4232Z" fill="#FFFFCC"/>
<path d="M120.081 48.4232H122.343V62.5661H120.081V48.4232Z" fill="#DDDD68"/>
<path d="M126.933 50.1236C127.824 49.196 129.307 49.196 130.198 50.1236L133.849 53.9275C134.69 54.8032 134.69 56.1861 133.849 57.0618L130.198 60.8657C129.307 61.7933 127.824 61.7933 126.933 60.8657L123.282 57.0618C122.442 56.1861 122.442 54.8032 123.282 53.9275L126.933 50.1236Z" fill="#101010"/>
<path d="M126.933 50.1236C127.824 49.196 129.307 49.196 130.198 50.1236L133.849 53.9275C134.69 54.8032 134.69 56.1861 133.849 57.0618L130.198 60.8657C129.307 61.7933 127.824 61.7933 126.933 60.8657L123.282 57.0618C122.442 56.1861 122.442 54.8032 123.282 53.9275L126.933 50.1236Z" fill="#101010"/>
<path d="M126.933 50.1236C127.824 49.196 129.307 49.196 130.198 50.1236L133.849 53.9275C134.69 54.8032 134.69 56.1861 133.849 57.0618L130.198 60.8657C129.307 61.7933 127.824 61.7933 126.933 60.8657L123.282 57.0618C122.442 56.1861 122.442 54.8032 123.282 53.9275L126.933 50.1236Z" fill="#101010"/>
<path d="M126.933 50.1236C127.824 49.196 129.307 49.196 130.198 50.1236L133.849 53.9275C134.69 54.8032 134.69 56.1861 133.849 57.0618L130.198 60.8657C129.307 61.7933 127.824 61.7933 126.933 60.8657L123.282 57.0618C122.442 56.1861 122.442 54.8032 123.282 53.9275L126.933 50.1236Z" fill="#101010"/>
<path d="M128.566 51.2518L132.525 55.4946L128.566 59.7375L124.606 55.4946L128.566 51.2518Z" fill="#EEEE88"/>
<path d="M117.253 95.3775H139.879V114.046H117.253V95.3775Z" fill="#101010"/>
<path d="M120.081 97.6404H137.051V111.783H120.081V97.6404Z" fill="#EEEE88"/>
<path d="M134.788 97.6404H137.051V111.783H134.788V97.6404Z" fill="#FFFFCC"/>
<path d="M120.081 97.6404H122.343V111.783H120.081V97.6404Z" fill="#DDDD68"/>
<path d="M126.933 99.3408C127.824 98.4131 129.307 98.4131 130.198 99.3408L133.849 103.145C134.69 104.02 134.69 105.403 133.849 106.279L130.198 110.083C129.307 111.011 127.824 111.011 126.933 110.083L123.282 106.279C122.442 105.403 122.442 104.02 123.282 103.145L126.933 99.3408Z" fill="#101010"/>
<path d="M126.933 99.3408C127.824 98.4131 129.307 98.4131 130.198 99.3408L133.849 103.145C134.69 104.02 134.69 105.403 133.849 106.279L130.198 110.083C129.307 111.011 127.824 111.011 126.933 110.083L123.282 106.279C122.442 105.403 122.442 104.02 123.282 103.145L126.933 99.3408Z" fill="#101010"/>
<path d="M126.933 99.3408C127.824 98.4131 129.307 98.4131 130.198 99.3408L133.849 103.145C134.69 104.02 134.69 105.403 133.849 106.279L130.198 110.083C129.307 111.011 127.824 111.011 126.933 110.083L123.282 106.279C122.442 105.403 122.442 104.02 123.282 103.145L126.933 99.3408Z" fill="#101010"/>
<path d="M126.933 99.3408C127.824 98.4131 129.307 98.4131 130.198 99.3408L133.849 103.145C134.69 104.02 134.69 105.403 133.849 106.279L130.198 110.083C129.307 111.011 127.824 111.011 126.933 110.083L123.282 106.279C122.442 105.403 122.442 104.02 123.282 103.145L126.933 99.3408Z" fill="#101010"/>
<path d="M128.566 100.469L132.525 104.712L128.566 108.955L124.606 104.712L128.566 100.469Z" fill="#EEEE88"/>
<path d="M96.8889 46.7261H117.253V118.006H96.8889V46.7261Z" fill="#101010"/>
<path d="M99.1515 48.9889H114.99V115.743H99.1515V48.9889Z" fill="#66AA66"/>
<path d="M112.727 48.9889H114.99V115.743H112.727V48.9889Z" fill="#86CA86"/>
<path d="M99.1515 48.9889H114.99V51.2518H99.1515V48.9889Z" fill="#86CA86"/>
<path d="M99.1515 48.9889H101.414V115.743H99.1515V48.9889Z" fill="#468A46"/>
<path d="M99.1515 113.48H114.99V115.743H99.1515V113.48Z" fill="#468A46"/>
<path d="M96.8889 99.3375H117.253V111.218H96.8889V99.3375Z" fill="#101010"/>
<path d="M99.1515 101.6H114.99V108.955H99.1515V101.6Z" fill="#EEEE88"/>
<path d="M112.727 101.6H114.99V108.955H112.727V101.6Z" fill="#FFFFCC"/>
<path d="M99.1515 101.6H101.414V108.955H99.1515V101.6Z" fill="#DDDD68"/>
<path d="M99.1515 103.863H114.99V106.692H99.1515V103.863Z" fill="#101010"/>
<path d="M96.8889 52.9489H117.253V64.8289H96.8889V52.9489Z" fill="#101010"/>
<path d="M99.1515 55.2118H114.99V62.5661H99.1515V55.2118Z" fill="#EEEE88"/>
<path d="M112.727 55.2118H114.99V62.5661H112.727V55.2118Z" fill="#FFFFCC"/>
<path d="M99.1515 55.2118H101.414V62.5661H99.1515V55.2118Z" fill="#DDDD68"/>
<path d="M99.1515 57.4747H114.99V60.3032H99.1515V57.4747Z" fill="#101010"/>
<path d="M105.471 75.4805C106.354 74.5968 107.787 74.5968 108.671 75.4805L113.39 80.2003C114.274 81.084 114.274 82.5168 113.39 83.4005L108.671 88.1203C107.787 89.004 106.354 89.004 105.471 88.1203L100.751 83.4005C99.8678 82.5168 99.8678 81.084 100.751 80.2003L105.471 75.4805Z" fill="#101010"/>
<path d="M105.471 75.4805C106.354 74.5968 107.787 74.5968 108.671 75.4805L113.39 80.2003C114.274 81.084 114.274 82.5168 113.39 83.4005L108.671 88.1203C107.787 89.004 106.354 89.004 105.471 88.1203L100.751 83.4005C99.8678 82.5168 99.8678 81.084 100.751 80.2003L105.471 75.4805Z" fill="#101010"/>
<path d="M105.471 75.4805C106.354 74.5968 107.787 74.5968 108.671 75.4805L113.39 80.2003C114.274 81.084 114.274 82.5168 113.39 83.4005L108.671 88.1203C107.787 89.004 106.354 89.004 105.471 88.1203L100.751 83.4005C99.8678 82.5168 99.8678 81.084 100.751 80.2003L105.471 75.4805Z" fill="#101010"/>
<path d="M105.471 75.4805C106.354 74.5968 107.787 74.5968 108.671 75.4805L113.39 80.2003C114.274 81.084 114.274 82.5168 113.39 83.4005L108.671 88.1203C107.787 89.004 106.354 89.004 105.471 88.1203L100.751 83.4005C99.8678 82.5168 99.8678 81.084 100.751 80.2003L105.471 75.4805Z" fill="#101010"/>
<path d="M107.071 76.7089L112.162 81.8004L107.071 86.8918L101.98 81.8004L107.071 76.7089Z" fill="#EEEE88"/>
<path d="M109.333 93.6804C109.333 94.9301 108.32 95.9432 107.071 95.9432C105.821 95.9432 104.808 94.9301 104.808 93.6804C104.808 92.4306 105.821 91.4175 107.071 91.4175C108.32 91.4175 109.333 92.4306 109.333 93.6804Z" fill="#101010"/>
<path d="M109.333 69.9204C109.333 71.1701 108.32 72.1832 107.071 72.1832C105.821 72.1832 104.808 71.1701 104.808 69.9204C104.808 68.6706 105.821 67.6575 107.071 67.6575C108.32 67.6575 109.333 68.6706 109.333 69.9204Z" fill="#101010"/>
<path d="M108.202 93.6804C108.202 94.3053 107.696 94.8118 107.071 94.8118C106.446 94.8118 105.939 94.3053 105.939 93.6804C105.939 93.0555 106.446 92.549 107.071 92.549C107.696 92.549 108.202 93.0555 108.202 93.6804Z" fill="#EEEE88"/>
<path d="M108.202 69.9204C108.202 70.5452 107.696 71.0518 107.071 71.0518C106.446 71.0518 105.939 70.5452 105.939 69.9204C105.939 69.2955 106.446 68.7889 107.071 68.7889C107.696 68.7889 108.202 69.2955 108.202 69.9204Z" fill="#EEEE88"/>
<path d="M76.5253 46.7261H96.8889V118.006H76.5253V46.7261Z" fill="#101010"/>
<path d="M78.7879 48.9889H94.6263V115.743H78.7879V48.9889Z" fill="#66AA66"/>
<path d="M92.3636 48.9889H94.6263V115.743H92.3636V48.9889Z" fill="#86CA86"/>
<path d="M78.7879 48.9889H94.6263V51.2518H78.7879V48.9889Z" fill="#86CA86"/>
<path d="M78.7879 48.9889H81.0505V115.743H78.7879V48.9889Z" fill="#468A46"/>
<path d="M78.7879 113.48H94.6263V115.743H78.7879V113.48Z" fill="#468A46"/>
<path d="M76.5253 99.3375H96.8889V111.218H76.5253V99.3375Z" fill="#101010"/>
<path d="M78.7879 101.6H94.6263V108.955H78.7879V101.6Z" fill="#EEEE88"/>
<path d="M92.3636 101.6H94.6263V108.955H92.3636V101.6Z" fill="#FFFFCC"/>
<path d="M78.7879 101.6H81.0505V108.955H78.7879V101.6Z" fill="#DDDD68"/>
<path d="M78.7879 103.863H94.6263V106.692H78.7879V103.863Z" fill="#101010"/>
<path d="M76.5253 52.9489H96.8889V64.8289H76.5253V52.9489Z" fill="#101010"/>
<path d="M78.7879 55.2118H94.6263V62.5661H78.7879V55.2118Z" fill="#EEEE88"/>
<path d="M92.3636 55.2118H94.6263V62.5661H92.3636V55.2118Z" fill="#FFFFCC"/>
<path d="M78.7879 55.2118H81.0505V62.5661H78.7879V55.2118Z" fill="#DDDD68"/>
<path d="M78.7879 57.4747H94.6263V60.3032H78.7879V57.4747Z" fill="#101010"/>
<path d="M85.1072 75.4805C85.9908 74.5968 87.4234 74.5968 88.307 75.4805L93.0263 80.2003C93.9099 81.084 93.9099 82.5168 93.0263 83.4005L88.307 88.1203C87.4234 89.004 85.9908 89.004 85.1071 88.1203L80.3878 83.4005C79.5042 82.5168 79.5042 81.084 80.3878 80.2003L85.1072 75.4805Z" fill="#101010"/>
<path d="M85.1072 75.4805C85.9908 74.5968 87.4234 74.5968 88.307 75.4805L93.0263 80.2003C93.9099 81.084 93.9099 82.5168 93.0263 83.4005L88.307 88.1203C87.4234 89.004 85.9908 89.004 85.1071 88.1203L80.3878 83.4005C79.5042 82.5168 79.5042 81.084 80.3878 80.2003L85.1072 75.4805Z" fill="#101010"/>
<path d="M85.1072 75.4805C85.9908 74.5968 87.4234 74.5968 88.307 75.4805L93.0263 80.2003C93.9099 81.084 93.9099 82.5168 93.0263 83.4005L88.307 88.1203C87.4234 89.004 85.9908 89.004 85.1071 88.1203L80.3878 83.4005C79.5042 82.5168 79.5042 81.084 80.3878 80.2003L85.1072 75.4805Z" fill="#101010"/>
<path d="M85.1072 75.4805C85.9908 74.5968 87.4234 74.5968 88.307 75.4805L93.0263 80.2003C93.9099 81.084 93.9099 82.5168 93.0263 83.4005L88.307 88.1203C87.4234 89.004 85.9908 89.004 85.1071 88.1203L80.3878 83.4005C79.5042 82.5168 79.5042 81.084 80.3878 80.2003L85.1072 75.4805Z" fill="#101010"/>
<path d="M86.7071 76.7089L91.798 81.8004L86.7071 86.8918L81.6162 81.8004L86.7071 76.7089Z" fill="#EEEE88"/>
<path d="M88.9697 93.6804C88.9697 94.9301 87.9567 95.9432 86.7071 95.9432C85.4575 95.9432 84.4444 94.9301 84.4444 93.6804C84.4444 92.4306 85.4575 91.4175 86.7071 91.4175C87.9567 91.4175 88.9697 92.4306 88.9697 93.6804Z" fill="#101010"/>
<path d="M88.9697 69.9204C88.9697 71.1701 87.9567 72.1832 86.7071 72.1832C85.4575 72.1832 84.4444 71.1701 84.4444 69.9204C84.4444 68.6706 85.4575 67.6575 86.7071 67.6575C87.9567 67.6575 88.9697 68.6706 88.9697 69.9204Z" fill="#101010"/>
<path d="M87.8384 93.6804C87.8384 94.3053 87.3319 94.8118 86.7071 94.8118C86.0823 94.8118 85.5758 94.3053 85.5758 93.6804C85.5758 93.0555 86.0823 92.549 86.7071 92.549C87.3319 92.549 87.8384 93.0555 87.8384 93.6804Z" fill="#EEEE88"/>
<path d="M87.8384 69.9204C87.8384 70.5452 87.3319 71.0518 86.7071 71.0518C86.0823 71.0518 85.5758 70.5452 85.5758 69.9204C85.5758 69.2955 86.0823 68.7889 86.7071 68.7889C87.3319 68.7889 87.8384 69.2955 87.8384 69.9204Z" fill="#EEEE88"/>
<path d="M56.1616 46.7261H76.5253V118.006H56.1616V46.7261Z" fill="#101010"/>
<path d="M58.4242 48.9889H74.2626V115.743H58.4242V48.9889Z" fill="#66AA66"/>
<path d="M72 48.9889H74.2626V115.743H72V48.9889Z" fill="#86CA86"/>
<path d="M58.4242 48.9889H74.2626V51.2518H58.4242V48.9889Z" fill="#86CA86"/>
<path d="M58.4242 48.9889H60.6869V115.743H58.4242V48.9889Z" fill="#468A46"/>
<path d="M58.4242 113.48H74.2626V115.743H58.4242V113.48Z" fill="#468A46"/>
<path d="M56.1616 99.3375H76.5253V111.218H56.1616V99.3375Z" fill="#101010"/>
<path d="M58.4242 101.6H74.2626V108.955H58.4242V101.6Z" fill="#EEEE88"/>
<path d="M72 101.6H74.2626V108.955H72V101.6Z" fill="#FFFFCC"/>
<path d="M58.4242 101.6H60.6869V108.955H58.4242V101.6Z" fill="#DDDD68"/>
<path d="M58.4242 103.863H74.2626V106.692H58.4242V103.863Z" fill="#101010"/>
<path d="M56.1616 52.9489H76.5253V64.8289H56.1616V52.9489Z" fill="#101010"/>
<path d="M58.4242 55.2118H74.2626V62.5661H58.4242V55.2118Z" fill="#EEEE88"/>
<path d="M72 55.2118H74.2626V62.5661H72V55.2118Z" fill="#FFFFCC"/>
<path d="M58.4242 55.2118H60.6869V62.5661H58.4242V55.2118Z" fill="#DDDD68"/>
<path d="M58.4242 57.4747H74.2626V60.3032H58.4242V57.4747Z" fill="#101010"/>
<path d="M64.7435 75.4805C65.6271 74.5968 67.0597 74.5968 67.9434 75.4805L72.6627 80.2003C73.5463 81.084 73.5463 82.5168 72.6627 83.4005L67.9433 88.1203C67.0597 89.004 65.6271 89.004 64.7435 88.1203L60.0242 83.4005C59.1405 82.5168 59.1406 81.084 60.0242 80.2003L64.7435 75.4805Z" fill="#101010"/>
<path d="M64.7435 75.4805C65.6271 74.5968 67.0597 74.5968 67.9434 75.4805L72.6627 80.2003C73.5463 81.084 73.5463 82.5168 72.6627 83.4005L67.9433 88.1203C67.0597 89.004 65.6271 89.004 64.7435 88.1203L60.0242 83.4005C59.1405 82.5168 59.1406 81.084 60.0242 80.2003L64.7435 75.4805Z" fill="#101010"/>
<path d="M64.7435 75.4805C65.6271 74.5968 67.0597 74.5968 67.9434 75.4805L72.6627 80.2003C73.5463 81.084 73.5463 82.5168 72.6627 83.4005L67.9433 88.1203C67.0597 89.004 65.6271 89.004 64.7435 88.1203L60.0242 83.4005C59.1405 82.5168 59.1406 81.084 60.0242 80.2003L64.7435 75.4805Z" fill="#101010"/>
<path d="M64.7435 75.4805C65.6271 74.5968 67.0597 74.5968 67.9434 75.4805L72.6627 80.2003C73.5463 81.084 73.5463 82.5168 72.6627 83.4005L67.9433 88.1203C67.0597 89.004 65.6271 89.004 64.7435 88.1203L60.0242 83.4005C59.1405 82.5168 59.1406 81.084 60.0242 80.2003L64.7435 75.4805Z" fill="#101010"/>
<path d="M66.3434 76.7089L71.4343 81.8004L66.3434 86.8918L61.2525 81.8004L66.3434 76.7089Z" fill="#EEEE88"/>
<path d="M68.6061 93.6804C68.6061 94.9301 67.593 95.9432 66.3434 95.9432C65.0938 95.9432 64.0808 94.9301 64.0808 93.6804C64.0808 92.4306 65.0938 91.4175 66.3434 91.4175C67.593 91.4175 68.6061 92.4306 68.6061 93.6804Z" fill="#101010"/>
<path d="M68.6061 69.9204C68.6061 71.1701 67.593 72.1832 66.3434 72.1832C65.0938 72.1832 64.0808 71.1701 64.0808 69.9204C64.0808 68.6706 65.0938 67.6575 66.3434 67.6575C67.593 67.6575 68.6061 68.6706 68.6061 69.9204Z" fill="#101010"/>
<path d="M67.4747 93.6804C67.4747 94.3053 66.9682 94.8118 66.3434 94.8118C65.7186 94.8118 65.2121 94.3053 65.2121 93.6804C65.2121 93.0555 65.7186 92.549 66.3434 92.549C66.9682 92.549 67.4747 93.0555 67.4747 93.6804Z" fill="#EEEE88"/>
<path d="M67.4747 69.9204C67.4747 70.5452 66.9682 71.0518 66.3434 71.0518C65.7186 71.0518 65.2121 70.5452 65.2121 69.9204C65.2121 69.2955 65.7186 68.7889 66.3434 68.7889C66.9682 68.7889 67.4747 69.2955 67.4747 69.9204Z" fill="#EEEE88"/>
<path d="M139.879 46.7261H160.242V118.006H139.879V46.7261Z" fill="#101010"/>
<path d="M142.141 48.9889H157.98V115.743H142.141V48.9889Z" fill="#66AA66"/>
<path d="M155.717 48.9889H157.98V115.743H155.717V48.9889Z" fill="#86CA86"/>
<path d="M142.141 48.9889H157.98V51.2518H142.141V48.9889Z" fill="#86CA86"/>
<path d="M142.141 48.9889H144.404V115.743H142.141V48.9889Z" fill="#468A46"/>
<path d="M142.141 113.48H157.98V115.743H142.141V113.48Z" fill="#468A46"/>
<path d="M139.879 99.3375H160.242V111.218H139.879V99.3375Z" fill="#101010"/>
<path d="M142.141 101.6H157.98V108.955H142.141V101.6Z" fill="#EEEE88"/>
<path d="M155.717 101.6H157.98V108.955H155.717V101.6Z" fill="#FFFFCC"/>
<path d="M142.141 101.6H144.404V108.955H142.141V101.6Z" fill="#DDDD68"/>
<path d="M142.141 103.863H157.98V106.692H142.141V103.863Z" fill="#101010"/>
<path d="M139.879 52.9489H160.242V64.8289H139.879V52.9489Z" fill="#101010"/>
<path d="M142.141 55.2118H157.98V62.5661H142.141V55.2118Z" fill="#EEEE88"/>
<path d="M155.717 55.2118H157.98V62.5661H155.717V55.2118Z" fill="#FFFFCC"/>
<path d="M142.141 55.2118H144.404V62.5661H142.141V55.2118Z" fill="#DDDD68"/>
<path d="M142.141 57.4747H157.98V60.3032H142.141V57.4747Z" fill="#101010"/>
<path d="M148.461 75.4805C149.344 74.5968 150.777 74.5968 151.661 75.4805L156.38 80.2003C157.263 81.084 157.263 82.5168 156.38 83.4005L151.661 88.1203C150.777 89.004 149.344 89.004 148.461 88.1203L143.741 83.4005C142.858 82.5168 142.858 81.084 143.741 80.2003L148.461 75.4805Z" fill="#101010"/>
<path d="M148.461 75.4805C149.344 74.5968 150.777 74.5968 151.661 75.4805L156.38 80.2003C157.263 81.084 157.263 82.5168 156.38 83.4005L151.661 88.1203C150.777 89.004 149.344 89.004 148.461 88.1203L143.741 83.4005C142.858 82.5168 142.858 81.084 143.741 80.2003L148.461 75.4805Z" fill="#101010"/>
<path d="M148.461 75.4805C149.344 74.5968 150.777 74.5968 151.661 75.4805L156.38 80.2003C157.263 81.084 157.263 82.5168 156.38 83.4005L151.661 88.1203C150.777 89.004 149.344 89.004 148.461 88.1203L143.741 83.4005C142.858 82.5168 142.858 81.084 143.741 80.2003L148.461 75.4805Z" fill="#101010"/>
<path d="M148.461 75.4805C149.344 74.5968 150.777 74.5968 151.661 75.4805L156.38 80.2003C157.263 81.084 157.263 82.5168 156.38 83.4005L151.661 88.1203C150.777 89.004 149.344 89.004 148.461 88.1203L143.741 83.4005C142.858 82.5168 142.858 81.084 143.741 80.2003L148.461 75.4805Z" fill="#101010"/>
<path d="M150.061 76.7089L155.152 81.8004L150.061 86.8918L144.97 81.8004L150.061 76.7089Z" fill="#EEEE88"/>
<path d="M152.323 93.6804C152.323 94.9301 151.31 95.9432 150.061 95.9432C148.811 95.9432 147.798 94.9301 147.798 93.6804C147.798 92.4306 148.811 91.4175 150.061 91.4175C151.31 91.4175 152.323 92.4306 152.323 93.6804Z" fill="#101010"/>
<path d="M152.323 69.9204C152.323 71.1701 151.31 72.1832 150.061 72.1832C148.811 72.1832 147.798 71.1701 147.798 69.9204C147.798 68.6706 148.811 67.6575 150.061 67.6575C151.31 67.6575 152.323 68.6706 152.323 69.9204Z" fill="#101010"/>
<path d="M151.192 93.6804C151.192 94.3053 150.685 94.8118 150.061 94.8118C149.436 94.8118 148.929 94.3053 148.929 93.6804C148.929 93.0555 149.436 92.549 150.061 92.549C150.685 92.549 151.192 93.0555 151.192 93.6804Z" fill="#EEEE88"/>
<path d="M151.192 69.9204C151.192 70.5452 150.685 71.0518 150.061 71.0518C149.436 71.0518 148.929 70.5452 148.929 69.9204C148.929 69.2955 149.436 68.7889 150.061 68.7889C150.685 68.7889 151.192 69.2955 151.192 69.9204Z" fill="#EEEE88"/>
<path d="M160.242 46.7261H180.606V118.006H160.242V46.7261Z" fill="#101010"/>
<path d="M162.505 48.9889H178.343V115.743H162.505V48.9889Z" fill="#66AA66"/>
<path d="M176.081 48.9889H178.343V115.743H176.081V48.9889Z" fill="#86CA86"/>
<path d="M162.505 48.9889H178.343V51.2518H162.505V48.9889Z" fill="#86CA86"/>
<path d="M162.505 48.9889H164.768V115.743H162.505V48.9889Z" fill="#468A46"/>
<path d="M162.505 113.48H178.343V115.743H162.505V113.48Z" fill="#468A46"/>
<path d="M160.242 99.3375H180.606V111.218H160.242V99.3375Z" fill="#101010"/>
<path d="M162.505 101.6H178.343V108.955H162.505V101.6Z" fill="#EEEE88"/>
<path d="M176.081 101.6H178.343V108.955H176.081V101.6Z" fill="#FFFFCC"/>
<path d="M162.505 101.6H164.768V108.955H162.505V101.6Z" fill="#DDDD68"/>
<path d="M162.505 103.863H178.343V106.692H162.505V103.863Z" fill="#101010"/>
<path d="M160.242 52.9489H180.606V64.8289H160.242V52.9489Z" fill="#101010"/>
<path d="M162.505 55.2118H178.343V62.5661H162.505V55.2118Z" fill="#EEEE88"/>
<path d="M176.081 55.2118H178.343V62.5661H176.081V55.2118Z" fill="#FFFFCC"/>
<path d="M162.505 55.2118H164.768V62.5661H162.505V55.2118Z" fill="#DDDD68"/>
<path d="M162.505 57.4747H178.343V60.3032H162.505V57.4747Z" fill="#101010"/>
<path d="M168.824 75.4805C169.708 74.5968 171.141 74.5968 172.024 75.4805L176.744 80.2003C177.627 81.084 177.627 82.5168 176.744 83.4005L172.024 88.1203C171.141 89.004 169.708 89.004 168.824 88.1203L164.105 83.4005C163.221 82.5168 163.221 81.084 164.105 80.2003L168.824 75.4805Z" fill="#101010"/>
<path d="M168.824 75.4805C169.708 74.5968 171.141 74.5968 172.024 75.4805L176.744 80.2003C177.627 81.084 177.627 82.5168 176.744 83.4005L172.024 88.1203C171.141 89.004 169.708 89.004 168.824 88.1203L164.105 83.4005C163.221 82.5168 163.221 81.084 164.105 80.2003L168.824 75.4805Z" fill="#101010"/>
<path d="M168.824 75.4805C169.708 74.5968 171.141 74.5968 172.024 75.4805L176.744 80.2003C177.627 81.084 177.627 82.5168 176.744 83.4005L172.024 88.1203C171.141 89.004 169.708 89.004 168.824 88.1203L164.105 83.4005C163.221 82.5168 163.221 81.084 164.105 80.2003L168.824 75.4805Z" fill="#101010"/>
<path d="M168.824 75.4805C169.708 74.5968 171.141 74.5968 172.024 75.4805L176.744 80.2003C177.627 81.084 177.627 82.5168 176.744 83.4005L172.024 88.1203C171.141 89.004 169.708 89.004 168.824 88.1203L164.105 83.4005C163.221 82.5168 163.221 81.084 164.105 80.2003L168.824 75.4805Z" fill="#101010"/>
<path d="M170.424 76.7089L175.515 81.8004L170.424 86.8918L165.333 81.8004L170.424 76.7089Z" fill="#EEEE88"/>
<path d="M172.687 93.6804C172.687 94.9301 171.674 95.9432 170.424 95.9432C169.175 95.9432 168.162 94.9301 168.162 93.6804C168.162 92.4306 169.175 91.4175 170.424 91.4175C171.674 91.4175 172.687 92.4306 172.687 93.6804Z" fill="#101010"/>
<path d="M172.687 69.9204C172.687 71.1701 171.674 72.1832 170.424 72.1832C169.175 72.1832 168.162 71.1701 168.162 69.9204C168.162 68.6706 169.175 67.6575 170.424 67.6575C171.674 67.6575 172.687 68.6706 172.687 69.9204Z" fill="#101010"/>
<path d="M171.556 93.6804C171.556 94.3053 171.049 94.8118 170.424 94.8118C169.799 94.8118 169.293 94.3053 169.293 93.6804C169.293 93.0555 169.799 92.549 170.424 92.549C171.049 92.549 171.556 93.0555 171.556 93.6804Z" fill="#EEEE88"/>
<path d="M171.556 69.9204C171.556 70.5452 171.049 71.0518 170.424 71.0518C169.799 71.0518 169.293 70.5452 169.293 69.9204C169.293 69.2955 169.799 68.7889 170.424 68.7889C171.049 68.7889 171.556 69.2955 171.556 69.9204Z" fill="#EEEE88"/>
<path d="M180.606 46.7261H200.97V118.006H180.606V46.7261Z" fill="#101010"/>
<path d="M182.869 48.9889H198.707V115.743H182.869V48.9889Z" fill="#66AA66"/>
<path d="M196.444 48.9889H198.707V115.743H196.444V48.9889Z" fill="#86CA86"/>
<path d="M182.869 48.9889H198.707V51.2518H182.869V48.9889Z" fill="#86CA86"/>
<path d="M182.869 48.9889H185.131V115.743H182.869V48.9889Z" fill="#468A46"/>
<path d="M182.869 113.48H198.707V115.743H182.869V113.48Z" fill="#468A46"/>
<path d="M180.606 99.3375H200.97V111.218H180.606V99.3375Z" fill="#101010"/>
<path d="M182.869 101.6H198.707V108.955H182.869V101.6Z" fill="#EEEE88"/>
<path d="M196.444 101.6H198.707V108.955H196.444V101.6Z" fill="#FFFFCC"/>
<path d="M182.869 101.6H185.131V108.955H182.869V101.6Z" fill="#DDDD68"/>
<path d="M182.869 103.863H198.707V106.692H182.869V103.863Z" fill="#101010"/>
<path d="M180.606 52.9489H200.97V64.8289H180.606V52.9489Z" fill="#101010"/>
<path d="M182.869 55.2118H198.707V62.5661H182.869V55.2118Z" fill="#EEEE88"/>
<path d="M196.444 55.2118H198.707V62.5661H196.444V55.2118Z" fill="#FFFFCC"/>
<path d="M182.869 55.2118H185.131V62.5661H182.869V55.2118Z" fill="#DDDD68"/>
<path d="M182.869 57.4747H198.707V60.3032H182.869V57.4747Z" fill="#101010"/>
<path d="M189.188 75.4805C190.072 74.5968 191.504 74.5968 192.388 75.4805L197.107 80.2003C197.991 81.084 197.991 82.5168 197.107 83.4005L192.388 88.1203C191.504 89.004 190.072 89.004 189.188 88.1203L184.469 83.4005C183.585 82.5168 183.585 81.084 184.469 80.2003L189.188 75.4805Z" fill="#101010"/>
<path d="M189.188 75.4805C190.072 74.5968 191.504 74.5968 192.388 75.4805L197.107 80.2003C197.991 81.084 197.991 82.5168 197.107 83.4005L192.388 88.1203C191.504 89.004 190.072 89.004 189.188 88.1203L184.469 83.4005C183.585 82.5168 183.585 81.084 184.469 80.2003L189.188 75.4805Z" fill="#101010"/>
<path d="M189.188 75.4805C190.072 74.5968 191.504 74.5968 192.388 75.4805L197.107 80.2003C197.991 81.084 197.991 82.5168 197.107 83.4005L192.388 88.1203C191.504 89.004 190.072 89.004 189.188 88.1203L184.469 83.4005C183.585 82.5168 183.585 81.084 184.469 80.2003L189.188 75.4805Z" fill="#101010"/>
<path d="M189.188 75.4805C190.072 74.5968 191.504 74.5968 192.388 75.4805L197.107 80.2003C197.991 81.084 197.991 82.5168 197.107 83.4005L192.388 88.1203C191.504 89.004 190.072 89.004 189.188 88.1203L184.469 83.4005C183.585 82.5168 183.585 81.084 184.469 80.2003L189.188 75.4805Z" fill="#101010"/>
<path d="M190.788 76.7089L195.879 81.8004L190.788 86.8918L185.697 81.8004L190.788 76.7089Z" fill="#EEEE88"/>
<path d="M193.05 93.6804C193.05 94.9301 192.037 95.9432 190.788 95.9432C189.538 95.9432 188.525 94.9301 188.525 93.6804C188.525 92.4306 189.538 91.4175 190.788 91.4175C192.037 91.4175 193.05 92.4306 193.05 93.6804Z" fill="#101010"/>
<path d="M193.05 69.9204C193.05 71.1701 192.037 72.1832 190.788 72.1832C189.538 72.1832 188.525 71.1701 188.525 69.9204C188.525 68.6706 189.538 67.6575 190.788 67.6575C192.037 67.6575 193.05 68.6706 193.05 69.9204Z" fill="#101010"/>
<path d="M191.919 93.6804C191.919 94.3053 191.413 94.8118 190.788 94.8118C190.163 94.8118 189.657 94.3053 189.657 93.6804C189.657 93.0555 190.163 92.549 190.788 92.549C191.413 92.549 191.919 93.0555 191.919 93.6804Z" fill="#EEEE88"/>
<path d="M191.919 69.9204C191.919 70.5452 191.413 71.0518 190.788 71.0518C190.163 71.0518 189.657 70.5452 189.657 69.9204C189.657 69.2955 190.163 68.7889 190.788 68.7889C191.413 68.7889 191.919 69.2955 191.919 69.9204Z" fill="#EEEE88"/>
<path d="M42.6478 191.875C43.761 191.875 44.7339 191.997 45.5666 192.241C46.3992 192.486 47.0689 192.744 47.5758 193.015C48.0826 193.287 48.3903 193.468 48.4989 193.558L46.544 196.83C46.3992 196.722 46.1503 196.563 45.7973 196.355C45.4534 196.147 45.0416 195.962 44.5619 195.799C44.0913 195.636 43.5981 195.554 43.0822 195.554C42.3853 195.554 41.8196 195.681 41.3852 195.934C40.9598 196.179 40.7472 196.545 40.7472 197.034C40.7472 197.369 40.8603 197.672 41.0866 197.944C41.3219 198.206 41.6748 198.46 42.1455 198.704C42.6251 198.939 43.2315 199.197 43.9646 199.478C44.6343 199.722 45.2634 200.012 45.8516 200.347C46.4399 200.682 46.9558 201.08 47.3993 201.542C47.8518 201.994 48.2093 202.519 48.4718 203.117C48.7342 203.714 48.8655 204.393 48.8655 205.153C48.8655 206.058 48.6799 206.846 48.3089 207.516C47.9378 208.176 47.431 208.724 46.7884 209.159C46.1548 209.593 45.4308 209.914 44.6162 210.122C43.8108 210.34 42.9736 210.448 42.1047 210.448C40.8739 210.448 39.7697 210.308 38.7922 210.027C37.8238 209.747 37.041 209.444 36.4436 209.118C35.8463 208.792 35.4888 208.575 35.3712 208.466L37.3939 205.058C37.5026 205.14 37.7107 205.271 38.0184 205.452C38.3352 205.633 38.7198 205.823 39.1724 206.022C39.6249 206.212 40.1046 206.375 40.6114 206.511C41.1273 206.647 41.6341 206.715 42.1319 206.715C42.9645 206.715 43.589 206.556 44.0053 206.239C44.4217 205.914 44.6298 205.488 44.6298 204.963C44.6298 204.574 44.4986 204.225 44.2361 203.918C43.9737 203.61 43.58 203.32 43.055 203.049C42.5301 202.768 41.8739 202.474 41.0866 202.166C40.2992 201.849 39.5615 201.465 38.8737 201.012C38.1949 200.56 37.6428 199.994 37.2175 199.315C36.7921 198.636 36.5794 197.794 36.5794 196.79C36.5794 195.785 36.86 194.916 37.4211 194.183C37.9913 193.441 38.7379 192.87 39.6611 192.472C40.5933 192.074 41.5889 191.875 42.6478 191.875Z" fill="#101010"/>
<path d="M62.9047 202.913H56.7142V210.122H52.6686V192.201H56.7142V199.369H62.9047V192.201H66.9367V210.122H62.9047V202.913Z" fill="#101010"/>
<path d="M71.5164 192.201H75.5755V210.122H71.5164V192.201Z" fill="#101010"/>
<path d="M85.8798 192.201H89.9118L96.9847 210.122H92.6541L91.3508 206.525H84.4543L83.1375 210.122H78.7932L85.8798 192.201ZM85.8119 202.967H90.0068L87.9297 197.088H87.889L85.8119 202.967Z" fill="#101010"/>
<path d="M114.849 191.875C115.962 191.875 116.935 191.997 117.767 192.241C118.6 192.486 119.27 192.744 119.777 193.015C120.283 193.287 120.591 193.468 120.7 193.558L118.745 196.83C118.6 196.722 118.351 196.563 117.998 196.355C117.654 196.147 117.242 195.962 116.763 195.799C116.292 195.636 115.799 195.554 115.283 195.554C114.586 195.554 114.02 195.681 113.586 195.934C113.161 196.179 112.948 196.545 112.948 197.034C112.948 197.369 113.061 197.672 113.287 197.944C113.523 198.206 113.876 198.46 114.346 198.704C114.826 198.939 115.432 199.197 116.165 199.478C116.835 199.722 117.464 200.012 118.052 200.347C118.641 200.682 119.157 201.08 119.6 201.542C120.053 201.994 120.41 202.519 120.673 203.117C120.935 203.714 121.066 204.393 121.066 205.153C121.066 206.058 120.881 206.846 120.51 207.516C120.139 208.176 119.632 208.724 118.989 209.159C118.356 209.593 117.632 209.914 116.817 210.122C116.012 210.34 115.174 210.448 114.305 210.448C113.075 210.448 111.97 210.308 110.993 210.027C110.025 209.747 109.242 209.444 108.644 209.118C108.047 208.792 107.69 208.575 107.572 208.466L109.595 205.058C109.703 205.14 109.911 205.271 110.219 205.452C110.536 205.633 110.921 205.823 111.373 206.022C111.826 206.212 112.305 206.375 112.812 206.511C113.328 206.647 113.835 206.715 114.333 206.715C115.165 206.715 115.79 206.556 116.206 206.239C116.622 205.914 116.831 205.488 116.831 204.963C116.831 204.574 116.699 204.225 116.437 203.918C116.174 203.61 115.781 203.32 115.256 203.049C114.731 202.768 114.075 202.474 113.287 202.166C112.5 201.849 111.762 201.465 111.074 201.012C110.396 200.56 109.844 199.994 109.418 199.315C108.993 198.636 108.78 197.794 108.78 196.79C108.78 195.785 109.061 194.916 109.622 194.183C110.192 193.441 110.939 192.87 111.862 192.472C112.794 192.074 113.79 191.875 114.849 191.875Z" fill="#101010"/>
<path d="M135.105 202.913H128.915V210.122H124.869V192.201H128.915V199.369H135.105V192.201H139.137V210.122H135.105V202.913Z" fill="#101010"/>
<path d="M143.568 192.201H155.012V195.758H147.613V199.41H154.944V202.859H147.613V206.565H155.012V210.122H143.568V192.201Z" fill="#101010"/>
<path d="M159.538 192.201H163.597V206.565H170.1V210.122H159.538V192.201Z" fill="#101010"/>
<path d="M182.47 210.122H177.882L171.501 192.201H176.076L180.176 204.95L184.276 192.201H188.851L182.47 210.122Z" fill="#101010"/>
<path d="M192.213 192.201H203.657V195.758H196.258V199.41H203.589V202.859H196.258V206.565H203.657V210.122H192.213V192.201Z" fill="#101010"/>
<path d="M214.604 191.875C215.717 191.875 216.69 191.997 217.523 192.241C218.355 192.486 219.025 192.744 219.532 193.015C220.039 193.287 220.346 193.468 220.455 193.558L218.5 196.83C218.355 196.722 218.106 196.563 217.753 196.355C217.409 196.147 216.998 195.962 216.518 195.799C216.047 195.636 215.554 195.554 215.038 195.554C214.341 195.554 213.776 195.681 213.341 195.934C212.916 196.179 212.703 196.545 212.703 197.034C212.703 197.369 212.816 197.672 213.043 197.944C213.278 198.206 213.631 198.46 214.102 198.704C214.581 198.939 215.188 199.197 215.921 199.478C216.59 199.722 217.219 200.012 217.808 200.347C218.396 200.682 218.912 201.08 219.355 201.542C219.808 201.994 220.165 202.519 220.428 203.117C220.69 203.714 220.822 204.393 220.822 205.153C220.822 206.058 220.636 206.846 220.265 207.516C219.894 208.176 219.387 208.724 218.744 209.159C218.111 209.593 217.387 209.914 216.572 210.122C215.767 210.34 214.93 210.448 214.061 210.448C212.83 210.448 211.726 210.308 210.748 210.027C209.78 209.747 208.997 209.444 208.4 209.118C207.802 208.792 207.445 208.575 207.327 208.466L209.35 205.058C209.459 205.14 209.667 205.271 209.975 205.452C210.291 205.633 210.676 205.823 211.128 206.022C211.581 206.212 212.061 206.375 212.567 206.511C213.083 206.647 213.59 206.715 214.088 206.715C214.921 206.715 215.545 206.556 215.961 206.239C216.378 205.914 216.586 205.488 216.586 204.963C216.586 204.574 216.455 204.225 216.192 203.918C215.93 203.61 215.536 203.32 215.011 203.049C214.486 202.768 213.83 202.474 213.043 202.166C212.255 201.849 211.518 201.465 210.83 201.012C210.151 200.56 209.599 199.994 209.174 199.315C208.748 198.636 208.535 197.794 208.535 196.79C208.535 195.785 208.816 194.916 209.377 194.183C209.947 193.441 210.694 192.87 211.617 192.472C212.549 192.074 213.545 191.875 214.604 191.875Z" fill="#101010"/>
<path d="M74.4914 182.792C73.7795 182.792 73.1037 182.701 72.4641 182.52C71.8245 182.339 71.2634 182.074 70.7807 181.724C70.298 181.362 69.9179 180.915 69.6404 180.384C69.3628 179.841 69.224 179.213 69.224 178.501C69.224 177.693 69.405 176.981 69.7671 176.365C70.1412 175.738 70.654 175.213 71.3057 174.79C71.9573 174.368 72.7175 174.042 73.5864 173.813C74.4673 173.571 75.4146 173.433 76.4282 173.396L76.5368 176.184C75.8852 176.208 75.2818 176.281 74.7267 176.401C74.1837 176.51 73.7071 176.667 73.2968 176.872C72.8865 177.065 72.5667 177.301 72.3374 177.578C72.1202 177.856 72.0116 178.169 72.0116 178.519C72.0116 178.833 72.1081 179.105 72.3012 179.334C72.4943 179.551 72.7779 179.714 73.152 179.823C73.526 179.931 73.9665 179.986 74.4733 179.986C74.9078 179.986 75.312 179.944 75.6861 179.859C76.0723 179.775 76.4343 179.654 76.7722 179.497L77.9849 182.013C77.454 182.267 76.8868 182.46 76.2834 182.593C75.6801 182.725 75.0827 182.792 74.4914 182.792ZM80.7182 183.534C79.7528 183.534 78.9322 183.353 78.2564 182.991C77.5927 182.617 77.0859 182.08 76.736 181.38C76.386 180.668 76.211 179.811 76.211 178.809V172.835H78.9986V178.809C78.9986 179.195 79.0408 179.503 79.1253 179.732C79.2218 179.95 79.3908 180.1 79.6321 180.185C79.8855 180.269 80.2476 180.312 80.7182 180.312H81.3879V183.534H80.7182ZM81.3879 183.534V180.312C81.4965 180.312 81.581 180.456 81.6413 180.746C81.7137 181.036 81.7499 181.422 81.7499 181.905C81.7499 182.4 81.7137 182.798 81.6413 183.099C81.581 183.389 81.4965 183.534 81.3879 183.534ZM75.5594 171.17C75.1853 171.17 74.8716 171.049 74.6181 170.808C74.3768 170.554 74.2561 170.24 74.2561 169.866C74.2561 169.48 74.3768 169.166 74.6181 168.925C74.8716 168.684 75.1853 168.563 75.5594 168.563C75.9335 168.563 76.2412 168.684 76.4825 168.925C76.736 169.166 76.8627 169.48 76.8627 169.866C76.8627 170.24 76.736 170.554 76.4825 170.808C76.2412 171.049 75.9335 171.17 75.5594 171.17ZM72.5727 171.17C72.1986 171.17 71.8849 171.049 71.6315 170.808C71.3901 170.554 71.2695 170.24 71.2695 169.866C71.2695 169.48 71.3901 169.166 71.6315 168.925C71.8849 168.684 72.1986 168.563 72.5727 168.563C72.9589 168.563 73.2726 168.684 73.514 168.925C73.7553 169.166 73.876 169.48 73.876 169.866C73.876 170.24 73.7553 170.554 73.514 170.808C73.2726 171.049 72.9589 171.17 72.5727 171.17Z" fill="#101010"/>
<path d="M81.3864 183.534V180.312H85.5677C85.9538 180.312 86.3641 180.257 86.7986 180.149C87.2451 180.04 87.6855 179.895 88.1199 179.714C88.5544 179.533 88.9465 179.334 89.2965 179.117C89.6585 178.9 89.9421 178.688 90.1473 178.483C90.3645 178.266 90.4731 178.079 90.4731 177.922C90.4731 177.741 90.3524 177.572 90.111 177.415C89.8697 177.258 89.5258 177.126 89.0793 177.017C88.6449 176.908 88.1441 176.854 87.5769 176.854C87.0942 176.854 86.6357 176.896 86.2012 176.981C85.7789 177.065 85.3444 177.192 84.898 177.361L84.3187 178.013L82.7077 177.198L84.3911 174.446C84.8738 174.289 85.3927 174.157 85.9478 174.048C86.515 173.939 87.1364 173.885 87.8122 173.885C88.8983 173.885 89.8456 174.03 90.6541 174.32C91.4747 174.597 92.1142 174.989 92.5728 175.496C93.0313 175.991 93.2606 176.582 93.2606 177.27C93.2606 177.838 93.1037 178.387 92.79 178.918C92.4883 179.449 92.078 179.944 91.5591 180.402C91.0523 180.861 90.4731 181.283 89.8214 181.669C89.1698 182.056 88.5001 182.387 87.8122 182.665C87.1244 182.943 86.4486 183.16 85.7849 183.317C85.1333 183.462 84.542 183.534 84.011 183.534H81.3864ZM91.3781 183.534C89.918 183.534 88.5966 183.274 87.414 182.756C86.2435 182.225 85.2539 181.482 84.4454 180.529C83.6369 179.575 83.0577 178.465 82.7077 177.198L84.8074 176.13C84.9523 176.975 85.2419 177.711 85.6763 178.338C86.1228 178.966 86.69 179.455 87.3778 179.805C88.0656 180.143 88.8259 180.312 89.6585 180.312H94.9259V183.534H91.3781ZM94.9259 183.534V180.312C95.0345 180.312 95.119 180.456 95.1793 180.746C95.2517 181.036 95.2879 181.422 95.2879 181.905C95.2879 182.4 95.2517 182.798 95.1793 183.099C95.119 183.389 95.0345 183.534 94.9259 183.534ZM81.3864 183.534C81.2778 183.534 81.1933 183.389 81.1329 183.099C81.0605 182.798 81.0243 182.4 81.0243 181.905C81.0243 181.422 81.0605 181.036 81.1329 180.746C81.1933 180.456 81.2778 180.312 81.3864 180.312V183.534Z" fill="#101010"/>
<path d="M94.9268 183.534V180.312H95.9223C96.405 180.312 96.767 180.269 97.0084 180.185C97.2497 180.1 97.4187 179.95 97.5152 179.732C97.6117 179.503 97.66 179.195 97.66 178.809V174.247H100.429V178.809C100.429 179.811 100.254 180.662 99.9045 181.362C99.5546 182.062 99.0417 182.599 98.366 182.973C97.7023 183.335 96.8877 183.522 95.9223 183.534H94.9268ZM102.167 183.534C101.19 183.534 100.369 183.353 99.7054 182.991C99.0417 182.617 98.5349 182.08 98.1849 181.38C97.835 180.668 97.66 179.811 97.66 178.809H100.429C100.429 179.195 100.472 179.503 100.556 179.732C100.653 179.95 100.828 180.1 101.081 180.185C101.335 180.269 101.697 180.312 102.167 180.312H102.819V183.534H102.167ZM102.819 183.534V180.312C102.927 180.312 103.012 180.456 103.072 180.746C103.145 181.036 103.181 181.422 103.181 181.905C103.181 182.4 103.145 182.798 103.072 183.099C103.012 183.389 102.927 183.534 102.819 183.534ZM94.9268 183.534C94.8182 183.534 94.7337 183.389 94.6734 183.099C94.6009 182.798 94.5647 182.4 94.5647 181.905C94.5647 181.422 94.6009 181.036 94.6734 180.746C94.7337 180.456 94.8182 180.312 94.9268 180.312V183.534ZM100.375 187.915C100.001 187.915 99.6873 187.788 99.4339 187.535C99.1926 187.293 99.0719 186.992 99.0719 186.63C99.0719 186.243 99.1926 185.924 99.4339 185.67C99.6873 185.429 100.001 185.308 100.375 185.308C100.749 185.308 101.057 185.429 101.298 185.67C101.552 185.924 101.678 186.243 101.678 186.63C101.678 186.992 101.552 187.293 101.298 187.535C101.057 187.788 100.749 187.915 100.375 187.915ZM97.3885 187.915C97.0144 187.915 96.7007 187.788 96.4473 187.535C96.2059 187.293 96.0852 186.992 96.0852 186.63C96.0852 186.243 96.2059 185.924 96.4473 185.67C96.7007 185.429 97.0144 185.308 97.3885 185.308C97.7626 185.308 98.0703 185.429 98.3116 185.67C98.5651 185.924 98.6918 186.243 98.6918 186.63C98.6918 186.992 98.5651 187.293 98.3116 187.535C98.0703 187.788 97.7626 187.915 97.3885 187.915Z" fill="#101010"/>
<path d="M121.418 183.534C120.453 183.534 119.632 183.353 118.957 182.991C118.293 182.617 117.786 182.08 117.436 181.38C117.086 180.668 116.911 179.811 116.911 178.809H119.699C119.699 179.195 119.741 179.503 119.826 179.732C119.922 179.95 120.091 180.1 120.332 180.185C120.586 180.269 120.948 180.312 121.418 180.312H122.088V183.534H121.418ZM102.811 183.534C102.702 183.534 102.618 183.389 102.557 183.099C102.485 182.798 102.449 182.4 102.449 181.905C102.449 181.422 102.485 181.036 102.557 180.746C102.618 180.456 102.702 180.312 102.811 180.312V183.534ZM115.952 183.534C115.385 183.534 114.836 183.407 114.305 183.154C113.774 182.9 113.321 182.502 112.947 181.959C112.585 181.416 112.368 180.728 112.296 179.895L113.888 179.063C113.937 179.509 114.112 179.847 114.413 180.076C114.727 180.306 115.059 180.42 115.409 180.42C115.795 180.42 116.139 180.288 116.441 180.022C116.754 179.756 116.911 179.352 116.911 178.809V174.247H119.699V179.262C119.699 180.239 119.512 181.048 119.138 181.687C118.776 182.315 118.311 182.78 117.744 183.081C117.177 183.383 116.579 183.534 115.952 183.534ZM102.811 183.534V180.312H103.806C104.277 180.312 104.633 180.269 104.874 180.185C105.128 180.1 105.296 179.95 105.381 179.732C105.477 179.503 105.526 179.195 105.526 178.809V176.021H108.313V178.809C108.313 179.811 108.138 180.668 107.788 181.38C107.438 182.08 106.926 182.617 106.25 182.991C105.586 183.353 104.772 183.534 103.806 183.534H102.811ZM110.286 183.534C109.707 183.534 109.152 183.407 108.621 183.154C108.102 182.9 107.656 182.502 107.282 181.959C106.92 181.416 106.696 180.728 106.612 179.895L108.223 179.063C108.271 179.509 108.446 179.847 108.748 180.076C109.049 180.306 109.375 180.42 109.725 180.42C110.111 180.42 110.455 180.288 110.757 180.022C111.071 179.756 111.228 179.352 111.228 178.809V175.134H114.015V179.262C114.015 180.239 113.834 181.048 113.472 181.687C113.11 182.315 112.645 182.78 112.078 183.081C111.511 183.383 110.914 183.534 110.286 183.534ZM122.088 183.534V180.312C122.197 180.312 122.281 180.456 122.342 180.746C122.414 181.036 122.45 181.422 122.45 181.905C122.45 182.4 122.414 182.798 122.342 183.099C122.281 183.389 122.197 183.534 122.088 183.534ZM112.603 167.223C112.977 167.223 113.279 167.344 113.508 167.585C113.75 167.827 113.87 168.128 113.87 168.49C113.87 168.865 113.75 169.172 113.508 169.414C113.279 169.643 112.977 169.758 112.603 169.758C112.241 169.758 111.94 169.643 111.698 169.414C111.457 169.172 111.336 168.865 111.336 168.49C111.336 168.128 111.457 167.827 111.698 167.585C111.94 167.344 112.241 167.223 112.603 167.223ZM114.106 169.848C114.48 169.848 114.787 169.969 115.029 170.21C115.282 170.452 115.409 170.759 115.409 171.133C115.409 171.52 115.282 171.84 115.029 172.093C114.787 172.334 114.48 172.455 114.106 172.455C113.732 172.455 113.418 172.334 113.164 172.093C112.923 171.84 112.802 171.52 112.802 171.133C112.802 170.759 112.923 170.452 113.164 170.21C113.418 169.969 113.732 169.848 114.106 169.848ZM111.119 169.848C111.493 169.848 111.801 169.969 112.042 170.21C112.296 170.452 112.422 170.759 112.422 171.133C112.422 171.52 112.296 171.84 112.042 172.093C111.801 172.334 111.493 172.455 111.119 172.455C110.745 172.455 110.431 172.334 110.178 172.093C109.936 171.84 109.816 171.52 109.816 171.133C109.816 170.759 109.936 170.452 110.178 170.21C110.431 169.969 110.745 169.848 111.119 169.848Z" fill="#101010"/>
<path d="M122.096 183.534V180.312H124.666V167.857H127.454V183.534H122.096ZM122.096 183.534C121.987 183.534 121.903 183.389 121.843 183.099C121.77 182.798 121.734 182.4 121.734 181.905C121.734 181.422 121.77 181.036 121.843 180.746C121.903 180.456 121.987 180.312 122.096 180.312V183.534Z" fill="#101010"/>
<path d="M129.764 183.534V167.857H132.551V183.534H129.764Z" fill="#101010"/>
<path d="M150.947 180.312V183.534H145.426C144.425 183.534 143.55 183.389 142.802 183.099C142.066 182.81 141.456 182.424 140.973 181.941C140.503 181.446 140.147 180.885 139.906 180.257C139.676 179.63 139.562 178.978 139.562 178.302C139.562 177.663 139.658 177.023 139.851 176.383C140.044 175.744 140.328 175.134 140.702 174.555L142.874 175.532C142.669 175.955 142.512 176.359 142.403 176.745C142.307 177.132 142.259 177.5 142.259 177.85C142.259 178.357 142.367 178.797 142.584 179.171C142.814 179.533 143.158 179.817 143.616 180.022C144.075 180.215 144.654 180.312 145.354 180.312H150.947ZM146.277 183.534C146.156 183.534 146.066 183.389 146.006 183.099C145.945 182.798 145.915 182.4 145.915 181.905C145.915 181.422 145.945 181.036 146.006 180.746C146.066 180.456 146.156 180.312 146.277 180.312V183.534ZM146.277 183.534V180.312H154.477V174.772H157.246V183.534H146.277ZM151.092 183.389C150.561 183.184 150.078 182.864 149.644 182.43C149.221 181.995 148.884 181.47 148.63 180.855C148.377 180.227 148.25 179.557 148.25 178.845C148.25 177.832 148.479 176.951 148.938 176.202C149.409 175.442 150.036 174.851 150.82 174.428C151.605 173.994 152.468 173.777 153.409 173.777C154.121 173.777 154.809 173.885 155.472 174.102C156.136 174.308 156.727 174.531 157.246 174.772L156.106 177.578C155.575 177.337 155.068 177.156 154.585 177.035C154.115 176.914 153.668 176.854 153.246 176.854C152.739 176.854 152.299 176.945 151.925 177.126C151.55 177.294 151.261 177.53 151.056 177.832C150.851 178.133 150.748 178.471 150.748 178.845C150.748 179.316 150.863 179.763 151.092 180.185C151.333 180.595 151.647 180.903 152.033 181.108L151.092 183.389ZM152.866 171.677C152.407 171.677 152.027 171.526 151.725 171.224C151.424 170.922 151.273 170.542 151.273 170.084C151.273 169.613 151.424 169.233 151.725 168.943C152.027 168.641 152.407 168.49 152.866 168.49C153.336 168.49 153.717 168.641 154.006 168.943C154.308 169.233 154.459 169.613 154.459 170.084C154.459 170.542 154.308 170.922 154.006 171.224C153.717 171.526 153.336 171.677 152.866 171.677Z" fill="#101010"/>
<path d="M167.35 183.534V180.312H170.083V183.534H167.35ZM170.083 183.534V180.312C170.192 180.312 170.276 180.456 170.336 180.746C170.409 181.036 170.445 181.422 170.445 181.905C170.445 182.4 170.409 182.798 170.336 183.099C170.276 183.389 170.192 183.534 170.083 183.534ZM159.747 188.675V185.453H162.969C163.802 185.453 164.381 185.32 164.707 185.055C165.033 184.801 165.196 184.421 165.196 183.914V174.772H167.965V183.914C167.965 184.892 167.76 185.736 167.35 186.449C166.939 187.173 166.36 187.722 165.612 188.096C164.864 188.482 163.983 188.675 162.969 188.675H159.747ZM164.11 183.534C163.072 183.534 162.167 183.317 161.395 182.882C160.622 182.448 160.025 181.868 159.603 181.144C159.18 180.408 158.969 179.6 158.969 178.719C158.969 178.007 159.102 177.355 159.367 176.763C159.633 176.16 160.001 175.641 160.471 175.207C160.954 174.76 161.509 174.41 162.137 174.157C162.764 173.903 163.434 173.777 164.146 173.777C164.846 173.777 165.528 173.885 166.191 174.102C166.855 174.308 167.446 174.531 167.965 174.772L166.825 177.632C165.811 177.053 164.918 176.763 164.146 176.763C163.663 176.763 163.241 176.86 162.879 177.053C162.529 177.234 162.251 177.476 162.046 177.777C161.853 178.079 161.757 178.399 161.757 178.737C161.757 179.05 161.847 179.346 162.028 179.624C162.209 179.901 162.475 180.125 162.825 180.294C163.187 180.463 163.615 180.547 164.11 180.547H166.988V183.534H164.11Z" fill="#101010"/>
<path d="M170.088 183.534V180.312H178.288V174.772H181.076V183.534H170.088ZM174.921 183.389C174.378 183.184 173.89 182.864 173.455 182.43C173.033 181.995 172.695 181.47 172.442 180.855C172.2 180.227 172.079 179.557 172.079 178.845C172.079 177.832 172.309 176.951 172.767 176.202C173.238 175.442 173.865 174.851 174.65 174.428C175.434 173.994 176.297 173.777 177.238 173.777C177.95 173.777 178.638 173.885 179.302 174.102C179.965 174.308 180.557 174.531 181.076 174.772L179.935 177.578C179.392 177.337 178.879 177.156 178.397 177.035C177.926 176.914 177.486 176.854 177.075 176.854C176.556 176.854 176.11 176.945 175.736 177.126C175.362 177.294 175.072 177.53 174.867 177.832C174.674 178.133 174.577 178.471 174.577 178.845C174.577 179.316 174.692 179.763 174.921 180.185C175.151 180.595 175.464 180.903 175.863 181.108L174.921 183.389ZM170.088 183.534C169.98 183.534 169.895 183.389 169.835 183.099C169.763 182.798 169.726 182.4 169.726 181.905C169.726 181.422 169.763 181.036 169.835 180.746C169.895 180.456 169.98 180.312 170.088 180.312V183.534ZM177.238 171.677C176.78 171.677 176.4 171.526 176.098 171.224C175.796 170.922 175.645 170.542 175.645 170.084C175.645 169.613 175.796 169.233 176.098 168.943C176.4 168.641 176.78 168.49 177.238 168.49C177.709 168.49 178.089 168.641 178.379 168.943C178.68 169.233 178.831 169.613 178.831 170.084C178.831 170.542 178.68 170.922 178.379 171.224C178.089 171.526 177.709 171.677 177.238 171.677Z" fill="#101010"/>
<path d="M181.914 185.58C182.53 185.568 183.006 185.501 183.344 185.38C183.694 185.26 183.941 185.073 184.086 184.819C184.231 184.578 184.303 184.27 184.303 183.896V174.247H187.091V183.896C187.091 184.837 186.898 185.658 186.512 186.358C186.138 187.058 185.601 187.601 184.901 187.987C184.213 188.386 183.392 188.609 182.439 188.657L181.914 185.58Z" fill="#101010"/>
<path fill-rule="evenodd" clip-rule="evenodd" d="M34.101 214.365L223.03 214.365V216.063L34.101 216.062V214.365Z" fill="#101010"/>
</svg>
