<svg width="4096" height="4096" viewBox="0 0 4096 4096" fill="none" xmlns="http://www.w3.org/2000/svg">
<path d="M2995.22 2568.22C2967.24 2615.9 2898.32 2615.9 2870.34 2568.22L2708.31 2292.13C2699.53 2277.17 2685.67 2265.86 2669.26 2260.26L2522.54 2210.17C2440.33 2182.1 2468.21 2059.49 2554.47 2069.73L2924.24 2113.66C2929.91 2114.33 2935.65 2114.33 2941.32 2113.66L3311.09 2069.73C3397.35 2059.49 3425.23 2182.1 3343.02 2210.17L3196.3 2260.26C3179.89 2265.86 3166.03 2277.17 3157.25 2292.13L2995.22 2568.22Z" fill="#7A4D40"/>
<path d="M2932.78 2114.17C2929.93 2114.17 2927.08 2114 2924.24 2113.66L2554.47 2069.73C2468.21 2059.49 2440.33 2182.1 2522.54 2210.17L2669.26 2260.26C2685.67 2265.86 2699.53 2277.17 2708.31 2292.13L2870.34 2568.22C2884.33 2592.06 2908.55 2603.98 2932.78 2603.98V2495.8L2786.36 2246.32C2768.9 2216.56 2742.5 2193.21 2711.09 2179.49L2913.56 2203.54C2919.95 2204.3 2926.36 2204.68 2932.78 2204.68V2114.17Z" fill="#4A2D20"/>
<path d="M2932.78 2603.98C2957.01 2603.98 2981.23 2592.06 2995.22 2568.22L3157.25 2292.13C3166.03 2277.17 3179.89 2265.86 3196.3 2260.26L3343.02 2210.17C3425.23 2182.1 3397.35 2059.49 3311.09 2069.73L2941.32 2113.66C2938.48 2114 2935.63 2114.17 2932.78 2114.17V2204.68C2939.2 2204.68 2945.61 2204.3 2952 2203.54L3154.47 2179.49C3123.06 2193.21 3096.66 2216.56 3079.2 2246.32L2932.78 2495.8V2603.98Z" fill="#9A6D60"/>
<path d="M2989.37 2380.08C2964.01 2410.74 2901.55 2410.74 2876.19 2380.08L2729.36 2202.53C2721.4 2192.91 2708.85 2185.64 2693.97 2182.04L2561.01 2149.82C2505.97 2136.49 2505.39 2089.97 2540.36 2069.23C2544.87 2069 2549.58 2069.15 2554.47 2069.73L2924.24 2113.66C2929.91 2114.33 2935.65 2114.33 2941.32 2113.66L3311.09 2069.73C3315.98 2069.15 3320.69 2069 3325.2 2069.23C3360.17 2089.97 3359.59 2136.49 3304.55 2149.82L3171.59 2182.04C3156.71 2185.64 3144.15 2192.91 3136.2 2202.53L2989.37 2380.08Z" fill="#7A4D40"/>
<path fill-rule="evenodd" clip-rule="evenodd" d="M2755.14 2264.64L2917.17 2540.73C2924.16 2552.65 2941.4 2552.65 2948.39 2540.73L3110.42 2264.64C3125.78 2238.46 3150.03 2218.67 3178.76 2208.86L3325.48 2158.77C3332.83 2156.26 3335.15 2152.91 3336.22 2150.76C3337.7 2147.78 3338.52 2143.09 3337.28 2137.62C3336.04 2132.16 3333.27 2128.29 3330.64 2126.24C3328.75 2124.76 3325.21 2122.75 3317.49 2123.66L2947.73 2167.59C2937.8 2168.77 2927.76 2168.77 2917.83 2167.59L2548.07 2123.66C2540.35 2122.75 2536.81 2124.76 2534.91 2126.24C2532.29 2128.29 2529.52 2132.16 2528.28 2137.62C2527.04 2143.09 2527.86 2147.78 2529.34 2150.76C2530.41 2152.91 2532.73 2156.26 2540.08 2158.77L2686.8 2208.86C2715.53 2218.67 2739.78 2238.46 2755.14 2264.64ZM2870.34 2568.22C2898.32 2615.9 2967.24 2615.9 2995.22 2568.22L3157.25 2292.13C3166.03 2277.17 3179.89 2265.86 3196.3 2260.26L3343.02 2210.17C3425.23 2182.1 3397.35 2059.49 3311.09 2069.73L2941.32 2113.66C2935.65 2114.33 2929.91 2114.33 2924.24 2113.66L2554.47 2069.73C2468.21 2059.49 2440.33 2182.1 2522.54 2210.17L2669.26 2260.26C2685.67 2265.86 2699.53 2277.17 2708.31 2292.13L2870.34 2568.22Z" fill="#101010"/>
<path d="M2826.34 2096.28C2826.34 2076.28 2842.55 2060.07 2862.55 2060.07H3007.35C3027.35 2060.07 3043.56 2076.28 3043.56 2096.28V2585.06C3043.56 2605.05 3027.35 2621.26 3007.35 2621.26H2862.55C2842.55 2621.26 2826.34 2605.05 2826.34 2585.06V2096.28Z" fill="#101010"/>
<path d="M2889.7 2123.43H2980.2V2557.9H2889.7V2123.43Z" fill="#7A4D40"/>
<path d="M2889.7 2123.43H2925.9V2557.9H2889.7V2123.43Z" fill="#4A2D20"/>
<path d="M2889.7 2467.39H2980.2V2557.9H2889.7V2467.39Z" fill="#4A2D20"/>
<path d="M2907.8 2123.43L2980.2 2123.43V2539.8H2934.95C2919.95 2539.8 2907.8 2527.64 2907.8 2512.65V2123.43Z" fill="#7A4D40"/>
<path d="M2962.1 2123.43L2980.2 2123.43V2557.9L2962.1 2557.9V2123.43Z" fill="#9A6D60"/>
<path d="M1212.27 2568.22C1184.29 2615.9 1115.37 2615.9 1087.39 2568.22L925.361 2292.13C916.581 2277.17 902.723 2265.86 886.309 2260.26L739.59 2210.17C657.382 2182.1 685.262 2059.49 771.522 2069.73L1141.29 2113.66C1146.96 2114.33 1152.7 2114.33 1158.37 2113.66L1528.14 2069.73C1614.4 2059.49 1642.28 2182.1 1560.07 2210.17L1413.35 2260.26C1396.94 2265.86 1383.08 2277.17 1374.3 2292.13L1212.27 2568.22Z" fill="#7A4D40"/>
<path d="M1149.83 2114.17C1146.98 2114.17 1144.13 2114 1141.29 2113.66L771.522 2069.73C685.262 2059.49 657.382 2182.1 739.59 2210.17L886.309 2260.26C902.723 2265.86 916.581 2277.17 925.361 2292.13L1087.39 2568.22C1101.38 2592.06 1125.6 2603.98 1149.83 2603.98V2495.8L1003.41 2246.32C985.949 2216.56 959.551 2193.21 928.143 2179.49L1130.61 2203.54C1137 2204.3 1143.41 2204.68 1149.83 2204.68V2114.17Z" fill="#4A2D20"/>
<path d="M1149.83 2603.98C1174.06 2603.98 1198.28 2592.06 1212.27 2568.22L1374.3 2292.13C1383.08 2277.17 1396.94 2265.86 1413.35 2260.26L1560.07 2210.17C1642.28 2182.1 1614.4 2059.49 1528.14 2069.73L1158.37 2113.66C1155.53 2114 1152.68 2114.17 1149.83 2114.17V2204.68C1156.25 2204.68 1162.66 2204.3 1169.05 2203.54L1371.52 2179.49C1340.11 2193.21 1313.71 2216.56 1296.25 2246.32L1149.83 2495.8V2603.98Z" fill="#9A6D60"/>
<path d="M1206.42 2380.08C1181.06 2410.74 1118.6 2410.74 1093.24 2380.08L946.411 2202.53C938.455 2192.91 925.897 2185.64 911.022 2182.04L778.062 2149.82C723.023 2136.49 722.436 2089.97 757.406 2069.23C761.917 2069 766.626 2069.15 771.522 2069.73L1141.29 2113.66C1146.96 2114.33 1152.7 2114.33 1158.37 2113.66L1528.14 2069.73C1533.03 2069.15 1537.74 2069 1542.25 2069.23C1577.22 2089.97 1576.64 2136.49 1521.6 2149.82L1388.64 2182.04C1373.76 2185.64 1361.21 2192.91 1353.25 2202.53L1206.42 2380.08Z" fill="#7A4D40"/>
<path fill-rule="evenodd" clip-rule="evenodd" d="M972.193 2264.64L1134.22 2540.73C1141.21 2552.65 1158.45 2552.65 1165.44 2540.73L1327.47 2264.64C1342.83 2238.46 1367.08 2218.67 1395.81 2208.86L1542.53 2158.77C1549.88 2156.26 1552.2 2152.91 1553.27 2150.76C1554.75 2147.78 1555.57 2143.09 1554.33 2137.62C1553.09 2132.16 1550.32 2128.29 1547.7 2126.24C1545.8 2124.76 1542.26 2122.75 1534.54 2123.66L1164.78 2167.59C1154.85 2168.77 1144.81 2168.77 1134.88 2167.59L765.117 2123.66C757.405 2122.75 753.863 2124.76 751.965 2126.24C749.338 2128.29 746.573 2132.16 745.331 2137.62C744.089 2143.09 744.906 2147.78 746.39 2150.76C747.461 2152.91 749.784 2156.26 757.134 2158.77L903.853 2208.86C932.578 2218.67 956.829 2238.46 972.193 2264.64ZM1087.39 2568.22C1115.37 2615.9 1184.29 2615.9 1212.27 2568.22L1374.3 2292.13C1383.08 2277.17 1396.94 2265.86 1413.35 2260.26L1560.07 2210.17C1642.28 2182.1 1614.4 2059.49 1528.14 2069.73L1158.37 2113.66C1152.7 2114.33 1146.96 2114.33 1141.29 2113.66L771.522 2069.73C685.262 2059.49 657.382 2182.1 739.59 2210.17L886.309 2260.26C902.723 2265.86 916.581 2277.17 925.361 2292.13L1087.39 2568.22Z" fill="#101010"/>
<path d="M1043.39 2096.28C1043.39 2076.28 1059.6 2060.07 1079.6 2060.07H1224.4C1244.4 2060.07 1260.61 2076.28 1260.61 2096.28V2585.06C1260.61 2605.05 1244.4 2621.26 1224.4 2621.26H1079.6C1059.6 2621.26 1043.39 2605.05 1043.39 2585.06V2096.28Z" fill="#101010"/>
<path d="M1106.75 2123.43H1197.25V2557.9H1106.75V2123.43Z" fill="#7A4D40"/>
<path d="M1106.75 2123.43H1142.95V2557.9H1106.75V2123.43Z" fill="#4A2D20"/>
<path d="M1106.75 2467.39H1197.25V2557.9H1106.75V2467.39Z" fill="#4A2D20"/>
<path d="M1124.85 2123.43L1197.25 2123.43V2539.8H1152C1137 2539.8 1124.85 2527.64 1124.85 2512.65V2123.43Z" fill="#7A4D40"/>
<path d="M1179.15 2123.43L1197.25 2123.43V2557.9L1179.15 2557.9V2123.43Z" fill="#9A6D60"/>
<path d="M256 1924.3C256 1904.31 272.208 1888.1 292.202 1888.1H3803.8C3823.79 1888.1 3840 1904.31 3840 1924.3V2105.33C3840 2125.33 3823.79 2141.54 3803.8 2141.54H292.202C272.208 2141.54 256 2125.33 256 2105.33V1924.3Z" fill="#101010"/>
<path d="M310.303 1942.41H3785.7V2087.23H310.303V1942.41Z" fill="#7A4D40"/>
<path d="M310.303 2032.92H3785.7V2087.23H310.303V2032.92Z" fill="#4A2D20"/>
<path d="M310.303 1942.41H391.758V2087.23H310.303V1942.41Z" fill="#4A2D20"/>
<path d="M364.606 1942.41H391.758V2032.92C376.762 2032.92 364.606 2020.76 364.606 2005.77V1942.41Z" fill="#7A4D40"/>
<path d="M3749.49 1942.41H3785.7V2087.23H3749.49V1942.41Z" fill="#9A6D60"/>
<path d="M310.303 1942.41H3785.7V1969.56H310.303V1942.41Z" fill="#9A6D60"/>
<path d="M3749.49 1969.56C3759.49 1969.56 3767.6 1977.67 3767.6 1987.66V2032.92H3749.49V1969.56Z" fill="#7A4D40"/>
<path d="M3749.49 2032.92H3767.6V2087.23H3749.49V2032.92Z" fill="#4A2D20"/>
<path d="M1876.04 639H2238.06V1888.1H1876.04V639Z" fill="#101010"/>
<path d="M1921.29 675.206H2192.81V1851.89H1921.29V675.206Z" fill="#66AA66"/>
<path d="M2156.61 675.206H2192.81V1851.89H2156.61V675.206Z" fill="#86CA86"/>
<path d="M1921.29 675.206H2192.81V711.411H1921.29V675.206Z" fill="#86CA86"/>
<path d="M1921.29 675.206H1957.49V1851.89H1921.29V675.206Z" fill="#468A46"/>
<path d="M1921.29 1815.69H2192.81V1851.89H1921.29V1815.69Z" fill="#468A46"/>
<path d="M2031.45 1180.53C2045.59 1166.39 2068.51 1166.39 2082.65 1180.53L2158.16 1256.05C2172.3 1270.19 2172.3 1293.11 2158.16 1307.25L2082.65 1382.77C2068.51 1396.91 2045.59 1396.91 2031.45 1382.77L1955.94 1307.25C1941.8 1293.11 1941.8 1270.19 1955.94 1256.05L2031.45 1180.53Z" fill="#101010"/>
<path d="M2031.45 1180.53C2045.59 1166.39 2068.51 1166.39 2082.65 1180.53L2158.16 1256.05C2172.3 1270.19 2172.3 1293.11 2158.16 1307.25L2082.65 1382.77C2068.51 1396.91 2045.59 1396.91 2031.45 1382.77L1955.94 1307.25C1941.8 1293.11 1941.8 1270.19 1955.94 1256.05L2031.45 1180.53Z" fill="#101010"/>
<path d="M2031.45 1180.53C2045.59 1166.39 2068.51 1166.39 2082.65 1180.53L2158.16 1256.05C2172.3 1270.19 2172.3 1293.11 2158.16 1307.25L2082.65 1382.77C2068.51 1396.91 2045.59 1396.91 2031.45 1382.77L1955.94 1307.25C1941.8 1293.11 1941.8 1270.19 1955.94 1256.05L2031.45 1180.53Z" fill="#101010"/>
<path d="M2031.45 1180.53C2045.59 1166.39 2068.51 1166.39 2082.65 1180.53L2158.16 1256.05C2172.3 1270.19 2172.3 1293.11 2158.16 1307.25L2082.65 1382.77C2068.51 1396.91 2045.59 1396.91 2031.45 1382.77L1955.94 1307.25C1941.8 1293.11 1941.8 1270.19 1955.94 1256.05L2031.45 1180.53Z" fill="#101010"/>
<path d="M2057.05 1200.19L2138.5 1281.65L2057.05 1363.11L1975.6 1281.65L2057.05 1200.19Z" fill="#EEEE88"/>
<path d="M2093.25 1471.73C2093.25 1491.73 2077.04 1507.94 2057.05 1507.94C2037.06 1507.94 2020.85 1491.73 2020.85 1471.73C2020.85 1451.74 2037.06 1435.53 2057.05 1435.53C2077.04 1435.53 2093.25 1451.74 2093.25 1471.73Z" fill="#101010"/>
<path d="M2093.25 1091.57C2093.25 1111.57 2077.04 1127.78 2057.05 1127.78C2037.06 1127.78 2020.85 1111.57 2020.85 1091.57C2020.85 1071.58 2037.06 1055.37 2057.05 1055.37C2077.04 1055.37 2093.25 1071.58 2093.25 1091.57Z" fill="#101010"/>
<path d="M2075.15 1471.73C2075.15 1481.73 2067.05 1489.83 2057.05 1489.83C2047.05 1489.83 2038.95 1481.73 2038.95 1471.73C2038.95 1461.73 2047.05 1453.63 2057.05 1453.63C2067.05 1453.63 2075.15 1461.73 2075.15 1471.73Z" fill="#EEEE88"/>
<path d="M2075.15 1091.57C2075.15 1101.57 2067.05 1109.67 2057.05 1109.67C2047.05 1109.67 2038.95 1101.57 2038.95 1091.57C2038.95 1081.57 2047.05 1073.47 2057.05 1073.47C2067.05 1073.47 2075.15 1081.57 2075.15 1091.57Z" fill="#EEEE88"/>
<path d="M1876.04 738.566H2238.06V1037.26H1876.04V738.566Z" fill="#101010"/>
<path d="M1921.29 774.771H2192.81V1001.06H1921.29V774.771Z" fill="#EEEE88"/>
<path d="M2156.61 774.771H2192.81V1001.06H2156.61V774.771Z" fill="#FFFFCC"/>
<path d="M1921.29 774.771H1957.49V1001.06H1921.29V774.771Z" fill="#DDDD68"/>
<path d="M2030.93 801.978C2045.18 787.135 2068.92 787.135 2083.17 801.978L2141.59 862.841C2155.04 876.851 2155.04 898.978 2141.59 912.988L2083.17 973.851C2068.92 988.694 2045.18 988.694 2030.93 973.851L1972.51 912.988C1959.06 898.978 1959.06 876.851 1972.51 862.841L2030.93 801.978Z" fill="#101010"/>
<path d="M2030.93 801.978C2045.18 787.135 2068.92 787.135 2083.17 801.978L2141.59 862.841C2155.04 876.851 2155.04 898.978 2141.59 912.988L2083.17 973.851C2068.92 988.694 2045.18 988.694 2030.93 973.851L1972.51 912.988C1959.06 898.978 1959.06 876.851 1972.51 862.841L2030.93 801.978Z" fill="#101010"/>
<path d="M2030.93 801.978C2045.18 787.135 2068.92 787.135 2083.17 801.978L2141.59 862.841C2155.04 876.851 2155.04 898.978 2141.59 912.988L2083.17 973.851C2068.92 988.694 2045.18 988.694 2030.93 973.851L1972.51 912.988C1959.06 898.978 1959.06 876.851 1972.51 862.841L2030.93 801.978Z" fill="#101010"/>
<path d="M2030.93 801.978C2045.18 787.135 2068.92 787.135 2083.17 801.978L2141.59 862.841C2155.04 876.851 2155.04 898.978 2141.59 912.988L2083.17 973.851C2068.92 988.694 2045.18 988.694 2030.93 973.851L1972.51 912.988C1959.06 898.978 1959.06 876.851 1972.51 862.841L2030.93 801.978Z" fill="#101010"/>
<path d="M2057.05 820.029L2120.4 887.914L2057.05 955.8L1993.7 887.914L2057.05 820.029Z" fill="#EEEE88"/>
<path d="M1876.04 1526.04H2238.06V1824.74H1876.04V1526.04Z" fill="#101010"/>
<path d="M1921.29 1562.25H2192.81V1788.53H1921.29V1562.25Z" fill="#EEEE88"/>
<path d="M2156.61 1562.25H2192.81V1788.53H2156.61V1562.25Z" fill="#FFFFCC"/>
<path d="M1921.29 1562.25H1957.49V1788.53H1921.29V1562.25Z" fill="#DDDD68"/>
<path d="M2030.93 1589.45C2045.18 1574.61 2068.92 1574.61 2083.17 1589.45L2141.59 1650.32C2155.04 1664.33 2155.04 1686.45 2141.59 1700.46L2083.17 1761.33C2068.92 1776.17 2045.18 1776.17 2030.93 1761.33L1972.51 1700.46C1959.06 1686.45 1959.06 1664.33 1972.51 1650.32L2030.93 1589.45Z" fill="#101010"/>
<path d="M2030.93 1589.45C2045.18 1574.61 2068.92 1574.61 2083.17 1589.45L2141.59 1650.32C2155.04 1664.33 2155.04 1686.45 2141.59 1700.46L2083.17 1761.33C2068.92 1776.17 2045.18 1776.17 2030.93 1761.33L1972.51 1700.46C1959.06 1686.45 1959.06 1664.33 1972.51 1650.32L2030.93 1589.45Z" fill="#101010"/>
<path d="M2030.93 1589.45C2045.18 1574.61 2068.92 1574.61 2083.17 1589.45L2141.59 1650.32C2155.04 1664.33 2155.04 1686.45 2141.59 1700.46L2083.17 1761.33C2068.92 1776.17 2045.18 1776.17 2030.93 1761.33L1972.51 1700.46C1959.06 1686.45 1959.06 1664.33 1972.51 1650.32L2030.93 1589.45Z" fill="#101010"/>
<path d="M2030.93 1589.45C2045.18 1574.61 2068.92 1574.61 2083.17 1589.45L2141.59 1650.32C2155.04 1664.33 2155.04 1686.45 2141.59 1700.46L2083.17 1761.33C2068.92 1776.17 2045.18 1776.17 2030.93 1761.33L1972.51 1700.46C1959.06 1686.45 1959.06 1664.33 1972.51 1650.32L2030.93 1589.45Z" fill="#101010"/>
<path d="M2057.05 1607.5L2120.4 1675.39L2057.05 1743.27L1993.7 1675.39L2057.05 1607.5Z" fill="#EEEE88"/>
<path d="M1550.22 747.617H1876.04V1888.1H1550.22V747.617Z" fill="#101010"/>
<path d="M1586.42 783.823H1839.84V1851.89H1586.42V783.823Z" fill="#66AA66"/>
<path d="M1803.64 783.823H1839.84V1851.89H1803.64V783.823Z" fill="#86CA86"/>
<path d="M1586.42 783.823H1839.84V820.029H1586.42V783.823Z" fill="#86CA86"/>
<path d="M1586.42 783.823H1622.63V1851.89H1586.42V783.823Z" fill="#468A46"/>
<path d="M1586.42 1815.69H1839.84V1851.89H1586.42V1815.69Z" fill="#468A46"/>
<path d="M1550.22 1589.4H1876.04V1779.48H1550.22V1589.4Z" fill="#101010"/>
<path d="M1586.42 1625.61H1839.84V1743.27H1586.42V1625.61Z" fill="#EEEE88"/>
<path d="M1803.64 1625.61H1839.84V1743.27H1803.64V1625.61Z" fill="#FFFFCC"/>
<path d="M1586.42 1625.61H1622.63V1743.27H1586.42V1625.61Z" fill="#DDDD68"/>
<path d="M1586.42 1661.81H1839.84V1707.07H1586.42V1661.81Z" fill="#101010"/>
<path d="M1550.22 847.183H1876.04V1037.26H1550.22V847.183Z" fill="#101010"/>
<path d="M1586.42 883.389H1839.84V1001.06H1586.42V883.389Z" fill="#EEEE88"/>
<path d="M1803.64 883.389H1839.84V1001.06H1803.64V883.389Z" fill="#FFFFCC"/>
<path d="M1586.42 883.389H1622.63V1001.06H1586.42V883.389Z" fill="#DDDD68"/>
<path d="M1586.42 919.594H1839.84V964.852H1586.42V919.594Z" fill="#101010"/>
<path d="M1687.53 1207.69C1701.67 1193.55 1724.59 1193.55 1738.73 1207.69L1814.24 1283.2C1828.38 1297.34 1828.38 1320.27 1814.24 1334.41L1738.73 1409.92C1724.59 1424.06 1701.67 1424.06 1687.53 1409.92L1612.02 1334.41C1597.89 1320.27 1597.89 1297.34 1612.02 1283.2L1687.53 1207.69Z" fill="#101010"/>
<path d="M1687.53 1207.69C1701.67 1193.55 1724.59 1193.55 1738.73 1207.69L1814.24 1283.2C1828.38 1297.34 1828.38 1320.27 1814.24 1334.41L1738.73 1409.92C1724.59 1424.06 1701.67 1424.06 1687.53 1409.92L1612.02 1334.41C1597.89 1320.27 1597.89 1297.34 1612.02 1283.2L1687.53 1207.69Z" fill="#101010"/>
<path d="M1687.53 1207.69C1701.67 1193.55 1724.59 1193.55 1738.73 1207.69L1814.24 1283.2C1828.38 1297.34 1828.38 1320.27 1814.24 1334.41L1738.73 1409.92C1724.59 1424.06 1701.67 1424.06 1687.53 1409.92L1612.02 1334.41C1597.89 1320.27 1597.89 1297.34 1612.02 1283.2L1687.53 1207.69Z" fill="#101010"/>
<path d="M1687.53 1207.69C1701.67 1193.55 1724.59 1193.55 1738.73 1207.69L1814.24 1283.2C1828.38 1297.34 1828.38 1320.27 1814.24 1334.41L1738.73 1409.92C1724.59 1424.06 1701.67 1424.06 1687.53 1409.92L1612.02 1334.41C1597.89 1320.27 1597.89 1297.34 1612.02 1283.2L1687.53 1207.69Z" fill="#101010"/>
<path d="M1713.13 1227.34L1794.59 1308.81L1713.13 1390.27L1631.68 1308.81L1713.13 1227.34Z" fill="#EEEE88"/>
<path d="M1749.33 1498.89C1749.33 1518.88 1733.13 1535.09 1713.13 1535.09C1693.14 1535.09 1676.93 1518.88 1676.93 1498.89C1676.93 1478.89 1693.14 1462.68 1713.13 1462.68C1733.13 1462.68 1749.33 1478.89 1749.33 1498.89Z" fill="#101010"/>
<path d="M1749.33 1118.73C1749.33 1138.72 1733.13 1154.93 1713.13 1154.93C1693.14 1154.93 1676.93 1138.72 1676.93 1118.73C1676.93 1098.73 1693.14 1082.52 1713.13 1082.52C1733.13 1082.52 1749.33 1098.73 1749.33 1118.73Z" fill="#101010"/>
<path d="M1731.23 1498.89C1731.23 1508.88 1723.13 1516.99 1713.13 1516.99C1703.13 1516.99 1695.03 1508.88 1695.03 1498.89C1695.03 1488.89 1703.13 1480.78 1713.13 1480.78C1723.13 1480.78 1731.23 1488.89 1731.23 1498.89Z" fill="#EEEE88"/>
<path d="M1731.23 1118.73C1731.23 1128.72 1723.13 1136.83 1713.13 1136.83C1703.13 1136.83 1695.03 1128.72 1695.03 1118.73C1695.03 1108.73 1703.13 1100.62 1713.13 1100.62C1723.13 1100.62 1731.23 1108.73 1731.23 1118.73Z" fill="#EEEE88"/>
<path d="M1224.4 747.617H1550.22V1888.1H1224.4V747.617Z" fill="#101010"/>
<path d="M1260.61 783.823H1514.02V1851.89H1260.61V783.823Z" fill="#66AA66"/>
<path d="M1477.82 783.823H1514.02V1851.89H1477.82V783.823Z" fill="#86CA86"/>
<path d="M1260.61 783.823H1514.02V820.029H1260.61V783.823Z" fill="#86CA86"/>
<path d="M1260.61 783.823H1296.81V1851.89H1260.61V783.823Z" fill="#468A46"/>
<path d="M1260.61 1815.69H1514.02V1851.89H1260.61V1815.69Z" fill="#468A46"/>
<path d="M1224.4 1589.4H1550.22V1779.48H1224.4V1589.4Z" fill="#101010"/>
<path d="M1260.61 1625.61H1514.02V1743.27H1260.61V1625.61Z" fill="#EEEE88"/>
<path d="M1477.82 1625.61H1514.02V1743.27H1477.82V1625.61Z" fill="#FFFFCC"/>
<path d="M1260.61 1625.61H1296.81V1743.27H1260.61V1625.61Z" fill="#DDDD68"/>
<path d="M1260.61 1661.81H1514.02V1707.07H1260.61V1661.81Z" fill="#101010"/>
<path d="M1224.4 847.183H1550.22V1037.26H1224.4V847.183Z" fill="#101010"/>
<path d="M1260.61 883.389H1514.02V1001.06H1260.61V883.389Z" fill="#EEEE88"/>
<path d="M1477.82 883.389H1514.02V1001.06H1477.82V883.389Z" fill="#FFFFCC"/>
<path d="M1260.61 883.389H1296.81V1001.06H1260.61V883.389Z" fill="#DDDD68"/>
<path d="M1260.61 919.594H1514.02V964.852H1260.61V919.594Z" fill="#101010"/>
<path d="M1361.71 1207.69C1375.85 1193.55 1398.77 1193.55 1412.91 1207.69L1488.42 1283.2C1502.56 1297.34 1502.56 1320.27 1488.42 1334.41L1412.91 1409.92C1398.77 1424.06 1375.85 1424.06 1361.71 1409.92L1286.2 1334.41C1272.07 1320.27 1272.07 1297.34 1286.2 1283.2L1361.71 1207.69Z" fill="#101010"/>
<path d="M1361.71 1207.69C1375.85 1193.55 1398.77 1193.55 1412.91 1207.69L1488.42 1283.2C1502.56 1297.34 1502.56 1320.27 1488.42 1334.41L1412.91 1409.92C1398.77 1424.06 1375.85 1424.06 1361.71 1409.92L1286.2 1334.41C1272.07 1320.27 1272.07 1297.34 1286.2 1283.2L1361.71 1207.69Z" fill="#101010"/>
<path d="M1361.71 1207.69C1375.85 1193.55 1398.77 1193.55 1412.91 1207.69L1488.42 1283.2C1502.56 1297.34 1502.56 1320.27 1488.42 1334.41L1412.91 1409.92C1398.77 1424.06 1375.85 1424.06 1361.71 1409.92L1286.2 1334.41C1272.07 1320.27 1272.07 1297.34 1286.2 1283.2L1361.71 1207.69Z" fill="#101010"/>
<path d="M1361.71 1207.69C1375.85 1193.55 1398.77 1193.55 1412.91 1207.69L1488.42 1283.2C1502.56 1297.34 1502.56 1320.27 1488.42 1334.41L1412.91 1409.92C1398.77 1424.06 1375.85 1424.06 1361.71 1409.92L1286.2 1334.41C1272.07 1320.27 1272.07 1297.34 1286.2 1283.2L1361.71 1207.69Z" fill="#101010"/>
<path d="M1387.31 1227.34L1468.77 1308.81L1387.31 1390.27L1305.86 1308.81L1387.31 1227.34Z" fill="#EEEE88"/>
<path d="M1423.52 1498.89C1423.52 1518.88 1407.31 1535.09 1387.31 1535.09C1367.32 1535.09 1351.11 1518.88 1351.11 1498.89C1351.11 1478.89 1367.32 1462.68 1387.31 1462.68C1407.31 1462.68 1423.52 1478.89 1423.52 1498.89Z" fill="#101010"/>
<path d="M1423.52 1118.73C1423.52 1138.72 1407.31 1154.93 1387.31 1154.93C1367.32 1154.93 1351.11 1138.72 1351.11 1118.73C1351.11 1098.73 1367.32 1082.52 1387.31 1082.52C1407.31 1082.52 1423.52 1098.73 1423.52 1118.73Z" fill="#101010"/>
<path d="M1405.41 1498.89C1405.41 1508.88 1397.31 1516.99 1387.31 1516.99C1377.32 1516.99 1369.21 1508.88 1369.21 1498.89C1369.21 1488.89 1377.32 1480.78 1387.31 1480.78C1397.31 1480.78 1405.41 1488.89 1405.41 1498.89Z" fill="#EEEE88"/>
<path d="M1405.41 1118.73C1405.41 1128.72 1397.31 1136.83 1387.31 1136.83C1377.32 1136.83 1369.21 1128.72 1369.21 1118.73C1369.21 1108.73 1377.32 1100.62 1387.31 1100.62C1397.31 1100.62 1405.41 1108.73 1405.41 1118.73Z" fill="#EEEE88"/>
<path d="M898.586 747.617H1224.4V1888.1H898.586V747.617Z" fill="#101010"/>
<path d="M934.788 783.823H1188.2V1851.89H934.788V783.823Z" fill="#66AA66"/>
<path d="M1152 783.823H1188.2V1851.89H1152V783.823Z" fill="#86CA86"/>
<path d="M934.788 783.823H1188.2V820.029H934.788V783.823Z" fill="#86CA86"/>
<path d="M934.788 783.823H970.99V1851.89H934.788V783.823Z" fill="#468A46"/>
<path d="M934.788 1815.69H1188.2V1851.89H934.788V1815.69Z" fill="#468A46"/>
<path d="M898.586 1589.4H1224.4V1779.48H898.586V1589.4Z" fill="#101010"/>
<path d="M934.788 1625.61H1188.2V1743.27H934.788V1625.61Z" fill="#EEEE88"/>
<path d="M1152 1625.61H1188.2V1743.27H1152V1625.61Z" fill="#FFFFCC"/>
<path d="M934.788 1625.61H970.99V1743.27H934.788V1625.61Z" fill="#DDDD68"/>
<path d="M934.788 1661.81H1188.2V1707.07H934.788V1661.81Z" fill="#101010"/>
<path d="M898.586 847.183H1224.4V1037.26H898.586V847.183Z" fill="#101010"/>
<path d="M934.788 883.389H1188.2V1001.06H934.788V883.389Z" fill="#EEEE88"/>
<path d="M1152 883.389H1188.2V1001.06H1152V883.389Z" fill="#FFFFCC"/>
<path d="M934.788 883.389H970.99V1001.06H934.788V883.389Z" fill="#DDDD68"/>
<path d="M934.788 919.594H1188.2V964.852H934.788V919.594Z" fill="#101010"/>
<path d="M1035.9 1207.69C1050.03 1193.55 1072.96 1193.55 1087.09 1207.69L1162.6 1283.2C1176.74 1297.34 1176.74 1320.27 1162.6 1334.41L1087.09 1409.92C1072.96 1424.06 1050.03 1424.06 1035.9 1409.92L960.387 1334.41C946.249 1320.27 946.249 1297.34 960.387 1283.2L1035.9 1207.69Z" fill="#101010"/>
<path d="M1035.9 1207.69C1050.03 1193.55 1072.96 1193.55 1087.09 1207.69L1162.6 1283.2C1176.74 1297.34 1176.74 1320.27 1162.6 1334.41L1087.09 1409.92C1072.96 1424.06 1050.03 1424.06 1035.9 1409.92L960.387 1334.41C946.249 1320.27 946.249 1297.34 960.387 1283.2L1035.9 1207.69Z" fill="#101010"/>
<path d="M1035.9 1207.69C1050.03 1193.55 1072.96 1193.55 1087.09 1207.69L1162.6 1283.2C1176.74 1297.34 1176.74 1320.27 1162.6 1334.41L1087.09 1409.92C1072.96 1424.06 1050.03 1424.06 1035.9 1409.92L960.387 1334.41C946.249 1320.27 946.249 1297.34 960.387 1283.2L1035.9 1207.69Z" fill="#101010"/>
<path d="M1035.9 1207.69C1050.03 1193.55 1072.96 1193.55 1087.09 1207.69L1162.6 1283.2C1176.74 1297.34 1176.74 1320.27 1162.6 1334.41L1087.09 1409.92C1072.96 1424.06 1050.03 1424.06 1035.9 1409.92L960.387 1334.41C946.249 1320.27 946.249 1297.34 960.387 1283.2L1035.9 1207.69Z" fill="#101010"/>
<path d="M1061.49 1227.34L1142.95 1308.81L1061.49 1390.27L980.04 1308.81L1061.49 1227.34Z" fill="#EEEE88"/>
<path d="M1097.7 1498.89C1097.7 1518.88 1081.49 1535.09 1061.49 1535.09C1041.5 1535.09 1025.29 1518.88 1025.29 1498.89C1025.29 1478.89 1041.5 1462.68 1061.49 1462.68C1081.49 1462.68 1097.7 1478.89 1097.7 1498.89Z" fill="#101010"/>
<path d="M1097.7 1118.73C1097.7 1138.72 1081.49 1154.93 1061.49 1154.93C1041.5 1154.93 1025.29 1138.72 1025.29 1118.73C1025.29 1098.73 1041.5 1082.52 1061.49 1082.52C1081.49 1082.52 1097.7 1098.73 1097.7 1118.73Z" fill="#101010"/>
<path d="M1079.6 1498.89C1079.6 1508.88 1071.49 1516.99 1061.49 1516.99C1051.5 1516.99 1043.39 1508.88 1043.39 1498.89C1043.39 1488.89 1051.5 1480.78 1061.49 1480.78C1071.49 1480.78 1079.6 1488.89 1079.6 1498.89Z" fill="#EEEE88"/>
<path d="M1079.6 1118.73C1079.6 1128.72 1071.49 1136.83 1061.49 1136.83C1051.5 1136.83 1043.39 1128.72 1043.39 1118.73C1043.39 1108.73 1051.5 1100.62 1061.49 1100.62C1071.49 1100.62 1079.6 1108.73 1079.6 1118.73Z" fill="#EEEE88"/>
<path d="M2238.06 747.617H2563.88V1888.1H2238.06V747.617Z" fill="#101010"/>
<path d="M2274.26 783.823H2527.68V1851.89H2274.26V783.823Z" fill="#66AA66"/>
<path d="M2491.47 783.823H2527.68V1851.89H2491.47V783.823Z" fill="#86CA86"/>
<path d="M2274.26 783.823H2527.68V820.029H2274.26V783.823Z" fill="#86CA86"/>
<path d="M2274.26 783.823H2310.46V1851.89H2274.26V783.823Z" fill="#468A46"/>
<path d="M2274.26 1815.69H2527.68V1851.89H2274.26V1815.69Z" fill="#468A46"/>
<path d="M2238.06 1589.4H2563.88V1779.48H2238.06V1589.4Z" fill="#101010"/>
<path d="M2274.26 1625.61H2527.68V1743.27H2274.26V1625.61Z" fill="#EEEE88"/>
<path d="M2491.47 1625.61H2527.68V1743.27H2491.47V1625.61Z" fill="#FFFFCC"/>
<path d="M2274.26 1625.61H2310.46V1743.27H2274.26V1625.61Z" fill="#DDDD68"/>
<path d="M2274.26 1661.81H2527.68V1707.07H2274.26V1661.81Z" fill="#101010"/>
<path d="M2238.06 847.183H2563.88V1037.26H2238.06V847.183Z" fill="#101010"/>
<path d="M2274.26 883.389H2527.68V1001.06H2274.26V883.389Z" fill="#EEEE88"/>
<path d="M2491.47 883.389H2527.68V1001.06H2491.47V883.389Z" fill="#FFFFCC"/>
<path d="M2274.26 883.389H2310.46V1001.06H2274.26V883.389Z" fill="#DDDD68"/>
<path d="M2274.26 919.594H2527.68V964.852H2274.26V919.594Z" fill="#101010"/>
<path d="M2375.37 1207.69C2389.51 1193.55 2412.43 1193.55 2426.57 1207.69L2502.08 1283.2C2516.22 1297.34 2516.22 1320.27 2502.08 1334.41L2426.57 1409.92C2412.43 1424.06 2389.51 1424.06 2375.37 1409.92L2299.86 1334.41C2285.72 1320.27 2285.72 1297.34 2299.86 1283.2L2375.37 1207.69Z" fill="#101010"/>
<path d="M2375.37 1207.69C2389.51 1193.55 2412.43 1193.55 2426.57 1207.69L2502.08 1283.2C2516.22 1297.34 2516.22 1320.27 2502.08 1334.41L2426.57 1409.92C2412.43 1424.06 2389.51 1424.06 2375.37 1409.92L2299.86 1334.41C2285.72 1320.27 2285.72 1297.34 2299.86 1283.2L2375.37 1207.69Z" fill="#101010"/>
<path d="M2375.37 1207.69C2389.51 1193.55 2412.43 1193.55 2426.57 1207.69L2502.08 1283.2C2516.22 1297.34 2516.22 1320.27 2502.08 1334.41L2426.57 1409.92C2412.43 1424.06 2389.51 1424.06 2375.37 1409.92L2299.86 1334.41C2285.72 1320.27 2285.72 1297.34 2299.86 1283.2L2375.37 1207.69Z" fill="#101010"/>
<path d="M2375.37 1207.69C2389.51 1193.55 2412.43 1193.55 2426.57 1207.69L2502.08 1283.2C2516.22 1297.34 2516.22 1320.27 2502.08 1334.41L2426.57 1409.92C2412.43 1424.06 2389.51 1424.06 2375.37 1409.92L2299.86 1334.41C2285.72 1320.27 2285.72 1297.34 2299.86 1283.2L2375.37 1207.69Z" fill="#101010"/>
<path d="M2400.97 1227.34L2482.42 1308.81L2400.97 1390.27L2319.52 1308.81L2400.97 1227.34Z" fill="#EEEE88"/>
<path d="M2437.17 1498.89C2437.17 1518.88 2420.96 1535.09 2400.97 1535.09C2380.98 1535.09 2364.77 1518.88 2364.77 1498.89C2364.77 1478.89 2380.98 1462.68 2400.97 1462.68C2420.96 1462.68 2437.17 1478.89 2437.17 1498.89Z" fill="#101010"/>
<path d="M2437.17 1118.73C2437.17 1138.72 2420.96 1154.93 2400.97 1154.93C2380.98 1154.93 2364.77 1138.72 2364.77 1118.73C2364.77 1098.73 2380.98 1082.52 2400.97 1082.52C2420.96 1082.52 2437.17 1098.73 2437.17 1118.73Z" fill="#101010"/>
<path d="M2419.07 1498.89C2419.07 1508.88 2410.97 1516.99 2400.97 1516.99C2390.97 1516.99 2382.87 1508.88 2382.87 1498.89C2382.87 1488.89 2390.97 1480.78 2400.97 1480.78C2410.97 1480.78 2419.07 1488.89 2419.07 1498.89Z" fill="#EEEE88"/>
<path d="M2419.07 1118.73C2419.07 1128.72 2410.97 1136.83 2400.97 1136.83C2390.97 1136.83 2382.87 1128.72 2382.87 1118.73C2382.87 1108.73 2390.97 1100.62 2400.97 1100.62C2410.97 1100.62 2419.07 1108.73 2419.07 1118.73Z" fill="#EEEE88"/>
<path d="M2563.88 747.617H2889.7V1888.1H2563.88V747.617Z" fill="#101010"/>
<path d="M2600.08 783.823H2853.49V1851.89H2600.08V783.823Z" fill="#66AA66"/>
<path d="M2817.29 783.823H2853.49V1851.89H2817.29V783.823Z" fill="#86CA86"/>
<path d="M2600.08 783.823H2853.49V820.029H2600.08V783.823Z" fill="#86CA86"/>
<path d="M2600.08 783.823H2636.28V1851.89H2600.08V783.823Z" fill="#468A46"/>
<path d="M2600.08 1815.69H2853.49V1851.89H2600.08V1815.69Z" fill="#468A46"/>
<path d="M2563.88 1589.4H2889.7V1779.48H2563.88V1589.4Z" fill="#101010"/>
<path d="M2600.08 1625.61H2853.49V1743.27H2600.08V1625.61Z" fill="#EEEE88"/>
<path d="M2817.29 1625.61H2853.49V1743.27H2817.29V1625.61Z" fill="#FFFFCC"/>
<path d="M2600.08 1625.61H2636.28V1743.27H2600.08V1625.61Z" fill="#DDDD68"/>
<path d="M2600.08 1661.81H2853.49V1707.07H2600.08V1661.81Z" fill="#101010"/>
<path d="M2563.88 847.183H2889.7V1037.26H2563.88V847.183Z" fill="#101010"/>
<path d="M2600.08 883.389H2853.49V1001.06H2600.08V883.389Z" fill="#EEEE88"/>
<path d="M2817.29 883.389H2853.49V1001.06H2817.29V883.389Z" fill="#FFFFCC"/>
<path d="M2600.08 883.389H2636.28V1001.06H2600.08V883.389Z" fill="#DDDD68"/>
<path d="M2600.08 919.594H2853.49V964.852H2600.08V919.594Z" fill="#101010"/>
<path d="M2701.19 1207.69C2715.33 1193.55 2738.25 1193.55 2752.39 1207.69L2827.9 1283.2C2842.03 1297.34 2842.03 1320.27 2827.9 1334.41L2752.39 1409.92C2738.25 1424.06 2715.33 1424.06 2701.19 1409.92L2625.68 1334.41C2611.54 1320.27 2611.54 1297.34 2625.68 1283.2L2701.19 1207.69Z" fill="#101010"/>
<path d="M2701.19 1207.69C2715.33 1193.55 2738.25 1193.55 2752.39 1207.69L2827.9 1283.2C2842.03 1297.34 2842.03 1320.27 2827.9 1334.41L2752.39 1409.92C2738.25 1424.06 2715.33 1424.06 2701.19 1409.92L2625.68 1334.41C2611.54 1320.27 2611.54 1297.34 2625.68 1283.2L2701.19 1207.69Z" fill="#101010"/>
<path d="M2701.19 1207.69C2715.33 1193.55 2738.25 1193.55 2752.39 1207.69L2827.9 1283.2C2842.03 1297.34 2842.03 1320.27 2827.9 1334.41L2752.39 1409.92C2738.25 1424.06 2715.33 1424.06 2701.19 1409.92L2625.68 1334.41C2611.54 1320.27 2611.54 1297.34 2625.68 1283.2L2701.19 1207.69Z" fill="#101010"/>
<path d="M2701.19 1207.69C2715.33 1193.55 2738.25 1193.55 2752.39 1207.69L2827.9 1283.2C2842.03 1297.34 2842.03 1320.27 2827.9 1334.41L2752.39 1409.92C2738.25 1424.06 2715.33 1424.06 2701.19 1409.92L2625.68 1334.41C2611.54 1320.27 2611.54 1297.34 2625.68 1283.2L2701.19 1207.69Z" fill="#101010"/>
<path d="M2726.79 1227.34L2808.24 1308.81L2726.79 1390.27L2645.33 1308.81L2726.79 1227.34Z" fill="#EEEE88"/>
<path d="M2762.99 1498.89C2762.99 1518.88 2746.78 1535.09 2726.79 1535.09C2706.79 1535.09 2690.59 1518.88 2690.59 1498.89C2690.59 1478.89 2706.79 1462.68 2726.79 1462.68C2746.78 1462.68 2762.99 1478.89 2762.99 1498.89Z" fill="#101010"/>
<path d="M2762.99 1118.73C2762.99 1138.72 2746.78 1154.93 2726.79 1154.93C2706.79 1154.93 2690.59 1138.72 2690.59 1118.73C2690.59 1098.73 2706.79 1082.52 2726.79 1082.52C2746.78 1082.52 2762.99 1098.73 2762.99 1118.73Z" fill="#101010"/>
<path d="M2744.89 1498.89C2744.89 1508.88 2736.78 1516.99 2726.79 1516.99C2716.79 1516.99 2708.69 1508.88 2708.69 1498.89C2708.69 1488.89 2716.79 1480.78 2726.79 1480.78C2736.78 1480.78 2744.89 1488.89 2744.89 1498.89Z" fill="#EEEE88"/>
<path d="M2744.89 1118.73C2744.89 1128.72 2736.78 1136.83 2726.79 1136.83C2716.79 1136.83 2708.69 1128.72 2708.69 1118.73C2708.69 1108.73 2716.79 1100.62 2726.79 1100.62C2736.78 1100.62 2744.89 1108.73 2744.89 1118.73Z" fill="#EEEE88"/>
<path d="M2889.7 747.617H3215.52V1888.1H2889.7V747.617Z" fill="#101010"/>
<path d="M2925.9 783.823H3179.31V1851.89H2925.9V783.823Z" fill="#66AA66"/>
<path d="M3143.11 783.823H3179.31V1851.89H3143.11V783.823Z" fill="#86CA86"/>
<path d="M2925.9 783.823H3179.31V820.029H2925.9V783.823Z" fill="#86CA86"/>
<path d="M2925.9 783.823H2962.1V1851.89H2925.9V783.823Z" fill="#468A46"/>
<path d="M2925.9 1815.69H3179.31V1851.89H2925.9V1815.69Z" fill="#468A46"/>
<path d="M2889.7 1589.4H3215.52V1779.48H2889.7V1589.4Z" fill="#101010"/>
<path d="M2925.9 1625.61H3179.31V1743.27H2925.9V1625.61Z" fill="#EEEE88"/>
<path d="M3143.11 1625.61H3179.31V1743.27H3143.11V1625.61Z" fill="#FFFFCC"/>
<path d="M2925.9 1625.61H2962.1V1743.27H2925.9V1625.61Z" fill="#DDDD68"/>
<path d="M2925.9 1661.81H3179.31V1707.07H2925.9V1661.81Z" fill="#101010"/>
<path d="M2889.7 847.183H3215.52V1037.26H2889.7V847.183Z" fill="#101010"/>
<path d="M2925.9 883.389H3179.31V1001.06H2925.9V883.389Z" fill="#EEEE88"/>
<path d="M3143.11 883.389H3179.31V1001.06H3143.11V883.389Z" fill="#FFFFCC"/>
<path d="M2925.9 883.389H2962.1V1001.06H2925.9V883.389Z" fill="#DDDD68"/>
<path d="M2925.9 919.594H3179.31V964.852H2925.9V919.594Z" fill="#101010"/>
<path d="M3027.01 1207.69C3041.14 1193.55 3064.07 1193.55 3078.2 1207.69L3153.71 1283.2C3167.85 1297.34 3167.85 1320.27 3153.71 1334.41L3078.2 1409.92C3064.07 1424.06 3041.14 1424.06 3027.01 1409.92L2951.5 1334.41C2937.36 1320.27 2937.36 1297.34 2951.5 1283.2L3027.01 1207.69Z" fill="#101010"/>
<path d="M3027.01 1207.69C3041.14 1193.55 3064.07 1193.55 3078.2 1207.69L3153.71 1283.2C3167.85 1297.34 3167.85 1320.27 3153.71 1334.41L3078.2 1409.92C3064.07 1424.06 3041.14 1424.06 3027.01 1409.92L2951.5 1334.41C2937.36 1320.27 2937.36 1297.34 2951.5 1283.2L3027.01 1207.69Z" fill="#101010"/>
<path d="M3027.01 1207.69C3041.14 1193.55 3064.07 1193.55 3078.2 1207.69L3153.71 1283.2C3167.85 1297.34 3167.85 1320.27 3153.71 1334.41L3078.2 1409.92C3064.07 1424.06 3041.14 1424.06 3027.01 1409.92L2951.5 1334.41C2937.36 1320.27 2937.36 1297.34 2951.5 1283.2L3027.01 1207.69Z" fill="#101010"/>
<path d="M3027.01 1207.69C3041.14 1193.55 3064.07 1193.55 3078.2 1207.69L3153.71 1283.2C3167.85 1297.34 3167.85 1320.27 3153.71 1334.41L3078.2 1409.92C3064.07 1424.06 3041.14 1424.06 3027.01 1409.92L2951.5 1334.41C2937.36 1320.27 2937.36 1297.34 2951.5 1283.2L3027.01 1207.69Z" fill="#101010"/>
<path d="M3052.61 1227.34L3134.06 1308.81L3052.61 1390.27L2971.15 1308.81L3052.61 1227.34Z" fill="#EEEE88"/>
<path d="M3088.81 1498.89C3088.81 1518.88 3072.6 1535.09 3052.61 1535.09C3032.61 1535.09 3016.4 1518.88 3016.4 1498.89C3016.4 1478.89 3032.61 1462.68 3052.61 1462.68C3072.6 1462.68 3088.81 1478.89 3088.81 1498.89Z" fill="#101010"/>
<path d="M3088.81 1118.73C3088.81 1138.72 3072.6 1154.93 3052.61 1154.93C3032.61 1154.93 3016.4 1138.72 3016.4 1118.73C3016.4 1098.73 3032.61 1082.52 3052.61 1082.52C3072.6 1082.52 3088.81 1098.73 3088.81 1118.73Z" fill="#101010"/>
<path d="M3070.71 1498.89C3070.71 1508.88 3062.6 1516.99 3052.61 1516.99C3042.61 1516.99 3034.5 1508.88 3034.5 1498.89C3034.5 1488.89 3042.61 1480.78 3052.61 1480.78C3062.6 1480.78 3070.71 1488.89 3070.71 1498.89Z" fill="#EEEE88"/>
<path d="M3070.71 1118.73C3070.71 1128.72 3062.6 1136.83 3052.61 1136.83C3042.61 1136.83 3034.5 1128.72 3034.5 1118.73C3034.5 1108.73 3042.61 1100.62 3052.61 1100.62C3062.6 1100.62 3070.71 1108.73 3070.71 1118.73Z" fill="#EEEE88"/>
<path d="M682.364 3070C700.176 3070 715.742 3071.95 729.065 3075.86C742.387 3079.77 753.103 3083.9 761.212 3088.24C769.321 3092.59 774.245 3095.49 775.983 3096.93L744.704 3149.29C742.387 3147.55 738.405 3145.02 732.757 3141.68C727.255 3138.35 720.666 3135.38 712.991 3132.78C705.461 3130.17 697.569 3128.87 689.315 3128.87C678.165 3128.87 669.114 3130.89 662.163 3134.95C655.358 3138.86 651.955 3144.73 651.955 3152.55C651.955 3157.9 653.765 3162.76 657.385 3167.1C661.15 3171.3 666.797 3175.36 674.327 3179.27C682.002 3183.03 691.704 3187.16 703.434 3191.65C714.15 3195.56 724.214 3200.19 733.626 3205.55C743.039 3210.91 751.293 3217.28 758.388 3224.67C765.629 3231.91 771.349 3240.31 775.548 3249.87C779.748 3259.43 781.847 3270.29 781.847 3282.45C781.847 3296.93 778.879 3309.53 772.942 3320.25C767.005 3330.82 758.895 3339.58 748.614 3346.54C738.477 3353.49 726.893 3358.63 713.86 3361.96C700.972 3365.44 687.577 3367.17 673.676 3367.17C653.982 3367.17 636.315 3364.93 620.676 3360.44C605.182 3355.95 592.656 3351.1 583.098 3345.88C573.541 3340.67 567.821 3337.19 565.939 3335.46L598.303 3280.93C600.041 3282.23 603.371 3284.33 608.295 3287.23C613.363 3290.13 619.518 3293.17 626.758 3296.36C633.998 3299.4 641.673 3302 649.782 3304.18C658.036 3306.35 666.146 3307.43 674.11 3307.43C687.433 3307.43 697.424 3304.9 704.085 3299.83C710.747 3294.62 714.077 3287.81 714.077 3279.41C714.077 3273.18 711.977 3267.61 707.778 3262.68C703.579 3257.76 697.279 3253.13 688.881 3248.78C680.482 3244.29 669.983 3239.58 657.385 3234.66C644.787 3229.59 632.985 3223.44 621.979 3216.2C611.119 3208.95 602.285 3199.9 595.479 3189.04C588.673 3178.18 585.27 3164.71 585.27 3148.64C585.27 3132.56 589.759 3118.66 598.738 3106.93C607.86 3095.05 619.807 3085.93 634.578 3079.55C649.493 3073.18 665.422 3070 682.364 3070Z" fill="#101010"/>
<path d="M1006.48 3246.61H907.427V3361.96H842.697V3075.21H907.427V3189.91H1006.48V3075.21H1070.99V3361.96H1006.48V3246.61Z" fill="#101010"/>
<path d="M1144.26 3075.21H1209.21V3361.96H1144.26V3075.21Z" fill="#101010"/>
<path d="M1374.08 3075.21H1438.59L1551.76 3361.96H1482.46L1461.61 3304.39H1351.27L1330.2 3361.96H1260.69L1374.08 3075.21ZM1372.99 3247.48H1440.11L1406.88 3153.41H1406.22L1372.99 3247.48Z" fill="#101010"/>
<path d="M1837.58 3070C1855.39 3070 1870.95 3071.95 1884.28 3075.86C1897.6 3079.77 1908.32 3083.9 1916.42 3088.24C1924.53 3092.59 1929.46 3095.49 1931.19 3096.93L1899.92 3149.29C1897.6 3147.55 1893.62 3145.02 1887.97 3141.68C1882.47 3138.35 1875.88 3135.38 1868.2 3132.78C1860.67 3130.17 1852.78 3128.87 1844.53 3128.87C1833.38 3128.87 1824.33 3130.89 1817.38 3134.95C1810.57 3138.86 1807.17 3144.73 1807.17 3152.55C1807.17 3157.9 1808.98 3162.76 1812.6 3167.1C1816.36 3171.3 1822.01 3175.36 1829.54 3179.27C1837.21 3183.03 1846.92 3187.16 1858.65 3191.65C1869.36 3195.56 1879.43 3200.19 1888.84 3205.55C1898.25 3210.91 1906.5 3217.28 1913.6 3224.67C1920.84 3231.91 1926.56 3240.31 1930.76 3249.87C1934.96 3259.43 1937.06 3270.29 1937.06 3282.45C1937.06 3296.93 1934.09 3309.53 1928.15 3320.25C1922.22 3330.82 1914.11 3339.58 1903.83 3346.54C1893.69 3353.49 1882.1 3358.63 1869.07 3361.96C1856.18 3365.44 1842.79 3367.17 1828.89 3367.17C1809.19 3367.17 1791.53 3364.93 1775.89 3360.44C1760.39 3355.95 1747.87 3351.1 1738.31 3345.88C1728.75 3340.67 1723.03 3337.19 1721.15 3335.46L1753.52 3280.93C1755.25 3282.23 1758.58 3284.33 1763.51 3287.23C1768.58 3290.13 1774.73 3293.17 1781.97 3296.36C1789.21 3299.4 1796.89 3302 1804.99 3304.18C1813.25 3306.35 1821.36 3307.43 1829.32 3307.43C1842.64 3307.43 1852.64 3304.9 1859.3 3299.83C1865.96 3294.62 1869.29 3287.81 1869.29 3279.41C1869.29 3273.18 1867.19 3267.61 1862.99 3262.68C1858.79 3257.76 1852.49 3253.13 1844.09 3248.78C1835.69 3244.29 1825.2 3239.58 1812.6 3234.66C1800 3229.59 1788.2 3223.44 1777.19 3216.2C1766.33 3208.95 1757.5 3199.9 1750.69 3189.04C1743.89 3178.18 1740.48 3164.71 1740.48 3148.64C1740.48 3132.56 1744.97 3118.66 1753.95 3106.93C1763.07 3095.05 1775.02 3085.93 1789.79 3079.55C1804.7 3073.18 1820.63 3070 1837.58 3070Z" fill="#101010"/>
<path d="M2161.69 3246.61H2062.64V3361.96H1997.91V3075.21H2062.64V3189.91H2161.69V3075.21H2226.2V3361.96H2161.69V3246.61Z" fill="#101010"/>
<path d="M2297.09 3075.21H2480.19V3132.13H2361.81V3190.56H2479.11V3245.74H2361.81V3305.04H2480.19V3361.96H2297.09V3075.21Z" fill="#101010"/>
<path d="M2552.6 3075.21H2617.55V3305.04H2721.6V3361.96H2552.6V3075.21Z" fill="#101010"/>
<path d="M2919.53 3361.96H2846.11L2744.02 3075.21H2817.22L2882.82 3279.19L2948.42 3075.21H3021.62L2919.53 3361.96Z" fill="#101010"/>
<path d="M3075.4 3075.21H3258.51V3132.13H3140.13V3190.56H3257.42V3245.74H3140.13V3305.04H3258.51V3361.96H3075.4V3075.21Z" fill="#101010"/>
<path d="M3433.66 3070C3451.47 3070 3467.04 3071.95 3480.36 3075.86C3493.68 3079.77 3504.4 3083.9 3512.51 3088.24C3520.62 3092.59 3525.54 3095.49 3527.28 3096.93L3496 3149.29C3493.68 3147.55 3489.7 3145.02 3484.05 3141.68C3478.55 3138.35 3471.96 3135.38 3464.29 3132.78C3456.76 3130.17 3448.87 3128.87 3440.61 3128.87C3429.46 3128.87 3420.41 3130.89 3413.46 3134.95C3406.65 3138.86 3403.25 3144.73 3403.25 3152.55C3403.25 3157.9 3405.06 3162.76 3408.68 3167.1C3412.45 3171.3 3418.09 3175.36 3425.62 3179.27C3433.3 3183.03 3443 3187.16 3454.73 3191.65C3465.45 3195.56 3475.51 3200.19 3484.92 3205.55C3494.34 3210.91 3502.59 3217.28 3509.69 3224.67C3516.93 3231.91 3522.65 3240.31 3526.85 3249.87C3531.04 3259.43 3533.14 3270.29 3533.14 3282.45C3533.14 3296.93 3530.18 3309.53 3524.24 3320.25C3518.3 3330.82 3510.19 3339.58 3499.91 3346.54C3489.77 3353.49 3478.19 3358.63 3465.16 3361.96C3452.27 3365.44 3438.87 3367.17 3424.97 3367.17C3405.28 3367.17 3387.61 3364.93 3371.97 3360.44C3356.48 3355.95 3343.95 3351.1 3334.4 3345.88C3324.84 3340.67 3319.12 3337.19 3317.24 3335.46L3349.6 3280.93C3351.34 3282.23 3354.67 3284.33 3359.59 3287.23C3364.66 3290.13 3370.81 3293.17 3378.05 3296.36C3385.3 3299.4 3392.97 3302 3401.08 3304.18C3409.33 3306.35 3417.44 3307.43 3425.41 3307.43C3438.73 3307.43 3448.72 3304.9 3455.38 3299.83C3462.04 3294.62 3465.37 3287.81 3465.37 3279.41C3465.37 3273.18 3463.27 3267.61 3459.08 3262.68C3454.88 3257.76 3448.58 3253.13 3440.18 3248.78C3431.78 3244.29 3421.28 3239.58 3408.68 3234.66C3396.08 3229.59 3384.28 3223.44 3373.28 3216.2C3362.42 3208.95 3353.58 3199.9 3346.78 3189.04C3339.97 3178.18 3336.57 3164.71 3336.57 3148.64C3336.57 3132.56 3341.06 3118.66 3350.03 3106.93C3359.16 3095.05 3371.1 3085.93 3385.87 3079.55C3400.79 3073.18 3416.72 3070 3433.66 3070Z" fill="#101010"/>
<path d="M1191.86 2924.67C1180.47 2924.67 1169.66 2923.22 1159.43 2920.32C1149.19 2917.43 1140.21 2913.18 1132.49 2907.58C1124.77 2901.79 1118.69 2894.64 1114.25 2886.14C1109.8 2877.46 1107.58 2867.41 1107.58 2856.02C1107.58 2843.08 1110.48 2831.69 1116.27 2821.84C1122.26 2811.8 1130.46 2803.4 1140.89 2796.64C1151.32 2789.89 1163.48 2784.67 1177.38 2781C1191.48 2777.14 1206.63 2774.92 1222.85 2774.34L1224.59 2818.95C1214.16 2819.33 1204.51 2820.49 1195.63 2822.42C1186.94 2824.16 1179.31 2826.67 1172.75 2829.95C1166.18 2833.04 1161.07 2836.81 1157.4 2841.25C1153.92 2845.69 1152.19 2850.71 1152.19 2856.31C1152.19 2861.33 1153.73 2865.68 1156.82 2869.35C1159.91 2872.82 1164.45 2875.43 1170.43 2877.17C1176.42 2878.9 1183.46 2879.77 1191.57 2879.77C1198.52 2879.77 1204.99 2879.1 1210.98 2877.75C1217.16 2876.39 1222.95 2874.46 1228.35 2871.95L1247.76 2912.21C1239.26 2916.27 1230.19 2919.36 1220.53 2921.48C1210.88 2923.61 1201.32 2924.67 1191.86 2924.67ZM1291.49 2936.54C1276.04 2936.54 1262.92 2933.65 1252.1 2927.85C1241.48 2921.87 1233.37 2913.28 1227.78 2902.08C1222.18 2890.68 1219.38 2876.97 1219.38 2860.95V2765.36H1263.98V2860.95C1263.98 2867.12 1264.65 2872.05 1266 2875.72C1267.55 2879.19 1270.25 2881.61 1274.11 2882.96C1278.17 2884.31 1283.96 2884.99 1291.49 2884.99H1302.21V2936.54H1291.49ZM1302.21 2936.54V2884.99C1303.94 2884.99 1305.3 2887.3 1306.26 2891.94C1307.42 2896.57 1308 2902.75 1308 2910.48C1308 2918.39 1307.42 2924.76 1306.26 2929.59C1305.3 2934.23 1303.94 2936.54 1302.21 2936.54ZM1208.95 2738.72C1202.96 2738.72 1197.94 2736.78 1193.89 2732.92C1190.03 2728.87 1188.1 2723.85 1188.1 2717.86C1188.1 2711.68 1190.03 2706.66 1193.89 2702.8C1197.94 2698.94 1202.96 2697.01 1208.95 2697.01C1214.94 2697.01 1219.86 2698.94 1223.72 2702.8C1227.78 2706.66 1229.8 2711.68 1229.8 2717.86C1229.8 2723.85 1227.78 2728.87 1223.72 2732.92C1219.86 2736.78 1214.94 2738.72 1208.95 2738.72ZM1161.16 2738.72C1155.18 2738.72 1150.16 2736.78 1146.1 2732.92C1142.24 2728.87 1140.31 2723.85 1140.31 2717.86C1140.31 2711.68 1142.24 2706.66 1146.1 2702.8C1150.16 2698.94 1155.18 2697.01 1161.16 2697.01C1167.34 2697.01 1172.36 2698.94 1176.22 2702.8C1180.09 2706.66 1182.02 2711.68 1182.02 2717.86C1182.02 2723.85 1180.09 2728.87 1176.22 2732.92C1172.36 2736.78 1167.34 2738.72 1161.16 2738.72Z" fill="#101010"/>
<path d="M1302.18 2936.54V2884.99H1369.08C1375.26 2884.99 1381.83 2884.12 1388.78 2882.38C1395.92 2880.64 1402.97 2878.32 1409.92 2875.43C1416.87 2872.53 1423.14 2869.35 1428.74 2865.87C1434.54 2862.39 1439.07 2859.01 1442.36 2855.73C1445.83 2852.26 1447.57 2849.26 1447.57 2846.75C1447.57 2843.86 1445.64 2841.15 1441.78 2838.64C1437.92 2836.13 1432.41 2834.01 1425.27 2832.27C1418.32 2830.53 1410.31 2829.66 1401.23 2829.66C1393.51 2829.66 1386.17 2830.34 1379.22 2831.69C1372.46 2833.04 1365.51 2835.07 1358.37 2837.77L1349.1 2848.2L1323.32 2835.17L1350.26 2791.14C1357.98 2788.63 1366.28 2786.51 1375.17 2784.77C1384.24 2783.03 1394.18 2782.16 1405 2782.16C1422.37 2782.16 1437.53 2784.48 1450.47 2789.11C1463.59 2793.55 1473.83 2799.83 1481.16 2807.94C1488.5 2815.86 1492.17 2825.32 1492.17 2836.33C1492.17 2845.4 1489.66 2854.19 1484.64 2862.68C1479.81 2871.18 1473.25 2879.1 1464.95 2886.43C1456.84 2893.77 1447.57 2900.53 1437.14 2906.71C1426.72 2912.89 1416 2918.2 1405 2922.64C1393.99 2927.08 1383.18 2930.56 1372.56 2933.07C1362.13 2935.38 1352.67 2936.54 1344.18 2936.54H1302.18ZM1462.05 2936.54C1438.69 2936.54 1417.55 2932.39 1398.62 2924.09C1379.9 2915.59 1364.06 2903.72 1351.13 2888.46C1338.19 2873.21 1328.92 2855.44 1323.32 2835.17L1356.92 2818.08C1359.24 2831.59 1363.87 2843.37 1370.82 2853.41C1377.96 2863.46 1387.04 2871.28 1398.04 2876.88C1409.05 2882.28 1421.21 2884.99 1434.54 2884.99H1518.81V2936.54H1462.05ZM1518.81 2936.54V2884.99C1520.55 2884.99 1521.9 2887.3 1522.87 2891.94C1524.03 2896.57 1524.61 2902.75 1524.61 2910.48C1524.61 2918.39 1524.03 2924.76 1522.87 2929.59C1521.9 2934.23 1520.55 2936.54 1518.81 2936.54ZM1302.18 2936.54C1300.44 2936.54 1299.09 2934.23 1298.13 2929.59C1296.97 2924.76 1296.39 2918.39 1296.39 2910.48C1296.39 2902.75 1296.97 2896.57 1298.13 2891.94C1299.09 2887.3 1300.44 2884.99 1302.18 2884.99V2936.54Z" fill="#101010"/>
<path d="M1518.83 2936.54V2884.99H1534.76C1542.48 2884.99 1548.27 2884.31 1552.13 2882.96C1556 2881.61 1558.7 2879.19 1560.24 2875.72C1561.79 2872.05 1562.56 2867.12 1562.56 2860.95V2787.95H1606.87V2860.95C1606.87 2876.97 1604.07 2890.59 1598.47 2901.79C1592.87 2912.99 1584.67 2921.58 1573.86 2927.56C1563.24 2933.36 1550.2 2936.35 1534.76 2936.54H1518.83ZM1634.67 2936.54C1619.04 2936.54 1605.91 2933.65 1595.29 2927.85C1584.67 2921.87 1576.56 2913.28 1570.96 2902.08C1565.36 2890.68 1562.56 2876.97 1562.56 2860.95H1606.87C1606.87 2867.12 1607.55 2872.05 1608.9 2875.72C1610.44 2879.19 1613.24 2881.61 1617.3 2882.96C1621.35 2884.31 1627.14 2884.99 1634.67 2884.99H1645.1V2936.54H1634.67ZM1645.1 2936.54V2884.99C1646.84 2884.99 1648.19 2887.3 1649.16 2891.94C1650.31 2896.57 1650.89 2902.75 1650.89 2910.48C1650.89 2918.39 1650.31 2924.76 1649.16 2929.59C1648.19 2934.23 1646.84 2936.54 1645.1 2936.54ZM1518.83 2936.54C1517.09 2936.54 1515.74 2934.23 1514.77 2929.59C1513.62 2924.76 1513.04 2918.39 1513.04 2910.48C1513.04 2902.75 1513.62 2896.57 1514.77 2891.94C1515.74 2887.3 1517.09 2884.99 1518.83 2884.99V2936.54ZM1606 3006.64C1600.02 3006.64 1595 3004.61 1590.94 3000.55C1587.08 2996.69 1585.15 2991.87 1585.15 2986.07C1585.15 2979.89 1587.08 2974.78 1590.94 2970.72C1595 2966.86 1600.02 2964.93 1606 2964.93C1611.99 2964.93 1616.91 2966.86 1620.77 2970.72C1624.83 2974.78 1626.86 2979.89 1626.86 2986.07C1626.86 2991.87 1624.83 2996.69 1620.77 3000.55C1616.91 3004.61 1611.99 3006.64 1606 3006.64ZM1558.22 3006.64C1552.23 3006.64 1547.21 3004.61 1543.16 3000.55C1539.29 2996.69 1537.36 2991.87 1537.36 2986.07C1537.36 2979.89 1539.29 2974.78 1543.16 2970.72C1547.21 2966.86 1552.23 2964.93 1558.22 2964.93C1564.2 2964.93 1569.12 2966.86 1572.99 2970.72C1577.04 2974.78 1579.07 2979.89 1579.07 2986.07C1579.07 2991.87 1577.04 2996.69 1572.99 3000.55C1569.12 3004.61 1564.2 3006.64 1558.22 3006.64Z" fill="#101010"/>
<path d="M1942.7 2936.54C1927.25 2936.54 1914.12 2933.65 1903.31 2927.85C1892.69 2921.87 1884.58 2913.28 1878.98 2902.08C1873.38 2890.68 1870.58 2876.97 1870.58 2860.95H1915.18C1915.18 2867.12 1915.86 2872.05 1917.21 2875.72C1918.75 2879.19 1921.46 2881.61 1925.32 2882.96C1929.37 2884.31 1935.16 2884.99 1942.7 2884.99H1953.41V2936.54H1942.7ZM1644.97 2936.54C1643.23 2936.54 1641.88 2934.23 1640.92 2929.59C1639.76 2924.76 1639.18 2918.39 1639.18 2910.48C1639.18 2902.75 1639.76 2896.57 1640.92 2891.94C1641.88 2887.3 1643.23 2884.99 1644.97 2884.99V2936.54ZM1855.23 2936.54C1846.16 2936.54 1837.37 2934.52 1828.88 2930.46C1820.38 2926.41 1813.14 2920.03 1807.15 2911.34C1801.36 2902.65 1797.89 2891.65 1796.73 2878.32L1822.21 2865C1822.99 2872.15 1825.79 2877.55 1830.61 2881.22C1835.63 2884.89 1840.94 2886.72 1846.54 2886.72C1852.72 2886.72 1858.22 2884.6 1863.05 2880.35C1868.07 2876.1 1870.58 2869.64 1870.58 2860.95V2787.95H1915.18V2868.19C1915.18 2883.83 1912.19 2896.77 1906.2 2907C1900.41 2917.04 1892.98 2924.47 1883.9 2929.3C1874.83 2934.13 1865.27 2936.54 1855.23 2936.54ZM1644.97 2936.54V2884.99H1660.9C1668.43 2884.99 1674.12 2884.31 1677.99 2882.96C1682.04 2881.61 1684.74 2879.19 1686.1 2875.72C1687.64 2872.05 1688.41 2867.12 1688.41 2860.95V2816.34H1733.01V2860.95C1733.01 2876.97 1730.21 2890.68 1724.61 2902.08C1719.01 2913.28 1710.81 2921.87 1700 2927.85C1689.38 2933.65 1676.34 2936.54 1660.9 2936.54H1644.97ZM1764.58 2936.54C1755.31 2936.54 1746.43 2934.52 1737.94 2930.46C1729.63 2926.41 1722.49 2920.03 1716.5 2911.34C1710.71 2902.65 1707.14 2891.65 1705.79 2878.32L1731.56 2865C1732.34 2872.15 1735.14 2877.55 1739.96 2881.22C1744.79 2884.89 1750 2886.72 1755.6 2886.72C1761.78 2886.72 1767.28 2884.6 1772.11 2880.35C1777.13 2876.1 1779.64 2869.64 1779.64 2860.95V2802.15H1824.24V2868.19C1824.24 2883.83 1821.35 2896.77 1815.55 2907C1809.76 2917.04 1802.33 2924.47 1793.25 2929.3C1784.18 2934.13 1774.62 2936.54 1764.58 2936.54ZM1953.41 2936.54V2884.99C1955.15 2884.99 1956.5 2887.3 1957.47 2891.94C1958.62 2896.57 1959.2 2902.75 1959.2 2910.48C1959.2 2918.39 1958.62 2924.76 1957.47 2929.59C1956.5 2934.23 1955.15 2936.54 1953.41 2936.54ZM1801.65 2675.57C1807.64 2675.57 1812.46 2677.5 1816.13 2681.37C1819.99 2685.23 1821.93 2690.05 1821.93 2695.85C1821.93 2701.83 1819.99 2706.76 1816.13 2710.62C1812.46 2714.29 1807.64 2716.12 1801.65 2716.12C1795.86 2716.12 1791.03 2714.29 1787.17 2710.62C1783.31 2706.76 1781.38 2701.83 1781.38 2695.85C1781.38 2690.05 1783.31 2685.23 1787.17 2681.37C1791.03 2677.5 1795.86 2675.57 1801.65 2675.57ZM1825.69 2717.57C1831.68 2717.57 1836.6 2719.5 1840.46 2723.36C1844.52 2727.23 1846.54 2732.15 1846.54 2738.14C1846.54 2744.31 1844.52 2749.43 1840.46 2753.49C1836.6 2757.35 1831.68 2759.28 1825.69 2759.28C1819.7 2759.28 1814.68 2757.35 1810.63 2753.49C1806.77 2749.43 1804.84 2744.31 1804.84 2738.14C1804.84 2732.15 1806.77 2727.23 1810.63 2723.36C1814.68 2719.5 1819.7 2717.57 1825.69 2717.57ZM1777.9 2717.57C1783.89 2717.57 1788.81 2719.5 1792.67 2723.36C1796.73 2727.23 1798.76 2732.15 1798.76 2738.14C1798.76 2744.31 1796.73 2749.43 1792.67 2753.49C1788.81 2757.35 1783.89 2759.28 1777.9 2759.28C1771.92 2759.28 1766.9 2757.35 1762.84 2753.49C1758.98 2749.43 1757.05 2744.31 1757.05 2738.14C1757.05 2732.15 1758.98 2727.23 1762.84 2723.36C1766.9 2719.5 1771.92 2717.57 1777.9 2717.57Z" fill="#101010"/>
<path d="M1953.54 2936.54V2884.99H1994.66V2685.71H2039.26V2936.54H1953.54ZM1953.54 2936.54C1951.8 2936.54 1950.45 2934.23 1949.48 2929.59C1948.32 2924.76 1947.74 2918.39 1947.74 2910.48C1947.74 2902.75 1948.32 2896.57 1949.48 2891.94C1950.45 2887.3 1951.8 2884.99 1953.54 2884.99V2936.54Z" fill="#101010"/>
<path d="M2076.22 2936.54V2685.71H2120.82V2936.54H2076.22Z" fill="#101010"/>
<path d="M2415.15 2884.99V2936.54H2326.82C2310.8 2936.54 2296.8 2934.23 2284.83 2929.59C2273.05 2924.96 2263.3 2918.78 2255.58 2911.05C2248.05 2903.14 2242.35 2894.16 2238.49 2884.12C2234.82 2874.08 2232.99 2863.65 2232.99 2852.84C2232.99 2842.6 2234.53 2832.37 2237.62 2822.13C2240.71 2811.9 2245.25 2802.15 2251.23 2792.88L2285.99 2808.52C2282.7 2815.28 2280.19 2821.75 2278.46 2827.93C2276.91 2834.11 2276.14 2839.99 2276.14 2845.59C2276.14 2853.7 2277.88 2860.75 2281.35 2866.74C2285.02 2872.53 2290.52 2877.07 2297.86 2880.35C2305.2 2883.44 2314.46 2884.99 2325.66 2884.99H2415.15ZM2340.43 2936.54C2338.5 2936.54 2337.05 2934.23 2336.09 2929.59C2335.12 2924.76 2334.64 2918.39 2334.64 2910.48C2334.64 2902.75 2335.12 2896.57 2336.09 2891.94C2337.05 2887.3 2338.5 2884.99 2340.43 2884.99V2936.54ZM2340.43 2936.54V2884.99H2471.63V2796.35H2515.94V2936.54H2340.43ZM2417.47 2934.23C2408.98 2930.94 2401.25 2925.83 2394.3 2918.87C2387.54 2911.92 2382.14 2903.52 2378.08 2893.68C2374.03 2883.63 2372 2872.92 2372 2861.53C2372 2845.3 2375.67 2831.21 2383.01 2819.24C2390.54 2807.07 2400.58 2797.61 2413.13 2790.85C2425.68 2783.9 2439.48 2780.42 2454.54 2780.42C2465.93 2780.42 2476.94 2782.16 2487.56 2785.64C2498.18 2788.92 2507.64 2792.49 2515.94 2796.35L2497.69 2841.25C2489.2 2837.39 2481.09 2834.49 2473.37 2832.56C2465.84 2830.63 2458.69 2829.66 2451.94 2829.66C2443.83 2829.66 2436.78 2831.11 2430.79 2834.01C2424.81 2836.71 2420.17 2840.48 2416.89 2845.3C2413.61 2850.13 2411.97 2855.54 2411.97 2861.53C2411.97 2869.06 2413.8 2876.2 2417.47 2882.96C2421.33 2889.52 2426.35 2894.45 2432.53 2897.73L2417.47 2934.23ZM2445.85 2746.83C2438.52 2746.83 2432.43 2744.41 2427.61 2739.58C2422.78 2734.76 2420.37 2728.67 2420.37 2721.34C2420.37 2713.81 2422.78 2707.72 2427.61 2703.09C2432.43 2698.26 2438.52 2695.85 2445.85 2695.85C2453.38 2695.85 2459.47 2698.26 2464.1 2703.09C2468.93 2707.72 2471.34 2713.81 2471.34 2721.34C2471.34 2728.67 2468.93 2734.76 2464.1 2739.58C2459.47 2744.41 2453.38 2746.83 2445.85 2746.83Z" fill="#101010"/>
<path d="M2677.6 2936.54V2884.99H2721.33V2936.54H2677.6ZM2721.33 2936.54V2884.99C2723.07 2884.99 2724.42 2887.3 2725.38 2891.94C2726.54 2896.57 2727.12 2902.75 2727.12 2910.48C2727.12 2918.39 2726.54 2924.76 2725.38 2929.59C2724.42 2934.23 2723.07 2936.54 2721.33 2936.54ZM2555.96 3018.8V2967.25H2607.51C2620.83 2967.25 2630.1 2965.12 2635.31 2960.87C2640.53 2956.82 2643.13 2950.74 2643.13 2942.63V2796.35H2687.44V2942.63C2687.44 2958.27 2684.16 2971.78 2677.6 2983.18C2671.03 2994.76 2661.76 3003.55 2649.79 3009.53C2637.82 3015.71 2623.73 3018.8 2607.51 3018.8H2555.96ZM2625.75 2936.54C2609.15 2936.54 2594.67 2933.07 2582.31 2926.12C2569.96 2919.16 2560.4 2909.9 2553.64 2898.31C2546.88 2886.53 2543.5 2873.59 2543.5 2859.5C2543.5 2848.1 2545.63 2837.68 2549.88 2828.22C2554.12 2818.56 2560.01 2810.26 2567.54 2803.31C2575.27 2796.16 2584.15 2790.56 2594.19 2786.51C2604.23 2782.45 2614.94 2780.42 2626.33 2780.42C2637.53 2780.42 2648.44 2782.16 2659.06 2785.64C2669.68 2788.92 2679.14 2792.49 2687.44 2796.35L2669.2 2842.12C2652.98 2832.85 2638.69 2828.22 2626.33 2828.22C2618.61 2828.22 2611.85 2829.76 2606.06 2832.85C2600.46 2835.75 2596.02 2839.61 2592.74 2844.44C2589.65 2849.26 2588.1 2854.38 2588.1 2859.79C2588.1 2864.81 2589.55 2869.54 2592.45 2873.98C2595.34 2878.42 2599.59 2881.99 2605.19 2884.7C2610.98 2887.4 2617.84 2888.75 2625.75 2888.75H2671.8V2936.54H2625.75Z" fill="#101010"/>
<path d="M2721.41 2936.54V2884.99H2852.61V2796.35H2897.21V2936.54H2721.41ZM2798.74 2934.23C2790.05 2930.94 2782.23 2925.83 2775.28 2918.87C2768.52 2911.92 2763.12 2903.52 2759.06 2893.68C2755.2 2883.63 2753.27 2872.92 2753.27 2861.53C2753.27 2845.3 2756.94 2831.21 2764.28 2819.24C2771.81 2807.07 2781.85 2797.61 2794.4 2790.85C2806.95 2783.9 2820.75 2780.42 2835.81 2780.42C2847.2 2780.42 2858.21 2782.16 2868.83 2785.64C2879.45 2788.92 2888.91 2792.49 2897.21 2796.35L2878.97 2841.25C2870.28 2837.39 2862.07 2834.49 2854.35 2832.56C2846.82 2830.63 2839.77 2829.66 2833.21 2829.66C2824.9 2829.66 2817.76 2831.11 2811.77 2834.01C2805.79 2836.71 2801.16 2840.48 2797.87 2845.3C2794.78 2850.13 2793.24 2855.54 2793.24 2861.53C2793.24 2869.06 2795.07 2876.2 2798.74 2882.96C2802.41 2889.52 2807.43 2894.45 2813.8 2897.73L2798.74 2934.23ZM2721.41 2936.54C2719.68 2936.54 2718.32 2934.23 2717.36 2929.59C2716.2 2924.76 2715.62 2918.39 2715.62 2910.48C2715.62 2902.75 2716.2 2896.57 2717.36 2891.94C2718.32 2887.3 2719.68 2884.99 2721.41 2884.99V2936.54ZM2835.81 2746.83C2828.48 2746.83 2822.39 2744.41 2817.57 2739.58C2812.74 2734.76 2810.33 2728.67 2810.33 2721.34C2810.33 2713.81 2812.74 2707.72 2817.57 2703.09C2822.39 2698.26 2828.48 2695.85 2835.81 2695.85C2843.34 2695.85 2849.42 2698.26 2854.06 2703.09C2858.89 2707.72 2861.3 2713.81 2861.3 2721.34C2861.3 2728.67 2858.89 2734.76 2854.06 2739.58C2849.42 2744.41 2843.34 2746.83 2835.81 2746.83Z" fill="#101010"/>
<path d="M2910.63 2969.27C2920.47 2969.08 2928.1 2968.02 2933.51 2966.09C2939.11 2964.16 2943.06 2961.16 2945.38 2957.11C2947.7 2953.25 2948.86 2948.32 2948.86 2942.34V2787.95H2993.46V2942.34C2993.46 2957.4 2990.37 2970.53 2984.19 2981.73C2978.2 2992.93 2969.61 3001.62 2958.41 3007.8C2947.41 3014.17 2934.28 3017.74 2919.02 3018.51L2910.63 2969.27Z" fill="#101010"/>
<path fill-rule="evenodd" clip-rule="evenodd" d="M545.616 3429.85L3568.48 3429.85V3457L545.616 3457V3429.85Z" fill="#101010"/>
</svg>
