<svg width="512" height="512" viewBox="0 0 512 512" fill="none" xmlns="http://www.w3.org/2000/svg">
<path d="M374.403 321.027C370.905 326.987 362.29 326.987 358.792 321.027L338.539 286.517C337.441 284.647 335.709 283.233 333.657 282.532L315.317 276.271C305.041 272.763 308.526 257.436 319.309 258.717L365.53 264.208C366.239 264.292 366.956 264.292 367.665 264.208L413.886 258.717C424.669 257.436 428.154 272.763 417.877 276.271L399.538 282.532C397.486 283.233 395.754 284.647 394.656 286.517L374.403 321.027Z" fill="#7A4D40"/>
<path d="M366.597 264.271C366.241 264.271 365.884 264.25 365.53 264.208L319.309 258.717C308.526 257.436 305.041 272.763 315.317 276.271L333.657 282.532C335.709 283.233 337.441 284.647 338.539 286.517L358.792 321.027C360.541 324.007 363.569 325.497 366.597 325.497V311.975L348.296 280.79C346.112 277.069 342.813 274.152 338.886 272.436L364.195 275.443C364.993 275.538 365.795 275.585 366.597 275.585V264.271Z" fill="#4A2D20"/>
<path d="M366.597 325.497C369.626 325.497 372.654 324.007 374.403 321.027L394.656 286.517C395.754 284.647 397.486 283.233 399.538 282.532L417.877 276.271C428.154 272.763 424.669 257.436 413.886 258.717L367.665 264.208C367.31 264.25 366.954 264.271 366.597 264.271V275.585C367.4 275.585 368.202 275.538 368.999 275.443L394.308 272.436C390.382 274.152 387.083 277.069 384.899 280.79L366.597 311.975V325.497Z" fill="#9A6D60"/>
<path d="M373.671 297.51C370.501 301.343 362.694 301.343 359.524 297.51L341.17 275.317C340.176 274.114 338.606 273.205 336.746 272.754L320.126 268.728C313.247 267.061 313.173 261.246 317.544 258.654C318.108 258.625 318.697 258.644 319.309 258.717L365.53 264.208C366.239 264.292 366.956 264.292 367.665 264.208L413.886 258.717C414.498 258.644 415.087 258.625 415.65 258.654C420.022 261.246 419.948 267.061 413.068 268.728L396.448 272.754C394.589 273.205 393.019 274.114 392.025 275.317L373.671 297.51Z" fill="#7A4D40"/>
<path fill-rule="evenodd" clip-rule="evenodd" d="M344.393 283.08L364.646 317.591C365.52 319.081 367.674 319.081 368.549 317.591L388.802 283.08C390.723 279.808 393.754 277.334 397.345 276.108L415.685 269.846C416.603 269.533 416.894 269.114 417.028 268.845C417.213 268.472 417.315 267.886 417.16 267.203C417.005 266.52 416.659 266.036 416.331 265.78C416.093 265.595 415.651 265.343 414.687 265.458L368.466 270.949C367.225 271.096 365.97 271.096 364.729 270.949L318.508 265.458C317.544 265.343 317.102 265.595 316.864 265.78C316.536 266.036 316.19 266.52 316.035 267.203C315.88 267.886 315.982 268.472 316.167 268.845C316.301 269.114 316.592 269.533 317.51 269.846L335.85 276.108C339.441 277.334 342.472 279.808 344.393 283.08ZM358.792 321.027C362.29 326.987 370.905 326.987 374.403 321.027L394.656 286.517C395.754 284.647 397.486 283.233 399.538 282.532L417.877 276.271C428.154 272.763 424.669 257.436 413.886 258.717L367.665 264.208C366.956 264.292 366.239 264.292 365.53 264.208L319.309 258.717C308.526 257.436 305.041 272.763 315.317 276.271L333.657 282.532C335.709 283.233 337.441 284.647 338.539 286.517L358.792 321.027Z" fill="#101010"/>
<path d="M353.293 262.035C353.293 259.536 355.319 257.509 357.818 257.509H375.919C378.418 257.509 380.444 259.536 380.444 262.035V323.132C380.444 325.632 378.418 327.658 375.919 327.658H357.818C355.319 327.658 353.293 325.632 353.293 323.132V262.035Z" fill="#101010"/>
<path d="M361.212 265.429H372.525V319.738H361.212V265.429Z" fill="#7A4D40"/>
<path d="M361.212 265.429H365.737V319.738H361.212V265.429Z" fill="#4A2D20"/>
<path d="M361.212 308.424H372.525V319.738H361.212V308.424Z" fill="#4A2D20"/>
<path d="M363.475 265.429L372.525 265.429V317.475H366.869C364.994 317.475 363.475 315.955 363.475 314.081V265.429Z" fill="#7A4D40"/>
<path d="M370.263 265.429L372.525 265.429V319.738L370.263 319.738V265.429Z" fill="#9A6D60"/>
<path d="M151.534 321.027C148.037 326.987 139.421 326.987 135.923 321.027L115.67 286.517C114.573 284.647 112.84 283.233 110.789 282.532L92.4488 276.271C82.1727 272.763 85.6577 257.436 96.4403 258.717L142.661 264.208C143.37 264.292 144.087 264.292 144.796 264.208L191.017 258.717C201.8 257.436 205.285 272.763 195.009 276.271L176.669 282.532C174.617 283.233 172.885 284.647 171.787 286.517L151.534 321.027Z" fill="#7A4D40"/>
<path d="M143.729 264.271C143.372 264.271 143.016 264.25 142.661 264.208L96.4403 258.717C85.6577 257.436 82.1727 272.763 92.4488 276.271L110.789 282.532C112.84 283.233 114.573 284.647 115.67 286.517L135.923 321.027C137.672 324.007 140.7 325.497 143.729 325.497V311.975L125.427 280.79C123.244 277.069 119.944 274.152 116.018 272.436L141.327 275.443C142.125 275.538 142.927 275.585 143.729 275.585V264.271Z" fill="#4A2D20"/>
<path d="M143.729 325.497C146.757 325.497 149.785 324.007 151.534 321.027L171.787 286.517C172.885 284.647 174.617 283.233 176.669 282.532L195.009 276.271C205.285 272.763 201.8 257.436 191.017 258.717L144.796 264.208C144.442 264.25 144.085 264.271 143.729 264.271V275.585C144.531 275.585 145.333 275.538 146.131 275.443L171.44 272.436C167.514 274.152 164.214 277.069 162.031 280.79L143.729 311.975V325.497Z" fill="#9A6D60"/>
<path d="M150.802 297.51C147.633 301.343 139.825 301.343 136.655 297.51L118.301 275.317C117.307 274.114 115.737 273.205 113.878 272.754L97.2578 268.728C90.3779 267.061 90.3045 261.246 94.6758 258.654C95.2396 258.625 95.8282 258.644 96.4403 258.717L142.661 264.208C143.37 264.292 144.087 264.292 144.796 264.208L191.017 258.717C191.629 258.644 192.218 258.625 192.782 258.654C197.153 261.246 197.08 267.061 190.2 268.728L173.58 272.754C171.72 273.205 170.151 274.114 169.156 275.317L150.802 297.51Z" fill="#7A4D40"/>
<path fill-rule="evenodd" clip-rule="evenodd" d="M121.524 283.08L141.777 317.591C142.652 319.081 144.806 319.081 145.68 317.591L165.933 283.08C167.854 279.808 170.885 277.334 174.476 276.108L192.816 269.846C193.735 269.533 194.025 269.114 194.159 268.845C194.344 268.472 194.446 267.886 194.291 267.203C194.136 266.52 193.79 266.036 193.462 265.78C193.225 265.595 192.782 265.343 191.818 265.458L145.597 270.949C144.356 271.096 143.102 271.096 141.861 270.949L95.6396 265.458C94.6756 265.343 94.2329 265.595 93.9957 265.78C93.6672 266.036 93.3217 266.52 93.1664 267.203C93.0112 267.886 93.1133 268.472 93.2987 268.845C93.4327 269.114 93.723 269.533 94.6417 269.846L112.982 276.108C116.572 277.334 119.604 279.808 121.524 283.08ZM135.923 321.027C139.421 326.987 148.037 326.987 151.534 321.027L171.787 286.517C172.885 284.647 174.617 283.233 176.669 282.532L195.009 276.271C205.285 272.763 201.8 257.436 191.017 258.717L144.796 264.208C144.087 264.292 143.37 264.292 142.661 264.208L96.4403 258.717C85.6577 257.436 82.1727 272.763 92.4488 276.271L110.789 282.532C112.84 283.233 114.573 284.647 115.67 286.517L135.923 321.027Z" fill="#101010"/>
<path d="M130.424 262.035C130.424 259.536 132.45 257.509 134.949 257.509H153.051C155.55 257.509 157.576 259.536 157.576 262.035V323.132C157.576 325.632 155.55 327.658 153.051 327.658H134.949C132.45 327.658 130.424 325.632 130.424 323.132V262.035Z" fill="#101010"/>
<path d="M138.343 265.429H149.657V319.738H138.343V265.429Z" fill="#7A4D40"/>
<path d="M138.343 265.429H142.869V319.738H138.343V265.429Z" fill="#4A2D20"/>
<path d="M138.343 308.424H149.657V319.738H138.343V308.424Z" fill="#4A2D20"/>
<path d="M140.606 265.429L149.657 265.429V317.475H144C142.126 317.475 140.606 315.955 140.606 314.081V265.429Z" fill="#7A4D40"/>
<path d="M147.394 265.429L149.657 265.429V319.738L147.394 319.738V265.429Z" fill="#9A6D60"/>
<path d="M32 240.538C32 238.038 34.026 236.012 36.5253 236.012H475.475C477.974 236.012 480 238.038 480 240.538V263.167C480 265.666 477.974 267.692 475.475 267.692H36.5253C34.026 267.692 32 265.666 32 263.167V240.538Z" fill="#101010"/>
<path d="M38.7879 242.801H473.212V260.904H38.7879V242.801Z" fill="#7A4D40"/>
<path d="M38.7879 254.115H473.212V260.904H38.7879V254.115Z" fill="#4A2D20"/>
<path d="M38.7879 242.801H48.9697V260.904H38.7879V242.801Z" fill="#4A2D20"/>
<path d="M45.5758 242.801H48.9697V254.115C47.0953 254.115 45.5758 252.595 45.5758 250.721V242.801Z" fill="#7A4D40"/>
<path d="M468.687 242.801H473.212V260.904H468.687V242.801Z" fill="#9A6D60"/>
<path d="M38.7879 242.801H473.212V246.195H38.7879V242.801Z" fill="#9A6D60"/>
<path d="M468.687 246.195C469.936 246.195 470.949 247.208 470.949 248.458V254.115H468.687V246.195Z" fill="#7A4D40"/>
<path d="M468.687 254.115H470.949V260.904H468.687V254.115Z" fill="#4A2D20"/>
<path d="M234.505 79.875H279.758V236.012H234.505V79.875Z" fill="#101010"/>
<path d="M240.162 84.4007H274.101V231.486H240.162V84.4007Z" fill="#66AA66"/>
<path d="M269.576 84.4007H274.101V231.486H269.576V84.4007Z" fill="#86CA86"/>
<path d="M240.162 84.4007H274.101V88.9264H240.162V84.4007Z" fill="#86CA86"/>
<path d="M240.162 84.4007H244.687V231.486H240.162V84.4007Z" fill="#468A46"/>
<path d="M240.162 226.961H274.101V231.486H240.162V226.961Z" fill="#468A46"/>
<path d="M253.931 147.567C255.699 145.799 258.564 145.799 260.331 147.567L269.77 157.006C271.537 158.774 271.537 161.639 269.77 163.407L260.331 172.846C258.564 174.614 255.699 174.614 253.931 172.846L244.493 163.407C242.726 161.639 242.726 158.774 244.493 157.006L253.931 147.567Z" fill="#101010"/>
<path d="M253.931 147.567C255.699 145.799 258.564 145.799 260.331 147.567L269.77 157.006C271.537 158.774 271.537 161.639 269.77 163.407L260.331 172.846C258.564 174.614 255.699 174.614 253.931 172.846L244.493 163.407C242.726 161.639 242.726 158.774 244.493 157.006L253.931 147.567Z" fill="#101010"/>
<path d="M253.931 147.567C255.699 145.799 258.564 145.799 260.331 147.567L269.77 157.006C271.537 158.774 271.537 161.639 269.77 163.407L260.331 172.846C258.564 174.614 255.699 174.614 253.931 172.846L244.493 163.407C242.726 161.639 242.726 158.774 244.493 157.006L253.931 147.567Z" fill="#101010"/>
<path d="M253.931 147.567C255.699 145.799 258.564 145.799 260.331 147.567L269.77 157.006C271.537 158.774 271.537 161.639 269.77 163.407L260.331 172.846C258.564 174.614 255.699 174.614 253.931 172.846L244.493 163.407C242.726 161.639 242.726 158.774 244.493 157.006L253.931 147.567Z" fill="#101010"/>
<path d="M257.131 150.024L267.313 160.206L257.131 170.389L246.949 160.206L257.131 150.024Z" fill="#EEEE88"/>
<path d="M261.657 183.966C261.657 186.466 259.631 188.492 257.131 188.492C254.632 188.492 252.606 186.466 252.606 183.966C252.606 181.467 254.632 179.441 257.131 179.441C259.631 179.441 261.657 181.467 261.657 183.966Z" fill="#101010"/>
<path d="M261.657 136.446C261.657 138.946 259.631 140.972 257.131 140.972C254.632 140.972 252.606 138.946 252.606 136.446C252.606 133.947 254.632 131.921 257.131 131.921C259.631 131.921 261.657 133.947 261.657 136.446Z" fill="#101010"/>
<path d="M259.394 183.966C259.394 185.216 258.381 186.229 257.131 186.229C255.882 186.229 254.869 185.216 254.869 183.966C254.869 182.717 255.882 181.704 257.131 181.704C258.381 181.704 259.394 182.717 259.394 183.966Z" fill="#EEEE88"/>
<path d="M259.394 136.446C259.394 137.696 258.381 138.709 257.131 138.709C255.882 138.709 254.869 137.696 254.869 136.446C254.869 135.197 255.882 134.184 257.131 134.184C258.381 134.184 259.394 135.197 259.394 136.446Z" fill="#EEEE88"/>
<path d="M234.505 92.3207H279.758V129.658H234.505V92.3207Z" fill="#101010"/>
<path d="M240.162 96.8464H274.101V125.132H240.162V96.8464Z" fill="#EEEE88"/>
<path d="M269.576 96.8464H274.101V125.132H269.576V96.8464Z" fill="#FFFFCC"/>
<path d="M240.162 96.8464H244.687V125.132H240.162V96.8464Z" fill="#DDDD68"/>
<path d="M253.867 100.247C255.648 98.3919 258.615 98.3919 260.396 100.247L267.699 107.855C269.38 109.606 269.38 112.372 267.699 114.124L260.396 121.731C258.615 123.587 255.648 123.587 253.867 121.731L246.564 114.124C244.883 112.372 244.883 109.606 246.564 107.855L253.867 100.247Z" fill="#101010"/>
<path d="M253.867 100.247C255.648 98.3919 258.615 98.3919 260.396 100.247L267.699 107.855C269.38 109.606 269.38 112.372 267.699 114.124L260.396 121.731C258.615 123.587 255.648 123.587 253.867 121.731L246.564 114.124C244.883 112.372 244.883 109.606 246.564 107.855L253.867 100.247Z" fill="#101010"/>
<path d="M253.867 100.247C255.648 98.3919 258.615 98.3919 260.396 100.247L267.699 107.855C269.38 109.606 269.38 112.372 267.699 114.124L260.396 121.731C258.615 123.587 255.648 123.587 253.867 121.731L246.564 114.124C244.883 112.372 244.883 109.606 246.564 107.855L253.867 100.247Z" fill="#101010"/>
<path d="M253.867 100.247C255.648 98.3919 258.615 98.3919 260.396 100.247L267.699 107.855C269.38 109.606 269.38 112.372 267.699 114.124L260.396 121.731C258.615 123.587 255.648 123.587 253.867 121.731L246.564 114.124C244.883 112.372 244.883 109.606 246.564 107.855L253.867 100.247Z" fill="#101010"/>
<path d="M257.131 102.504L265.05 110.989L257.131 119.475L249.212 110.989L257.131 102.504Z" fill="#EEEE88"/>
<path d="M234.505 190.755H279.758V228.092H234.505V190.755Z" fill="#101010"/>
<path d="M240.162 195.281H274.101V223.566H240.162V195.281Z" fill="#EEEE88"/>
<path d="M269.576 195.281H274.101V223.566H269.576V195.281Z" fill="#FFFFCC"/>
<path d="M240.162 195.281H244.687V223.566H240.162V195.281Z" fill="#DDDD68"/>
<path d="M253.867 198.682C255.648 196.826 258.615 196.826 260.396 198.682L267.699 206.289C269.38 208.041 269.38 210.807 267.699 212.558L260.396 220.166C258.615 222.021 255.648 222.021 253.867 220.166L246.564 212.558C244.883 210.807 244.883 208.041 246.564 206.289L253.867 198.682Z" fill="#101010"/>
<path d="M253.867 198.682C255.648 196.826 258.615 196.826 260.396 198.682L267.699 206.289C269.38 208.041 269.38 210.807 267.699 212.558L260.396 220.166C258.615 222.021 255.648 222.021 253.867 220.166L246.564 212.558C244.883 210.807 244.883 208.041 246.564 206.289L253.867 198.682Z" fill="#101010"/>
<path d="M253.867 198.682C255.648 196.826 258.615 196.826 260.396 198.682L267.699 206.289C269.38 208.041 269.38 210.807 267.699 212.558L260.396 220.166C258.615 222.021 255.648 222.021 253.867 220.166L246.564 212.558C244.883 210.807 244.883 208.041 246.564 206.289L253.867 198.682Z" fill="#101010"/>
<path d="M253.867 198.682C255.648 196.826 258.615 196.826 260.396 198.682L267.699 206.289C269.38 208.041 269.38 210.807 267.699 212.558L260.396 220.166C258.615 222.021 255.648 222.021 253.867 220.166L246.564 212.558C244.883 210.807 244.883 208.041 246.564 206.289L253.867 198.682Z" fill="#101010"/>
<path d="M257.131 200.938L265.05 209.424L257.131 217.909L249.212 209.424L257.131 200.938Z" fill="#EEEE88"/>
<path d="M193.778 93.4521H234.505V236.012H193.778V93.4521Z" fill="#101010"/>
<path d="M198.303 97.9779H229.98V231.486H198.303V97.9779Z" fill="#66AA66"/>
<path d="M225.455 97.9779H229.98V231.486H225.455V97.9779Z" fill="#86CA86"/>
<path d="M198.303 97.9779H229.98V102.504H198.303V97.9779Z" fill="#86CA86"/>
<path d="M198.303 97.9779H202.828V231.486H198.303V97.9779Z" fill="#468A46"/>
<path d="M198.303 226.961H229.98V231.486H198.303V226.961Z" fill="#468A46"/>
<path d="M193.778 198.675H234.505V222.435H193.778V198.675Z" fill="#101010"/>
<path d="M198.303 203.201H229.98V217.909H198.303V203.201Z" fill="#EEEE88"/>
<path d="M225.455 203.201H229.98V217.909H225.455V203.201Z" fill="#FFFFCC"/>
<path d="M198.303 203.201H202.828V217.909H198.303V203.201Z" fill="#DDDD68"/>
<path d="M198.303 207.726H229.98V213.384H198.303V207.726Z" fill="#101010"/>
<path d="M193.778 105.898H234.505V129.658H193.778V105.898Z" fill="#101010"/>
<path d="M198.303 110.424H229.98V125.132H198.303V110.424Z" fill="#EEEE88"/>
<path d="M225.455 110.424H229.98V125.132H225.455V110.424Z" fill="#FFFFCC"/>
<path d="M198.303 110.424H202.828V125.132H198.303V110.424Z" fill="#DDDD68"/>
<path d="M198.303 114.949H229.98V120.606H198.303V114.949Z" fill="#101010"/>
<path d="M210.942 150.961C212.709 149.194 215.574 149.194 217.341 150.961L226.78 160.401C228.547 162.168 228.547 165.034 226.78 166.801L217.341 176.241C215.574 178.008 212.709 178.008 210.942 176.241L201.503 166.801C199.736 165.034 199.736 162.168 201.503 160.401L210.942 150.961Z" fill="#101010"/>
<path d="M210.942 150.961C212.709 149.194 215.574 149.194 217.341 150.961L226.78 160.401C228.547 162.168 228.547 165.034 226.78 166.801L217.341 176.241C215.574 178.008 212.709 178.008 210.942 176.241L201.503 166.801C199.736 165.034 199.736 162.168 201.503 160.401L210.942 150.961Z" fill="#101010"/>
<path d="M210.942 150.961C212.709 149.194 215.574 149.194 217.341 150.961L226.78 160.401C228.547 162.168 228.547 165.034 226.78 166.801L217.341 176.241C215.574 178.008 212.709 178.008 210.942 176.241L201.503 166.801C199.736 165.034 199.736 162.168 201.503 160.401L210.942 150.961Z" fill="#101010"/>
<path d="M210.942 150.961C212.709 149.194 215.574 149.194 217.341 150.961L226.78 160.401C228.547 162.168 228.547 165.034 226.78 166.801L217.341 176.241C215.574 178.008 212.709 178.008 210.942 176.241L201.503 166.801C199.736 165.034 199.736 162.168 201.503 160.401L210.942 150.961Z" fill="#101010"/>
<path d="M214.141 153.418L224.323 163.601L214.141 173.784L203.96 163.601L214.141 153.418Z" fill="#EEEE88"/>
<path d="M218.667 187.361C218.667 189.86 216.641 191.886 214.141 191.886C211.642 191.886 209.616 189.86 209.616 187.361C209.616 184.861 211.642 182.835 214.141 182.835C216.641 182.835 218.667 184.861 218.667 187.361Z" fill="#101010"/>
<path d="M218.667 139.841C218.667 142.34 216.641 144.366 214.141 144.366C211.642 144.366 209.616 142.34 209.616 139.841C209.616 137.341 211.642 135.315 214.141 135.315C216.641 135.315 218.667 137.341 218.667 139.841Z" fill="#101010"/>
<path d="M216.404 187.361C216.404 188.611 215.391 189.624 214.141 189.624C212.892 189.624 211.879 188.611 211.879 187.361C211.879 186.111 212.892 185.098 214.141 185.098C215.391 185.098 216.404 186.111 216.404 187.361Z" fill="#EEEE88"/>
<path d="M216.404 139.841C216.404 141.09 215.391 142.104 214.141 142.104C212.892 142.104 211.879 141.09 211.879 139.841C211.879 138.591 212.892 137.578 214.141 137.578C215.391 137.578 216.404 138.591 216.404 139.841Z" fill="#EEEE88"/>
<path d="M153.051 93.4521H193.778V236.012H153.051V93.4521Z" fill="#101010"/>
<path d="M157.576 97.9779H189.253V231.486H157.576V97.9779Z" fill="#66AA66"/>
<path d="M184.727 97.9779H189.253V231.486H184.727V97.9779Z" fill="#86CA86"/>
<path d="M157.576 97.9779H189.253V102.504H157.576V97.9779Z" fill="#86CA86"/>
<path d="M157.576 97.9779H162.101V231.486H157.576V97.9779Z" fill="#468A46"/>
<path d="M157.576 226.961H189.253V231.486H157.576V226.961Z" fill="#468A46"/>
<path d="M153.051 198.675H193.778V222.435H153.051V198.675Z" fill="#101010"/>
<path d="M157.576 203.201H189.253V217.909H157.576V203.201Z" fill="#EEEE88"/>
<path d="M184.727 203.201H189.253V217.909H184.727V203.201Z" fill="#FFFFCC"/>
<path d="M157.576 203.201H162.101V217.909H157.576V203.201Z" fill="#DDDD68"/>
<path d="M157.576 207.726H189.253V213.384H157.576V207.726Z" fill="#101010"/>
<path d="M153.051 105.898H193.778V129.658H153.051V105.898Z" fill="#101010"/>
<path d="M157.576 110.424H189.253V125.132H157.576V110.424Z" fill="#EEEE88"/>
<path d="M184.727 110.424H189.253V125.132H184.727V110.424Z" fill="#FFFFCC"/>
<path d="M157.576 110.424H162.101V125.132H157.576V110.424Z" fill="#DDDD68"/>
<path d="M157.576 114.949H189.253V120.606H157.576V114.949Z" fill="#101010"/>
<path d="M170.214 150.961C171.982 149.194 174.847 149.194 176.614 150.961L186.053 160.401C187.82 162.168 187.82 165.034 186.053 166.801L176.614 176.241C174.847 178.008 171.982 178.008 170.214 176.241L160.776 166.801C159.008 165.034 159.008 162.168 160.776 160.401L170.214 150.961Z" fill="#101010"/>
<path d="M170.214 150.961C171.982 149.194 174.847 149.194 176.614 150.961L186.053 160.401C187.82 162.168 187.82 165.034 186.053 166.801L176.614 176.241C174.847 178.008 171.982 178.008 170.214 176.241L160.776 166.801C159.008 165.034 159.008 162.168 160.776 160.401L170.214 150.961Z" fill="#101010"/>
<path d="M170.214 150.961C171.982 149.194 174.847 149.194 176.614 150.961L186.053 160.401C187.82 162.168 187.82 165.034 186.053 166.801L176.614 176.241C174.847 178.008 171.982 178.008 170.214 176.241L160.776 166.801C159.008 165.034 159.008 162.168 160.776 160.401L170.214 150.961Z" fill="#101010"/>
<path d="M170.214 150.961C171.982 149.194 174.847 149.194 176.614 150.961L186.053 160.401C187.82 162.168 187.82 165.034 186.053 166.801L176.614 176.241C174.847 178.008 171.982 178.008 170.214 176.241L160.776 166.801C159.008 165.034 159.008 162.168 160.776 160.401L170.214 150.961Z" fill="#101010"/>
<path d="M173.414 153.418L183.596 163.601L173.414 173.784L163.232 163.601L173.414 153.418Z" fill="#EEEE88"/>
<path d="M177.939 187.361C177.939 189.86 175.913 191.886 173.414 191.886C170.915 191.886 168.889 189.86 168.889 187.361C168.889 184.861 170.915 182.835 173.414 182.835C175.913 182.835 177.939 184.861 177.939 187.361Z" fill="#101010"/>
<path d="M177.939 139.841C177.939 142.34 175.913 144.366 173.414 144.366C170.915 144.366 168.889 142.34 168.889 139.841C168.889 137.341 170.915 135.315 173.414 135.315C175.913 135.315 177.939 137.341 177.939 139.841Z" fill="#101010"/>
<path d="M175.677 187.361C175.677 188.611 174.664 189.624 173.414 189.624C172.165 189.624 171.152 188.611 171.152 187.361C171.152 186.111 172.165 185.098 173.414 185.098C174.664 185.098 175.677 186.111 175.677 187.361Z" fill="#EEEE88"/>
<path d="M175.677 139.841C175.677 141.09 174.664 142.104 173.414 142.104C172.165 142.104 171.152 141.09 171.152 139.841C171.152 138.591 172.165 137.578 173.414 137.578C174.664 137.578 175.677 138.591 175.677 139.841Z" fill="#EEEE88"/>
<path d="M112.323 93.4521H153.051V236.012H112.323V93.4521Z" fill="#101010"/>
<path d="M116.848 97.9779H148.525V231.486H116.848V97.9779Z" fill="#66AA66"/>
<path d="M144 97.9779H148.525V231.486H144V97.9779Z" fill="#86CA86"/>
<path d="M116.848 97.9779H148.525V102.504H116.848V97.9779Z" fill="#86CA86"/>
<path d="M116.848 97.9779H121.374V231.486H116.848V97.9779Z" fill="#468A46"/>
<path d="M116.848 226.961H148.525V231.486H116.848V226.961Z" fill="#468A46"/>
<path d="M112.323 198.675H153.051V222.435H112.323V198.675Z" fill="#101010"/>
<path d="M116.848 203.201H148.525V217.909H116.848V203.201Z" fill="#EEEE88"/>
<path d="M144 203.201H148.525V217.909H144V203.201Z" fill="#FFFFCC"/>
<path d="M116.848 203.201H121.374V217.909H116.848V203.201Z" fill="#DDDD68"/>
<path d="M116.848 207.726H148.525V213.384H116.848V207.726Z" fill="#101010"/>
<path d="M112.323 105.898H153.051V129.658H112.323V105.898Z" fill="#101010"/>
<path d="M116.848 110.424H148.525V125.132H116.848V110.424Z" fill="#EEEE88"/>
<path d="M144 110.424H148.525V125.132H144V110.424Z" fill="#FFFFCC"/>
<path d="M116.848 110.424H121.374V125.132H116.848V110.424Z" fill="#DDDD68"/>
<path d="M116.848 114.949H148.525V120.606H116.848V114.949Z" fill="#101010"/>
<path d="M129.487 150.961C131.254 149.194 134.119 149.194 135.887 150.961L145.325 160.401C147.093 162.168 147.093 165.034 145.325 166.801L135.887 176.241C134.119 178.008 131.254 178.008 129.487 176.241L120.048 166.801C118.281 165.034 118.281 162.168 120.048 160.401L129.487 150.961Z" fill="#101010"/>
<path d="M129.487 150.961C131.254 149.194 134.119 149.194 135.887 150.961L145.325 160.401C147.093 162.168 147.093 165.034 145.325 166.801L135.887 176.241C134.119 178.008 131.254 178.008 129.487 176.241L120.048 166.801C118.281 165.034 118.281 162.168 120.048 160.401L129.487 150.961Z" fill="#101010"/>
<path d="M129.487 150.961C131.254 149.194 134.119 149.194 135.887 150.961L145.325 160.401C147.093 162.168 147.093 165.034 145.325 166.801L135.887 176.241C134.119 178.008 131.254 178.008 129.487 176.241L120.048 166.801C118.281 165.034 118.281 162.168 120.048 160.401L129.487 150.961Z" fill="#101010"/>
<path d="M129.487 150.961C131.254 149.194 134.119 149.194 135.887 150.961L145.325 160.401C147.093 162.168 147.093 165.034 145.325 166.801L135.887 176.241C134.119 178.008 131.254 178.008 129.487 176.241L120.048 166.801C118.281 165.034 118.281 162.168 120.048 160.401L129.487 150.961Z" fill="#101010"/>
<path d="M132.687 153.418L142.869 163.601L132.687 173.784L122.505 163.601L132.687 153.418Z" fill="#EEEE88"/>
<path d="M137.212 187.361C137.212 189.86 135.186 191.886 132.687 191.886C130.188 191.886 128.162 189.86 128.162 187.361C128.162 184.861 130.188 182.835 132.687 182.835C135.186 182.835 137.212 184.861 137.212 187.361Z" fill="#101010"/>
<path d="M137.212 139.841C137.212 142.34 135.186 144.366 132.687 144.366C130.188 144.366 128.162 142.34 128.162 139.841C128.162 137.341 130.188 135.315 132.687 135.315C135.186 135.315 137.212 137.341 137.212 139.841Z" fill="#101010"/>
<path d="M134.949 187.361C134.949 188.611 133.936 189.624 132.687 189.624C131.437 189.624 130.424 188.611 130.424 187.361C130.424 186.111 131.437 185.098 132.687 185.098C133.936 185.098 134.949 186.111 134.949 187.361Z" fill="#EEEE88"/>
<path d="M134.949 139.841C134.949 141.09 133.936 142.104 132.687 142.104C131.437 142.104 130.424 141.09 130.424 139.841C130.424 138.591 131.437 137.578 132.687 137.578C133.936 137.578 134.949 138.591 134.949 139.841Z" fill="#EEEE88"/>
<path d="M279.758 93.4521H320.485V236.012H279.758V93.4521Z" fill="#101010"/>
<path d="M284.283 97.9779H315.96V231.486H284.283V97.9779Z" fill="#66AA66"/>
<path d="M311.434 97.9779H315.96V231.486H311.434V97.9779Z" fill="#86CA86"/>
<path d="M284.283 97.9779H315.96V102.504H284.283V97.9779Z" fill="#86CA86"/>
<path d="M284.283 97.9779H288.808V231.486H284.283V97.9779Z" fill="#468A46"/>
<path d="M284.283 226.961H315.96V231.486H284.283V226.961Z" fill="#468A46"/>
<path d="M279.758 198.675H320.485V222.435H279.758V198.675Z" fill="#101010"/>
<path d="M284.283 203.201H315.96V217.909H284.283V203.201Z" fill="#EEEE88"/>
<path d="M311.434 203.201H315.96V217.909H311.434V203.201Z" fill="#FFFFCC"/>
<path d="M284.283 203.201H288.808V217.909H284.283V203.201Z" fill="#DDDD68"/>
<path d="M284.283 207.726H315.96V213.384H284.283V207.726Z" fill="#101010"/>
<path d="M279.758 105.898H320.485V129.658H279.758V105.898Z" fill="#101010"/>
<path d="M284.283 110.424H315.96V125.132H284.283V110.424Z" fill="#EEEE88"/>
<path d="M311.434 110.424H315.96V125.132H311.434V110.424Z" fill="#FFFFCC"/>
<path d="M284.283 110.424H288.808V125.132H284.283V110.424Z" fill="#DDDD68"/>
<path d="M284.283 114.949H315.96V120.606H284.283V114.949Z" fill="#101010"/>
<path d="M296.921 150.961C298.689 149.194 301.554 149.194 303.321 150.961L312.76 160.401C314.527 162.168 314.527 165.034 312.76 166.801L303.321 176.241C301.554 178.008 298.689 178.008 296.921 176.241L287.483 166.801C285.715 165.034 285.715 162.168 287.483 160.401L296.921 150.961Z" fill="#101010"/>
<path d="M296.921 150.961C298.689 149.194 301.554 149.194 303.321 150.961L312.76 160.401C314.527 162.168 314.527 165.034 312.76 166.801L303.321 176.241C301.554 178.008 298.689 178.008 296.921 176.241L287.483 166.801C285.715 165.034 285.715 162.168 287.483 160.401L296.921 150.961Z" fill="#101010"/>
<path d="M296.921 150.961C298.689 149.194 301.554 149.194 303.321 150.961L312.76 160.401C314.527 162.168 314.527 165.034 312.76 166.801L303.321 176.241C301.554 178.008 298.689 178.008 296.921 176.241L287.483 166.801C285.715 165.034 285.715 162.168 287.483 160.401L296.921 150.961Z" fill="#101010"/>
<path d="M296.921 150.961C298.689 149.194 301.554 149.194 303.321 150.961L312.76 160.401C314.527 162.168 314.527 165.034 312.76 166.801L303.321 176.241C301.554 178.008 298.689 178.008 296.921 176.241L287.483 166.801C285.715 165.034 285.715 162.168 287.483 160.401L296.921 150.961Z" fill="#101010"/>
<path d="M300.121 153.418L310.303 163.601L300.121 173.784L289.939 163.601L300.121 153.418Z" fill="#EEEE88"/>
<path d="M304.646 187.361C304.646 189.86 302.62 191.886 300.121 191.886C297.622 191.886 295.596 189.86 295.596 187.361C295.596 184.861 297.622 182.835 300.121 182.835C302.62 182.835 304.646 184.861 304.646 187.361Z" fill="#101010"/>
<path d="M304.646 139.841C304.646 142.34 302.62 144.366 300.121 144.366C297.622 144.366 295.596 142.34 295.596 139.841C295.596 137.341 297.622 135.315 300.121 135.315C302.62 135.315 304.646 137.341 304.646 139.841Z" fill="#101010"/>
<path d="M302.384 187.361C302.384 188.611 301.371 189.624 300.121 189.624C298.872 189.624 297.859 188.611 297.859 187.361C297.859 186.111 298.872 185.098 300.121 185.098C301.371 185.098 302.384 186.111 302.384 187.361Z" fill="#EEEE88"/>
<path d="M302.384 139.841C302.384 141.09 301.371 142.104 300.121 142.104C298.872 142.104 297.859 141.09 297.859 139.841C297.859 138.591 298.872 137.578 300.121 137.578C301.371 137.578 302.384 138.591 302.384 139.841Z" fill="#EEEE88"/>
<path d="M320.485 93.4521H361.212V236.012H320.485V93.4521Z" fill="#101010"/>
<path d="M325.01 97.9779H356.687V231.486H325.01V97.9779Z" fill="#66AA66"/>
<path d="M352.162 97.9779H356.687V231.486H352.162V97.9779Z" fill="#86CA86"/>
<path d="M325.01 97.9779H356.687V102.504H325.01V97.9779Z" fill="#86CA86"/>
<path d="M325.01 97.9779H329.535V231.486H325.01V97.9779Z" fill="#468A46"/>
<path d="M325.01 226.961H356.687V231.486H325.01V226.961Z" fill="#468A46"/>
<path d="M320.485 198.675H361.212V222.435H320.485V198.675Z" fill="#101010"/>
<path d="M325.01 203.201H356.687V217.909H325.01V203.201Z" fill="#EEEE88"/>
<path d="M352.162 203.201H356.687V217.909H352.162V203.201Z" fill="#FFFFCC"/>
<path d="M325.01 203.201H329.535V217.909H325.01V203.201Z" fill="#DDDD68"/>
<path d="M325.01 207.726H356.687V213.384H325.01V207.726Z" fill="#101010"/>
<path d="M320.485 105.898H361.212V129.658H320.485V105.898Z" fill="#101010"/>
<path d="M325.01 110.424H356.687V125.132H325.01V110.424Z" fill="#EEEE88"/>
<path d="M352.162 110.424H356.687V125.132H352.162V110.424Z" fill="#FFFFCC"/>
<path d="M325.01 110.424H329.535V125.132H325.01V110.424Z" fill="#DDDD68"/>
<path d="M325.01 114.949H356.687V120.606H325.01V114.949Z" fill="#101010"/>
<path d="M337.649 150.961C339.416 149.194 342.281 149.194 344.048 150.961L353.487 160.401C355.254 162.168 355.254 165.034 353.487 166.801L344.048 176.241C342.281 178.008 339.416 178.008 337.649 176.241L328.21 166.801C326.443 165.034 326.443 162.168 328.21 160.401L337.649 150.961Z" fill="#101010"/>
<path d="M337.649 150.961C339.416 149.194 342.281 149.194 344.048 150.961L353.487 160.401C355.254 162.168 355.254 165.034 353.487 166.801L344.048 176.241C342.281 178.008 339.416 178.008 337.649 176.241L328.21 166.801C326.443 165.034 326.443 162.168 328.21 160.401L337.649 150.961Z" fill="#101010"/>
<path d="M337.649 150.961C339.416 149.194 342.281 149.194 344.048 150.961L353.487 160.401C355.254 162.168 355.254 165.034 353.487 166.801L344.048 176.241C342.281 178.008 339.416 178.008 337.649 176.241L328.21 166.801C326.443 165.034 326.443 162.168 328.21 160.401L337.649 150.961Z" fill="#101010"/>
<path d="M337.649 150.961C339.416 149.194 342.281 149.194 344.048 150.961L353.487 160.401C355.254 162.168 355.254 165.034 353.487 166.801L344.048 176.241C342.281 178.008 339.416 178.008 337.649 176.241L328.21 166.801C326.443 165.034 326.443 162.168 328.21 160.401L337.649 150.961Z" fill="#101010"/>
<path d="M340.848 153.418L351.03 163.601L340.848 173.784L330.667 163.601L340.848 153.418Z" fill="#EEEE88"/>
<path d="M345.374 187.361C345.374 189.86 343.348 191.886 340.848 191.886C338.349 191.886 336.323 189.86 336.323 187.361C336.323 184.861 338.349 182.835 340.848 182.835C343.348 182.835 345.374 184.861 345.374 187.361Z" fill="#101010"/>
<path d="M345.374 139.841C345.374 142.34 343.348 144.366 340.848 144.366C338.349 144.366 336.323 142.34 336.323 139.841C336.323 137.341 338.349 135.315 340.848 135.315C343.348 135.315 345.374 137.341 345.374 139.841Z" fill="#101010"/>
<path d="M343.111 187.361C343.111 188.611 342.098 189.624 340.848 189.624C339.599 189.624 338.586 188.611 338.586 187.361C338.586 186.111 339.599 185.098 340.848 185.098C342.098 185.098 343.111 186.111 343.111 187.361Z" fill="#EEEE88"/>
<path d="M343.111 139.841C343.111 141.09 342.098 142.104 340.848 142.104C339.599 142.104 338.586 141.09 338.586 139.841C338.586 138.591 339.599 137.578 340.848 137.578C342.098 137.578 343.111 138.591 343.111 139.841Z" fill="#EEEE88"/>
<path d="M361.212 93.4521H401.939V236.012H361.212V93.4521Z" fill="#101010"/>
<path d="M365.737 97.9779H397.414V231.486H365.737V97.9779Z" fill="#66AA66"/>
<path d="M392.889 97.9779H397.414V231.486H392.889V97.9779Z" fill="#86CA86"/>
<path d="M365.737 97.9779H397.414V102.504H365.737V97.9779Z" fill="#86CA86"/>
<path d="M365.737 97.9779H370.263V231.486H365.737V97.9779Z" fill="#468A46"/>
<path d="M365.737 226.961H397.414V231.486H365.737V226.961Z" fill="#468A46"/>
<path d="M361.212 198.675H401.939V222.435H361.212V198.675Z" fill="#101010"/>
<path d="M365.737 203.201H397.414V217.909H365.737V203.201Z" fill="#EEEE88"/>
<path d="M392.889 203.201H397.414V217.909H392.889V203.201Z" fill="#FFFFCC"/>
<path d="M365.737 203.201H370.263V217.909H365.737V203.201Z" fill="#DDDD68"/>
<path d="M365.737 207.726H397.414V213.384H365.737V207.726Z" fill="#101010"/>
<path d="M361.212 105.898H401.939V129.658H361.212V105.898Z" fill="#101010"/>
<path d="M365.737 110.424H397.414V125.132H365.737V110.424Z" fill="#EEEE88"/>
<path d="M392.889 110.424H397.414V125.132H392.889V110.424Z" fill="#FFFFCC"/>
<path d="M365.737 110.424H370.263V125.132H365.737V110.424Z" fill="#DDDD68"/>
<path d="M365.737 114.949H397.414V120.606H365.737V114.949Z" fill="#101010"/>
<path d="M378.376 150.961C380.143 149.194 383.008 149.194 384.776 150.961L394.214 160.401C395.982 162.168 395.982 165.034 394.214 166.801L384.776 176.241C383.008 178.008 380.143 178.008 378.376 176.241L368.937 166.801C367.17 165.034 367.17 162.168 368.937 160.401L378.376 150.961Z" fill="#101010"/>
<path d="M378.376 150.961C380.143 149.194 383.008 149.194 384.776 150.961L394.214 160.401C395.982 162.168 395.982 165.034 394.214 166.801L384.776 176.241C383.008 178.008 380.143 178.008 378.376 176.241L368.937 166.801C367.17 165.034 367.17 162.168 368.937 160.401L378.376 150.961Z" fill="#101010"/>
<path d="M378.376 150.961C380.143 149.194 383.008 149.194 384.776 150.961L394.214 160.401C395.982 162.168 395.982 165.034 394.214 166.801L384.776 176.241C383.008 178.008 380.143 178.008 378.376 176.241L368.937 166.801C367.17 165.034 367.17 162.168 368.937 160.401L378.376 150.961Z" fill="#101010"/>
<path d="M378.376 150.961C380.143 149.194 383.008 149.194 384.776 150.961L394.214 160.401C395.982 162.168 395.982 165.034 394.214 166.801L384.776 176.241C383.008 178.008 380.143 178.008 378.376 176.241L368.937 166.801C367.17 165.034 367.17 162.168 368.937 160.401L378.376 150.961Z" fill="#101010"/>
<path d="M381.576 153.418L391.758 163.601L381.576 173.784L371.394 163.601L381.576 153.418Z" fill="#EEEE88"/>
<path d="M386.101 187.361C386.101 189.86 384.075 191.886 381.576 191.886C379.077 191.886 377.05 189.86 377.05 187.361C377.05 184.861 379.077 182.835 381.576 182.835C384.075 182.835 386.101 184.861 386.101 187.361Z" fill="#101010"/>
<path d="M386.101 139.841C386.101 142.34 384.075 144.366 381.576 144.366C379.077 144.366 377.05 142.34 377.05 139.841C377.05 137.341 379.077 135.315 381.576 135.315C384.075 135.315 386.101 137.341 386.101 139.841Z" fill="#101010"/>
<path d="M383.838 187.361C383.838 188.611 382.825 189.624 381.576 189.624C380.326 189.624 379.313 188.611 379.313 187.361C379.313 186.111 380.326 185.098 381.576 185.098C382.825 185.098 383.838 186.111 383.838 187.361Z" fill="#EEEE88"/>
<path d="M383.838 139.841C383.838 141.09 382.825 142.104 381.576 142.104C380.326 142.104 379.313 141.09 379.313 139.841C379.313 138.591 380.326 137.578 381.576 137.578C382.825 137.578 383.838 138.591 383.838 139.841Z" fill="#EEEE88"/>
<path d="M85.2955 383.75C87.522 383.75 89.4678 383.994 91.1331 384.483C92.7984 384.972 94.1379 385.487 95.1515 386.031C96.1652 386.574 96.7806 386.936 96.9978 387.117L93.088 393.661C92.7984 393.444 92.3006 393.127 91.5947 392.711C90.9068 392.294 90.0832 391.923 89.1239 391.597C88.1826 391.271 87.1961 391.108 86.1644 391.108C84.7706 391.108 83.6393 391.362 82.7704 391.869C81.9197 392.357 81.4943 393.091 81.4943 394.068C81.4943 394.738 81.7206 395.344 82.1731 395.888C82.6437 396.413 83.3497 396.919 84.2909 397.408C85.2503 397.879 86.463 398.395 87.9292 398.956C89.2687 399.445 90.5267 400.024 91.7033 400.694C92.8799 401.364 93.9116 402.16 94.7986 403.083C95.7036 403.989 96.4186 405.039 96.9435 406.233C97.4685 407.428 97.7309 408.786 97.7309 410.306C97.7309 412.117 97.3599 413.692 96.6177 415.031C95.8756 416.353 94.8619 417.448 93.5767 418.317C92.3097 419.186 90.8616 419.829 89.2325 420.245C87.6215 420.679 85.9472 420.897 84.2095 420.897C81.7477 420.897 79.5394 420.616 77.5845 420.055C75.6477 419.494 74.082 418.887 72.8873 418.236C71.6926 417.584 70.9776 417.149 70.7423 416.932L74.7879 410.116C75.0051 410.279 75.4214 410.542 76.0369 410.904C76.6704 411.266 77.4397 411.646 78.3447 412.044C79.2498 412.425 80.2091 412.75 81.2228 413.022C82.2546 413.293 83.2682 413.429 84.2638 413.429C85.9291 413.429 87.178 413.112 88.0107 412.479C88.8433 411.827 89.2596 410.976 89.2596 409.926C89.2596 409.148 88.9972 408.451 88.4723 407.835C87.9473 407.22 87.1599 406.641 86.1101 406.098C85.0602 405.536 83.7479 404.948 82.1731 404.333C80.5983 403.699 79.1231 402.93 77.7474 402.024C76.3898 401.119 75.2857 399.988 74.4349 398.63C73.5842 397.272 73.1588 395.589 73.1588 393.579C73.1588 391.57 73.7199 389.832 74.8422 388.366C75.9826 386.881 77.4759 385.741 79.3222 384.944C81.1866 384.148 83.1777 383.75 85.2955 383.75Z" fill="#101010"/>
<path d="M125.809 405.826H113.428V420.245H105.337V384.401H113.428V398.739H125.809V384.401H133.873V420.245H125.809V405.826Z" fill="#101010"/>
<path d="M143.033 384.401H151.151V420.245H143.033V384.401Z" fill="#101010"/>
<path d="M171.76 384.401H179.824L193.969 420.245H185.308L182.702 413.049H168.909L166.275 420.245H157.586L171.76 384.401ZM171.624 405.935H180.014L175.859 394.177H175.778L171.624 405.935Z" fill="#101010"/>
<path d="M229.697 383.75C231.923 383.75 233.869 383.994 235.535 384.483C237.2 384.972 238.539 385.487 239.553 386.031C240.567 386.574 241.182 386.936 241.399 387.117L237.49 393.661C237.2 393.444 236.702 393.127 235.996 392.711C235.308 392.294 234.485 391.923 233.525 391.597C232.584 391.271 231.598 391.108 230.566 391.108C229.172 391.108 228.041 391.362 227.172 391.869C226.321 392.357 225.896 393.091 225.896 394.068C225.896 394.738 226.122 395.344 226.575 395.888C227.045 396.413 227.751 396.919 228.692 397.408C229.652 397.879 230.865 398.395 232.331 398.956C233.67 399.445 234.928 400.024 236.105 400.694C237.281 401.364 238.313 402.16 239.2 403.083C240.105 403.989 240.82 405.039 241.345 406.233C241.87 407.428 242.132 408.786 242.132 410.306C242.132 412.117 241.761 413.692 241.019 415.031C240.277 416.353 239.263 417.448 237.978 418.317C236.711 419.186 235.263 419.829 233.634 420.245C232.023 420.679 230.349 420.897 228.611 420.897C226.149 420.897 223.941 420.616 221.986 420.055C220.049 419.494 218.483 418.887 217.289 418.236C216.094 417.584 215.379 417.149 215.144 416.932L219.189 410.116C219.407 410.279 219.823 410.542 220.438 410.904C221.072 411.266 221.841 411.646 222.746 412.044C223.651 412.425 224.611 412.75 225.624 413.022C226.656 413.293 227.67 413.429 228.665 413.429C230.331 413.429 231.58 413.112 232.412 412.479C233.245 411.827 233.661 410.976 233.661 409.926C233.661 409.148 233.399 408.451 232.874 407.835C232.349 407.22 231.561 406.641 230.512 406.098C229.462 405.536 228.149 404.948 226.575 404.333C225 403.699 223.525 402.93 222.149 402.024C220.791 401.119 219.687 399.988 218.836 398.63C217.986 397.272 217.56 395.589 217.56 393.579C217.56 391.57 218.121 389.832 219.244 388.366C220.384 386.881 221.877 385.741 223.724 384.944C225.588 384.148 227.579 383.75 229.697 383.75Z" fill="#101010"/>
<path d="M270.211 405.826H257.83V420.245H249.739V384.401H257.83V398.739H270.211V384.401H278.275V420.245H270.211V405.826Z" fill="#101010"/>
<path d="M287.136 384.401H310.024V391.516H295.227V398.82H309.889V405.717H295.227V413.131H310.024V420.245H287.136V384.401Z" fill="#101010"/>
<path d="M319.076 384.401H327.194V413.131H340.199V420.245H319.076V384.401Z" fill="#101010"/>
<path d="M364.941 420.245H355.764L343.002 384.401H352.152L360.352 409.899L368.552 384.401H377.702L364.941 420.245Z" fill="#101010"/>
<path d="M384.425 384.401H407.314V391.516H392.516V398.82H407.178V405.717H392.516V413.131H407.314V420.245H384.425V384.401Z" fill="#101010"/>
<path d="M429.208 383.75C431.434 383.75 433.38 383.994 435.045 384.483C436.711 384.972 438.05 385.487 439.064 386.031C440.077 386.574 440.693 386.936 440.91 387.117L437 393.661C436.711 393.444 436.213 393.127 435.507 392.711C434.819 392.294 433.995 391.923 433.036 391.597C432.095 391.271 431.108 391.108 430.077 391.108C428.683 391.108 427.551 391.362 426.683 391.869C425.832 392.357 425.406 393.091 425.406 394.068C425.406 394.738 425.633 395.344 426.085 395.888C426.556 396.413 427.262 396.919 428.203 397.408C429.162 397.879 430.375 398.395 431.841 398.956C433.181 399.445 434.439 400.024 435.615 400.694C436.792 401.364 437.824 402.16 438.711 403.083C439.616 403.989 440.331 405.039 440.856 406.233C441.381 407.428 441.643 408.786 441.643 410.306C441.643 412.117 441.272 413.692 440.53 415.031C439.788 416.353 438.774 417.448 437.489 418.317C436.222 419.186 434.774 419.829 433.145 420.245C431.534 420.679 429.859 420.897 428.122 420.897C425.66 420.897 423.452 420.616 421.497 420.055C419.56 419.494 417.994 418.887 416.799 418.236C415.605 417.584 414.89 417.149 414.654 416.932L418.7 410.116C418.917 410.279 419.334 410.542 419.949 410.904C420.583 411.266 421.352 411.646 422.257 412.044C423.162 412.425 424.121 412.75 425.135 413.022C426.167 413.293 427.18 413.429 428.176 413.429C429.841 413.429 431.09 413.112 431.923 412.479C432.755 411.827 433.172 410.976 433.172 409.926C433.172 409.148 432.909 408.451 432.384 407.835C431.859 407.22 431.072 406.641 430.022 406.098C428.972 405.536 427.66 404.948 426.085 404.333C424.51 403.699 423.035 402.93 421.66 402.024C420.302 401.119 419.198 399.988 418.347 398.63C417.496 397.272 417.071 395.589 417.071 393.579C417.071 391.57 417.632 389.832 418.754 388.366C419.895 386.881 421.388 385.741 423.234 384.944C425.099 384.148 427.09 383.75 429.208 383.75Z" fill="#101010"/>
<path d="M148.983 365.583C147.559 365.583 146.207 365.402 144.928 365.04C143.649 364.678 142.527 364.147 141.561 363.447C140.596 362.723 139.836 361.83 139.281 360.768C138.726 359.682 138.448 358.427 138.448 357.003C138.448 355.386 138.81 353.961 139.534 352.73C140.282 351.475 141.308 350.425 142.611 349.581C143.915 348.736 145.435 348.084 147.173 347.625C148.935 347.143 150.829 346.865 152.856 346.793L153.074 352.368C151.77 352.417 150.564 352.561 149.453 352.803C148.367 353.02 147.414 353.334 146.594 353.744C145.773 354.13 145.133 354.601 144.675 355.156C144.24 355.711 144.023 356.339 144.023 357.039C144.023 357.666 144.216 358.21 144.602 358.668C144.989 359.103 145.556 359.428 146.304 359.646C147.052 359.863 147.933 359.972 148.947 359.972C149.816 359.972 150.624 359.887 151.372 359.718C152.145 359.549 152.869 359.308 153.544 358.994L155.97 364.027C154.908 364.534 153.774 364.92 152.567 365.185C151.36 365.451 150.165 365.583 148.983 365.583ZM161.436 367.068C159.506 367.068 157.864 366.706 156.513 365.982C155.185 365.233 154.172 364.159 153.472 362.759C152.772 361.335 152.422 359.622 152.422 357.618V345.67H157.997V357.618C157.997 358.391 158.082 359.006 158.251 359.465C158.444 359.899 158.782 360.201 159.264 360.37C159.771 360.539 160.495 360.623 161.436 360.623H162.776V367.068H161.436ZM162.776 367.068V360.623C162.993 360.623 163.162 360.913 163.283 361.492C163.427 362.072 163.5 362.844 163.5 363.809C163.5 364.799 163.427 365.596 163.283 366.199C163.162 366.778 162.993 367.068 162.776 367.068ZM151.119 342.339C150.371 342.339 149.743 342.098 149.236 341.615C148.754 341.108 148.512 340.481 148.512 339.733C148.512 338.96 148.754 338.333 149.236 337.85C149.743 337.367 150.371 337.126 151.119 337.126C151.867 337.126 152.482 337.367 152.965 337.85C153.472 338.333 153.725 338.96 153.725 339.733C153.725 340.481 153.472 341.108 152.965 341.615C152.482 342.098 151.867 342.339 151.119 342.339ZM145.145 342.339C144.397 342.339 143.77 342.098 143.263 341.615C142.78 341.108 142.539 340.481 142.539 339.733C142.539 338.96 142.78 338.333 143.263 337.85C143.77 337.367 144.397 337.126 145.145 337.126C145.918 337.126 146.545 337.367 147.028 337.85C147.511 338.333 147.752 338.96 147.752 339.733C147.752 340.481 147.511 341.108 147.028 341.615C146.545 342.098 145.918 342.339 145.145 342.339Z" fill="#101010"/>
<path d="M162.773 367.068V360.623H171.135C171.908 360.623 172.728 360.515 173.597 360.297C174.49 360.08 175.371 359.791 176.24 359.428C177.109 359.066 177.893 358.668 178.593 358.234C179.317 357.799 179.884 357.377 180.295 356.966C180.729 356.532 180.946 356.158 180.946 355.844C180.946 355.482 180.705 355.144 180.222 354.83C179.739 354.517 179.052 354.251 178.159 354.034C177.29 353.817 176.288 353.708 175.154 353.708C174.188 353.708 173.271 353.792 172.402 353.961C171.558 354.13 170.689 354.384 169.796 354.722L168.637 356.025L165.415 354.396L168.782 348.893C169.748 348.579 170.785 348.313 171.896 348.096C173.03 347.879 174.273 347.77 175.624 347.77C177.797 347.77 179.691 348.06 181.308 348.639C182.949 349.194 184.228 349.979 185.146 350.993C186.063 351.982 186.521 353.165 186.521 354.541C186.521 355.675 186.207 356.773 185.58 357.835C184.977 358.897 184.156 359.887 183.118 360.804C182.105 361.722 180.946 362.566 179.643 363.339C178.34 364.111 177 364.775 175.624 365.33C174.249 365.885 172.897 366.32 171.57 366.633C170.267 366.923 169.084 367.068 168.022 367.068H162.773ZM182.756 367.068C179.836 367.068 177.193 366.549 174.828 365.511C172.487 364.449 170.508 362.965 168.891 361.058C167.274 359.151 166.115 356.93 165.415 354.396L169.615 352.26C169.905 353.949 170.484 355.422 171.353 356.677C172.246 357.932 173.38 358.91 174.756 359.61C176.131 360.285 177.652 360.623 179.317 360.623H189.852V367.068H182.756ZM189.852 367.068V360.623C190.069 360.623 190.238 360.913 190.359 361.492C190.503 362.072 190.576 362.844 190.576 363.809C190.576 364.799 190.503 365.596 190.359 366.199C190.238 366.778 190.069 367.068 189.852 367.068ZM162.773 367.068C162.556 367.068 162.387 366.778 162.266 366.199C162.121 365.596 162.049 364.799 162.049 363.809C162.049 362.844 162.121 362.072 162.266 361.492C162.387 360.913 162.556 360.623 162.773 360.623V367.068Z" fill="#101010"/>
<path d="M189.854 367.068V360.623H191.845C192.81 360.623 193.534 360.539 194.017 360.37C194.499 360.201 194.837 359.899 195.03 359.465C195.223 359.006 195.32 358.391 195.32 357.618V348.494H200.859V357.618C200.859 359.622 200.509 361.323 199.809 362.723C199.109 364.123 198.083 365.197 196.732 365.946C195.405 366.67 193.775 367.044 191.845 367.068H189.854ZM204.334 367.068C202.379 367.068 200.738 366.706 199.411 365.982C198.083 365.233 197.07 364.159 196.37 362.759C195.67 361.335 195.32 359.622 195.32 357.618H200.859C200.859 358.391 200.943 359.006 201.112 359.465C201.305 359.899 201.655 360.201 202.162 360.37C202.669 360.539 203.393 360.623 204.334 360.623H205.638V367.068H204.334ZM205.638 367.068V360.623C205.855 360.623 206.024 360.913 206.144 361.492C206.289 362.072 206.362 362.844 206.362 363.809C206.362 364.799 206.289 365.596 206.144 366.199C206.024 366.778 205.855 367.068 205.638 367.068ZM189.854 367.068C189.636 367.068 189.467 366.778 189.347 366.199C189.202 365.596 189.129 364.799 189.129 363.809C189.129 362.844 189.202 362.072 189.347 361.492C189.467 360.913 189.636 360.623 189.854 360.623V367.068ZM200.75 375.83C200.002 375.83 199.375 375.576 198.868 375.069C198.385 374.587 198.144 373.983 198.144 373.259C198.144 372.487 198.385 371.847 198.868 371.34C199.375 370.857 200.002 370.616 200.75 370.616C201.499 370.616 202.114 370.857 202.597 371.34C203.103 371.847 203.357 372.487 203.357 373.259C203.357 373.983 203.103 374.587 202.597 375.069C202.114 375.576 201.499 375.83 200.75 375.83ZM194.777 375.83C194.029 375.83 193.401 375.576 192.895 375.069C192.412 374.587 192.17 373.983 192.17 373.259C192.17 372.487 192.412 371.847 192.895 371.34C193.401 370.857 194.029 370.616 194.777 370.616C195.525 370.616 196.141 370.857 196.623 371.34C197.13 371.847 197.384 372.487 197.384 373.259C197.384 373.983 197.13 374.587 196.623 375.069C196.141 375.576 195.525 375.83 194.777 375.83Z" fill="#101010"/>
<path d="M242.837 367.068C240.906 367.068 239.265 366.706 237.913 365.982C236.586 365.233 235.572 364.159 234.872 362.759C234.173 361.335 233.823 359.622 233.823 357.618H239.398C239.398 358.391 239.482 359.006 239.651 359.465C239.844 359.899 240.182 360.201 240.665 360.37C241.172 360.539 241.896 360.623 242.837 360.623H244.176V367.068H242.837ZM205.621 367.068C205.404 367.068 205.235 366.778 205.114 366.199C204.97 365.596 204.897 364.799 204.897 363.809C204.897 362.844 204.97 362.072 205.114 361.492C205.235 360.913 205.404 360.623 205.621 360.623V367.068ZM231.904 367.068C230.77 367.068 229.671 366.814 228.609 366.308C227.548 365.801 226.643 365.004 225.894 363.918C225.17 362.832 224.736 361.456 224.591 359.791L227.777 358.125C227.873 359.018 228.223 359.694 228.827 360.153C229.454 360.611 230.118 360.841 230.818 360.841C231.59 360.841 232.278 360.575 232.881 360.044C233.509 359.513 233.823 358.704 233.823 357.618V348.494H239.398V358.523C239.398 360.478 239.024 362.096 238.275 363.375C237.551 364.63 236.622 365.559 235.488 366.163C234.354 366.766 233.159 367.068 231.904 367.068ZM205.621 367.068V360.623H207.612C208.554 360.623 209.266 360.539 209.748 360.37C210.255 360.201 210.593 359.899 210.762 359.465C210.955 359.006 211.051 358.391 211.051 357.618V352.043H216.627V357.618C216.627 359.622 216.277 361.335 215.577 362.759C214.877 364.159 213.851 365.233 212.5 365.982C211.172 366.706 209.543 367.068 207.612 367.068H205.621ZM220.573 367.068C219.414 367.068 218.304 366.814 217.242 366.308C216.204 365.801 215.311 365.004 214.563 363.918C213.839 362.832 213.393 361.456 213.224 359.791L216.446 358.125C216.542 359.018 216.892 359.694 217.495 360.153C218.099 360.611 218.75 360.841 219.45 360.841C220.223 360.841 220.911 360.575 221.514 360.044C222.141 359.513 222.455 358.704 222.455 357.618V350.268H228.03V358.523C228.03 360.478 227.668 362.096 226.944 363.375C226.22 364.63 225.291 365.559 224.157 366.163C223.022 366.766 221.828 367.068 220.573 367.068ZM244.176 367.068V360.623C244.394 360.623 244.563 360.913 244.683 361.492C244.828 362.072 244.9 362.844 244.9 363.809C244.9 364.799 244.828 365.596 244.683 366.199C244.563 366.778 244.394 367.068 244.176 367.068ZM225.206 334.447C225.955 334.447 226.558 334.688 227.017 335.171C227.499 335.653 227.741 336.257 227.741 336.981C227.741 337.729 227.499 338.345 227.017 338.827C226.558 339.286 225.955 339.515 225.206 339.515C224.482 339.515 223.879 339.286 223.396 338.827C222.914 338.345 222.672 337.729 222.672 336.981C222.672 336.257 222.914 335.653 223.396 335.171C223.879 334.688 224.482 334.447 225.206 334.447ZM228.211 339.696C228.959 339.696 229.575 339.938 230.058 340.42C230.564 340.903 230.818 341.519 230.818 342.267C230.818 343.039 230.564 343.679 230.058 344.186C229.575 344.669 228.959 344.91 228.211 344.91C227.463 344.91 226.836 344.669 226.329 344.186C225.846 343.679 225.605 343.039 225.605 342.267C225.605 341.519 225.846 340.903 226.329 340.42C226.836 339.938 227.463 339.696 228.211 339.696ZM222.238 339.696C222.986 339.696 223.602 339.938 224.084 340.42C224.591 340.903 224.844 341.519 224.844 342.267C224.844 343.039 224.591 343.679 224.084 344.186C223.602 344.669 222.986 344.91 222.238 344.91C221.49 344.91 220.862 344.669 220.355 344.186C219.873 343.679 219.631 343.039 219.631 342.267C219.631 341.519 219.873 340.903 220.355 340.42C220.862 339.938 221.49 339.696 222.238 339.696Z" fill="#101010"/>
<path d="M244.192 367.068V360.623H249.333V335.714H254.908V367.068H244.192ZM244.192 367.068C243.975 367.068 243.806 366.778 243.685 366.199C243.54 365.596 243.468 364.799 243.468 363.809C243.468 362.844 243.54 362.072 243.685 361.492C243.806 360.913 243.975 360.623 244.192 360.623V367.068Z" fill="#101010"/>
<path d="M259.527 367.068V335.714H265.103V367.068H259.527Z" fill="#101010"/>
<path d="M301.894 360.623V367.068H290.853C288.849 367.068 287.1 366.778 285.603 366.199C284.131 365.62 282.912 364.847 281.947 363.882C281.006 362.892 280.294 361.77 279.811 360.515C279.352 359.26 279.123 357.956 279.123 356.604C279.123 355.325 279.316 354.046 279.702 352.767C280.089 351.487 280.656 350.268 281.404 349.11L285.748 351.065C285.338 351.91 285.024 352.718 284.807 353.491C284.614 354.263 284.517 354.999 284.517 355.699C284.517 356.713 284.734 357.594 285.169 358.342C285.627 359.066 286.315 359.634 287.232 360.044C288.15 360.43 289.308 360.623 290.708 360.623H301.894ZM292.554 367.068C292.313 367.068 292.132 366.778 292.011 366.199C291.89 365.596 291.83 364.799 291.83 363.809C291.83 362.844 291.89 362.072 292.011 361.492C292.132 360.913 292.313 360.623 292.554 360.623V367.068ZM292.554 367.068V360.623H308.954V349.544H314.493V367.068H292.554ZM302.184 366.778C301.122 366.368 300.157 365.728 299.288 364.859C298.443 363.99 297.767 362.94 297.26 361.709C296.754 360.454 296.5 359.115 296.5 357.691C296.5 355.663 296.959 353.901 297.876 352.405C298.817 350.884 300.072 349.701 301.641 348.856C303.21 347.987 304.935 347.553 306.818 347.553C308.242 347.553 309.617 347.77 310.945 348.205C312.272 348.615 313.455 349.062 314.493 349.544L312.212 355.156C311.15 354.673 310.136 354.311 309.171 354.07C308.23 353.829 307.337 353.708 306.492 353.708C305.478 353.708 304.597 353.889 303.849 354.251C303.101 354.589 302.522 355.06 302.111 355.663C301.701 356.267 301.496 356.942 301.496 357.691C301.496 358.632 301.725 359.525 302.184 360.37C302.667 361.191 303.294 361.806 304.066 362.216L302.184 366.778ZM305.732 343.353C304.815 343.353 304.054 343.051 303.451 342.448C302.848 341.845 302.546 341.084 302.546 340.167C302.546 339.226 302.848 338.465 303.451 337.886C304.054 337.283 304.815 336.981 305.732 336.981C306.673 336.981 307.433 337.283 308.012 337.886C308.616 338.465 308.917 339.226 308.917 340.167C308.917 341.084 308.616 341.845 308.012 342.448C307.433 343.051 306.673 343.353 305.732 343.353Z" fill="#101010"/>
<path d="M334.7 367.068V360.623H340.166V367.068H334.7ZM340.166 367.068V360.623C340.383 360.623 340.552 360.913 340.673 361.492C340.818 362.072 340.89 362.844 340.89 363.809C340.89 364.799 340.818 365.596 340.673 366.199C340.552 366.778 340.383 367.068 340.166 367.068ZM319.495 377.35V370.906H325.939C327.604 370.906 328.762 370.64 329.414 370.109C330.066 369.602 330.391 368.842 330.391 367.828V349.544H335.93V367.828C335.93 369.783 335.52 371.473 334.7 372.897C333.879 374.345 332.72 375.443 331.224 376.192C329.728 376.964 327.966 377.35 325.939 377.35H319.495ZM328.219 367.068C326.144 367.068 324.334 366.633 322.789 365.764C321.244 364.896 320.05 363.737 319.205 362.289C318.36 360.816 317.938 359.199 317.938 357.437C317.938 356.013 318.203 354.71 318.734 353.527C319.265 352.32 320.001 351.282 320.943 350.413C321.908 349.52 323.018 348.82 324.273 348.313C325.528 347.806 326.868 347.553 328.292 347.553C329.692 347.553 331.055 347.77 332.383 348.205C333.71 348.615 334.893 349.062 335.93 349.544L333.65 355.265C331.622 354.106 329.836 353.527 328.292 353.527C327.326 353.527 326.482 353.72 325.758 354.106C325.058 354.468 324.503 354.951 324.092 355.554C323.706 356.158 323.513 356.798 323.513 357.473C323.513 358.101 323.694 358.692 324.056 359.247C324.418 359.803 324.949 360.249 325.649 360.587C326.373 360.925 327.23 361.094 328.219 361.094H333.975V367.068H328.219Z" fill="#101010"/>
<path d="M340.177 367.068V360.623H356.576V349.544H362.151V367.068H340.177ZM349.843 366.778C348.757 366.368 347.779 365.728 346.91 364.859C346.066 363.99 345.39 362.94 344.883 361.709C344.4 360.454 344.159 359.115 344.159 357.691C344.159 355.663 344.618 353.901 345.535 352.405C346.476 350.884 347.731 349.701 349.3 348.856C350.868 347.987 352.594 347.553 354.477 347.553C355.901 347.553 357.276 347.77 358.604 348.205C359.931 348.615 361.114 349.062 362.151 349.544L359.871 355.156C358.785 354.673 357.759 354.311 356.793 354.07C355.852 353.829 354.971 353.708 354.151 353.708C353.113 353.708 352.22 353.889 351.472 354.251C350.724 354.589 350.144 355.06 349.734 355.663C349.348 356.267 349.155 356.942 349.155 357.691C349.155 358.632 349.384 359.525 349.843 360.37C350.301 361.191 350.929 361.806 351.725 362.216L349.843 366.778ZM340.177 367.068C339.96 367.068 339.791 366.778 339.67 366.199C339.525 365.596 339.453 364.799 339.453 363.809C339.453 362.844 339.525 362.072 339.67 361.492C339.791 360.913 339.96 360.623 340.177 360.623V367.068ZM354.477 343.353C353.559 343.353 352.799 343.051 352.196 342.448C351.592 341.845 351.291 341.084 351.291 340.167C351.291 339.226 351.592 338.465 352.196 337.886C352.799 337.283 353.559 336.981 354.477 336.981C355.418 336.981 356.178 337.283 356.757 337.886C357.361 338.465 357.662 339.226 357.662 340.167C357.662 341.084 357.361 341.845 356.757 342.448C356.178 343.051 355.418 343.353 354.477 343.353Z" fill="#101010"/>
<path d="M363.828 371.159C365.059 371.135 366.012 371.002 366.688 370.761C367.388 370.52 367.883 370.145 368.173 369.639C368.462 369.156 368.607 368.54 368.607 367.792V348.494H374.182V367.792C374.182 369.675 373.796 371.316 373.024 372.716C372.275 374.116 371.201 375.202 369.802 375.975C368.426 376.771 366.785 377.218 364.878 377.314L363.828 371.159Z" fill="#101010"/>
<path fill-rule="evenodd" clip-rule="evenodd" d="M68.202 428.731L446.061 428.731V432.125L68.202 432.125V428.731Z" fill="#101010"/>
</svg>
