<svg width="64" height="64" viewBox="0 0 64 64" fill="none" xmlns="http://www.w3.org/2000/svg">
<path d="M47.5992 47.1315C47.124 47.9605 45.9534 47.9605 45.4782 47.1315L42.7264 42.3305C42.5773 42.0704 42.3419 41.8737 42.0631 41.7762L39.5713 40.9052C38.1751 40.4171 38.6486 38.2849 40.1137 38.4631L46.3936 39.227C46.49 39.2387 46.5873 39.2387 46.6837 39.227L52.9637 38.4631C54.4287 38.2849 54.9022 40.4171 53.506 40.9052L51.0142 41.7762C50.7354 41.8737 50.5 42.0704 50.3509 42.3305L47.5992 47.1315Z" fill="#7A4D40"/>
<path fill-rule="evenodd" clip-rule="evenodd" d="M43.5217 41.8525L46.2735 46.6534C46.3923 46.8607 46.685 46.8607 46.8038 46.6534L49.5556 41.8525C49.8165 41.3972 50.2284 41.053 50.7162 40.8825L53.208 40.0114C53.3328 39.9678 53.3723 39.9096 53.3905 39.8721C53.4157 39.8202 53.4296 39.7387 53.4085 39.6437C53.3874 39.5487 53.3404 39.4813 53.2958 39.4457C53.2636 39.42 53.2034 39.385 53.0724 39.4009L46.7925 40.1648C46.6239 40.1853 46.4535 40.1853 46.2848 40.1648L40.0049 39.4009C39.8739 39.385 39.8137 39.42 39.7815 39.4457C39.7369 39.4813 39.6899 39.5487 39.6688 39.6437C39.6478 39.7387 39.6616 39.8202 39.6868 39.8721C39.705 39.9096 39.7445 39.9678 39.8693 40.0114L42.3611 40.8825C42.8489 41.053 43.2608 41.3972 43.5217 41.8525ZM45.4782 47.1315C45.9534 47.9605 47.124 47.9605 47.5992 47.1315L50.3509 42.3305C50.5 42.0704 50.7354 41.8737 51.0142 41.7762L53.506 40.9052C54.9022 40.4171 54.4287 38.2849 52.9637 38.4631L46.6837 39.227C46.5873 39.2387 46.49 39.2387 46.3936 39.227L40.1137 38.4631C38.6486 38.2849 38.1751 40.4171 39.5713 40.9052L42.0631 41.7762C42.3419 41.8737 42.5773 42.0704 42.7264 42.3305L45.4782 47.1315Z" fill="#101010"/>
<rect x="44.731" y="38.2952" width="3.68902" height="9.7587" fill="#101010"/>
<rect x="45.8071" y="39.397" width="1.53709" height="7.55512" fill="#7A4D40"/>
<path d="M17.3555 47.1315C16.8803 47.9605 15.7097 47.9605 15.2345 47.1315L12.4827 42.3305C12.3336 42.0704 12.0983 41.8737 11.8195 41.7762L9.32769 40.9052C7.93149 40.4171 8.405 38.2849 9.87001 38.4631L16.15 39.227C16.2463 39.2387 16.3437 39.2387 16.4401 39.227L22.72 38.4631C24.185 38.2849 24.6585 40.4171 23.2623 40.9052L20.7705 41.7762C20.4917 41.8737 20.2564 42.0704 20.1073 42.3305L17.3555 47.1315Z" fill="#7A4D40"/>
<path fill-rule="evenodd" clip-rule="evenodd" d="M13.2781 41.8525L16.0299 46.6534C16.1487 46.8607 16.4413 46.8607 16.5601 46.6534L19.3119 41.8525C19.5728 41.3972 19.9847 41.053 20.4726 40.8825L22.9644 40.0114C23.0892 39.9678 23.1286 39.9096 23.1468 39.8721C23.172 39.8202 23.1859 39.7387 23.1648 39.6437C23.1437 39.5487 23.0968 39.4813 23.0521 39.4457C23.0199 39.42 22.9598 39.385 22.8288 39.4009L16.5488 40.1648C16.3802 40.1853 16.2098 40.1853 16.0412 40.1648L9.76122 39.4009C9.63024 39.385 9.57009 39.42 9.53786 39.4457C9.49323 39.4813 9.44629 39.5487 9.42519 39.6437C9.4041 39.7387 9.41797 39.8202 9.44317 39.8721C9.46137 39.9096 9.50081 39.9678 9.62564 40.0114L12.1174 40.8825C12.6053 41.053 13.0172 41.3972 13.2781 41.8525ZM15.2345 47.1315C15.7097 47.9605 16.8803 47.9605 17.3555 47.1315L20.1073 42.3305C20.2564 42.0704 20.4917 41.8737 20.7705 41.7762L23.2623 40.9052C24.6585 40.4171 24.185 38.2849 22.72 38.4631L16.4401 39.227C16.3437 39.2387 16.2463 39.2387 16.15 39.227L9.87001 38.4631C8.405 38.2849 7.93149 40.4171 9.32769 40.9052L11.8195 41.7762C12.0983 41.8737 12.3336 42.0704 12.4827 42.3305L15.2345 47.1315Z" fill="#101010"/>
<rect x="14.4873" y="38.2952" width="3.68902" height="9.7587" fill="#101010"/>
<rect x="15.563" y="39.397" width="1.53709" height="7.55512" fill="#7A4D40"/>
<rect x="1.07812" y="35.3266" width="60.8689" height="4.30386" fill="#101010"/>
<rect x="2" y="36.2488" width="59.0244" height="2.45935" fill="#7A4D40"/>
<path d="M34.4634 16.7708H39.7756V35.3634H34.4634V16.7708Z" fill="#101010"/>
<path d="M35.0537 17.3611H39.1854V34.7733H35.0537V17.3611Z" fill="#66AA66"/>
<path d="M34.4634 30.494H39.7756V33.5927H34.4634V30.494Z" fill="#101010"/>
<path d="M35.0537 31.084H39.1854V33.0023H35.0537V31.084Z" fill="#EEEE88"/>
<path d="M34.4634 18.3939H39.7756V21.4927H34.4634V18.3939Z" fill="#101010"/>
<path d="M35.0537 18.9843H39.1854V20.9025H35.0537V18.9843Z" fill="#EEEE88"/>
<path d="M39.7754 16.7708H45.0876V35.3634H39.7754V16.7708Z" fill="#101010"/>
<path d="M40.3657 17.3611H44.4974V34.7733H40.3657V17.3611Z" fill="#66AA66"/>
<path d="M39.7754 30.494H45.0876V33.5927H39.7754V30.494Z" fill="#101010"/>
<path d="M40.3657 31.084H44.4974V33.0023H40.3657V31.084Z" fill="#EEEE88"/>
<path d="M39.7754 18.3939H45.0876V21.4927H39.7754V18.3939Z" fill="#101010"/>
<path d="M40.3657 18.9843H44.4974V20.9025H40.3657V18.9843Z" fill="#EEEE88"/>
<path d="M45.0879 16.7708H50.4001V35.3634H45.0879V16.7708Z" fill="#101010"/>
<path d="M45.6782 17.3611H49.8099V34.7733H45.6782V17.3611Z" fill="#66AA66"/>
<path d="M45.0879 30.494H50.4001V33.5927H45.0879V30.494Z" fill="#101010"/>
<path d="M45.6782 31.084H49.8099V33.0023H45.6782V31.084Z" fill="#EEEE88"/>
<path d="M45.0879 18.3939H50.4001V21.4927H45.0879V18.3939Z" fill="#101010"/>
<path d="M45.6782 18.9843H49.8099V20.9025H45.6782V18.9843Z" fill="#EEEE88"/>
<path d="M23.249 16.7708H28.5612V35.3634H23.249V16.7708Z" fill="#101010"/>
<path d="M23.8394 17.3611H27.9711V34.7733H23.8394V17.3611Z" fill="#66AA66"/>
<path d="M23.249 30.494H28.5612V33.5927H23.249V30.494Z" fill="#101010"/>
<path d="M23.8394 31.084H27.9711V33.0023H23.8394V31.084Z" fill="#EEEE88"/>
<path d="M23.249 18.3939H28.5612V21.4927H23.249V18.3939Z" fill="#101010"/>
<path d="M23.8394 18.9843H27.9711V20.9025H23.8394V18.9843Z" fill="#EEEE88"/>
<path d="M17.9365 16.7708H23.2487V35.3634H17.9365V16.7708Z" fill="#101010"/>
<path d="M18.5269 17.3611H22.6586V34.7733H18.5269V17.3611Z" fill="#66AA66"/>
<path d="M17.9365 30.494H23.2487V33.5927H17.9365V30.494Z" fill="#101010"/>
<path d="M18.5269 31.084H22.6586V33.0023H18.5269V31.084Z" fill="#EEEE88"/>
<path d="M17.9365 18.3939H23.2487V21.4927H17.9365V18.3939Z" fill="#101010"/>
<path d="M18.5269 18.9843H22.6586V20.9025H18.5269V18.9843Z" fill="#EEEE88"/>
<path d="M12.6245 16.7708H17.9367V35.3634H12.6245V16.7708Z" fill="#101010"/>
<path d="M13.2148 17.3611H17.3466V34.7733H13.2148V17.3611Z" fill="#66AA66"/>
<path d="M12.6245 30.494H17.9367V33.5927H12.6245V30.494Z" fill="#101010"/>
<path d="M13.2148 31.084H17.3466V33.0023H13.2148V31.084Z" fill="#EEEE88"/>
<path d="M12.6245 18.3939H17.9367V21.4927H12.6245V18.3939Z" fill="#101010"/>
<path d="M13.2148 18.9843H17.3466V20.9025H13.2148V18.9843Z" fill="#EEEE88"/>
<path d="M28.561 15H34.4635V35.3634H28.561V15Z" fill="#101010"/>
<path d="M29.2988 15.5903H33.7257V34.7733H29.2988V15.5903Z" fill="#66AA66"/>
<path d="M28.561 16.6232H34.4635V21.4927H28.561V16.6232Z" fill="#101010"/>
<path d="M29.2988 17.2135H33.7257V20.9025H29.2988V17.2135Z" fill="#EEEE88"/>
<path d="M28.561 29.4609H34.4635V34.3304H28.561V29.4609Z" fill="#101010"/>
<path d="M29.2988 30.0513H33.7257V33.7403H29.2988V30.0513Z" fill="#EEEE88"/>
</svg>
