<svg width="14" height="15" viewBox="0 0 14 15" fill="none" xmlns="http://www.w3.org/2000/svg">
<g clip-path="url(#clip0_23_529)">
<path d="M13.5608 7.54266C13.5603 3.66094 10.6234 0.514221 7 0.514221C3.37663 0.514221 0.439255 3.66141 0.439255 7.5436C0.439255 11.0381 2.81925 13.9369 5.93688 14.4811L5.9745 14.4867V9.57516H4.3085V7.54266H5.9745V5.99485C5.96619 5.91656 5.96182 5.82563 5.96182 5.73375C5.96182 4.3636 6.99869 3.25266 8.2775 3.25266C8.33919 3.25266 8.40044 3.25547 8.46126 3.26016L8.45338 3.25969C8.97794 3.26766 9.48544 3.31735 9.98069 3.40594L9.92207 3.39703V5.12672H9.09432C9.05669 5.1211 9.01338 5.11782 8.96963 5.11782C8.44594 5.11782 8.02113 5.5725 8.02113 6.13407C8.02113 6.16594 8.02244 6.19735 8.02507 6.22875L8.02463 6.22453V7.54266H9.84419L9.55326 9.57516H8.02463V14.4867C11.1803 13.9364 13.5603 11.0372 13.5608 7.54266Z" fill="#101010"/>
</g>
<defs>
<clipPath id="clip0_23_529">
<rect width="14" height="15" fill="white"/>
</clipPath>
</defs>
</svg>
