<svg width="15" height="15" viewBox="0 0 15 15" fill="none" xmlns="http://www.w3.org/2000/svg">
<g clip-path="url(#clip0_23_527)">
<path d="M12.0961 3.74814V3.74861C12.0961 4.21455 11.7183 4.59189 11.2528 4.59189C10.7873 4.59189 10.4095 4.21408 10.4095 3.74861C10.4095 3.28267 10.7873 2.90533 11.2528 2.90533C11.7183 2.9058 12.0956 3.28267 12.0961 3.74814ZM7.5 9.8433C6.20578 9.8433 5.15672 8.79424 5.15672 7.50002C5.15672 6.2058 6.20578 5.15674 7.5 5.15674C8.79422 5.15674 9.84328 6.2058 9.84328 7.50002C9.84328 8.79377 8.79469 9.84283 7.50094 9.84283H7.50047L7.5 9.8433ZM7.5 3.89064C5.50641 3.89064 3.89063 5.50689 3.89063 7.50002C3.89063 9.49314 5.50688 11.1094 7.5 11.1094C9.4936 11.1094 11.1094 9.49314 11.1094 7.50002C11.1094 7.50002 11.1094 7.50002 11.1094 7.49955C11.1094 5.50642 9.4936 3.89017 7.5 3.89017C7.5 3.89017 7.5 3.89017 7.49953 3.89017L7.5 3.89064ZM7.5 1.73627C9.37641 1.73627 9.6 1.74564 10.3411 1.77799C10.8113 1.78361 11.2584 1.87267 11.6723 2.03017L11.6456 2.02127C12.2616 2.26127 12.7397 2.73939 12.9745 3.33939L12.9802 3.35533C13.1283 3.74252 13.2164 4.19017 13.222 4.65752V4.65986C13.2553 5.40142 13.2628 5.62408 13.2628 7.50096C13.2628 9.37783 13.2539 9.60096 13.2197 10.342C13.2108 10.8127 13.1213 11.2599 12.9642 11.6738L12.9731 11.6466C12.8522 11.9635 12.6731 12.2335 12.4467 12.4556L12.4463 12.4561C12.2245 12.683 11.9545 12.862 11.6531 12.976L11.6381 12.9811C11.2495 13.1292 10.8005 13.2174 10.3313 13.223H10.3289C9.58266 13.2563 9.36281 13.2638 7.48266 13.2638C5.60156 13.2638 5.38219 13.2549 4.63641 13.2206C4.16391 13.2117 3.71485 13.1222 3.29906 12.9652L3.32672 12.9741C3.00985 12.855 2.73985 12.6755 2.51953 12.4481L2.51906 12.4477C2.28985 12.2274 2.10985 11.9569 1.99688 11.6541L1.99219 11.6395C1.84453 11.2514 1.755 10.8028 1.7461 10.3341V10.3303C1.71985 9.59205 1.71047 9.36424 1.71047 7.49299C1.71047 5.6208 1.71985 5.39252 1.7461 4.64533C1.755 4.1733 1.84406 3.7247 2.0011 3.30939L1.99219 3.33705C2.10797 3.01877 2.28844 2.74783 2.5186 2.52892L2.51953 2.52799C2.73891 2.29736 3.00938 2.11783 3.31266 2.00674L3.32719 2.00205C3.71297 1.85299 4.15875 1.76345 4.62469 1.75549H4.62797C5.37469 1.72924 5.59453 1.72033 7.47422 1.72033L7.5 1.73627ZM7.5 0.470642C5.59031 0.470642 5.35219 0.479548 4.60219 0.51283C3.98578 0.525955 3.40125 0.645017 2.86031 0.851736L2.89594 0.840017C2.40844 1.02611 1.99313 1.3022 1.65094 1.65002L1.65047 1.65049C1.30125 1.99267 1.02563 2.40845 0.847502 2.87252L0.839533 2.89595C0.644533 3.40127 0.525471 3.98627 0.512814 4.59658V4.6022C0.477658 5.3522 0.470627 5.59033 0.470627 7.50002C0.470627 9.4097 0.479533 9.64783 0.512814 10.3978C0.525939 11.0142 0.645002 11.5988 0.851721 12.1397L0.840002 12.1041C1.21313 13.0514 1.9486 13.7869 2.87156 14.1516L2.89594 14.16C3.40125 14.3545 3.98625 14.4736 4.59656 14.4867H4.60219C5.35219 14.5219 5.59031 14.5289 7.5 14.5289C9.40969 14.5289 9.64781 14.52 10.3978 14.4867C11.0142 14.4731 11.5988 14.3545 12.1397 14.1478L12.1041 14.16C13.0514 13.7869 13.7869 13.0514 14.1516 12.1285L14.16 12.1041C14.355 11.5988 14.4736 11.0138 14.4867 10.4035V10.3978C14.5219 9.64783 14.5289 9.4097 14.5289 7.50002C14.5289 5.59033 14.52 5.3522 14.4867 4.6022C14.4731 3.9858 14.3545 3.40127 14.1478 2.86033L14.16 2.89595C13.9734 2.40845 13.6978 1.99314 13.3495 1.65095L13.3491 1.65049C13.0069 1.30127 12.5911 1.02564 12.127 0.847517L12.1036 0.839548C11.5983 0.644548 11.0133 0.525486 10.403 0.51283H10.3973C9.64735 0.477673 9.40922 0.470642 7.49953 0.470642H7.5Z" fill="#101010"/>
</g>
<defs>
<clipPath id="clip0_23_527">
<rect width="15" height="15" fill="white"/>
</clipPath>
</defs>
</svg>
