<svg width="28" height="28" viewBox="0 0 28 28" fill="none" xmlns="http://www.w3.org/2000/svg">
<path d="M1.45454 0.363648H0.363632V1.45456H1.45454V0.363648Z" fill="#101010"/>
<path d="M1.45454 1.45456H0.363632L0.363632 2.54547H1.45454L1.45454 1.45456Z" fill="#101010"/>
<path d="M1.45454 2.54547H0.363632V3.63637H1.45454V2.54547Z" fill="#101010"/>
<path d="M1.45454 3.63637H0.363632V4.72728H1.45454V3.63637Z" fill="#101010"/>
<path d="M1.45454 4.72728H0.363632V5.81819H1.45454V4.72728Z" fill="#101010"/>
<path d="M1.45454 5.81819H0.363632V6.9091H1.45454V5.81819Z" fill="#101010"/>
<path d="M1.45454 6.9091H0.363632V8.00001H1.45454V6.9091Z" fill="#101010"/>
<path d="M1.45454 9.09092H0.363632V10.1818H1.45454V9.09092Z" fill="#101010"/>
<path d="M1.45454 10.1818H0.363632V11.2727H1.45454V10.1818Z" fill="#101010"/>
<path d="M1.45454 13.4546H0.363632V14.5455H1.45454V13.4546Z" fill="#101010"/>
<path d="M1.45454 20H0.363632V21.0909H1.45454V20Z" fill="#101010"/>
<path d="M1.45454 21.0909H0.363632V22.1818H1.45454V21.0909Z" fill="#101010"/>
<path d="M1.45454 22.1818H0.363632V23.2727H1.45454V22.1818Z" fill="#101010"/>
<path d="M1.45454 23.2727H0.363632V24.3636H1.45454V23.2727Z" fill="#101010"/>
<path d="M1.45454 24.3636H0.363632V25.4546H1.45454V24.3636Z" fill="#101010"/>
<path d="M1.45454 25.4546H0.363632V26.5455H1.45454V25.4546Z" fill="#101010"/>
<path d="M1.45454 26.5455H0.363632V27.6364H1.45454V26.5455Z" fill="#101010"/>
<path d="M2.54545 0.363647L1.45454 0.363648V1.45456L2.54545 1.45456V0.363647Z" fill="#101010"/>
<path d="M2.54545 6.9091L1.45454 6.9091V8.00001H2.54545V6.9091Z" fill="#101010"/>
<path d="M2.54545 9.09092H1.45454V10.1818H2.54545V9.09092Z" fill="#101010"/>
<path d="M2.54545 10.1818H1.45454V11.2727H2.54545V10.1818Z" fill="#101010"/>
<path d="M2.54545 11.2727H1.45454L1.45454 12.3636H2.54545V11.2727Z" fill="#101010"/>
<path d="M2.54545 14.5455L1.45454 14.5455L1.45454 15.6364H2.54545V14.5455Z" fill="#101010"/>
<path d="M2.54545 16.7273H1.45454V17.8182H2.54545V16.7273Z" fill="#101010"/>
<path d="M2.54545 17.8182H1.45454V18.9091H2.54545V17.8182Z" fill="#101010"/>
<path d="M2.54545 20H1.45454V21.0909H2.54545V20Z" fill="#101010"/>
<path d="M2.54545 26.5455H1.45454V27.6364H2.54545V26.5455Z" fill="#101010"/>
<path d="M3.63636 0.363647H2.54545V1.45456H3.63636V0.363647Z" fill="#101010"/>
<path d="M3.63636 2.54547H2.54545V3.63637H3.63636V2.54547Z" fill="#101010"/>
<path d="M3.63636 3.63637H2.54545V4.72728H3.63636V3.63637Z" fill="#101010"/>
<path d="M3.63636 4.72728H2.54545V5.81819H3.63636V4.72728Z" fill="#101010"/>
<path d="M3.63636 6.9091H2.54545V8.00001H3.63636V6.9091Z" fill="#101010"/>
<path d="M3.63636 12.3636L2.54545 12.3636V13.4546H3.63636V12.3636Z" fill="#101010"/>
<path d="M3.63636 14.5455H2.54545V15.6364H3.63636V14.5455Z" fill="#101010"/>
<path d="M3.63636 15.6364H2.54545V16.7273H3.63636V15.6364Z" fill="#101010"/>
<path d="M3.63636 17.8182H2.54545V18.9091H3.63636V17.8182Z" fill="#101010"/>
<path d="M3.63636 20H2.54545V21.0909H3.63636V20Z" fill="#101010"/>
<path d="M3.63636 22.1818H2.54545V23.2727H3.63636V22.1818Z" fill="#101010"/>
<path d="M3.63636 23.2727H2.54545V24.3636H3.63636V23.2727Z" fill="#101010"/>
<path d="M3.63636 24.3636H2.54545V25.4546H3.63636V24.3636Z" fill="#101010"/>
<path d="M3.63636 26.5455H2.54545V27.6364H3.63636V26.5455Z" fill="#101010"/>
<path d="M4.72727 0.363647H3.63636V1.45456H4.72727V0.363647Z" fill="#101010"/>
<path d="M4.72727 2.54547H3.63636V3.63637H4.72727V2.54547Z" fill="#101010"/>
<path d="M4.72727 3.63637H3.63636V4.72728H4.72727V3.63637Z" fill="#101010"/>
<path d="M4.72727 4.72728H3.63636V5.81819H4.72727V4.72728Z" fill="#101010"/>
<path d="M4.72727 6.9091H3.63636V8.00001H4.72727V6.9091Z" fill="#101010"/>
<path d="M4.72727 9.09092H3.63636V10.1818H4.72727V9.09092Z" fill="#101010"/>
<path d="M4.72727 11.2727H3.63636V12.3636L4.72727 12.3636V11.2727Z" fill="#101010"/>
<path d="M4.72727 12.3636L3.63636 12.3636V13.4546H4.72727V12.3636Z" fill="#101010"/>
<path d="M4.72727 14.5455H3.63636V15.6364H4.72727V14.5455Z" fill="#101010"/>
<path d="M4.72727 17.8182H3.63636V18.9091H4.72727V17.8182Z" fill="#101010"/>
<path d="M4.72727 20H3.63636V21.0909H4.72727V20Z" fill="#101010"/>
<path d="M4.72727 22.1818H3.63636V23.2727H4.72727V22.1818Z" fill="#101010"/>
<path d="M4.72727 23.2727H3.63636V24.3636H4.72727V23.2727Z" fill="#101010"/>
<path d="M4.72727 24.3636H3.63636V25.4546H4.72727V24.3636Z" fill="#101010"/>
<path d="M4.72727 26.5455H3.63636V27.6364H4.72727V26.5455Z" fill="#101010"/>
<path d="M5.81818 0.363647H4.72727V1.45456H5.81818V0.363647Z" fill="#101010"/>
<path d="M5.81818 2.54547H4.72727V3.63637H5.81818V2.54547Z" fill="#101010"/>
<path d="M5.81818 3.63637H4.72727V4.72728H5.81818V3.63637Z" fill="#101010"/>
<path d="M5.81818 4.72728H4.72727V5.81819H5.81818V4.72728Z" fill="#101010"/>
<path d="M5.81818 6.9091H4.72727V8.00001H5.81818V6.9091Z" fill="#101010"/>
<path d="M5.81818 9.09092H4.72727V10.1818H5.81818V9.09092Z" fill="#101010"/>
<path d="M5.81818 11.2727H4.72727V12.3636H5.81818V11.2727Z" fill="#101010"/>
<path d="M5.81818 12.3636H4.72727V13.4546H5.81818V12.3636Z" fill="#101010"/>
<path d="M5.81818 13.4546H4.72727V14.5455L5.81818 14.5455V13.4546Z" fill="#101010"/>
<path d="M5.81818 17.8182H4.72727V18.9091H5.81818V17.8182Z" fill="#101010"/>
<path d="M5.81818 20H4.72727V21.0909H5.81818V20Z" fill="#101010"/>
<path d="M5.81818 22.1818H4.72727V23.2727H5.81818V22.1818Z" fill="#101010"/>
<path d="M5.81818 23.2727H4.72727V24.3636H5.81818V23.2727Z" fill="#101010"/>
<path d="M5.81818 24.3636H4.72727V25.4546H5.81818V24.3636Z" fill="#101010"/>
<path d="M5.81818 26.5455H4.72727V27.6364H5.81818V26.5455Z" fill="#101010"/>
<path d="M6.90909 0.363647H5.81818V1.45456H6.90909V0.363647Z" fill="#101010"/>
<path d="M6.90909 6.9091H5.81818V8.00001H6.90909V6.9091Z" fill="#101010"/>
<path d="M6.90909 10.1818L5.81818 10.1818V11.2727H6.90909V10.1818Z" fill="#101010"/>
<path d="M6.90909 15.6364H5.81818V16.7273H6.90909V15.6364Z" fill="#101010"/>
<path d="M6.90909 17.8182H5.81818V18.9091H6.90909V17.8182Z" fill="#101010"/>
<path d="M6.90909 20H5.81818V21.0909H6.90909V20Z" fill="#101010"/>
<path d="M6.90909 26.5455H5.81818V27.6364H6.90909V26.5455Z" fill="#101010"/>
<path d="M8 0.363647H6.90909V1.45456H8V0.363647Z" fill="#101010"/>
<path d="M8 1.45456H6.90909L6.90909 2.54547H8V1.45456Z" fill="#101010"/>
<path d="M8 2.54547H6.90909V3.63637H8V2.54547Z" fill="#101010"/>
<path d="M8 3.63637H6.90909V4.72728H8V3.63637Z" fill="#101010"/>
<path d="M8 4.72728H6.90909V5.81819H8V4.72728Z" fill="#101010"/>
<path d="M8 5.81819H6.90909L6.90909 6.9091L8 6.9091V5.81819Z" fill="#101010"/>
<path d="M8 6.9091L6.90909 6.9091V8.00001H8V6.9091Z" fill="#101010"/>
<path d="M8 9.09092H6.90909L6.90909 10.1818L8 10.1818V9.09092Z" fill="#101010"/>
<path d="M8 11.2727H6.90909L6.90909 12.3636H8V11.2727Z" fill="#101010"/>
<path d="M8 13.4546H6.90909V14.5455H8V13.4546Z" fill="#101010"/>
<path d="M8 15.6364H6.90909V16.7273H8V15.6364Z" fill="#101010"/>
<path d="M8 17.8182H6.90909V18.9091H8V17.8182Z" fill="#101010"/>
<path d="M8 20H6.90909V21.0909H8V20Z" fill="#101010"/>
<path d="M8 21.0909H6.90909L6.90909 22.1818H8V21.0909Z" fill="#101010"/>
<path d="M8 22.1818H6.90909V23.2727H8V22.1818Z" fill="#101010"/>
<path d="M8 23.2727H6.90909V24.3636H8V23.2727Z" fill="#101010"/>
<path d="M8 24.3636H6.90909V25.4546H8V24.3636Z" fill="#101010"/>
<path d="M8 25.4546H6.90909L6.90909 26.5455H8V25.4546Z" fill="#101010"/>
<path d="M8 26.5455H6.90909V27.6364H8V26.5455Z" fill="#101010"/>
<path d="M9.09091 11.2727H8V12.3636H9.09091V11.2727Z" fill="#101010"/>
<path d="M9.09091 14.5455L8 14.5455V15.6364L9.09091 15.6364V14.5455Z" fill="#101010"/>
<path d="M9.09091 17.8182H8V18.9091H9.09091V17.8182Z" fill="#101010"/>
<path d="M10.1818 0.363647H9.0909V1.45456H10.1818V0.363647Z" fill="#101010"/>
<path d="M10.1818 6.9091H9.0909V8.00001H10.1818V6.9091Z" fill="#101010"/>
<path d="M10.1818 8.00001H9.0909V9.09092H10.1818V8.00001Z" fill="#101010"/>
<path d="M10.1818 11.2727H9.09091V12.3636H10.1818V11.2727Z" fill="#101010"/>
<path d="M10.1818 14.5455H9.09091V15.6364H10.1818V14.5455Z" fill="#101010"/>
<path d="M10.1818 16.7273H9.0909L9.09091 17.8182H10.1818V16.7273Z" fill="#101010"/>
<path d="M10.1818 17.8182H9.09091V18.9091H10.1818V17.8182Z" fill="#101010"/>
<path d="M10.1818 18.9091H9.09091L9.0909 20H10.1818V18.9091Z" fill="#101010"/>
<path d="M10.1818 22.1818H9.0909V23.2727H10.1818V22.1818Z" fill="#101010"/>
<path d="M10.1818 23.2727H9.0909V24.3636H10.1818V23.2727Z" fill="#101010"/>
<path d="M10.1818 25.4546H9.0909V26.5455H10.1818V25.4546Z" fill="#101010"/>
<path d="M10.1818 26.5455H9.0909V27.6364H10.1818V26.5455Z" fill="#101010"/>
<path d="M11.2727 1.45456L10.1818 1.45456L10.1818 2.54547H11.2727V1.45456Z" fill="#101010"/>
<path d="M11.2727 2.54547H10.1818V3.63637H11.2727V2.54547Z" fill="#101010"/>
<path d="M11.2727 5.81819H10.1818L10.1818 6.9091L11.2727 6.9091V5.81819Z" fill="#101010"/>
<path d="M11.2727 8.00001L10.1818 8.00001V9.09092H11.2727V8.00001Z" fill="#101010"/>
<path d="M11.2727 9.09092H10.1818L10.1818 10.1818H11.2727V9.09092Z" fill="#101010"/>
<path d="M11.2727 11.2727H10.1818V12.3636H11.2727V11.2727Z" fill="#101010"/>
<path d="M11.2727 13.4546H10.1818L10.1818 14.5455L11.2727 14.5455V13.4546Z" fill="#101010"/>
<path d="M11.2727 14.5455L10.1818 14.5455V15.6364H11.2727V14.5455Z" fill="#101010"/>
<path d="M11.2727 15.6364H10.1818V16.7273H11.2727V15.6364Z" fill="#101010"/>
<path d="M11.2727 21.0909H10.1818L10.1818 22.1818L11.2727 22.1818V21.0909Z" fill="#101010"/>
<path d="M11.2727 23.2727L10.1818 23.2727V24.3636H11.2727V23.2727Z" fill="#101010"/>
<path d="M11.2727 24.3636H10.1818V25.4546L11.2727 25.4546V24.3636Z" fill="#101010"/>
<path d="M11.2727 26.5455H10.1818V27.6364H11.2727V26.5455Z" fill="#101010"/>
<path d="M12.3636 0.363647H11.2727V1.45456L12.3636 1.45456V0.363647Z" fill="#101010"/>
<path d="M12.3636 1.45456L11.2727 1.45456V2.54547H12.3636V1.45456Z" fill="#101010"/>
<path d="M12.3636 3.63637H11.2727V4.72728H12.3636V3.63637Z" fill="#101010"/>
<path d="M12.3636 6.9091L11.2727 6.9091V8.00001L12.3636 8.00001V6.9091Z" fill="#101010"/>
<path d="M12.3636 10.1818L11.2727 10.1818V11.2727H12.3636V10.1818Z" fill="#101010"/>
<path d="M12.3636 13.4546H11.2727V14.5455H12.3636V13.4546Z" fill="#101010"/>
<path d="M12.3636 14.5455H11.2727V15.6364H12.3636V14.5455Z" fill="#101010"/>
<path d="M12.3636 16.7273H11.2727V17.8182H12.3636V16.7273Z" fill="#101010"/>
<path d="M12.3636 18.9091H11.2727V20H12.3636V18.9091Z" fill="#101010"/>
<path d="M12.3636 21.0909H11.2727V22.1818H12.3636V21.0909Z" fill="#101010"/>
<path d="M12.3636 23.2727H11.2727V24.3636H12.3636V23.2727Z" fill="#101010"/>
<path d="M12.3636 24.3636H11.2727V25.4546H12.3636V24.3636Z" fill="#101010"/>
<path d="M12.3636 25.4546H11.2727V26.5455H12.3636V25.4546Z" fill="#101010"/>
<path d="M13.4545 5.81819H12.3636L12.3636 6.9091L13.4545 6.9091V5.81819Z" fill="#101010"/>
<path d="M13.4545 10.1818H12.3636V11.2727H13.4545V10.1818Z" fill="#101010"/>
<path d="M13.4545 11.2727H12.3636L12.3636 12.3636H13.4545V11.2727Z" fill="#101010"/>
<path d="M13.4545 14.5455L12.3636 14.5455V15.6364H13.4545V14.5455Z" fill="#101010"/>
<path d="M13.4545 20H12.3636V21.0909H13.4545V20Z" fill="#101010"/>
<path d="M13.4545 21.0909H12.3636V22.1818H13.4545V21.0909Z" fill="#101010"/>
<path d="M13.4545 22.1818H12.3636V23.2727L13.4545 23.2727V22.1818Z" fill="#101010"/>
<path d="M13.4545 23.2727L12.3636 23.2727V24.3636H13.4545V23.2727Z" fill="#101010"/>
<path d="M13.4545 24.3636H12.3636V25.4546H13.4545V24.3636Z" fill="#101010"/>
<path d="M13.4545 26.5455H12.3636L12.3636 27.6364H13.4545V26.5455Z" fill="#101010"/>
<path d="M14.5455 0.363647H13.4545V1.45456H14.5455V0.363647Z" fill="#101010"/>
<path d="M14.5455 6.9091L13.4545 6.9091L13.4545 8.00001H14.5455V6.9091Z" fill="#101010"/>
<path d="M14.5455 8.00001H13.4545V9.09092H14.5455V8.00001Z" fill="#101010"/>
<path d="M14.5455 9.09092H13.4545L13.4545 10.1818L14.5455 10.1818V9.09092Z" fill="#101010"/>
<path d="M14.5455 11.2727H13.4545V12.3636H14.5455V11.2727Z" fill="#101010"/>
<path d="M14.5455 13.4546H13.4545L13.4545 14.5455L14.5455 14.5455V13.4546Z" fill="#101010"/>
<path d="M14.5455 14.5455L13.4545 14.5455V15.6364H14.5455V14.5455Z" fill="#101010"/>
<path d="M14.5455 17.8182H13.4545V18.9091H14.5455V17.8182Z" fill="#101010"/>
<path d="M14.5455 22.1818L13.4545 22.1818V23.2727H14.5455V22.1818Z" fill="#101010"/>
<path d="M14.5455 25.4546L13.4545 25.4546V26.5455H14.5455V25.4546Z" fill="#101010"/>
<path d="M14.5455 26.5455H13.4545V27.6364H14.5455V26.5455Z" fill="#101010"/>
<path d="M15.6364 0.363647H14.5455V1.45456H15.6364V0.363647Z" fill="#101010"/>
<path d="M15.6364 1.45456H14.5455L14.5455 2.54547H15.6364V1.45456Z" fill="#101010"/>
<path d="M15.6364 2.54547H14.5455V3.63637H15.6364V2.54547Z" fill="#101010"/>
<path d="M15.6364 3.63637H14.5455V4.72728H15.6364V3.63637Z" fill="#101010"/>
<path d="M15.6364 4.72728H14.5455V5.81819H15.6364V4.72728Z" fill="#101010"/>
<path d="M15.6364 8.00001L14.5455 8.00001V9.09092H15.6364V8.00001Z" fill="#101010"/>
<path d="M15.6364 11.2727H14.5455V12.3636H15.6364V11.2727Z" fill="#101010"/>
<path d="M15.6364 14.5455L14.5455 14.5455V15.6364H15.6364V14.5455Z" fill="#101010"/>
<path d="M15.6364 15.6364H14.5455L14.5455 16.7273H15.6364V15.6364Z" fill="#101010"/>
<path d="M15.6364 17.8182H14.5455V18.9091H15.6364V17.8182Z" fill="#101010"/>
<path d="M15.6364 21.0909H14.5455L14.5455 22.1818L15.6364 22.1818V21.0909Z" fill="#101010"/>
<path d="M15.6364 23.2727L14.5455 23.2727L14.5455 24.3636H15.6364V23.2727Z" fill="#101010"/>
<path d="M15.6364 24.3636H14.5455L14.5455 25.4546L15.6364 25.4546V24.3636Z" fill="#101010"/>
<path d="M16.7273 0.363647H15.6364V1.45456H16.7273V0.363647Z" fill="#101010"/>
<path d="M16.7273 2.54547H15.6364V3.63637H16.7273V2.54547Z" fill="#101010"/>
<path d="M16.7273 4.72728L15.6364 4.72728V5.81819H16.7273V4.72728Z" fill="#101010"/>
<path d="M16.7273 5.81819H15.6364L15.6364 6.9091H16.7273V5.81819Z" fill="#101010"/>
<path d="M16.7273 6.9091H15.6364L15.6364 8.00001L16.7273 8.00001V6.9091Z" fill="#101010"/>
<path d="M16.7273 8.00001L15.6364 8.00001V9.09092H16.7273V8.00001Z" fill="#101010"/>
<path d="M16.7273 9.09092H15.6364L15.6364 10.1818H16.7273V9.09092Z" fill="#101010"/>
<path d="M16.7273 14.5455H15.6364V15.6364H16.7273V14.5455Z" fill="#101010"/>
<path d="M16.7273 15.6364H15.6364V16.7273H16.7273V15.6364Z" fill="#101010"/>
<path d="M16.7273 18.9091L15.6364 18.9091L15.6364 20H16.7273V18.9091Z" fill="#101010"/>
<path d="M16.7273 20H15.6364L15.6364 21.0909H16.7273V20Z" fill="#101010"/>
<path d="M16.7273 23.2727H15.6364V24.3636H16.7273V23.2727Z" fill="#101010"/>
<path d="M17.8182 2.54547H16.7273V3.63637H17.8182V2.54547Z" fill="#101010"/>
<path d="M17.8182 3.63637H16.7273V4.72728L17.8182 4.72728V3.63637Z" fill="#101010"/>
<path d="M17.8182 8.00001L16.7273 8.00001V9.09092H17.8182V8.00001Z" fill="#101010"/>
<path d="M17.8182 9.09092H16.7273V10.1818H17.8182V9.09092Z" fill="#101010"/>
<path d="M17.8182 10.1818H16.7273V11.2727H17.8182V10.1818Z" fill="#101010"/>
<path d="M17.8182 11.2727H16.7273V12.3636H17.8182V11.2727Z" fill="#101010"/>
<path d="M17.8182 13.4546H16.7273V14.5455L17.8182 14.5455V13.4546Z" fill="#101010"/>
<path d="M17.8182 14.5455L16.7273 14.5455V15.6364H17.8182V14.5455Z" fill="#101010"/>
<path d="M17.8182 15.6364H16.7273V16.7273H17.8182V15.6364Z" fill="#101010"/>
<path d="M17.8182 21.0909H16.7273V22.1818H17.8182V21.0909Z" fill="#101010"/>
<path d="M17.8182 22.1818H16.7273V23.2727L17.8182 23.2727V22.1818Z" fill="#101010"/>
<path d="M17.8182 24.3636H16.7273V25.4546H17.8182V24.3636Z" fill="#101010"/>
<path d="M18.9091 2.54547H17.8182V3.63637H18.9091V2.54547Z" fill="#101010"/>
<path d="M18.9091 3.63637H17.8182V4.72728H18.9091V3.63637Z" fill="#101010"/>
<path d="M18.9091 4.72728H17.8182V5.81819H18.9091V4.72728Z" fill="#101010"/>
<path d="M18.9091 6.9091H17.8182V8.00001L18.9091 8.00001V6.9091Z" fill="#101010"/>
<path d="M18.9091 11.2727H17.8182V12.3636H18.9091V11.2727Z" fill="#101010"/>
<path d="M18.9091 12.3636H17.8182V13.4546L18.9091 13.4546V12.3636Z" fill="#101010"/>
<path d="M18.9091 13.4546L17.8182 13.4546V14.5455H18.9091V13.4546Z" fill="#101010"/>
<path d="M18.9091 14.5455H17.8182V15.6364H18.9091V14.5455Z" fill="#101010"/>
<path d="M18.9091 16.7273H17.8182V17.8182H18.9091V16.7273Z" fill="#101010"/>
<path d="M18.9091 17.8182H17.8182V18.9091H18.9091V17.8182Z" fill="#101010"/>
<path d="M18.9091 18.9091H17.8182V20H18.9091V18.9091Z" fill="#101010"/>
<path d="M18.9091 20H17.8182V21.0909H18.9091V20Z" fill="#101010"/>
<path d="M18.9091 21.0909H17.8182V22.1818H18.9091V21.0909Z" fill="#101010"/>
<path d="M18.9091 22.1818H17.8182V23.2727H18.9091V22.1818Z" fill="#101010"/>
<path d="M18.9091 23.2727H17.8182V24.3636H18.9091V23.2727Z" fill="#101010"/>
<path d="M18.9091 24.3636H17.8182V25.4546H18.9091V24.3636Z" fill="#101010"/>
<path d="M18.9091 26.5455H17.8182V27.6364H18.9091V26.5455Z" fill="#101010"/>
<path d="M20 10.1818H18.9091L18.9091 11.2727H20V10.1818Z" fill="#101010"/>
<path d="M20 13.4546L18.9091 13.4546V14.5455H20V13.4546Z" fill="#101010"/>
<path d="M20 15.6364L18.9091 15.6364V16.7273H20V15.6364Z" fill="#101010"/>
<path d="M20 17.8182H18.9091V18.9091H20V17.8182Z" fill="#101010"/>
<path d="M20 22.1818L18.9091 22.1818V23.2727H20V22.1818Z" fill="#101010"/>
<path d="M20 23.2727H18.9091V24.3636H20V23.2727Z" fill="#101010"/>
<path d="M20 25.4546L18.9091 25.4546V26.5455H20V25.4546Z" fill="#101010"/>
<path d="M21.0909 0.363647H20V1.45456H21.0909V0.363647Z" fill="#101010"/>
<path d="M21.0909 1.45456H20V2.54547H21.0909V1.45456Z" fill="#101010"/>
<path d="M21.0909 2.54547H20V3.63637H21.0909V2.54547Z" fill="#101010"/>
<path d="M21.0909 3.63637H20V4.72728H21.0909V3.63637Z" fill="#101010"/>
<path d="M21.0909 4.72728H20V5.81819H21.0909V4.72728Z" fill="#101010"/>
<path d="M21.0909 5.81819H20V6.9091H21.0909V5.81819Z" fill="#101010"/>
<path d="M21.0909 6.9091H20V8.00001H21.0909V6.9091Z" fill="#101010"/>
<path d="M21.0909 9.09092H20V10.1818L21.0909 10.1818V9.09092Z" fill="#101010"/>
<path d="M21.0909 11.2727H20V12.3636H21.0909V11.2727Z" fill="#101010"/>
<path d="M21.0909 13.4546H20V14.5455H21.0909V13.4546Z" fill="#101010"/>
<path d="M21.0909 17.8182H20V18.9091H21.0909V17.8182Z" fill="#101010"/>
<path d="M21.0909 20H20V21.0909H21.0909V20Z" fill="#101010"/>
<path d="M21.0909 22.1818H20V23.2727H21.0909V22.1818Z" fill="#101010"/>
<path d="M21.0909 23.2727H20V24.3636H21.0909V23.2727Z" fill="#101010"/>
<path d="M21.0909 25.4546H20V26.5455H21.0909V25.4546Z" fill="#101010"/>
<path d="M22.1818 0.363647H21.0909V1.45456H22.1818V0.363647Z" fill="#101010"/>
<path d="M22.1818 6.9091L21.0909 6.9091V8.00001H22.1818V6.9091Z" fill="#101010"/>
<path d="M22.1818 10.1818L21.0909 10.1818V11.2727H22.1818V10.1818Z" fill="#101010"/>
<path d="M22.1818 11.2727H21.0909V12.3636H22.1818V11.2727Z" fill="#101010"/>
<path d="M22.1818 12.3636H21.0909V13.4546L22.1818 13.4546V12.3636Z" fill="#101010"/>
<path d="M22.1818 16.7273H21.0909V17.8182H22.1818V16.7273Z" fill="#101010"/>
<path d="M22.1818 17.8182H21.0909V18.9091H22.1818V17.8182Z" fill="#101010"/>
<path d="M22.1818 22.1818H21.0909V23.2727H22.1818V22.1818Z" fill="#101010"/>
<path d="M22.1818 23.2727H21.0909V24.3636H22.1818V23.2727Z" fill="#101010"/>
<path d="M22.1818 24.3636H21.0909V25.4546L22.1818 25.4546V24.3636Z" fill="#101010"/>
<path d="M22.1818 25.4546L21.0909 25.4546V26.5455H22.1818V25.4546Z" fill="#101010"/>
<path d="M23.2727 0.363647H22.1818V1.45456H23.2727V0.363647Z" fill="#101010"/>
<path d="M23.2727 2.54547H22.1818V3.63637H23.2727V2.54547Z" fill="#101010"/>
<path d="M23.2727 3.63637H22.1818V4.72728H23.2727V3.63637Z" fill="#101010"/>
<path d="M23.2727 4.72728H22.1818V5.81819H23.2727V4.72728Z" fill="#101010"/>
<path d="M23.2727 6.9091H22.1818V8.00001H23.2727V6.9091Z" fill="#101010"/>
<path d="M23.2727 10.1818H22.1818V11.2727H23.2727V10.1818Z" fill="#101010"/>
<path d="M23.2727 14.5455H22.1818V15.6364H23.2727V14.5455Z" fill="#101010"/>
<path d="M23.2727 15.6364H22.1818L22.1818 16.7273H23.2727V15.6364Z" fill="#101010"/>
<path d="M23.2727 16.7273H22.1818V17.8182H23.2727V16.7273Z" fill="#101010"/>
<path d="M23.2727 17.8182H22.1818V18.9091H23.2727V17.8182Z" fill="#101010"/>
<path d="M23.2727 18.9091H22.1818L22.1818 20H23.2727V18.9091Z" fill="#101010"/>
<path d="M23.2727 20H22.1818V21.0909H23.2727V20Z" fill="#101010"/>
<path d="M23.2727 21.0909H22.1818L22.1818 22.1818L23.2727 22.1818V21.0909Z" fill="#101010"/>
<path d="M23.2727 22.1818L22.1818 22.1818V23.2727H23.2727V22.1818Z" fill="#101010"/>
<path d="M23.2727 24.3636H22.1818V25.4546H23.2727V24.3636Z" fill="#101010"/>
<path d="M23.2727 25.4546H22.1818V26.5455H23.2727V25.4546Z" fill="#101010"/>
<path d="M24.3636 0.363647H23.2727V1.45456H24.3636V0.363647Z" fill="#101010"/>
<path d="M24.3636 2.54547H23.2727V3.63637H24.3636V2.54547Z" fill="#101010"/>
<path d="M24.3636 3.63637H23.2727V4.72728H24.3636V3.63637Z" fill="#101010"/>
<path d="M24.3636 4.72728H23.2727V5.81819H24.3636V4.72728Z" fill="#101010"/>
<path d="M24.3636 6.9091H23.2727V8.00001H24.3636V6.9091Z" fill="#101010"/>
<path d="M24.3636 10.1818H23.2727V11.2727H24.3636V10.1818Z" fill="#101010"/>
<path d="M24.3636 11.2727H23.2727L23.2727 12.3636H24.3636V11.2727Z" fill="#101010"/>
<path d="M24.3636 12.3636H23.2727V13.4546H24.3636V12.3636Z" fill="#101010"/>
<path d="M24.3636 15.6364L23.2727 15.6364V16.7273H24.3636V15.6364Z" fill="#101010"/>
<path d="M24.3636 20H23.2727V21.0909H24.3636V20Z" fill="#101010"/>
<path d="M24.3636 22.1818L23.2727 22.1818V23.2727H24.3636V22.1818Z" fill="#101010"/>
<path d="M24.3636 23.2727H23.2727V24.3636H24.3636V23.2727Z" fill="#101010"/>
<path d="M24.3636 26.5455H23.2727L23.2727 27.6364H24.3636V26.5455Z" fill="#101010"/>
<path d="M25.4545 0.363647H24.3636V1.45456H25.4545V0.363647Z" fill="#101010"/>
<path d="M25.4545 2.54547H24.3636V3.63637H25.4545V2.54547Z" fill="#101010"/>
<path d="M25.4545 3.63637H24.3636V4.72728H25.4545V3.63637Z" fill="#101010"/>
<path d="M25.4545 4.72728H24.3636V5.81819H25.4545V4.72728Z" fill="#101010"/>
<path d="M25.4545 6.9091H24.3636V8.00001H25.4545V6.9091Z" fill="#101010"/>
<path d="M25.4545 10.1818H24.3636V11.2727H25.4545V10.1818Z" fill="#101010"/>
<path d="M25.4545 12.3636L24.3636 12.3636V13.4546H25.4545V12.3636Z" fill="#101010"/>
<path d="M25.4545 15.6364H24.3636V16.7273H25.4545V15.6364Z" fill="#101010"/>
<path d="M25.4545 16.7273H24.3636V17.8182H25.4545V16.7273Z" fill="#101010"/>
<path d="M25.4545 17.8182H24.3636V18.9091H25.4545V17.8182Z" fill="#101010"/>
<path d="M25.4545 24.3636H24.3636V25.4546H25.4545V24.3636Z" fill="#101010"/>
<path d="M25.4545 25.4546H24.3636V26.5455H25.4545V25.4546Z" fill="#101010"/>
<path d="M26.5455 0.363647H25.4545V1.45456H26.5455V0.363647Z" fill="#101010"/>
<path d="M26.5455 6.9091H25.4545V8.00001H26.5455V6.9091Z" fill="#101010"/>
<path d="M26.5455 10.1818H25.4545V11.2727H26.5455V10.1818Z" fill="#101010"/>
<path d="M26.5455 12.3636H25.4545V13.4546H26.5455V12.3636Z" fill="#101010"/>
<path d="M26.5455 14.5455H25.4545L25.4545 15.6364L26.5455 15.6364V14.5455Z" fill="#101010"/>
<path d="M26.5455 15.6364L25.4545 15.6364V16.7273H26.5455V15.6364Z" fill="#101010"/>
<path d="M26.5455 17.8182H25.4545V18.9091H26.5455V17.8182Z" fill="#101010"/>
<path d="M26.5455 18.9091H25.4545L25.4545 20H26.5455V18.9091Z" fill="#101010"/>
<path d="M26.5455 22.1818H25.4545V23.2727H26.5455V22.1818Z" fill="#101010"/>
<path d="M26.5455 23.2727H25.4545L25.4545 24.3636H26.5455V23.2727Z" fill="#101010"/>
<path d="M26.5455 24.3636H25.4545V25.4546H26.5455V24.3636Z" fill="#101010"/>
<path d="M26.5455 25.4546H25.4545V26.5455H26.5455V25.4546Z" fill="#101010"/>
<path d="M27.6364 0.363647H26.5455V1.45456H27.6364V0.363647Z" fill="#101010"/>
<path d="M27.6364 1.45456H26.5455V2.54547H27.6364V1.45456Z" fill="#101010"/>
<path d="M27.6364 2.54547H26.5455V3.63637H27.6364V2.54547Z" fill="#101010"/>
<path d="M27.6364 3.63637H26.5455V4.72728H27.6364V3.63637Z" fill="#101010"/>
<path d="M27.6364 4.72728H26.5455V5.81819H27.6364V4.72728Z" fill="#101010"/>
<path d="M27.6364 5.81819H26.5455V6.9091L27.6364 6.9091V5.81819Z" fill="#101010"/>
<path d="M27.6364 6.9091L26.5455 6.9091V8.00001H27.6364V6.9091Z" fill="#101010"/>
<path d="M27.6364 9.09092H26.5455V10.1818L27.6364 10.1818V9.09092Z" fill="#101010"/>
<path d="M27.6364 11.2727H26.5455V12.3636L27.6364 12.3636V11.2727Z" fill="#101010"/>
<path d="M27.6364 12.3636L26.5455 12.3636V13.4546H27.6364V12.3636Z" fill="#101010"/>
<path d="M27.6364 13.4546H26.5455V14.5455L27.6364 14.5455V13.4546Z" fill="#101010"/>
<path d="M27.6364 15.6364L26.5455 15.6364V16.7273H27.6364V15.6364Z" fill="#101010"/>
<path d="M27.6364 16.7273H26.5455V17.8182H27.6364V16.7273Z" fill="#101010"/>
<path d="M27.6364 20H26.5455V21.0909H27.6364V20Z" fill="#101010"/>
<path d="M27.6364 23.2727L26.5455 23.2727V24.3636H27.6364V23.2727Z" fill="#101010"/>
<path d="M27.6364 24.3636H26.5455V25.4546H27.6364V24.3636Z" fill="#101010"/>
<path d="M27.6364 25.4546H26.5455V26.5455H27.6364V25.4546Z" fill="#101010"/>
<path d="M27.6364 26.5455H26.5455V27.6364H27.6364V26.5455Z" fill="#101010"/>
</svg>
