<svg width="15" height="15" viewBox="0 0 15 15" fill="none" xmlns="http://www.w3.org/2000/svg">
<g clip-path="url(#clip0_23_531)">
<path d="M10.3697 4.70625C10.3725 4.70625 10.3762 4.70625 10.38 4.70625C10.478 4.70625 10.5689 4.73672 10.6434 4.78922L10.642 4.78828C10.6964 4.83563 10.733 4.90219 10.7419 4.97719V4.97859C10.7512 5.03578 10.7564 5.10141 10.7564 5.16844C10.7564 5.19891 10.7555 5.22891 10.7531 5.25891V5.25469C10.6477 6.36516 10.1902 9.05812 9.95765 10.3012C9.85922 10.8277 9.66562 11.0039 9.47812 11.0208C9.07078 11.0587 8.7614 10.7517 8.36672 10.493C7.7489 10.0875 7.39969 9.83531 6.80015 9.44016C6.10687 8.98406 6.55641 8.73234 6.95109 8.32266C7.05469 8.21484 8.85047 6.58125 8.88562 6.43313C8.8875 6.42422 8.88844 6.41437 8.88844 6.40406C8.88844 6.3675 8.87484 6.33422 8.85281 6.30891C8.82844 6.29297 8.79797 6.28406 8.76609 6.28406C8.745 6.28406 8.72484 6.28828 8.70609 6.29531L8.70703 6.29484C8.64515 6.30891 7.65828 6.96109 5.7464 8.25141C5.53781 8.41594 5.27437 8.52 4.9875 8.53219H4.98469C4.57828 8.48297 4.20937 8.3925 3.85922 8.26359L3.8939 8.27484C3.45422 8.13141 3.105 8.05594 3.135 7.81312C3.15094 7.68687 3.325 7.55766 3.65719 7.42547C5.70344 6.53391 7.06797 5.94625 7.75078 5.6625C8.50406 5.26266 9.37734 4.93359 10.2956 4.72031L10.3692 4.70578L10.3697 4.70625ZM7.46719 0.480469C3.57562 0.489844 0.424217 3.64687 0.424217 7.53984C0.424217 11.4384 3.58453 14.5992 7.48359 14.5992C11.3827 14.5992 14.543 11.4389 14.543 7.53984C14.543 3.64687 11.3916 0.489844 7.50094 0.480469H7.5C7.48906 0.480469 7.47812 0.480469 7.46719 0.480469Z" fill="#101010"/>
</g>
<defs>
<clipPath id="clip0_23_531">
<rect width="15" height="15" fill="white"/>
</clipPath>
</defs>
</svg>
