<svg width="14" height="14" viewBox="0 0 14 14" fill="none" xmlns="http://www.w3.org/2000/svg">
<path d="M7.287 0.450208C8.00319 0.43927 8.71413 0.444958 9.42463 0.43927C9.44825 1.32783 9.80875 2.12758 10.3823 2.71996L10.3814 2.71908C10.9988 3.27515 11.802 3.63565 12.6875 3.6969L12.6998 3.69777V5.90102C11.8633 5.88002 11.0766 5.68708 10.3674 5.35546L10.4033 5.37033C10.0603 5.2054 9.77025 5.03608 9.49463 4.84708L9.51738 4.86196C9.51213 6.4584 9.52263 8.05483 9.50644 9.64558C9.46138 10.4563 9.19188 11.1956 8.75963 11.813L8.76838 11.7994C8.04563 12.8345 6.87488 13.514 5.54357 13.5542H5.53744C5.48363 13.5568 5.42019 13.5581 5.35632 13.5581C4.59944 13.5581 3.892 13.3473 3.28913 12.9811L3.30663 12.9911C2.20938 12.331 1.4525 11.2013 1.3125 9.88752L1.31075 9.86958C1.29982 9.59615 1.29457 9.32271 1.3055 9.05496C1.51988 6.96415 3.27163 5.34671 5.40094 5.34671C5.64025 5.34671 5.87475 5.36727 6.10269 5.40621L6.07819 5.40271C6.08913 6.21165 6.05632 7.02102 6.05632 7.82996C5.87125 7.76302 5.65775 7.72408 5.43507 7.72408C4.61782 7.72408 3.92263 8.24646 3.66538 8.97577L3.66144 8.9889C3.60325 9.17571 3.56957 9.39052 3.56957 9.61277C3.56957 9.7029 3.57525 9.79215 3.58575 9.87965L3.58488 9.86915C3.73013 10.7643 4.4975 11.4398 5.42282 11.4398C5.4495 11.4398 5.47575 11.4393 5.502 11.438H5.49807C6.13813 11.4188 6.69375 11.0745 7.00788 10.5656L7.01225 10.5578C7.12907 10.395 7.20913 10.1981 7.23582 9.98421L7.23625 9.97808C7.29094 8.9994 7.26907 8.0264 7.27432 7.04771C7.27957 4.84446 7.26907 2.64646 7.28525 0.448895L7.287 0.450208Z" fill="#101010"/>
</svg>
