<svg width="15" height="14" viewBox="0 0 15 14" fill="none" xmlns="http://www.w3.org/2000/svg">
<g clip-path="url(#clip0_23_533)">
<path d="M12.4575 2.34634C11.1966 1.16947 9.45469 0.441467 7.53047 0.441467C3.6825 0.441467 0.5625 3.35303 0.5625 6.9449C0.5625 8.14015 0.907969 9.25972 1.51031 10.2222L1.4925 10.1916L0.503906 13.5612L4.19719 12.6569C5.15859 13.1552 6.30562 13.4483 7.52625 13.4483H7.52906C11.377 13.447 14.4956 10.535 14.4956 6.94359C14.4956 5.14853 13.7166 3.52365 12.457 2.34678L12.4575 2.34634ZM7.52906 12.3498H7.52672C6.43969 12.3498 5.42203 12.0698 4.55344 11.5828L4.57969 11.5964L4.36828 11.4796L2.17687 12.0164L2.76141 10.0218L2.62359 9.81753C2.06813 9.0029 1.73812 8.01022 1.73812 6.94534C1.73812 3.96072 4.33078 1.5409 7.52859 1.5409C10.7264 1.5409 13.3191 3.96072 13.3191 6.94534C13.3191 9.92997 10.7273 12.3498 7.52906 12.3498ZM10.7053 8.30247C10.5314 8.22109 9.67547 7.82865 9.51609 7.77397C9.35625 7.71972 9.24 7.69303 9.12375 7.85578C9.00844 8.01809 8.67469 8.38384 8.57297 8.49234C8.47172 8.60128 8.36953 8.6144 8.19562 8.53347C7.65656 8.32959 7.19344 8.0579 6.79078 7.72322L6.79547 7.72715C6.42094 7.4034 6.09984 7.03284 5.84063 6.62422L5.8275 6.60147C5.72625 6.43915 5.81672 6.35122 5.90344 6.27028C5.98172 6.19765 6.07781 6.0804 6.16453 5.9859C6.23297 5.90759 6.29156 5.8179 6.33609 5.72165L6.33891 5.71422C6.35906 5.67615 6.37078 5.63197 6.37078 5.58472C6.37078 5.5274 6.35344 5.47403 6.32344 5.42853L6.32438 5.42984C6.28031 5.34847 5.9325 4.54872 5.78766 4.22322C5.64609 3.90647 5.50219 3.94978 5.39578 3.94453C5.29453 3.94015 5.17828 3.93928 5.06203 3.93928C4.87687 3.94365 4.71234 4.02153 4.59891 4.14184L4.59844 4.14272C4.2225 4.47565 3.98906 4.94509 3.98906 5.46528C3.98906 5.47665 3.98906 5.48847 3.98953 5.49984V5.49809C4.05094 6.1399 4.30875 6.71609 4.70531 7.18553L4.69969 7.17897C5.45156 8.21978 6.45375 9.05234 7.62984 9.61322L7.67391 9.63203C7.93078 9.74053 8.25984 9.85647 8.59641 9.95578L8.66625 9.97372C8.87344 10.035 9.11203 10.0704 9.35953 10.0704C9.50156 10.0704 9.64125 10.0586 9.77625 10.0363L9.76172 10.038C10.2628 9.94047 10.6786 9.65828 10.9322 9.27284L10.9364 9.2654C11.0137 9.10528 11.0587 8.91847 11.0587 8.72203C11.0587 8.64109 11.0512 8.5619 11.0367 8.4849L11.0381 8.49322C10.995 8.4254 10.8787 8.38515 10.7044 8.30334L10.7053 8.30247Z" fill="#101010"/>
</g>
<defs>
<clipPath id="clip0_23_533">
<rect width="15" height="14" fill="white"/>
</clipPath>
</defs>
</svg>
