<svg width="2048" height="2048" viewBox="0 0 2048 2048" fill="none" xmlns="http://www.w3.org/2000/svg">
<path d="M1497.61 1284.11C1483.62 1307.95 1449.16 1307.95 1435.17 1284.11L1354.16 1146.07C1349.77 1138.59 1342.84 1132.93 1334.63 1130.13L1261.27 1105.08C1220.17 1091.05 1234.11 1029.74 1277.24 1034.87L1462.12 1056.83C1464.96 1057.17 1467.82 1057.17 1470.66 1056.83L1655.54 1034.87C1698.67 1029.74 1712.61 1091.05 1671.51 1105.08L1598.15 1130.13C1589.94 1132.93 1583.01 1138.59 1578.62 1146.07L1497.61 1284.11Z" fill="#7A4D40"/>
<path d="M1466.39 1057.08C1464.96 1057.08 1463.54 1057 1462.12 1056.83L1277.24 1034.87C1234.11 1029.74 1220.17 1091.05 1261.27 1105.08L1334.63 1130.13C1342.84 1132.93 1349.77 1138.59 1354.16 1146.07L1435.17 1284.11C1442.16 1296.03 1454.28 1301.99 1466.39 1301.99V1247.9L1393.18 1123.16C1384.45 1108.28 1371.25 1096.61 1355.55 1089.74L1456.78 1101.77C1459.97 1102.15 1463.18 1102.34 1466.39 1102.34V1057.08Z" fill="#4A2D20"/>
<path d="M1466.39 1301.99C1478.5 1301.99 1490.62 1296.03 1497.61 1284.11L1578.62 1146.07C1583.01 1138.59 1589.94 1132.93 1598.15 1130.13L1671.51 1105.08C1712.61 1091.05 1698.67 1029.74 1655.54 1034.87L1470.66 1056.83C1469.24 1057 1467.82 1057.08 1466.39 1057.08V1102.34C1469.6 1102.34 1472.81 1102.15 1476 1101.77L1577.23 1089.74C1561.53 1096.61 1548.33 1108.28 1539.6 1123.16L1466.39 1247.9V1301.99Z" fill="#9A6D60"/>
<path d="M1494.68 1190.04C1482.01 1205.37 1450.77 1205.37 1438.1 1190.04L1364.68 1101.27C1360.7 1096.46 1354.42 1092.82 1346.99 1091.02L1280.51 1074.91C1252.99 1068.24 1252.69 1044.98 1270.18 1034.62C1272.43 1034.5 1274.79 1034.58 1277.24 1034.87L1462.12 1056.83C1464.96 1057.17 1467.82 1057.17 1470.66 1056.83L1655.54 1034.87C1657.99 1034.58 1660.35 1034.5 1662.6 1034.62C1680.09 1044.98 1679.79 1068.24 1652.27 1074.91L1585.79 1091.02C1578.36 1092.82 1572.08 1096.46 1568.1 1101.27L1494.68 1190.04Z" fill="#7A4D40"/>
<path fill-rule="evenodd" clip-rule="evenodd" d="M1377.57 1132.32L1458.58 1270.36C1462.08 1276.32 1470.7 1276.32 1474.2 1270.36L1555.21 1132.32C1562.89 1119.23 1575.02 1109.33 1589.38 1104.43L1662.74 1079.39C1666.41 1078.13 1667.57 1076.46 1668.11 1075.38C1668.85 1073.89 1669.26 1071.54 1668.64 1068.81C1668.02 1066.08 1666.64 1064.14 1665.32 1063.12C1664.37 1062.38 1662.6 1061.37 1658.75 1061.83L1473.86 1083.79C1468.9 1084.38 1463.88 1084.38 1458.92 1083.79L1274.03 1061.83C1270.18 1061.37 1268.41 1062.38 1267.46 1063.12C1266.14 1064.14 1264.76 1066.08 1264.14 1068.81C1263.52 1071.54 1263.93 1073.89 1264.67 1075.38C1265.21 1076.46 1266.37 1078.13 1270.04 1079.39L1343.4 1104.43C1357.76 1109.33 1369.89 1119.23 1377.57 1132.32ZM1435.17 1284.11C1449.16 1307.95 1483.62 1307.95 1497.61 1284.11L1578.62 1146.07C1583.01 1138.59 1589.94 1132.93 1598.15 1130.13L1671.51 1105.08C1712.61 1091.05 1698.67 1029.74 1655.54 1034.87L1470.66 1056.83C1467.82 1057.17 1464.96 1057.17 1462.12 1056.83L1277.24 1034.87C1234.11 1029.74 1220.17 1091.05 1261.27 1105.08L1334.63 1130.13C1342.84 1132.93 1349.77 1138.59 1354.16 1146.07L1435.17 1284.11Z" fill="#101010"/>
<path d="M1413.17 1048.14C1413.17 1038.14 1421.28 1030.04 1431.27 1030.04H1503.68C1513.67 1030.04 1521.78 1038.14 1521.78 1048.14V1292.53C1521.78 1302.53 1513.67 1310.63 1503.68 1310.63H1431.27C1421.28 1310.63 1413.17 1302.53 1413.17 1292.53V1048.14Z" fill="#101010"/>
<path d="M1444.85 1061.72H1490.1V1278.95H1444.85V1061.72Z" fill="#7A4D40"/>
<path d="M1444.85 1061.72H1462.95V1278.95H1444.85V1061.72Z" fill="#4A2D20"/>
<path d="M1444.85 1233.69H1490.1V1278.95H1444.85V1233.69Z" fill="#4A2D20"/>
<path d="M1453.9 1061.72L1490.1 1061.72V1269.9H1467.47C1459.98 1269.9 1453.9 1263.82 1453.9 1256.32V1061.72Z" fill="#7A4D40"/>
<path d="M1481.05 1061.72L1490.1 1061.72V1278.95L1481.05 1278.95V1061.72Z" fill="#9A6D60"/>
<path d="M606.137 1284.11C592.146 1307.95 557.684 1307.95 543.694 1284.11L462.68 1146.07C458.29 1138.59 451.362 1132.93 443.154 1130.13L369.795 1105.08C328.691 1091.05 342.631 1029.74 385.761 1034.87L570.645 1056.83C573.482 1057.17 576.348 1057.17 579.185 1056.83L764.069 1034.87C807.199 1029.74 821.139 1091.05 780.035 1105.08L706.676 1130.13C698.469 1132.93 691.54 1138.59 687.15 1146.07L606.137 1284.11Z" fill="#7A4D40"/>
<path d="M574.915 1057.08C573.489 1057.08 572.063 1057 570.645 1056.83L385.761 1034.87C342.631 1029.74 328.691 1091.05 369.795 1105.08L443.154 1130.13C451.362 1132.93 458.29 1138.59 462.68 1146.07L543.694 1284.11C550.689 1296.03 562.802 1301.99 574.915 1301.99V1247.9L501.707 1123.16C492.974 1108.28 479.776 1096.61 464.071 1089.74L565.307 1101.77C568.499 1102.15 571.707 1102.34 574.915 1102.34V1057.08Z" fill="#4A2D20"/>
<path d="M574.915 1301.99C587.028 1301.99 599.142 1296.03 606.137 1284.11L687.15 1146.07C691.54 1138.59 698.469 1132.93 706.676 1130.13L780.035 1105.08C821.139 1091.05 807.199 1029.74 764.069 1034.87L579.185 1056.83C577.767 1057 576.341 1057.08 574.915 1057.08V1102.34C578.123 1102.34 581.332 1102.15 584.523 1101.77L685.759 1089.74C670.055 1096.61 656.856 1108.28 648.123 1123.16L574.915 1247.9V1301.99Z" fill="#9A6D60"/>
<path d="M603.209 1190.04C590.53 1205.37 559.3 1205.37 546.621 1190.04L473.206 1101.27C469.227 1096.46 462.948 1092.82 455.511 1091.02L389.031 1074.91C361.512 1068.24 361.218 1044.98 378.703 1034.62C380.959 1034.5 383.313 1034.58 385.761 1034.87L570.645 1056.83C573.482 1057.17 576.348 1057.17 579.185 1056.83L764.069 1034.87C766.517 1034.58 768.872 1034.5 771.127 1034.62C788.612 1044.98 788.318 1068.24 760.799 1074.91L694.319 1091.02C686.882 1092.82 680.603 1096.46 676.625 1101.27L603.209 1190.04Z" fill="#7A4D40"/>
<path fill-rule="evenodd" clip-rule="evenodd" d="M486.096 1132.32L567.11 1270.36C570.607 1276.32 579.223 1276.32 582.72 1270.36L663.734 1132.32C671.416 1119.23 683.541 1109.33 697.904 1104.43L771.263 1079.39C774.938 1078.13 776.1 1076.46 776.635 1075.38C777.377 1073.89 777.785 1071.54 777.164 1068.81C776.543 1066.08 775.161 1064.14 773.848 1063.12C772.899 1062.38 771.128 1061.37 767.272 1061.83L582.388 1083.79C577.424 1084.38 572.407 1084.38 567.442 1083.79L382.558 1061.83C378.702 1061.37 376.932 1062.38 375.983 1063.12C374.669 1064.14 373.287 1066.08 372.666 1068.81C372.045 1071.54 372.453 1073.89 373.195 1075.38C373.731 1076.46 374.892 1078.13 378.567 1079.39L451.926 1104.43C466.289 1109.33 478.414 1119.23 486.096 1132.32ZM543.694 1284.11C557.684 1307.95 592.146 1307.95 606.137 1284.11L687.15 1146.07C691.54 1138.59 698.469 1132.93 706.676 1130.13L780.035 1105.08C821.139 1091.05 807.199 1029.74 764.069 1034.87L579.185 1056.83C576.348 1057.17 573.482 1057.17 570.645 1056.83L385.761 1034.87C342.631 1029.74 328.691 1091.05 369.795 1105.08L443.154 1130.13C451.362 1132.93 458.29 1138.59 462.68 1146.07L543.694 1284.11Z" fill="#101010"/>
<path d="M521.697 1048.14C521.697 1038.14 529.801 1030.04 539.798 1030.04H612.202C622.199 1030.04 630.303 1038.14 630.303 1048.14V1292.53C630.303 1302.53 622.199 1310.63 612.202 1310.63H539.798C529.801 1310.63 521.697 1302.53 521.697 1292.53V1048.14Z" fill="#101010"/>
<path d="M553.374 1061.72H598.626V1278.95H553.374V1061.72Z" fill="#7A4D40"/>
<path d="M553.374 1061.72H571.475V1278.95H553.374V1061.72Z" fill="#4A2D20"/>
<path d="M553.374 1233.69H598.626V1278.95H553.374V1233.69Z" fill="#4A2D20"/>
<path d="M562.424 1061.72L598.626 1061.72V1269.9H576C568.502 1269.9 562.424 1263.82 562.424 1256.32V1061.72Z" fill="#7A4D40"/>
<path d="M589.576 1061.72L598.626 1061.72V1278.95L589.576 1278.95V1061.72Z" fill="#9A6D60"/>
<path d="M128 962.152C128 952.154 136.104 944.049 146.101 944.049H1901.9C1911.9 944.049 1920 952.154 1920 962.152V1052.67C1920 1062.66 1911.9 1070.77 1901.9 1070.77H146.101C136.104 1070.77 128 1062.66 128 1052.67V962.152Z" fill="#101010"/>
<path d="M155.152 971.203H1892.85V1043.61H155.152V971.203Z" fill="#7A4D40"/>
<path d="M155.152 1016.46H1892.85V1043.61H155.152V1016.46Z" fill="#4A2D20"/>
<path d="M155.152 971.203H195.879V1043.61H155.152V971.203Z" fill="#4A2D20"/>
<path d="M182.303 971.203H195.879V1016.46C188.381 1016.46 182.303 1010.38 182.303 1002.88V971.203Z" fill="#7A4D40"/>
<path d="M1874.75 971.203H1892.85V1043.61H1874.75V971.203Z" fill="#9A6D60"/>
<path d="M155.152 971.203H1892.85V984.78H155.152V971.203Z" fill="#9A6D60"/>
<path d="M1874.75 984.78C1879.75 984.78 1883.8 988.833 1883.8 993.832V1016.46H1874.75V984.78Z" fill="#7A4D40"/>
<path d="M1874.75 1016.46H1883.8V1043.61H1874.75V1016.46Z" fill="#4A2D20"/>
<path d="M938.02 319.5H1119.03V944.049H938.02V319.5Z" fill="#101010"/>
<path d="M960.646 337.603H1096.4V925.946H960.646V337.603Z" fill="#66AA66"/>
<path d="M1078.3 337.603H1096.4V925.946H1078.3V337.603Z" fill="#86CA86"/>
<path d="M960.646 337.603H1096.4V355.706H960.646V337.603Z" fill="#86CA86"/>
<path d="M960.646 337.603H978.747V925.946H960.646V337.603Z" fill="#468A46"/>
<path d="M960.646 907.843H1096.4V925.946H960.646V907.843Z" fill="#468A46"/>
<path d="M1015.73 590.266C1022.79 583.197 1034.26 583.197 1041.32 590.266L1079.08 628.025C1086.15 635.095 1086.15 646.557 1079.08 653.627L1041.32 691.385C1034.26 698.455 1022.79 698.455 1015.73 691.385L977.971 653.626C970.902 646.557 970.902 635.095 977.971 628.025L1015.73 590.266Z" fill="#101010"/>
<path d="M1015.73 590.266C1022.79 583.197 1034.26 583.197 1041.32 590.266L1079.08 628.025C1086.15 635.095 1086.15 646.557 1079.08 653.627L1041.32 691.385C1034.26 698.455 1022.79 698.455 1015.73 691.385L977.971 653.626C970.902 646.557 970.902 635.095 977.971 628.025L1015.73 590.266Z" fill="#101010"/>
<path d="M1015.73 590.266C1022.79 583.197 1034.26 583.197 1041.32 590.266L1079.08 628.025C1086.15 635.095 1086.15 646.557 1079.08 653.627L1041.32 691.385C1034.26 698.455 1022.79 698.455 1015.73 691.385L977.971 653.626C970.902 646.557 970.902 635.095 977.971 628.025L1015.73 590.266Z" fill="#101010"/>
<path d="M1015.73 590.266C1022.79 583.197 1034.26 583.197 1041.32 590.266L1079.08 628.025C1086.15 635.095 1086.15 646.557 1079.08 653.627L1041.32 691.385C1034.26 698.455 1022.79 698.455 1015.73 691.385L977.971 653.626C970.902 646.557 970.902 635.095 977.971 628.025L1015.73 590.266Z" fill="#101010"/>
<path d="M1028.53 600.094L1069.25 640.826L1028.53 681.557L987.798 640.826L1028.53 600.094Z" fill="#EEEE88"/>
<path d="M1046.63 735.866C1046.63 745.864 1038.52 753.969 1028.53 753.969C1018.53 753.969 1010.42 745.864 1010.42 735.866C1010.42 725.868 1018.53 717.763 1028.53 717.763C1038.52 717.763 1046.63 725.868 1046.63 735.866Z" fill="#101010"/>
<path d="M1046.63 545.786C1046.63 555.784 1038.52 563.889 1028.53 563.889C1018.53 563.889 1010.42 555.784 1010.42 545.786C1010.42 535.788 1018.53 527.683 1028.53 527.683C1038.52 527.683 1046.63 535.788 1046.63 545.786Z" fill="#101010"/>
<path d="M1037.58 735.866C1037.58 740.865 1033.52 744.917 1028.53 744.917C1023.53 744.917 1019.47 740.865 1019.47 735.866C1019.47 730.867 1023.53 726.814 1028.53 726.814C1033.52 726.814 1037.58 730.867 1037.58 735.866Z" fill="#EEEE88"/>
<path d="M1037.58 545.786C1037.58 550.785 1033.52 554.837 1028.53 554.837C1023.53 554.837 1019.47 550.785 1019.47 545.786C1019.47 540.787 1023.53 536.734 1028.53 536.734C1033.52 536.734 1037.58 540.787 1037.58 545.786Z" fill="#EEEE88"/>
<path d="M938.02 369.283H1119.03V518.632H938.02V369.283Z" fill="#101010"/>
<path d="M960.646 387.386H1096.4V500.529H960.646V387.386Z" fill="#EEEE88"/>
<path d="M1078.3 387.386H1096.4V500.529H1078.3V387.386Z" fill="#FFFFCC"/>
<path d="M960.646 387.386H978.747V500.529H960.646V387.386Z" fill="#DDDD68"/>
<path d="M1015.47 400.989C1022.59 393.568 1034.46 393.568 1041.58 400.989L1070.79 431.42C1077.52 438.426 1077.52 449.489 1070.79 456.494L1041.58 486.925C1034.46 494.347 1022.59 494.347 1015.47 486.925L986.256 456.494C979.532 449.489 979.532 438.426 986.256 431.42L1015.47 400.989Z" fill="#101010"/>
<path d="M1015.47 400.989C1022.59 393.568 1034.46 393.568 1041.58 400.989L1070.79 431.42C1077.52 438.426 1077.52 449.489 1070.79 456.494L1041.58 486.925C1034.46 494.347 1022.59 494.347 1015.47 486.925L986.256 456.494C979.532 449.489 979.532 438.426 986.256 431.42L1015.47 400.989Z" fill="#101010"/>
<path d="M1015.47 400.989C1022.59 393.568 1034.46 393.568 1041.58 400.989L1070.79 431.42C1077.52 438.426 1077.52 449.489 1070.79 456.494L1041.58 486.925C1034.46 494.347 1022.59 494.347 1015.47 486.925L986.256 456.494C979.532 449.489 979.532 438.426 986.256 431.42L1015.47 400.989Z" fill="#101010"/>
<path d="M1015.47 400.989C1022.59 393.568 1034.46 393.568 1041.58 400.989L1070.79 431.42C1077.52 438.426 1077.52 449.489 1070.79 456.494L1041.58 486.925C1034.46 494.347 1022.59 494.347 1015.47 486.925L986.256 456.494C979.532 449.489 979.532 438.426 986.256 431.42L1015.47 400.989Z" fill="#101010"/>
<path d="M1028.53 410.014L1060.2 443.957L1028.53 477.9L996.848 443.957L1028.53 410.014Z" fill="#EEEE88"/>
<path d="M938.02 763.02H1119.03V912.369H938.02V763.02Z" fill="#101010"/>
<path d="M960.646 781.123H1096.4V894.266H960.646V781.123Z" fill="#EEEE88"/>
<path d="M1078.3 781.123H1096.4V894.266H1078.3V781.123Z" fill="#FFFFCC"/>
<path d="M960.646 781.123H978.747V894.266H960.646V781.123Z" fill="#DDDD68"/>
<path d="M1015.47 794.726C1022.59 787.305 1034.46 787.305 1041.58 794.726L1070.79 825.158C1077.52 832.163 1077.52 843.226 1070.79 850.231L1041.58 880.663C1034.46 888.084 1022.59 888.084 1015.47 880.663L986.256 850.231C979.532 843.226 979.532 832.163 986.256 825.158L1015.47 794.726Z" fill="#101010"/>
<path d="M1015.47 794.726C1022.59 787.305 1034.46 787.305 1041.58 794.726L1070.79 825.158C1077.52 832.163 1077.52 843.226 1070.79 850.231L1041.58 880.663C1034.46 888.084 1022.59 888.084 1015.47 880.663L986.256 850.231C979.532 843.226 979.532 832.163 986.256 825.158L1015.47 794.726Z" fill="#101010"/>
<path d="M1015.47 794.726C1022.59 787.305 1034.46 787.305 1041.58 794.726L1070.79 825.158C1077.52 832.163 1077.52 843.226 1070.79 850.231L1041.58 880.663C1034.46 888.084 1022.59 888.084 1015.47 880.663L986.256 850.231C979.532 843.226 979.532 832.163 986.256 825.158L1015.47 794.726Z" fill="#101010"/>
<path d="M1015.47 794.726C1022.59 787.305 1034.46 787.305 1041.58 794.726L1070.79 825.158C1077.52 832.163 1077.52 843.226 1070.79 850.231L1041.58 880.663C1034.46 888.084 1022.59 888.084 1015.47 880.663L986.256 850.231C979.532 843.226 979.532 832.163 986.256 825.158L1015.47 794.726Z" fill="#101010"/>
<path d="M1028.53 803.752L1060.2 837.695L1028.53 871.637L996.848 837.695L1028.53 803.752Z" fill="#EEEE88"/>
<path d="M775.111 373.809H938.02V944.049H775.111V373.809Z" fill="#101010"/>
<path d="M793.212 391.911H919.919V925.946H793.212V391.911Z" fill="#66AA66"/>
<path d="M901.818 391.911H919.919V925.946H901.818V391.911Z" fill="#86CA86"/>
<path d="M793.212 391.911H919.919V410.014H793.212V391.911Z" fill="#86CA86"/>
<path d="M793.212 391.911H811.313V925.946H793.212V391.911Z" fill="#468A46"/>
<path d="M793.212 907.843H919.919V925.946H793.212V907.843Z" fill="#468A46"/>
<path d="M775.111 794.7H938.02V889.74H775.111V794.7Z" fill="#101010"/>
<path d="M793.212 812.803H919.919V871.637H793.212V812.803Z" fill="#EEEE88"/>
<path d="M901.818 812.803H919.919V871.637H901.818V812.803Z" fill="#FFFFCC"/>
<path d="M793.212 812.803H811.313V871.637H793.212V812.803Z" fill="#DDDD68"/>
<path d="M793.212 830.906H919.919V853.535H793.212V830.906Z" fill="#101010"/>
<path d="M775.111 423.591H938.02V518.632H775.111V423.591Z" fill="#101010"/>
<path d="M793.212 441.694H919.919V500.529H793.212V441.694Z" fill="#EEEE88"/>
<path d="M901.818 441.694H919.919V500.529H901.818V441.694Z" fill="#FFFFCC"/>
<path d="M793.212 441.694H811.313V500.529H793.212V441.694Z" fill="#DDDD68"/>
<path d="M793.212 459.797H919.919V482.426H793.212V459.797Z" fill="#101010"/>
<path d="M843.766 603.844C850.835 596.774 862.296 596.774 869.365 603.844L907.12 641.602C914.189 648.672 914.189 660.134 907.12 667.204L869.365 704.962C862.296 712.032 850.835 712.032 843.766 704.962L806.011 667.204C798.943 660.134 798.943 648.672 806.011 641.602L843.766 603.844Z" fill="#101010"/>
<path d="M843.766 603.844C850.835 596.774 862.296 596.774 869.365 603.844L907.12 641.602C914.189 648.672 914.189 660.134 907.12 667.204L869.365 704.962C862.296 712.032 850.835 712.032 843.766 704.962L806.011 667.204C798.943 660.134 798.943 648.672 806.011 641.602L843.766 603.844Z" fill="#101010"/>
<path d="M843.766 603.844C850.835 596.774 862.296 596.774 869.365 603.844L907.12 641.602C914.189 648.672 914.189 660.134 907.12 667.204L869.365 704.962C862.296 712.032 850.835 712.032 843.766 704.962L806.011 667.204C798.943 660.134 798.943 648.672 806.011 641.602L843.766 603.844Z" fill="#101010"/>
<path d="M843.766 603.844C850.835 596.774 862.296 596.774 869.365 603.844L907.12 641.602C914.189 648.672 914.189 660.134 907.12 667.204L869.365 704.962C862.296 712.032 850.835 712.032 843.766 704.962L806.011 667.204C798.943 660.134 798.943 648.672 806.011 641.602L843.766 603.844Z" fill="#101010"/>
<path d="M856.566 613.672L897.293 654.403L856.566 695.134L815.838 654.403L856.566 613.672Z" fill="#EEEE88"/>
<path d="M874.667 749.443C874.667 759.441 866.563 767.546 856.566 767.546C846.569 767.546 838.465 759.441 838.465 749.443C838.465 739.445 846.569 731.34 856.566 731.34C866.563 731.34 874.667 739.445 874.667 749.443Z" fill="#101010"/>
<path d="M874.667 559.363C874.667 569.361 866.563 577.466 856.566 577.466C846.569 577.466 838.465 569.361 838.465 559.363C838.465 549.365 846.569 541.26 856.566 541.26C866.563 541.26 874.667 549.365 874.667 559.363Z" fill="#101010"/>
<path d="M865.616 749.443C865.616 754.442 861.564 758.494 856.566 758.494C851.567 758.494 847.515 754.442 847.515 749.443C847.515 744.444 851.567 740.392 856.566 740.392C861.564 740.392 865.616 744.444 865.616 749.443Z" fill="#EEEE88"/>
<path d="M865.616 559.363C865.616 564.362 861.564 568.414 856.566 568.414C851.567 568.414 847.515 564.362 847.515 559.363C847.515 554.364 851.567 550.312 856.566 550.312C861.564 550.312 865.616 554.364 865.616 559.363Z" fill="#EEEE88"/>
<path d="M612.202 373.809H775.111V944.049H612.202V373.809Z" fill="#101010"/>
<path d="M630.303 391.911H757.01V925.946H630.303V391.911Z" fill="#66AA66"/>
<path d="M738.909 391.911H757.01V925.946H738.909V391.911Z" fill="#86CA86"/>
<path d="M630.303 391.911H757.01V410.014H630.303V391.911Z" fill="#86CA86"/>
<path d="M630.303 391.911H648.404V925.946H630.303V391.911Z" fill="#468A46"/>
<path d="M630.303 907.843H757.01V925.946H630.303V907.843Z" fill="#468A46"/>
<path d="M612.202 794.7H775.111V889.74H612.202V794.7Z" fill="#101010"/>
<path d="M630.303 812.803H757.01V871.637H630.303V812.803Z" fill="#EEEE88"/>
<path d="M738.909 812.803H757.01V871.637H738.909V812.803Z" fill="#FFFFCC"/>
<path d="M630.303 812.803H648.404V871.637H630.303V812.803Z" fill="#DDDD68"/>
<path d="M630.303 830.906H757.01V853.535H630.303V830.906Z" fill="#101010"/>
<path d="M612.202 423.591H775.111V518.632H612.202V423.591Z" fill="#101010"/>
<path d="M630.303 441.694H757.01V500.529H630.303V441.694Z" fill="#EEEE88"/>
<path d="M738.909 441.694H757.01V500.529H738.909V441.694Z" fill="#FFFFCC"/>
<path d="M630.303 441.694H648.404V500.529H630.303V441.694Z" fill="#DDDD68"/>
<path d="M630.303 459.797H757.01V482.426H630.303V459.797Z" fill="#101010"/>
<path d="M680.857 603.844C687.926 596.774 699.387 596.774 706.456 603.844L744.211 641.602C751.28 648.672 751.28 660.134 744.211 667.204L706.456 704.962C699.387 712.032 687.926 712.032 680.857 704.962L643.102 667.204C636.033 660.134 636.033 648.672 643.102 641.602L680.857 603.844Z" fill="#101010"/>
<path d="M680.857 603.844C687.926 596.774 699.387 596.774 706.456 603.844L744.211 641.602C751.28 648.672 751.28 660.134 744.211 667.204L706.456 704.962C699.387 712.032 687.926 712.032 680.857 704.962L643.102 667.204C636.033 660.134 636.033 648.672 643.102 641.602L680.857 603.844Z" fill="#101010"/>
<path d="M680.857 603.844C687.926 596.774 699.387 596.774 706.456 603.844L744.211 641.602C751.28 648.672 751.28 660.134 744.211 667.204L706.456 704.962C699.387 712.032 687.926 712.032 680.857 704.962L643.102 667.204C636.033 660.134 636.033 648.672 643.102 641.602L680.857 603.844Z" fill="#101010"/>
<path d="M680.857 603.844C687.926 596.774 699.387 596.774 706.456 603.844L744.211 641.602C751.28 648.672 751.28 660.134 744.211 667.204L706.456 704.962C699.387 712.032 687.926 712.032 680.857 704.962L643.102 667.204C636.033 660.134 636.033 648.672 643.102 641.602L680.857 603.844Z" fill="#101010"/>
<path d="M693.657 613.672L734.384 654.403L693.657 695.134L652.929 654.403L693.657 613.672Z" fill="#EEEE88"/>
<path d="M711.758 749.443C711.758 759.441 703.653 767.546 693.657 767.546C683.66 767.546 675.556 759.441 675.556 749.443C675.556 739.445 683.66 731.34 693.657 731.34C703.653 731.34 711.758 739.445 711.758 749.443Z" fill="#101010"/>
<path d="M711.758 559.363C711.758 569.361 703.653 577.466 693.657 577.466C683.66 577.466 675.556 569.361 675.556 559.363C675.556 549.365 683.66 541.26 693.657 541.26C703.653 541.26 711.758 549.365 711.758 559.363Z" fill="#101010"/>
<path d="M702.707 749.443C702.707 754.442 698.655 758.494 693.657 758.494C688.658 758.494 684.606 754.442 684.606 749.443C684.606 744.444 688.658 740.392 693.657 740.392C698.655 740.392 702.707 744.444 702.707 749.443Z" fill="#EEEE88"/>
<path d="M702.707 559.363C702.707 564.362 698.655 568.414 693.657 568.414C688.658 568.414 684.606 564.362 684.606 559.363C684.606 554.364 688.658 550.312 693.657 550.312C698.655 550.312 702.707 554.364 702.707 559.363Z" fill="#EEEE88"/>
<path d="M449.293 373.809H612.202V944.049H449.293V373.809Z" fill="#101010"/>
<path d="M467.394 391.911H594.101V925.946H467.394V391.911Z" fill="#66AA66"/>
<path d="M576 391.911H594.101V925.946H576V391.911Z" fill="#86CA86"/>
<path d="M467.394 391.911H594.101V410.014H467.394V391.911Z" fill="#86CA86"/>
<path d="M467.394 391.911H485.495V925.946H467.394V391.911Z" fill="#468A46"/>
<path d="M467.394 907.843H594.101V925.946H467.394V907.843Z" fill="#468A46"/>
<path d="M449.293 794.7H612.202V889.74H449.293V794.7Z" fill="#101010"/>
<path d="M467.394 812.803H594.101V871.637H467.394V812.803Z" fill="#EEEE88"/>
<path d="M576 812.803H594.101V871.637H576V812.803Z" fill="#FFFFCC"/>
<path d="M467.394 812.803H485.495V871.637H467.394V812.803Z" fill="#DDDD68"/>
<path d="M467.394 830.906H594.101V853.535H467.394V830.906Z" fill="#101010"/>
<path d="M449.293 423.591H612.202V518.632H449.293V423.591Z" fill="#101010"/>
<path d="M467.394 441.694H594.101V500.529H467.394V441.694Z" fill="#EEEE88"/>
<path d="M576 441.694H594.101V500.529H576V441.694Z" fill="#FFFFCC"/>
<path d="M467.394 441.694H485.495V500.529H467.394V441.694Z" fill="#DDDD68"/>
<path d="M467.394 459.797H594.101V482.426H467.394V459.797Z" fill="#101010"/>
<path d="M517.948 603.844C525.017 596.774 536.478 596.774 543.547 603.844L581.302 641.602C588.371 648.672 588.371 660.134 581.302 667.204L543.547 704.962C536.478 712.032 525.017 712.032 517.948 704.962L480.193 667.204C473.124 660.134 473.124 648.672 480.193 641.602L517.948 603.844Z" fill="#101010"/>
<path d="M517.948 603.844C525.017 596.774 536.478 596.774 543.547 603.844L581.302 641.602C588.371 648.672 588.371 660.134 581.302 667.204L543.547 704.962C536.478 712.032 525.017 712.032 517.948 704.962L480.193 667.204C473.124 660.134 473.124 648.672 480.193 641.602L517.948 603.844Z" fill="#101010"/>
<path d="M517.948 603.844C525.017 596.774 536.478 596.774 543.547 603.844L581.302 641.602C588.371 648.672 588.371 660.134 581.302 667.204L543.547 704.962C536.478 712.032 525.017 712.032 517.948 704.962L480.193 667.204C473.124 660.134 473.124 648.672 480.193 641.602L517.948 603.844Z" fill="#101010"/>
<path d="M517.948 603.844C525.017 596.774 536.478 596.774 543.547 603.844L581.302 641.602C588.371 648.672 588.371 660.134 581.302 667.204L543.547 704.962C536.478 712.032 525.017 712.032 517.948 704.962L480.193 667.204C473.124 660.134 473.124 648.672 480.193 641.602L517.948 603.844Z" fill="#101010"/>
<path d="M530.747 613.672L571.475 654.403L530.747 695.134L490.02 654.403L530.747 613.672Z" fill="#EEEE88"/>
<path d="M548.848 749.443C548.848 759.441 540.744 767.546 530.747 767.546C520.751 767.546 512.646 759.441 512.646 749.443C512.646 739.445 520.751 731.34 530.747 731.34C540.744 731.34 548.848 739.445 548.848 749.443Z" fill="#101010"/>
<path d="M548.848 559.363C548.848 569.361 540.744 577.466 530.747 577.466C520.751 577.466 512.646 569.361 512.646 559.363C512.646 549.365 520.751 541.26 530.747 541.26C540.744 541.26 548.848 549.365 548.848 559.363Z" fill="#101010"/>
<path d="M539.798 749.443C539.798 754.442 535.746 758.494 530.747 758.494C525.749 758.494 521.697 754.442 521.697 749.443C521.697 744.444 525.749 740.392 530.747 740.392C535.746 740.392 539.798 744.444 539.798 749.443Z" fill="#EEEE88"/>
<path d="M539.798 559.363C539.798 564.362 535.746 568.414 530.747 568.414C525.749 568.414 521.697 564.362 521.697 559.363C521.697 554.364 525.749 550.312 530.747 550.312C535.746 550.312 539.798 554.364 539.798 559.363Z" fill="#EEEE88"/>
<path d="M1119.03 373.809H1281.94V944.049H1119.03V373.809Z" fill="#101010"/>
<path d="M1137.13 391.911H1263.84V925.946H1137.13V391.911Z" fill="#66AA66"/>
<path d="M1245.74 391.911H1263.84V925.946H1245.74V391.911Z" fill="#86CA86"/>
<path d="M1137.13 391.911H1263.84V410.014H1137.13V391.911Z" fill="#86CA86"/>
<path d="M1137.13 391.911H1155.23V925.946H1137.13V391.911Z" fill="#468A46"/>
<path d="M1137.13 907.843H1263.84V925.946H1137.13V907.843Z" fill="#468A46"/>
<path d="M1119.03 794.7H1281.94V889.74H1119.03V794.7Z" fill="#101010"/>
<path d="M1137.13 812.803H1263.84V871.637H1137.13V812.803Z" fill="#EEEE88"/>
<path d="M1245.74 812.803H1263.84V871.637H1245.74V812.803Z" fill="#FFFFCC"/>
<path d="M1137.13 812.803H1155.23V871.637H1137.13V812.803Z" fill="#DDDD68"/>
<path d="M1137.13 830.906H1263.84V853.535H1137.13V830.906Z" fill="#101010"/>
<path d="M1119.03 423.591H1281.94V518.632H1119.03V423.591Z" fill="#101010"/>
<path d="M1137.13 441.694H1263.84V500.529H1137.13V441.694Z" fill="#EEEE88"/>
<path d="M1245.74 441.694H1263.84V500.529H1245.74V441.694Z" fill="#FFFFCC"/>
<path d="M1137.13 441.694H1155.23V500.529H1137.13V441.694Z" fill="#DDDD68"/>
<path d="M1137.13 459.797H1263.84V482.426H1137.13V459.797Z" fill="#101010"/>
<path d="M1187.69 603.844C1194.75 596.774 1206.22 596.774 1213.28 603.844L1251.04 641.602C1258.11 648.672 1258.11 660.134 1251.04 667.204L1213.28 704.962C1206.22 712.032 1194.75 712.032 1187.69 704.962L1149.93 667.204C1142.86 660.134 1142.86 648.672 1149.93 641.602L1187.69 603.844Z" fill="#101010"/>
<path d="M1187.69 603.844C1194.75 596.774 1206.22 596.774 1213.28 603.844L1251.04 641.602C1258.11 648.672 1258.11 660.134 1251.04 667.204L1213.28 704.962C1206.22 712.032 1194.75 712.032 1187.69 704.962L1149.93 667.204C1142.86 660.134 1142.86 648.672 1149.93 641.602L1187.69 603.844Z" fill="#101010"/>
<path d="M1187.69 603.844C1194.75 596.774 1206.22 596.774 1213.28 603.844L1251.04 641.602C1258.11 648.672 1258.11 660.134 1251.04 667.204L1213.28 704.962C1206.22 712.032 1194.75 712.032 1187.69 704.962L1149.93 667.204C1142.86 660.134 1142.86 648.672 1149.93 641.602L1187.69 603.844Z" fill="#101010"/>
<path d="M1187.69 603.844C1194.75 596.774 1206.22 596.774 1213.28 603.844L1251.04 641.602C1258.11 648.672 1258.11 660.134 1251.04 667.204L1213.28 704.962C1206.22 712.032 1194.75 712.032 1187.69 704.962L1149.93 667.204C1142.86 660.134 1142.86 648.672 1149.93 641.602L1187.69 603.844Z" fill="#101010"/>
<path d="M1200.48 613.672L1241.21 654.403L1200.48 695.134L1159.76 654.403L1200.48 613.672Z" fill="#EEEE88"/>
<path d="M1218.59 749.443C1218.59 759.441 1210.48 767.546 1200.48 767.546C1190.49 767.546 1182.38 759.441 1182.38 749.443C1182.38 739.445 1190.49 731.34 1200.48 731.34C1210.48 731.34 1218.59 739.445 1218.59 749.443Z" fill="#101010"/>
<path d="M1218.59 559.363C1218.59 569.361 1210.48 577.466 1200.48 577.466C1190.49 577.466 1182.38 569.361 1182.38 559.363C1182.38 549.365 1190.49 541.26 1200.48 541.26C1210.48 541.26 1218.59 549.365 1218.59 559.363Z" fill="#101010"/>
<path d="M1209.54 749.443C1209.54 754.442 1205.48 758.494 1200.48 758.494C1195.49 758.494 1191.43 754.442 1191.43 749.443C1191.43 744.444 1195.49 740.392 1200.48 740.392C1205.48 740.392 1209.54 744.444 1209.54 749.443Z" fill="#EEEE88"/>
<path d="M1209.54 559.363C1209.54 564.362 1205.48 568.414 1200.48 568.414C1195.49 568.414 1191.43 564.362 1191.43 559.363C1191.43 554.364 1195.49 550.312 1200.48 550.312C1205.48 550.312 1209.54 554.364 1209.54 559.363Z" fill="#EEEE88"/>
<path d="M1281.94 373.809H1444.85V944.049H1281.94V373.809Z" fill="#101010"/>
<path d="M1300.04 391.911H1426.75V925.946H1300.04V391.911Z" fill="#66AA66"/>
<path d="M1408.65 391.911H1426.75V925.946H1408.65V391.911Z" fill="#86CA86"/>
<path d="M1300.04 391.911H1426.75V410.014H1300.04V391.911Z" fill="#86CA86"/>
<path d="M1300.04 391.911H1318.14V925.946H1300.04V391.911Z" fill="#468A46"/>
<path d="M1300.04 907.843H1426.75V925.946H1300.04V907.843Z" fill="#468A46"/>
<path d="M1281.94 794.7H1444.85V889.74H1281.94V794.7Z" fill="#101010"/>
<path d="M1300.04 812.803H1426.75V871.637H1300.04V812.803Z" fill="#EEEE88"/>
<path d="M1408.65 812.803H1426.75V871.637H1408.65V812.803Z" fill="#FFFFCC"/>
<path d="M1300.04 812.803H1318.14V871.637H1300.04V812.803Z" fill="#DDDD68"/>
<path d="M1300.04 830.906H1426.75V853.535H1300.04V830.906Z" fill="#101010"/>
<path d="M1281.94 423.591H1444.85V518.632H1281.94V423.591Z" fill="#101010"/>
<path d="M1300.04 441.694H1426.75V500.529H1300.04V441.694Z" fill="#EEEE88"/>
<path d="M1408.65 441.694H1426.75V500.529H1408.65V441.694Z" fill="#FFFFCC"/>
<path d="M1300.04 441.694H1318.14V500.529H1300.04V441.694Z" fill="#DDDD68"/>
<path d="M1300.04 459.797H1426.75V482.426H1300.04V459.797Z" fill="#101010"/>
<path d="M1350.59 603.844C1357.66 596.774 1369.12 596.774 1376.19 603.844L1413.95 641.602C1421.02 648.672 1421.02 660.134 1413.95 667.204L1376.19 704.962C1369.12 712.032 1357.66 712.032 1350.59 704.962L1312.84 667.204C1305.77 660.134 1305.77 648.672 1312.84 641.602L1350.59 603.844Z" fill="#101010"/>
<path d="M1350.59 603.844C1357.66 596.774 1369.12 596.774 1376.19 603.844L1413.95 641.602C1421.02 648.672 1421.02 660.134 1413.95 667.204L1376.19 704.962C1369.12 712.032 1357.66 712.032 1350.59 704.962L1312.84 667.204C1305.77 660.134 1305.77 648.672 1312.84 641.602L1350.59 603.844Z" fill="#101010"/>
<path d="M1350.59 603.844C1357.66 596.774 1369.12 596.774 1376.19 603.844L1413.95 641.602C1421.02 648.672 1421.02 660.134 1413.95 667.204L1376.19 704.962C1369.12 712.032 1357.66 712.032 1350.59 704.962L1312.84 667.204C1305.77 660.134 1305.77 648.672 1312.84 641.602L1350.59 603.844Z" fill="#101010"/>
<path d="M1350.59 603.844C1357.66 596.774 1369.12 596.774 1376.19 603.844L1413.95 641.602C1421.02 648.672 1421.02 660.134 1413.95 667.204L1376.19 704.962C1369.12 712.032 1357.66 712.032 1350.59 704.962L1312.84 667.204C1305.77 660.134 1305.77 648.672 1312.84 641.602L1350.59 603.844Z" fill="#101010"/>
<path d="M1363.39 613.672L1404.12 654.403L1363.39 695.134L1322.67 654.403L1363.39 613.672Z" fill="#EEEE88"/>
<path d="M1381.49 749.443C1381.49 759.441 1373.39 767.546 1363.39 767.546C1353.4 767.546 1345.29 759.441 1345.29 749.443C1345.29 739.445 1353.4 731.34 1363.39 731.34C1373.39 731.34 1381.49 739.445 1381.49 749.443Z" fill="#101010"/>
<path d="M1381.49 559.363C1381.49 569.361 1373.39 577.466 1363.39 577.466C1353.4 577.466 1345.29 569.361 1345.29 559.363C1345.29 549.365 1353.4 541.26 1363.39 541.26C1373.39 541.26 1381.49 549.365 1381.49 559.363Z" fill="#101010"/>
<path d="M1372.44 749.443C1372.44 754.442 1368.39 758.494 1363.39 758.494C1358.4 758.494 1354.34 754.442 1354.34 749.443C1354.34 744.444 1358.4 740.392 1363.39 740.392C1368.39 740.392 1372.44 744.444 1372.44 749.443Z" fill="#EEEE88"/>
<path d="M1372.44 559.363C1372.44 564.362 1368.39 568.414 1363.39 568.414C1358.4 568.414 1354.34 564.362 1354.34 559.363C1354.34 554.364 1358.4 550.312 1363.39 550.312C1368.39 550.312 1372.44 554.364 1372.44 559.363Z" fill="#EEEE88"/>
<path d="M1444.85 373.809H1607.76V944.049H1444.85V373.809Z" fill="#101010"/>
<path d="M1462.95 391.911H1589.66V925.946H1462.95V391.911Z" fill="#66AA66"/>
<path d="M1571.56 391.911H1589.66V925.946H1571.56V391.911Z" fill="#86CA86"/>
<path d="M1462.95 391.911H1589.66V410.014H1462.95V391.911Z" fill="#86CA86"/>
<path d="M1462.95 391.911H1481.05V925.946H1462.95V391.911Z" fill="#468A46"/>
<path d="M1462.95 907.843H1589.66V925.946H1462.95V907.843Z" fill="#468A46"/>
<path d="M1444.85 794.7H1607.76V889.74H1444.85V794.7Z" fill="#101010"/>
<path d="M1462.95 812.803H1589.66V871.637H1462.95V812.803Z" fill="#EEEE88"/>
<path d="M1571.56 812.803H1589.66V871.637H1571.56V812.803Z" fill="#FFFFCC"/>
<path d="M1462.95 812.803H1481.05V871.637H1462.95V812.803Z" fill="#DDDD68"/>
<path d="M1462.95 830.906H1589.66V853.535H1462.95V830.906Z" fill="#101010"/>
<path d="M1444.85 423.591H1607.76V518.632H1444.85V423.591Z" fill="#101010"/>
<path d="M1462.95 441.694H1589.66V500.529H1462.95V441.694Z" fill="#EEEE88"/>
<path d="M1571.56 441.694H1589.66V500.529H1571.56V441.694Z" fill="#FFFFCC"/>
<path d="M1462.95 441.694H1481.05V500.529H1462.95V441.694Z" fill="#DDDD68"/>
<path d="M1462.95 459.797H1589.66V482.426H1462.95V459.797Z" fill="#101010"/>
<path d="M1513.5 603.844C1520.57 596.774 1532.03 596.774 1539.1 603.844L1576.86 641.602C1583.93 648.672 1583.93 660.134 1576.86 667.204L1539.1 704.962C1532.03 712.032 1520.57 712.032 1513.5 704.962L1475.75 667.204C1468.68 660.134 1468.68 648.672 1475.75 641.602L1513.5 603.844Z" fill="#101010"/>
<path d="M1513.5 603.844C1520.57 596.774 1532.03 596.774 1539.1 603.844L1576.86 641.602C1583.93 648.672 1583.93 660.134 1576.86 667.204L1539.1 704.962C1532.03 712.032 1520.57 712.032 1513.5 704.962L1475.75 667.204C1468.68 660.134 1468.68 648.672 1475.75 641.602L1513.5 603.844Z" fill="#101010"/>
<path d="M1513.5 603.844C1520.57 596.774 1532.03 596.774 1539.1 603.844L1576.86 641.602C1583.93 648.672 1583.93 660.134 1576.86 667.204L1539.1 704.962C1532.03 712.032 1520.57 712.032 1513.5 704.962L1475.75 667.204C1468.68 660.134 1468.68 648.672 1475.75 641.602L1513.5 603.844Z" fill="#101010"/>
<path d="M1513.5 603.844C1520.57 596.774 1532.03 596.774 1539.1 603.844L1576.86 641.602C1583.93 648.672 1583.93 660.134 1576.86 667.204L1539.1 704.962C1532.03 712.032 1520.57 712.032 1513.5 704.962L1475.75 667.204C1468.68 660.134 1468.68 648.672 1475.75 641.602L1513.5 603.844Z" fill="#101010"/>
<path d="M1526.3 613.672L1567.03 654.403L1526.3 695.134L1485.58 654.403L1526.3 613.672Z" fill="#EEEE88"/>
<path d="M1544.4 749.443C1544.4 759.441 1536.3 767.546 1526.3 767.546C1516.31 767.546 1508.2 759.441 1508.2 749.443C1508.2 739.445 1516.31 731.34 1526.3 731.34C1536.3 731.34 1544.4 739.445 1544.4 749.443Z" fill="#101010"/>
<path d="M1544.4 559.363C1544.4 569.361 1536.3 577.466 1526.3 577.466C1516.31 577.466 1508.2 569.361 1508.2 559.363C1508.2 549.365 1516.31 541.26 1526.3 541.26C1536.3 541.26 1544.4 549.365 1544.4 559.363Z" fill="#101010"/>
<path d="M1535.35 749.443C1535.35 754.442 1531.3 758.494 1526.3 758.494C1521.3 758.494 1517.25 754.442 1517.25 749.443C1517.25 744.444 1521.3 740.392 1526.3 740.392C1531.3 740.392 1535.35 744.444 1535.35 749.443Z" fill="#EEEE88"/>
<path d="M1535.35 559.363C1535.35 564.362 1531.3 568.414 1526.3 568.414C1521.3 568.414 1517.25 564.362 1517.25 559.363C1517.25 554.364 1521.3 550.312 1526.3 550.312C1531.3 550.312 1535.35 554.364 1535.35 559.363Z" fill="#EEEE88"/>
<path d="M341.182 1535C350.088 1535 357.871 1535.98 364.532 1537.93C371.194 1539.89 376.551 1541.95 380.606 1544.12C384.661 1546.29 387.122 1547.74 387.991 1548.47L372.352 1574.64C371.194 1573.77 369.202 1572.51 366.379 1570.84C363.627 1569.18 360.333 1567.69 356.496 1566.39C352.731 1565.09 348.785 1564.43 344.658 1564.43C339.082 1564.43 334.557 1565.45 331.082 1567.47C327.679 1569.43 325.977 1572.36 325.977 1576.27C325.977 1578.95 326.882 1581.38 328.692 1583.55C330.575 1585.65 333.399 1587.68 337.164 1589.63C341.001 1591.52 345.852 1593.58 351.717 1595.82C357.075 1597.78 362.107 1600.1 366.813 1602.78C371.519 1605.45 375.646 1608.64 379.194 1612.33C382.814 1615.95 385.674 1620.15 387.774 1624.93C389.874 1629.71 390.924 1635.14 390.924 1641.23C390.924 1648.47 389.439 1654.77 386.471 1660.13C383.502 1665.41 379.448 1669.79 374.307 1673.27C369.239 1676.74 363.446 1679.31 356.93 1680.98C350.486 1682.72 343.789 1683.59 336.838 1683.59C326.991 1683.59 318.158 1682.46 310.338 1680.22C302.591 1677.97 296.328 1675.55 291.549 1672.94C286.77 1670.34 283.911 1668.6 282.969 1667.73L299.152 1640.47C300.02 1641.12 301.686 1642.17 304.147 1643.62C306.682 1645.06 309.759 1646.58 313.379 1648.18C316.999 1649.7 320.837 1651 324.891 1652.09C329.018 1653.17 333.073 1653.72 337.055 1653.72C343.716 1653.72 348.712 1652.45 352.043 1649.92C355.373 1647.31 357.039 1643.91 357.039 1639.71C357.039 1636.59 355.989 1633.8 353.889 1631.34C351.789 1628.88 348.64 1626.56 344.44 1624.39C340.241 1622.15 334.992 1619.79 328.692 1617.33C322.393 1614.8 316.492 1611.72 310.99 1608.1C305.559 1604.48 301.143 1599.95 297.74 1594.52C294.337 1589.09 292.635 1582.36 292.635 1574.32C292.635 1566.28 294.88 1559.33 299.369 1553.46C303.93 1547.53 309.904 1542.96 317.289 1539.78C324.746 1536.59 332.711 1535 341.182 1535Z" fill="#101010"/>
<path d="M503.238 1623.3H453.713V1680.98H421.349V1537.61H453.713V1594.96H503.238V1537.61H535.494V1680.98H503.238V1623.3Z" fill="#101010"/>
<path d="M572.131 1537.61H604.604V1680.98H572.131V1537.61Z" fill="#101010"/>
<path d="M687.038 1537.61H719.294L775.878 1680.98H741.232L730.806 1652.2H675.634L665.1 1680.98H630.346L687.038 1537.61ZM686.495 1623.74H720.054L703.438 1576.71H703.112L686.495 1623.74Z" fill="#101010"/>
<path d="M918.788 1535C927.694 1535 935.477 1535.98 942.138 1537.93C948.8 1539.89 954.158 1541.95 958.212 1544.12C962.267 1546.29 964.729 1547.74 965.597 1548.47L949.958 1574.64C948.8 1573.77 946.809 1572.51 943.985 1570.84C941.233 1569.18 937.939 1567.69 934.102 1566.39C930.337 1565.09 926.391 1564.43 922.264 1564.43C916.688 1564.43 912.163 1565.45 908.688 1567.47C905.285 1569.43 903.583 1572.36 903.583 1576.27C903.583 1578.95 904.488 1581.38 906.298 1583.55C908.181 1585.65 911.005 1587.68 914.77 1589.63C918.607 1591.52 923.458 1593.58 929.323 1595.82C934.681 1597.78 939.713 1600.1 944.419 1602.78C949.125 1605.45 953.252 1608.64 956.8 1612.33C960.42 1615.95 963.28 1620.15 965.38 1624.93C967.48 1629.71 968.53 1635.14 968.53 1641.23C968.53 1648.47 967.045 1654.77 964.077 1660.13C961.108 1665.41 957.054 1669.79 951.913 1673.27C946.845 1676.74 941.052 1679.31 934.536 1680.98C928.092 1682.72 921.395 1683.59 914.444 1683.59C904.597 1683.59 895.764 1682.46 887.944 1680.22C880.197 1677.97 873.934 1675.55 869.155 1672.94C864.376 1670.34 861.517 1668.6 860.575 1667.73L876.758 1640.47C877.626 1641.12 879.292 1642.17 881.753 1643.62C884.288 1645.06 887.365 1646.58 890.985 1648.18C894.605 1649.7 898.443 1651 902.497 1652.09C906.624 1653.17 910.679 1653.72 914.661 1653.72C921.322 1653.72 926.318 1652.45 929.649 1649.92C932.979 1647.31 934.645 1643.91 934.645 1639.71C934.645 1636.59 933.595 1633.8 931.495 1631.34C929.395 1628.88 926.246 1626.56 922.046 1624.39C917.847 1622.15 912.598 1619.79 906.298 1617.33C899.999 1614.8 894.098 1611.72 888.596 1608.1C883.165 1604.48 878.749 1599.95 875.346 1594.52C871.943 1589.09 870.241 1582.36 870.241 1574.32C870.241 1566.28 872.486 1559.33 876.975 1553.46C881.536 1547.53 887.51 1542.96 894.895 1539.78C902.352 1536.59 910.317 1535 918.788 1535Z" fill="#101010"/>
<path d="M1080.84 1623.3H1031.32V1680.98H998.955V1537.61H1031.32V1594.96H1080.84V1537.61H1113.1V1680.98H1080.84V1623.3Z" fill="#101010"/>
<path d="M1148.54 1537.61H1240.1V1566.06H1180.91V1595.28H1239.55V1622.87H1180.91V1652.52H1240.1V1680.98H1148.54V1537.61Z" fill="#101010"/>
<path d="M1276.3 1537.61H1308.78V1652.52H1360.8V1680.98H1276.3V1537.61Z" fill="#101010"/>
<path d="M1459.76 1680.98H1423.05L1372.01 1537.61H1408.61L1441.41 1639.6L1474.21 1537.61H1510.81L1459.76 1680.98Z" fill="#101010"/>
<path d="M1537.7 1537.61H1629.25V1566.06H1570.06V1595.28H1628.71V1622.87H1570.06V1652.52H1629.25V1680.98H1537.7V1537.61Z" fill="#101010"/>
<path d="M1716.83 1535C1725.74 1535 1733.52 1535.98 1740.18 1537.93C1746.84 1539.89 1752.2 1541.95 1756.25 1544.12C1760.31 1546.29 1762.77 1547.74 1763.64 1548.47L1748 1574.64C1746.84 1573.77 1744.85 1572.51 1742.03 1570.84C1739.28 1569.18 1735.98 1567.69 1732.14 1566.39C1728.38 1565.09 1724.43 1564.43 1720.31 1564.43C1714.73 1564.43 1710.21 1565.45 1706.73 1567.47C1703.33 1569.43 1701.63 1572.36 1701.63 1576.27C1701.63 1578.95 1702.53 1581.38 1704.34 1583.55C1706.22 1585.65 1709.05 1587.68 1712.81 1589.63C1716.65 1591.52 1721.5 1593.58 1727.37 1595.82C1732.72 1597.78 1737.76 1600.1 1742.46 1602.78C1747.17 1605.45 1751.29 1608.64 1754.84 1612.33C1758.46 1615.95 1761.32 1620.15 1763.42 1624.93C1765.52 1629.71 1766.57 1635.14 1766.57 1641.23C1766.57 1648.47 1765.09 1654.77 1762.12 1660.13C1759.15 1665.41 1755.1 1669.79 1749.96 1673.27C1744.89 1676.74 1739.09 1679.31 1732.58 1680.98C1726.13 1682.72 1719.44 1683.59 1712.49 1683.59C1702.64 1683.59 1693.81 1682.46 1685.99 1680.22C1678.24 1677.97 1671.98 1675.55 1667.2 1672.94C1662.42 1670.34 1659.56 1668.6 1658.62 1667.73L1674.8 1640.47C1675.67 1641.12 1677.33 1642.17 1679.8 1643.62C1682.33 1645.06 1685.41 1646.58 1689.03 1648.18C1692.65 1649.7 1696.49 1651 1700.54 1652.09C1704.67 1653.17 1708.72 1653.72 1712.7 1653.72C1719.36 1653.72 1724.36 1652.45 1727.69 1649.92C1731.02 1647.31 1732.69 1643.91 1732.69 1639.71C1732.69 1636.59 1731.64 1633.8 1729.54 1631.34C1727.44 1628.88 1724.29 1626.56 1720.09 1624.39C1715.89 1622.15 1710.64 1619.79 1704.34 1617.33C1698.04 1614.8 1692.14 1611.72 1686.64 1608.1C1681.21 1604.48 1676.79 1599.95 1673.39 1594.52C1669.99 1589.09 1668.28 1582.36 1668.28 1574.32C1668.28 1566.28 1670.53 1559.33 1675.02 1553.46C1679.58 1547.53 1685.55 1542.96 1692.94 1539.78C1700.39 1536.59 1708.36 1535 1716.83 1535Z" fill="#101010"/>
<path d="M595.931 1462.33C590.236 1462.33 584.829 1461.61 579.713 1460.16C574.596 1458.71 570.107 1456.59 566.246 1453.79C562.384 1450.89 559.343 1447.32 557.123 1443.07C554.902 1438.73 553.792 1433.71 553.792 1428.01C553.792 1421.54 555.24 1415.85 558.137 1410.92C561.129 1405.9 565.232 1401.7 570.445 1398.32C575.658 1394.94 581.74 1392.34 588.691 1390.5C595.738 1388.57 603.317 1387.46 611.426 1387.17L612.295 1409.47C607.082 1409.67 602.255 1410.25 597.814 1411.21C593.47 1412.08 589.656 1413.34 586.374 1414.98C583.092 1416.52 580.534 1418.4 578.699 1420.62C576.962 1422.85 576.093 1425.36 576.093 1428.16C576.093 1430.67 576.865 1432.84 578.41 1434.67C579.954 1436.41 582.223 1437.71 585.216 1438.58C588.208 1439.45 591.732 1439.89 595.787 1439.89C599.262 1439.89 602.496 1439.55 605.489 1438.87C608.578 1438.2 611.474 1437.23 614.177 1435.98L623.879 1456.11C619.632 1458.13 615.094 1459.68 610.267 1460.74C605.441 1461.8 600.662 1462.33 595.931 1462.33ZM645.745 1468.27C638.022 1468.27 631.458 1466.82 626.052 1463.93C620.742 1460.93 616.687 1456.64 613.888 1451.04C611.088 1445.34 609.688 1438.49 609.688 1430.47V1382.68H631.989V1430.47C631.989 1433.56 632.327 1436.02 633.002 1437.86C633.775 1439.6 635.126 1440.8 637.057 1441.48C639.084 1442.16 641.98 1442.49 645.745 1442.49H651.103V1468.27H645.745ZM651.103 1468.27V1442.49C651.972 1442.49 652.648 1443.65 653.131 1445.97C653.71 1448.29 653.999 1451.38 653.999 1455.24C653.999 1459.2 653.71 1462.38 653.131 1464.8C652.648 1467.11 651.972 1468.27 651.103 1468.27ZM604.475 1369.36C601.482 1369.36 598.972 1368.39 596.945 1366.46C595.014 1364.43 594.049 1361.92 594.049 1358.93C594.049 1355.84 595.014 1353.33 596.945 1351.4C598.972 1349.47 601.482 1348.5 604.475 1348.5C607.468 1348.5 609.93 1349.47 611.86 1351.4C613.888 1353.33 614.901 1355.84 614.901 1358.93C614.901 1361.92 613.888 1364.43 611.86 1366.46C609.93 1368.39 607.468 1369.36 604.475 1369.36ZM580.582 1369.36C577.589 1369.36 575.079 1368.39 573.052 1366.46C571.121 1364.43 570.156 1361.92 570.156 1358.93C570.156 1355.84 571.121 1353.33 573.052 1351.4C575.079 1349.47 577.589 1348.5 580.582 1348.5C583.671 1348.5 586.181 1349.47 588.112 1351.4C590.043 1353.33 591.008 1355.84 591.008 1358.93C591.008 1361.92 590.043 1364.43 588.112 1366.46C586.181 1368.39 583.671 1369.36 580.582 1369.36Z" fill="#101010"/>
<path d="M651.091 1468.27V1442.49H684.542C687.631 1442.49 690.913 1442.06 694.389 1441.19C697.96 1440.32 701.484 1439.16 704.959 1437.71C708.435 1436.27 711.572 1434.67 714.372 1432.93C717.268 1431.2 719.537 1429.51 721.178 1427.87C722.916 1426.13 723.785 1424.63 723.785 1423.38C723.785 1421.93 722.819 1420.58 720.888 1419.32C718.958 1418.07 716.206 1417 712.634 1416.14C709.159 1415.27 705.153 1414.83 700.615 1414.83C696.754 1414.83 693.085 1415.17 689.61 1415.85C686.231 1416.52 682.756 1417.54 679.184 1418.89L674.55 1424.1L661.662 1417.58L675.129 1395.57C678.991 1394.32 683.142 1393.25 687.583 1392.38C692.12 1391.52 697.092 1391.08 702.498 1391.08C711.186 1391.08 718.765 1392.24 725.233 1394.56C731.797 1396.78 736.914 1399.92 740.582 1403.97C744.251 1407.93 746.085 1412.66 746.085 1418.16C746.085 1422.7 744.83 1427.09 742.32 1431.34C739.907 1435.59 736.624 1439.55 732.473 1443.22C728.418 1446.89 723.785 1450.27 718.571 1453.35C713.358 1456.44 708 1459.1 702.498 1461.32C696.995 1463.54 691.589 1465.28 686.279 1466.53C681.066 1467.69 676.336 1468.27 672.088 1468.27H651.091ZM731.025 1468.27C719.344 1468.27 708.773 1466.2 699.312 1462.04C689.948 1457.8 682.032 1451.86 675.563 1444.23C669.095 1436.6 664.461 1427.72 661.662 1417.58L678.46 1409.04C679.618 1415.8 681.935 1421.69 685.41 1426.71C688.982 1431.73 693.52 1435.64 699.022 1438.44C704.525 1441.14 710.607 1442.49 717.268 1442.49H759.407V1468.27H731.025ZM759.407 1468.27V1442.49C760.276 1442.49 760.952 1443.65 761.435 1445.97C762.014 1448.29 762.304 1451.38 762.304 1455.24C762.304 1459.2 762.014 1462.38 761.435 1464.8C760.952 1467.11 760.276 1468.27 759.407 1468.27ZM651.091 1468.27C650.222 1468.27 649.546 1467.11 649.064 1464.8C648.484 1462.38 648.195 1459.2 648.195 1455.24C648.195 1451.38 648.484 1448.29 649.064 1445.97C649.546 1443.65 650.222 1442.49 651.091 1442.49V1468.27Z" fill="#101010"/>
<path d="M759.414 1468.27V1442.49H767.379C771.24 1442.49 774.136 1442.16 776.067 1441.48C777.998 1440.8 779.349 1439.6 780.122 1437.86C780.894 1436.02 781.28 1433.56 781.28 1430.47V1393.98H803.436V1430.47C803.436 1438.49 802.036 1445.29 799.236 1450.89C796.437 1456.49 792.334 1460.79 786.928 1463.78C781.618 1466.68 775.102 1468.18 767.379 1468.27H759.414ZM817.337 1468.27C809.518 1468.27 802.953 1466.82 797.643 1463.93C792.334 1460.93 788.279 1456.64 785.48 1451.04C782.68 1445.34 781.28 1438.49 781.28 1430.47H803.436C803.436 1433.56 803.774 1436.02 804.449 1437.86C805.222 1439.6 806.622 1440.8 808.649 1441.48C810.676 1442.16 813.572 1442.49 817.337 1442.49H822.55V1468.27H817.337ZM822.55 1468.27V1442.49C823.419 1442.49 824.095 1443.65 824.578 1445.97C825.157 1448.29 825.447 1451.38 825.447 1455.24C825.447 1459.2 825.157 1462.38 824.578 1464.8C824.095 1467.11 823.419 1468.27 822.55 1468.27ZM759.414 1468.27C758.545 1468.27 757.87 1467.11 757.387 1464.8C756.808 1462.38 756.518 1459.2 756.518 1455.24C756.518 1451.38 756.808 1448.29 757.387 1445.97C757.87 1443.65 758.545 1442.49 759.414 1442.49V1468.27ZM803.001 1503.32C800.009 1503.32 797.499 1502.3 795.471 1500.28C793.541 1498.35 792.575 1495.93 792.575 1493.04C792.575 1489.95 793.541 1487.39 795.471 1485.36C797.499 1483.43 800.009 1482.46 803.001 1482.46C805.994 1482.46 808.456 1483.43 810.387 1485.36C812.414 1487.39 813.428 1489.95 813.428 1493.04C813.428 1495.93 812.414 1498.35 810.387 1500.28C808.456 1502.3 805.994 1503.32 803.001 1503.32ZM779.108 1503.32C776.115 1503.32 773.605 1502.3 771.578 1500.28C769.647 1498.35 768.682 1495.93 768.682 1493.04C768.682 1489.95 769.647 1487.39 771.578 1485.36C773.605 1483.43 776.115 1482.46 779.108 1482.46C782.101 1482.46 784.562 1483.43 786.493 1485.36C788.521 1487.39 789.534 1489.95 789.534 1493.04C789.534 1495.93 788.521 1498.35 786.493 1500.28C784.562 1502.3 782.101 1503.32 779.108 1503.32Z" fill="#101010"/>
<path d="M971.348 1468.27C963.624 1468.27 957.06 1466.82 951.654 1463.93C946.344 1460.93 942.289 1456.64 939.49 1451.04C936.69 1445.34 935.29 1438.49 935.29 1430.47H957.591C957.591 1433.56 957.929 1436.02 958.604 1437.86C959.377 1439.6 960.728 1440.8 962.659 1441.48C964.686 1442.16 967.582 1442.49 971.348 1442.49H976.705V1468.27H971.348ZM822.485 1468.27C821.616 1468.27 820.94 1467.11 820.458 1464.8C819.878 1462.38 819.589 1459.2 819.589 1455.24C819.589 1451.38 819.878 1448.29 820.458 1445.97C820.94 1443.65 821.616 1442.49 822.485 1442.49V1468.27ZM927.615 1468.27C923.078 1468.27 918.686 1467.26 914.438 1465.23C910.19 1463.2 906.57 1460.02 903.577 1455.67C900.681 1451.33 898.944 1445.82 898.364 1439.16L911.107 1432.5C911.494 1436.07 912.893 1438.78 915.307 1440.61C917.817 1442.44 920.472 1443.36 923.271 1443.36C926.36 1443.36 929.112 1442.3 931.525 1440.18C934.035 1438.05 935.29 1434.82 935.29 1430.47V1393.98H957.591V1434.09C957.591 1441.91 956.094 1448.38 953.102 1453.5C950.206 1458.52 946.489 1462.24 941.951 1464.65C937.414 1467.06 932.635 1468.27 927.615 1468.27ZM822.485 1468.27V1442.49H830.449C834.214 1442.49 837.062 1442.16 838.993 1441.48C841.02 1440.8 842.372 1439.6 843.048 1437.86C843.82 1436.02 844.206 1433.56 844.206 1430.47V1408.17H866.506V1430.47C866.506 1438.49 865.107 1445.34 862.307 1451.04C859.507 1456.64 855.405 1460.93 849.998 1463.93C844.689 1466.82 838.172 1468.27 830.449 1468.27H822.485ZM882.291 1468.27C877.657 1468.27 873.216 1467.26 868.968 1465.23C864.817 1463.2 861.245 1460.02 858.252 1455.67C855.356 1451.33 853.57 1445.82 852.895 1439.16L865.782 1432.5C866.169 1436.07 867.568 1438.78 869.982 1440.61C872.395 1442.44 875.002 1443.36 877.802 1443.36C880.891 1443.36 883.642 1442.3 886.056 1440.18C888.566 1438.05 889.821 1434.82 889.821 1430.47V1401.07H912.121V1434.09C912.121 1441.91 910.673 1448.38 907.777 1453.5C904.881 1458.52 901.164 1462.24 896.627 1464.65C892.089 1467.06 887.311 1468.27 882.291 1468.27ZM976.705 1468.27V1442.49C977.574 1442.49 978.25 1443.65 978.733 1445.97C979.312 1448.29 979.602 1451.38 979.602 1455.24C979.602 1459.2 979.312 1462.38 978.733 1464.8C978.25 1467.11 977.574 1468.27 976.705 1468.27ZM900.826 1337.79C903.819 1337.79 906.232 1338.75 908.066 1340.68C909.997 1342.61 910.963 1345.03 910.963 1347.92C910.963 1350.92 909.997 1353.38 908.066 1355.31C906.232 1357.14 903.819 1358.06 900.826 1358.06C897.93 1358.06 895.516 1357.14 893.586 1355.31C891.655 1353.38 890.689 1350.92 890.689 1347.92C890.689 1345.03 891.655 1342.61 893.586 1340.68C895.516 1338.75 897.93 1337.79 900.826 1337.79ZM912.845 1358.79C915.838 1358.79 918.3 1359.75 920.23 1361.68C922.258 1363.61 923.271 1366.07 923.271 1369.07C923.271 1372.16 922.258 1374.72 920.23 1376.74C918.3 1378.67 915.838 1379.64 912.845 1379.64C909.852 1379.64 907.342 1378.67 905.315 1376.74C903.384 1374.72 902.419 1372.16 902.419 1369.07C902.419 1366.07 903.384 1363.61 905.315 1361.68C907.342 1359.75 909.852 1358.79 912.845 1358.79ZM888.952 1358.79C891.944 1358.79 894.406 1359.75 896.337 1361.68C898.364 1363.61 899.378 1366.07 899.378 1369.07C899.378 1372.16 898.364 1374.72 896.337 1376.74C894.406 1378.67 891.944 1379.64 888.952 1379.64C885.959 1379.64 883.449 1378.67 881.422 1376.74C879.491 1374.72 878.526 1372.16 878.526 1369.07C878.526 1366.07 879.491 1363.61 881.422 1361.68C883.449 1359.75 885.959 1358.79 888.952 1358.79Z" fill="#101010"/>
<path d="M976.768 1468.27V1442.49H997.33V1342.85H1019.63V1468.27H976.768ZM976.768 1468.27C975.899 1468.27 975.223 1467.11 974.74 1464.8C974.161 1462.38 973.871 1459.2 973.871 1455.24C973.871 1451.38 974.161 1448.29 974.74 1445.97C975.223 1443.65 975.899 1442.49 976.768 1442.49V1468.27Z" fill="#101010"/>
<path d="M1038.11 1468.27V1342.85H1060.41V1468.27H1038.11Z" fill="#101010"/>
<path d="M1207.58 1442.49V1468.27H1163.41C1155.4 1468.27 1148.4 1467.11 1142.41 1464.8C1136.52 1462.48 1131.65 1459.39 1127.79 1455.53C1124.02 1451.57 1121.17 1447.08 1119.24 1442.06C1117.41 1437.04 1116.49 1431.82 1116.49 1426.42C1116.49 1421.3 1117.27 1416.18 1118.81 1411.07C1120.35 1405.95 1122.62 1401.07 1125.62 1396.44L1142.99 1404.26C1141.35 1407.64 1140.1 1410.87 1139.23 1413.96C1138.46 1417.05 1138.07 1420 1138.07 1422.8C1138.07 1426.85 1138.94 1430.38 1140.68 1433.37C1142.51 1436.27 1145.26 1438.53 1148.93 1440.18C1152.6 1441.72 1157.23 1442.49 1162.83 1442.49H1207.58ZM1170.22 1468.27C1169.25 1468.27 1168.53 1467.11 1168.04 1464.8C1167.56 1462.38 1167.32 1459.2 1167.32 1455.24C1167.32 1451.38 1167.56 1448.29 1168.04 1445.97C1168.53 1443.65 1169.25 1442.49 1170.22 1442.49V1468.27ZM1170.22 1468.27V1442.49H1235.81V1398.18H1257.97V1468.27H1170.22ZM1208.74 1467.11C1204.49 1465.47 1200.63 1462.91 1197.15 1459.44C1193.77 1455.96 1191.07 1451.76 1189.04 1446.84C1187.01 1441.82 1186 1436.46 1186 1430.76C1186 1422.65 1187.83 1415.6 1191.5 1409.62C1195.27 1403.54 1200.29 1398.8 1206.56 1395.43C1212.84 1391.95 1219.74 1390.21 1227.27 1390.21C1232.97 1390.21 1238.47 1391.08 1243.78 1392.82C1249.09 1394.46 1253.82 1396.25 1257.97 1398.18L1248.85 1420.62C1244.6 1418.69 1240.54 1417.25 1236.68 1416.28C1232.92 1415.31 1229.35 1414.83 1225.97 1414.83C1221.91 1414.83 1218.39 1415.56 1215.4 1417C1212.4 1418.36 1210.09 1420.24 1208.45 1422.65C1206.8 1425.07 1205.98 1427.77 1205.98 1430.76C1205.98 1434.53 1206.9 1438.1 1208.74 1441.48C1210.67 1444.76 1213.18 1447.22 1216.27 1448.87L1208.74 1467.11ZM1222.93 1373.41C1219.26 1373.41 1216.22 1372.21 1213.8 1369.79C1211.39 1367.38 1210.18 1364.34 1210.18 1360.67C1210.18 1356.9 1211.39 1353.86 1213.8 1351.54C1216.22 1349.13 1219.26 1347.92 1222.93 1347.92C1226.69 1347.92 1229.73 1349.13 1232.05 1351.54C1234.46 1353.86 1235.67 1356.9 1235.67 1360.67C1235.67 1364.34 1234.46 1367.38 1232.05 1369.79C1229.73 1372.21 1226.69 1373.41 1222.93 1373.41Z" fill="#101010"/>
<path d="M1338.8 1468.27V1442.49H1360.66V1468.27H1338.8ZM1360.66 1468.27V1442.49C1361.53 1442.49 1362.21 1443.65 1362.69 1445.97C1363.27 1448.29 1363.56 1451.38 1363.56 1455.24C1363.56 1459.2 1363.27 1462.38 1362.69 1464.8C1362.21 1467.11 1361.53 1468.27 1360.66 1468.27ZM1277.98 1509.4V1483.62H1303.75C1310.42 1483.62 1315.05 1482.56 1317.66 1480.44C1320.26 1478.41 1321.57 1475.37 1321.57 1471.31V1398.18H1343.72V1471.31C1343.72 1479.13 1342.08 1485.89 1338.8 1491.59C1335.52 1497.38 1330.88 1501.77 1324.9 1504.77C1318.91 1507.86 1311.86 1509.4 1303.75 1509.4H1277.98ZM1312.88 1468.27C1304.57 1468.27 1297.33 1466.53 1291.16 1463.06C1284.98 1459.58 1280.2 1454.95 1276.82 1449.16C1273.44 1443.27 1271.75 1436.8 1271.75 1429.75C1271.75 1424.05 1272.81 1418.84 1274.94 1414.11C1277.06 1409.28 1280.01 1405.13 1283.77 1401.65C1287.63 1398.08 1292.07 1395.28 1297.09 1393.25C1302.11 1391.23 1307.47 1390.21 1313.17 1390.21C1318.77 1390.21 1324.22 1391.08 1329.53 1392.82C1334.84 1394.46 1339.57 1396.25 1343.72 1398.18L1334.6 1421.06C1326.49 1416.42 1319.35 1414.11 1313.17 1414.11C1309.31 1414.11 1305.93 1414.88 1303.03 1416.43C1300.23 1417.87 1298.01 1419.8 1296.37 1422.22C1294.82 1424.63 1294.05 1427.19 1294.05 1429.89C1294.05 1432.4 1294.78 1434.77 1296.22 1436.99C1297.67 1439.21 1299.8 1441 1302.6 1442.35C1305.49 1443.7 1308.92 1444.38 1312.88 1444.38H1335.9V1468.27H1312.88Z" fill="#101010"/>
<path d="M1360.71 1468.27V1442.49H1426.31V1398.18H1448.61V1468.27H1360.71ZM1399.37 1467.11C1395.03 1465.47 1391.12 1462.91 1387.64 1459.44C1384.26 1455.96 1381.56 1451.76 1379.53 1446.84C1377.6 1441.82 1376.64 1436.46 1376.64 1430.76C1376.64 1422.65 1378.47 1415.6 1382.14 1409.62C1385.9 1403.54 1390.92 1398.8 1397.2 1395.43C1403.47 1391.95 1410.38 1390.21 1417.91 1390.21C1423.6 1390.21 1429.1 1391.08 1434.41 1392.82C1439.72 1394.46 1444.45 1396.25 1448.61 1398.18L1439.48 1420.62C1435.14 1418.69 1431.04 1417.25 1427.17 1416.28C1423.41 1415.31 1419.89 1414.83 1416.6 1414.83C1412.45 1414.83 1408.88 1415.56 1405.89 1417C1402.89 1418.36 1400.58 1420.24 1398.94 1422.65C1397.39 1425.07 1396.62 1427.77 1396.62 1430.76C1396.62 1434.53 1397.54 1438.1 1399.37 1441.48C1401.21 1444.76 1403.72 1447.22 1406.9 1448.87L1399.37 1467.11ZM1360.71 1468.27C1359.84 1468.27 1359.16 1467.11 1358.68 1464.8C1358.1 1462.38 1357.81 1459.2 1357.81 1455.24C1357.81 1451.38 1358.1 1448.29 1358.68 1445.97C1359.16 1443.65 1359.84 1442.49 1360.71 1442.49V1468.27ZM1417.91 1373.41C1414.24 1373.41 1411.2 1372.21 1408.78 1369.79C1406.37 1367.38 1405.16 1364.34 1405.16 1360.67C1405.16 1356.9 1406.37 1353.86 1408.78 1351.54C1411.2 1349.13 1414.24 1347.92 1417.91 1347.92C1421.67 1347.92 1424.71 1349.13 1427.03 1351.54C1429.44 1353.86 1430.65 1356.9 1430.65 1360.67C1430.65 1364.34 1429.44 1367.38 1427.03 1369.79C1424.71 1372.21 1421.67 1373.41 1417.91 1373.41Z" fill="#101010"/>
<path d="M1455.31 1484.64C1460.24 1484.54 1464.05 1484.01 1466.75 1483.04C1469.55 1482.08 1471.53 1480.58 1472.69 1478.55C1473.85 1476.62 1474.43 1474.16 1474.43 1471.17V1393.98H1496.73V1471.17C1496.73 1478.7 1495.18 1485.26 1492.09 1490.86C1489.1 1496.46 1484.81 1500.81 1479.21 1503.9C1473.7 1507.08 1467.14 1508.87 1459.51 1509.26L1455.31 1484.64Z" fill="#101010"/>
<path fill-rule="evenodd" clip-rule="evenodd" d="M272.808 1714.92L1784.24 1714.92V1728.5L272.808 1728.5V1714.92Z" fill="#101010"/>
</svg>
